0
SECTION
2
HEADER
9
$ACADVER
1
AC1027
9
$INSUNITS
70
4.0
9
$MEASUREMENT
70
1.0
0
ENDSEC
0
SECTION
2
TABLES
0
TABLE
2
LAYER
0
LAYER
2
0
70
0.0
62
7.0
0
LAYER
2
BIN_BOUNDARY
70
0.0
62
5.0
0
ENDTAB
0
ENDSEC
0
SECTION
2
ENTITIES
0
CIRCLE
5
1
100
AcDbEntity
8
0
62
7.0
100
AcDbCircle
10
50.100616455078125
20
50.10774612426758
40
35.00000000000001
0
LINE
5
2
100
AcDbEntity
8
0
62
7.0
100
AcDbLine
10
100.10061645507813
20
100.10774612426758
11
0.1006164550781179
21
100.10774612426758
0
LINE
5
3
100
AcDbEntity
8
0
62
7.0
100
AcDbLine
10
100.10061645507813
20
100.10774612426758
11
100.10061645507813
21
0.10774612426758523
0
LINE
5
4
100
AcDbEntity
8
0
62
7.0
100
AcDbLine
10
100.10061645507813
20
0.10774612426758523
11
0.1006164550781321
21
0.10774612426757102
0
LINE
5
5
100
AcDbEntity
8
0
62
7.0
100
AcDbLine
10
0.1006164550781179
20
100.10774612426758
11
0.1006164550781321
21
0.10774612426757102
0
POINT
5
6
100
AcDbEntity
8
0
62
7.0
100
AcDbPoint
10
50.100616455078125
20
50.10774612426758
0
CIRCLE
5
7
100
AcDbEntity
8
0
62
7.0
100
AcDbCircle
10
50.10055160522461
20
150.22146606445313
40
35.00000000000001
0
LINE
5
8
100
AcDbEntity
8
0
62
7.0
100
AcDbLine
10
0.10055160522460938
20
200.22146606445313
11
0.10055160522460938
21
100.22146606445313
0
LINE
5
9
100
AcDbEntity
8
0
62
7.0
100
AcDbLine
10
0.10055160522460938
20
200.22146606445313
11
100.10055160522461
21
200.22146606445313
0
LINE
5
A
100
AcDbEntity
8
0
62
7.0
100
AcDbLine
10
100.10055160522461
20
200.22146606445313
11
100.10055160522461
21
100.22146606445313
0
LINE
5
B
100
AcDbEntity
8
0
62
7.0
100
AcDbLine
10
0.10055160522460938
20
100.22146606445313
11
100.10055160522461
21
100.22146606445313
0
POINT
5
C
100
AcDbEntity
8
0
62
7.0
100
AcDbPoint
10
50.10055160522461
20
150.22146606445313
0
CIRCLE
5
D
100
AcDbEntity
8
0
62
7.0
100
AcDbCircle
10
50.109107971191406
20
250.3246154785156
40
35.00000000000001
0
LINE
5
E
100
AcDbEntity
8
0
62
7.0
100
AcDbLine
10
0.10910797119140625
20
200.3246154785156
11
100.1091079711914
21
200.3246154785156
0
LINE
5
F
100
AcDbEntity
8
0
62
7.0
100
AcDbLine
10
0.10910797119140625
20
200.3246154785156
11
0.10910797119140625
21
300.3246154785156
0
LINE
5
10
100
AcDbEntity
8
0
62
7.0
100
AcDbLine
10
0.10910797119140625
20
300.3246154785156
11
100.1091079711914
21
300.3246154785156
0
LINE
5
11
100
AcDbEntity
8
0
62
7.0
100
AcDbLine
10
100.1091079711914
20
200.3246154785156
11
100.1091079711914
21
300.3246154785156
0
POINT
5
12
100
AcDbEntity
8
0
62
7.0
100
AcDbPoint
10
50.109107971191406
20
250.3246154785156
0
CIRCLE
5
13
100
AcDbEntity
8
0
62
7.0
100
AcDbCircle
10
50.109893798828125
20
350.4320983886719
40
35.00000000000001
0
LINE
5
14
100
AcDbEntity
8
0
62
7.0
100
AcDbLine
10
0.109893798828125
20
300.4320983886719
11
100.10989379882813
21
300.4320983886719
0
LINE
5
15
100
AcDbEntity
8
0
62
7.0
100
AcDbLine
10
0.109893798828125
20
300.4320983886719
11
0.109893798828125
21
400.4320983886719
0
LINE
5
16
100
AcDbEntity
8
0
62
7.0
100
AcDbLine
10
0.109893798828125
20
400.4320983886719
11
100.10989379882813
21
400.4320983886719
0
LINE
5
17
100
AcDbEntity
8
0
62
7.0
100
AcDbLine
10
100.10989379882813
20
300.4320983886719
11
100.10989379882813
21
400.4320983886719
0
POINT
5
18
100
AcDbEntity
8
0
62
7.0
100
AcDbPoint
10
50.109893798828125
20
350.4320983886719
0
CIRCLE
5
19
100
AcDbEntity
8
0
62
7.0
100
AcDbCircle
10
50.11140060424805
20
450.5379028320313
40
35.00000000000001
0
LINE
5
1A
100
AcDbEntity
8
0
62
7.0
100
AcDbLine
10
100.11140060424805
20
500.5379028320313
11
0.11140060424803977
21
500.5379028320313
0
LINE
5
1B
100
AcDbEntity
8
0
62
7.0
100
AcDbLine
10
100.11140060424805
20
500.5379028320313
11
100.11140060424805
21
400.5379028320313
0
LINE
5
1C
100
AcDbEntity
8
0
62
7.0
100
AcDbLine
10
100.11140060424805
20
400.5379028320313
11
0.11140060424805398
21
400.5379028320313
0
LINE
5
1D
100
AcDbEntity
8
0
62
7.0
100
AcDbLine
10
0.11140060424803977
20
500.5379028320313
11
0.11140060424805398
21
400.5379028320313
0
POINT
5
1E
100
AcDbEntity
8
0
62
7.0
100
AcDbPoint
10
50.11140060424805
20
450.5379028320313
0
CIRCLE
5
1F
100
AcDbEntity
8
0
62
7.0
100
AcDbCircle
10
50.105751037597656
20
550.6394653320313
40
35.00000000000001
0
LINE
5
20
100
AcDbEntity
8
0
62
7.0
100
AcDbLine
10
100.10575103759766
20
600.6394653320313
11
0.10575103759764914
21
600.6394653320313
0
LINE
5
21
100
AcDbEntity
8
0
62
7.0
100
AcDbLine
10
100.10575103759766
20
600.6394653320313
11
100.10575103759766
21
500.63946533203125
0
LINE
5
22
100
AcDbEntity
8
0
62
7.0
100
AcDbLine
10
100.10575103759766
20
500.63946533203125
11
0.10575103759766336
21
500.63946533203125
0
LINE
5
23
100
AcDbEntity
8
0
62
7.0
100
AcDbLine
10
0.10575103759764914
20
600.6394653320313
11
0.10575103759766336
21
500.63946533203125
0
POINT
5
24
100
AcDbEntity
8
0
62
7.0
100
AcDbPoint
10
50.105751037597656
20
550.6394653320313
0
CIRCLE
5
25
100
AcDbEntity
8
0
62
7.0
100
AcDbCircle
10
50.1066780090332
20
650.74267578125
40
35.00000000000001
0
LINE
5
26
100
AcDbEntity
8
0
62
7.0
100
AcDbLine
10
0.10667800903320313
20
700.74267578125
11
0.10667800903320313
21
600.74267578125
0
LINE
5
27
100
AcDbEntity
8
0
62
7.0
100
AcDbLine
10
0.10667800903320313
20
700.74267578125
11
100.1066780090332
21
700.74267578125
0
LINE
5
28
100
AcDbEntity
8
0
62
7.0
100
AcDbLine
10
100.1066780090332
20
700.74267578125
11
100.1066780090332
21
600.74267578125
0
LINE
5
29
100
AcDbEntity
8
0
62
7.0
100
AcDbLine
10
0.10667800903320313
20
600.74267578125
11
100.1066780090332
21
600.74267578125
0
POINT
5
2A
100
AcDbEntity
8
0
62
7.0
100
AcDbPoint
10
50.1066780090332
20
650.74267578125
0
CIRCLE
5
2B
100
AcDbEntity
8
0
62
7.0
100
AcDbCircle
10
50.10062026977539
20
750.8441162109375
40
35.00000000000001
0
LINE
5
2C
100
AcDbEntity
8
0
62
7.0
100
AcDbLine
10
100.10062026977539
20
800.8441162109375
11
0.10062026977538352
21
800.8441162109375
0
LINE
5
2D
100
AcDbEntity
8
0
62
7.0
100
AcDbLine
10
100.10062026977539
20
800.8441162109375
11
100.10062026977539
21
700.8441162109375
0
LINE
5
2E
100
AcDbEntity
8
0
62
7.0
100
AcDbLine
10
100.10062026977539
20
700.8441162109375
11
0.10062026977539773
21
700.8441162109375
0
LINE
5
2F
100
AcDbEntity
8
0
62
7.0
100
AcDbLine
10
0.10062026977538352
20
800.8441162109375
11
0.10062026977539773
21
700.8441162109375
0
POINT
5
30
100
AcDbEntity
8
0
62
7.0
100
AcDbPoint
10
50.10062026977539
20
750.8441162109375
0
CIRCLE
5
31
100
AcDbEntity
8
0
62
7.0
100
AcDbCircle
10
50.110374450683594
20
850.9474487304688
40
35.00000000000001
0
LINE
5
32
100
AcDbEntity
8
0
62
7.0
100
AcDbLine
10
100.1103744506836
20
800.9474487304688
11
100.1103744506836
21
900.9474487304688
0
LINE
5
33
100
AcDbEntity
8
0
62
7.0
100
AcDbLine
10
100.1103744506836
20
800.9474487304688
11
0.11037445068359375
21
800.9474487304688
0
LINE
5
34
100
AcDbEntity
8
0
62
7.0
100
AcDbLine
10
0.11037445068359375
20
800.9474487304688
11
0.11037445068359375
21
900.9474487304688
0
LINE
5
35
100
AcDbEntity
8
0
62
7.0
100
AcDbLine
10
100.1103744506836
20
900.9474487304688
11
0.11037445068359375
21
900.9474487304688
0
POINT
5
36
100
AcDbEntity
8
0
62
7.0
100
AcDbPoint
10
50.110374450683594
20
850.9474487304688
0
CIRCLE
5
37
100
AcDbEntity
8
0
62
7.0
100
AcDbCircle
10
150.20498657226563
20
50.2852897644043
40
35.00000000000001
0
LINE
5
38
100
AcDbEntity
8
0
62
7.0
100
AcDbLine
10
100.20498657226563
20
0.2852897644042969
11
200.20498657226563
21
0.2852897644042969
0
LINE
5
39
100
AcDbEntity
8
0
62
7.0
100
AcDbLine
10
100.20498657226563
20
0.2852897644042969
11
100.20498657226563
21
100.2852897644043
0
LINE
5
3A
100
AcDbEntity
8
0
62
7.0
100
AcDbLine
10
100.20498657226563
20
100.2852897644043
11
200.20498657226563
21
100.2852897644043
0
LINE
5
3B
100
AcDbEntity
8
0
62
7.0
100
AcDbLine
10
200.20498657226563
20
0.2852897644042969
11
200.20498657226563
21
100.2852897644043
0
POINT
5
3C
100
AcDbEntity
8
0
62
7.0
100
AcDbPoint
10
150.20498657226563
20
50.2852897644043
0
CIRCLE
5
3D
100
AcDbEntity
8
0
62
7.0
100
AcDbCircle
10
150.21292114257813
20
150.38800048828125
40
35.00000000000001
0
LINE
5
3E
100
AcDbEntity
8
0
62
7.0
100
AcDbLine
10
100.21292114257813
20
100.38800048828125
11
200.21292114257813
21
100.38800048828125
0
LINE
5
3F
100
AcDbEntity
8
0
62
7.0
100
AcDbLine
10
100.21292114257813
20
100.38800048828125
11
100.21292114257813
21
200.38800048828125
0
LINE
5
40
100
AcDbEntity
8
0
62
7.0
100
AcDbLine
10
100.21292114257813
20
200.38800048828125
11
200.21292114257813
21
200.38800048828125
0
LINE
5
41
100
AcDbEntity
8
0
62
7.0
100
AcDbLine
10
200.21292114257813
20
100.38800048828125
11
200.21292114257813
21
200.38800048828125
0
POINT
5
42
100
AcDbEntity
8
0
62
7.0
100
AcDbPoint
10
150.21292114257813
20
150.38800048828125
0
CIRCLE
5
43
100
AcDbEntity
8
0
62
7.0
100
AcDbCircle
10
150.21694946289063
20
250.4945526123047
40
35.00000000000001
0
LINE
5
44
100
AcDbEntity
8
0
62
7.0
100
AcDbLine
10
100.21694946289063
20
300.4945526123047
11
100.21694946289063
21
200.4945526123047
0
LINE
5
45
100
AcDbEntity
8
0
62
7.0
100
AcDbLine
10
100.21694946289063
20
300.4945526123047
11
200.21694946289063
21
300.4945526123047
0
LINE
5
46
100
AcDbEntity
8
0
62
7.0
100
AcDbLine
10
200.21694946289063
20
300.4945526123047
11
200.21694946289063
21
200.4945526123047
0
LINE
5
47
100
AcDbEntity
8
0
62
7.0
100
AcDbLine
10
100.21694946289063
20
200.4945526123047
11
200.21694946289063
21
200.4945526123047
0
POINT
5
48
100
AcDbEntity
8
0
62
7.0
100
AcDbPoint
10
150.21694946289063
20
250.4945526123047
0
CIRCLE
5
49
100
AcDbEntity
8
0
62
7.0
100
AcDbCircle
10
150.21246337890625
20
350.59912109375
40
35.00000000000001
0
LINE
5
4A
100
AcDbEntity
8
0
62
7.0
100
AcDbLine
10
200.21246337890625
20
400.59912109375
11
100.21246337890625
21
400.59912109375
0
LINE
5
4B
100
AcDbEntity
8
0
62
7.0
100
AcDbLine
10
200.21246337890625
20
400.59912109375
11
200.21246337890625
21
300.59912109375
0
LINE
5
4C
100
AcDbEntity
8
0
62
7.0
100
AcDbLine
10
200.21246337890625
20
300.59912109375
11
100.21246337890625
21
300.59912109375
0
LINE
5
4D
100
AcDbEntity
8
0
62
7.0
100
AcDbLine
10
100.21246337890625
20
400.59912109375
11
100.21246337890625
21
300.59912109375
0
POINT
5
4E
100
AcDbEntity
8
0
62
7.0
100
AcDbPoint
10
150.21246337890625
20
350.59912109375
0
CIRCLE
5
4F
100
AcDbEntity
8
0
62
7.0
100
AcDbCircle
10
150.2153778076172
20
450.7095642089844
40
35.00000000000001
0
LINE
5
50
100
AcDbEntity
8
0
62
7.0
100
AcDbLine
10
200.2153778076172
20
500.7095642089844
11
100.21537780761719
21
500.7095642089844
0
LINE
5
51
100
AcDbEntity
8
0
62
7.0
100
AcDbLine
10
200.2153778076172
20
500.7095642089844
11
200.2153778076172
21
400.7095642089844
0
LINE
5
52
100
AcDbEntity
8
0
62
7.0
100
AcDbLine
10
200.2153778076172
20
400.7095642089844
11
100.21537780761719
21
400.7095642089844
0
LINE
5
53
100
AcDbEntity
8
0
62
7.0
100
AcDbLine
10
100.21537780761719
20
500.7095642089844
11
100.21537780761719
21
400.7095642089844
0
POINT
5
54
100
AcDbEntity
8
0
62
7.0
100
AcDbPoint
10
150.2153778076172
20
450.7095642089844
0
CIRCLE
5
55
100
AcDbEntity
8
0
62
7.0
100
AcDbCircle
10
150.2068328857422
20
550.809814453125
40
35.00000000000001
0
LINE
5
56
100
AcDbEntity
8
0
62
7.0
100
AcDbLine
10
200.2068328857422
20
500.809814453125
11
200.2068328857422
21
600.809814453125
0
LINE
5
57
100
AcDbEntity
8
0
62
7.0
100
AcDbLine
10
200.2068328857422
20
500.809814453125
11
100.20683288574219
21
500.809814453125
0
LINE
5
58
100
AcDbEntity
8
0
62
7.0
100
AcDbLine
10
100.20683288574219
20
500.809814453125
11
100.20683288574219
21
600.809814453125
0
LINE
5
59
100
AcDbEntity
8
0
62
7.0
100
AcDbLine
10
200.2068328857422
20
600.809814453125
11
100.20683288574219
21
600.809814453125
0
POINT
5
5A
100
AcDbEntity
8
0
62
7.0
100
AcDbPoint
10
150.2068328857422
20
550.809814453125
0
CIRCLE
5
5B
100
AcDbEntity
8
0
62
7.0
100
AcDbCircle
10
150.21554565429688
20
650.9248657226563
40
35.00000000000001
0
LINE
5
5C
100
AcDbEntity
8
0
62
7.0
100
AcDbLine
10
200.21554565429688
20
600.9248657226563
11
200.21554565429688
21
700.9248657226563
0
LINE
5
5D
100
AcDbEntity
8
0
62
7.0
100
AcDbLine
10
200.21554565429688
20
600.9248657226563
11
100.21554565429688
21
600.9248657226563
0
LINE
5
5E
100
AcDbEntity
8
0
62
7.0
100
AcDbLine
10
100.21554565429688
20
600.9248657226563
11
100.21554565429688
21
700.9248657226563
0
LINE
5
5F
100
AcDbEntity
8
0
62
7.0
100
AcDbLine
10
200.21554565429688
20
700.9248657226563
11
100.21554565429688
21
700.9248657226563
0
POINT
5
60
100
AcDbEntity
8
0
62
7.0
100
AcDbPoint
10
150.21554565429688
20
650.9248657226563
0
CIRCLE
5
61
100
AcDbEntity
8
0
62
7.0
100
AcDbCircle
10
150.21376037597656
20
751.0260009765625
40
35.00000000000001
0
LINE
5
62
100
AcDbEntity
8
0
62
7.0
100
AcDbLine
10
100.21376037597656
20
701.0260009765625
11
200.21376037597656
21
701.0260009765625
0
LINE
5
63
100
AcDbEntity
8
0
62
7.0
100
AcDbLine
10
100.21376037597656
20
701.0260009765625
11
100.21376037597656
21
801.0260009765625
0
LINE
5
64
100
AcDbEntity
8
0
62
7.0
100
AcDbLine
10
100.21376037597656
20
801.0260009765625
11
200.21376037597656
21
801.0260009765625
0
LINE
5
65
100
AcDbEntity
8
0
62
7.0
100
AcDbLine
10
200.21376037597656
20
701.0260009765625
11
200.21376037597656
21
801.0260009765625
0
POINT
5
66
100
AcDbEntity
8
0
62
7.0
100
AcDbPoint
10
150.21376037597656
20
751.0260009765625
0
CIRCLE
5
67
100
AcDbEntity
8
0
62
7.0
100
AcDbCircle
10
150.21383666992188
20
851.1561279296875
40
35.00000000000001
0
LINE
5
68
100
AcDbEntity
8
0
62
7.0
100
AcDbLine
10
200.21383666992188
20
901.1561279296875
11
100.21383666992188
21
901.1561279296875
0
LINE
5
69
100
AcDbEntity
8
0
62
7.0
100
AcDbLine
10
200.21383666992188
20
901.1561279296875
11
200.21383666992188
21
801.1561279296875
0
LINE
5
6A
100
AcDbEntity
8
0
62
7.0
100
AcDbLine
10
200.21383666992188
20
801.1561279296875
11
100.21383666992188
21
801.1561279296875
0
LINE
5
6B
100
AcDbEntity
8
0
62
7.0
100
AcDbLine
10
100.21383666992188
20
901.1561279296875
11
100.21383666992188
21
801.1561279296875
0
POINT
5
6C
100
AcDbEntity
8
0
62
7.0
100
AcDbPoint
10
150.21383666992188
20
851.1561279296875
0
CIRCLE
5
6D
100
AcDbEntity
8
0
62
7.0
100
AcDbCircle
10
250.3097991943359
20
50.21123504638672
40
35.00000000000001
0
LINE
5
6E
100
AcDbEntity
8
0
62
7.0
100
AcDbLine
10
300.3097991943359
20
100.21123504638672
11
200.3097991943359
21
100.21123504638672
0
LINE
5
6F
100
AcDbEntity
8
0
62
7.0
100
AcDbLine
10
300.3097991943359
20
100.21123504638672
11
300.30979919433594
21
0.21123504638672586
0
LINE
5
70
100
AcDbEntity
8
0
62
7.0
100
AcDbLine
10
300.30979919433594
20
0.21123504638672586
11
200.3097991943359
21
0.21123504638671164
0
LINE
5
71
100
AcDbEntity
8
0
62
7.0
100
AcDbLine
10
200.3097991943359
20
100.21123504638672
11
200.3097991943359
21
0.21123504638671164
0
POINT
5
72
100
AcDbEntity
8
0
62
7.0
100
AcDbPoint
10
250.3097991943359
20
50.21123504638672
0
ARC
5
73
100
AcDbEntity
8
0
62
7.0
100
AcDbCircle
10
50.100616455078125
20
47.27931899956758
40
28.0
50
-135.0
51
-45.0
0
LINE
5
74
100
AcDbEntity
8
0
62
7.0
100
AcDbLine
10
50.100616455078125
20
47.27931899956758
11
69.89960632827813
21
27.48032912626758
0
LINE
5
75
100
AcDbEntity
8
0
62
7.0
100
AcDbLine
10
30.30162658187813
20
27.480329126267574
11
50.100616455078125
21
47.27931899956758
0
ARC
5
76
100
AcDbEntity
8
0
62
7.0
100
AcDbCircle
10
52.929043579778124
20
50.10774612426758
40
28.0
50
-45.0
51
45.0
0
LINE
5
77
100
AcDbEntity
8
0
62
7.0
100
AcDbLine
10
52.929043579778124
20
50.10774612426758
11
72.72803345307813
21
69.90673599746758
0
LINE
5
78
100
AcDbEntity
8
0
62
7.0
100
AcDbLine
10
72.72803345307813
20
30.308756251067578
11
52.929043579778124
21
50.10774612426758
0
ARC
5
79
100
AcDbEntity
8
0
62
7.0
100
AcDbCircle
10
50.100616455078125
20
52.93617324896758
40
28.0
50
45.0
51
135.0
0
LINE
5
7A
100
AcDbEntity
8
0
62
7.0
100
AcDbLine
10
50.100616455078125
20
52.93617324896758
11
30.301626581878125
21
72.73516312226758
0
LINE
5
7B
100
AcDbEntity
8
0
62
7.0
100
AcDbLine
10
69.89960632827813
20
72.73516312226758
11
50.100616455078125
21
52.93617324896758
0
ARC
5
7C
100
AcDbEntity
8
0
62
7.0
100
AcDbCircle
10
47.272189330378126
20
50.10774612426758
40
28.0
50
135.0
51
225.0
0
LINE
5
7D
100
AcDbEntity
8
0
62
7.0
100
AcDbLine
10
47.272189330378126
20
50.10774612426758
11
27.473199457078124
21
30.308756251067578
0
LINE
5
7E
100
AcDbEntity
8
0
62
7.0
100
AcDbLine
10
27.473199457078124
20
69.90673599746758
11
47.272189330378126
21
50.10774612426758
0
ARC
5
7F
100
AcDbEntity
8
0
62
7.0
100
AcDbCircle
10
52.92897872992461
20
150.22146606445313
40
28.0
50
-45.0
51
45.0
0
LINE
5
80
100
AcDbEntity
8
0
62
7.0
100
AcDbLine
10
52.92897872992461
20
150.22146606445313
11
72.72796860322461
21
170.02045593765314
0
LINE
5
81
100
AcDbEntity
8
0
62
7.0
100
AcDbLine
10
72.72796860322461
20
130.4224761912531
11
52.92897872992461
21
150.22146606445313
0
ARC
5
82
100
AcDbEntity
8
0
62
7.0
100
AcDbCircle
10
50.10055160522461
20
153.04989318915312
40
28.0
50
45.0
51
135.0
0
LINE
5
83
100
AcDbEntity
8
0
62
7.0
100
AcDbLine
10
50.10055160522461
20
153.04989318915312
11
30.30156173202461
21
172.84888306245313
0
LINE
5
84
100
AcDbEntity
8
0
62
7.0
100
AcDbLine
10
69.89954147842461
20
172.84888306245313
11
50.10055160522461
21
153.04989318915312
0
ARC
5
85
100
AcDbEntity
8
0
62
7.0
100
AcDbCircle
10
47.27212448052461
20
150.22146606445313
40
28.0
50
135.0
51
225.0
0
LINE
5
86
100
AcDbEntity
8
0
62
7.0
100
AcDbLine
10
47.27212448052461
20
150.22146606445313
11
27.47313460722461
21
130.4224761912531
0
LINE
5
87
100
AcDbEntity
8
0
62
7.0
100
AcDbLine
10
27.47313460722461
20
170.02045593765314
11
47.27212448052461
21
150.22146606445313
0
ARC
5
88
100
AcDbEntity
8
0
62
7.0
100
AcDbCircle
10
50.10055160522461
20
147.39303893975313
40
28.0
50
225.0
51
315.0
0
LINE
5
89
100
AcDbEntity
8
0
62
7.0
100
AcDbLine
10
50.10055160522461
20
147.39303893975313
11
69.89954147842461
21
127.59404906645312
0
LINE
5
8A
100
AcDbEntity
8
0
62
7.0
100
AcDbLine
10
30.301561732024606
20
127.59404906645312
11
50.10055160522461
21
147.39303893975313
0
ARC
5
8B
100
AcDbEntity
8
0
62
7.0
100
AcDbCircle
10
50.109107971191406
20
253.1530426032156
40
28.0
50
45.0
51
135.0
0
LINE
5
8C
100
AcDbEntity
8
0
62
7.0
100
AcDbLine
10
50.109107971191406
20
253.1530426032156
11
30.310118097991406
21
272.95203247651557
0
LINE
5
8D
100
AcDbEntity
8
0
62
7.0
100
AcDbLine
10
69.9080978443914
20
272.95203247651557
11
50.109107971191406
21
253.1530426032156
0
ARC
5
8E
100
AcDbEntity
8
0
62
7.0
100
AcDbCircle
10
47.28068084649141
20
250.3246154785156
40
28.0
50
135.0
51
225.0
0
LINE
5
8F
100
AcDbEntity
8
0
62
7.0
100
AcDbLine
10
47.28068084649141
20
250.3246154785156
11
27.481690973191405
21
230.5256256053156
0
LINE
5
90
100
AcDbEntity
8
0
62
7.0
100
AcDbLine
10
27.481690973191405
20
270.1236053517156
11
47.28068084649141
21
250.3246154785156
0
ARC
5
91
100
AcDbEntity
8
0
62
7.0
100
AcDbCircle
10
50.109107971191406
20
247.4961883538156
40
28.0
50
225.0
51
315.0
0
LINE
5
92
100
AcDbEntity
8
0
62
7.0
100
AcDbLine
10
50.109107971191406
20
247.4961883538156
11
69.9080978443914
21
227.6971984805156
0
LINE
5
93
100
AcDbEntity
8
0
62
7.0
100
AcDbLine
10
30.310118097991403
20
227.6971984805156
11
50.109107971191406
21
247.4961883538156
0
ARC
5
94
100
AcDbEntity
8
0
62
7.0
100
AcDbCircle
10
52.937535095891405
20
250.3246154785156
40
28.0
50
315.0
51
405.0
0
LINE
5
95
100
AcDbEntity
8
0
62
7.0
100
AcDbLine
10
52.937535095891405
20
250.3246154785156
11
72.73652496919141
21
270.1236053517156
0
LINE
5
96
100
AcDbEntity
8
0
62
7.0
100
AcDbLine
10
72.73652496919141
20
230.52562560531558
11
52.937535095891405
21
250.3246154785156
0
ARC
5
97
100
AcDbEntity
8
0
62
7.0
100
AcDbCircle
10
50.109893798828125
20
353.2605255133719
40
28.0
50
45.0
51
135.0
0
LINE
5
98
100
AcDbEntity
8
0
62
7.0
100
AcDbLine
10
50.109893798828125
20
353.2605255133719
11
30.310903925628125
21
373.0595153866719
0
LINE
5
99
100
AcDbEntity
8
0
62
7.0
100
AcDbLine
10
69.90888367202813
20
373.0595153866719
11
50.109893798828125
21
353.2605255133719
0
ARC
5
9A
100
AcDbEntity
8
0
62
7.0
100
AcDbCircle
10
47.281466674128126
20
350.4320983886719
40
28.0
50
135.0
51
225.0
0
LINE
5
9B
100
AcDbEntity
8
0
62
7.0
100
AcDbLine
10
47.281466674128126
20
350.4320983886719
11
27.482476800828124
21
330.63310851547186
0
LINE
5
9C
100
AcDbEntity
8
0
62
7.0
100
AcDbLine
10
27.482476800828124
20
370.2310882618719
11
47.281466674128126
21
350.4320983886719
0
ARC
5
9D
100
AcDbEntity
8
0
62
7.0
100
AcDbCircle
10
50.109893798828125
20
347.6036712639719
40
28.0
50
225.0
51
315.0
0
LINE
5
9E
100
AcDbEntity
8
0
62
7.0
100
AcDbLine
10
50.109893798828125
20
347.6036712639719
11
69.90888367202813
21
327.8046813906719
0
LINE
5
9F
100
AcDbEntity
8
0
62
7.0
100
AcDbLine
10
30.31090392562812
20
327.8046813906719
11
50.109893798828125
21
347.6036712639719
0
ARC
5
A0
100
AcDbEntity
8
0
62
7.0
100
AcDbCircle
10
52.938320923528124
20
350.4320983886719
40
28.0
50
315.0
51
405.0
0
LINE
5
A1
100
AcDbEntity
8
0
62
7.0
100
AcDbLine
10
52.938320923528124
20
350.4320983886719
11
72.73731079682813
21
370.2310882618719
0
LINE
5
A2
100
AcDbEntity
8
0
62
7.0
100
AcDbLine
10
72.73731079682813
20
330.63310851547186
11
52.938320923528124
21
350.4320983886719
0
ARC
5
A3
100
AcDbEntity
8
0
62
7.0
100
AcDbCircle
10
50.11140060424805
20
447.7094757073313
40
28.0
50
-135.0
51
-45.0
0
LINE
5
A4
100
AcDbEntity
8
0
62
7.0
100
AcDbLine
10
50.11140060424805
20
447.7094757073313
11
69.91039047744805
21
427.9104858340313
0
LINE
5
A5
100
AcDbEntity
8
0
62
7.0
100
AcDbLine
10
30.31241073104805
20
427.9104858340313
11
50.11140060424805
21
447.7094757073313
0
ARC
5
A6
100
AcDbEntity
8
0
62
7.0
100
AcDbCircle
10
52.939827728948046
20
450.5379028320313
40
28.0
50
-45.0
51
45.0
0
LINE
5
A7
100
AcDbEntity
8
0
62
7.0
100
AcDbLine
10
52.939827728948046
20
450.5379028320313
11
72.73881760224805
21
470.3368927052313
0
LINE
5
A8
100
AcDbEntity
8
0
62
7.0
100
AcDbLine
10
72.73881760224805
20
430.7389129588313
11
52.939827728948046
21
450.5379028320313
0
ARC
5
A9
100
AcDbEntity
8
0
62
7.0
100
AcDbCircle
10
50.11140060424805
20
453.3663299567313
40
28.0
50
45.0
51
135.0
0
LINE
5
AA
100
AcDbEntity
8
0
62
7.0
100
AcDbLine
10
50.11140060424805
20
453.3663299567313
11
30.312410731048047
21
473.1653198300313
0
LINE
5
AB
100
AcDbEntity
8
0
62
7.0
100
AcDbLine
10
69.91039047744805
20
473.1653198300313
11
50.11140060424805
21
453.3663299567313
0
ARC
5
AC
100
AcDbEntity
8
0
62
7.0
100
AcDbCircle
10
47.28297347954805
20
450.5379028320313
40
28.0
50
135.0
51
225.0
0
LINE
5
AD
100
AcDbEntity
8
0
62
7.0
100
AcDbLine
10
47.28297347954805
20
450.5379028320313
11
27.483983606248046
21
430.7389129588313
0
LINE
5
AE
100
AcDbEntity
8
0
62
7.0
100
AcDbLine
10
27.483983606248046
20
470.3368927052313
11
47.28297347954805
21
450.5379028320313
0
ARC
5
AF
100
AcDbEntity
8
0
62
7.0
100
AcDbCircle
10
50.105751037597656
20
547.8110382073312
40
28.0
50
-135.0
51
-45.0
0
LINE
5
B0
100
AcDbEntity
8
0
62
7.0
100
AcDbLine
10
50.105751037597656
20
547.8110382073312
11
69.90474091079766
21
528.0120483340313
0
LINE
5
B1
100
AcDbEntity
8
0
62
7.0
100
AcDbLine
10
30.30676116439766
20
528.0120483340312
11
50.105751037597656
21
547.8110382073312
0
ARC
5
B2
100
AcDbEntity
8
0
62
7.0
100
AcDbCircle
10
52.934178162297655
20
550.6394653320313
40
28.0
50
-45.0
51
45.0
0
LINE
5
B3
100
AcDbEntity
8
0
62
7.0
100
AcDbLine
10
52.934178162297655
20
550.6394653320313
11
72.73316803559766
21
570.4384552052312
0
LINE
5
B4
100
AcDbEntity
8
0
62
7.0
100
AcDbLine
10
72.73316803559766
20
530.8404754588313
11
52.934178162297655
21
550.6394653320313
0
ARC
5
B5
100
AcDbEntity
8
0
62
7.0
100
AcDbCircle
10
50.105751037597656
20
553.4678924567313
40
28.0
50
45.0
51
135.0
0
LINE
5
B6
100
AcDbEntity
8
0
62
7.0
100
AcDbLine
10
50.105751037597656
20
553.4678924567313
11
30.306761164397656
21
573.2668823300312
0
LINE
5
B7
100
AcDbEntity
8
0
62
7.0
100
AcDbLine
10
69.90474091079766
20
573.2668823300312
11
50.105751037597656
21
553.4678924567313
0
ARC
5
B8
100
AcDbEntity
8
0
62
7.0
100
AcDbCircle
10
47.27732391289766
20
550.6394653320313
40
28.0
50
135.0
51
225.0
0
LINE
5
B9
100
AcDbEntity
8
0
62
7.0
100
AcDbLine
10
47.27732391289766
20
550.6394653320313
11
27.478334039597655
21
530.8404754588313
0
LINE
5
BA
100
AcDbEntity
8
0
62
7.0
100
AcDbLine
10
27.478334039597655
20
570.4384552052312
11
47.27732391289766
21
550.6394653320313
0
ARC
5
BB
100
AcDbEntity
8
0
62
7.0
100
AcDbCircle
10
52.9351051337332
20
650.74267578125
40
28.0
50
-45.0
51
45.0
0
LINE
5
BC
100
AcDbEntity
8
0
62
7.0
100
AcDbLine
10
52.9351051337332
20
650.74267578125
11
72.7340950070332
21
670.54166565445
0
LINE
5
BD
100
AcDbEntity
8
0
62
7.0
100
AcDbLine
10
72.7340950070332
20
630.94368590805
11
52.9351051337332
21
650.74267578125
0
ARC
5
BE
100
AcDbEntity
8
0
62
7.0
100
AcDbCircle
10
50.1066780090332
20
653.57110290595
40
28.0
50
45.0
51
135.0
0
LINE
5
BF
100
AcDbEntity
8
0
62
7.0
100
AcDbLine
10
50.1066780090332
20
653.57110290595
11
30.307688135833203
21
673.37009277925
0
LINE
5
C0
100
AcDbEntity
8
0
62
7.0
100
AcDbLine
10
69.9056678822332
20
673.37009277925
11
50.1066780090332
21
653.57110290595
0
ARC
5
C1
100
AcDbEntity
8
0
62
7.0
100
AcDbCircle
10
47.278250884333204
20
650.74267578125
40
28.0
50
135.0
51
225.0
0
LINE
5
C2
100
AcDbEntity
8
0
62
7.0
100
AcDbLine
10
47.278250884333204
20
650.74267578125
11
27.479261011033202
21
630.94368590805
0
LINE
5
C3
100
AcDbEntity
8
0
62
7.0
100
AcDbLine
10
27.479261011033202
20
670.54166565445
11
47.278250884333204
21
650.74267578125
0
ARC
5
C4
100
AcDbEntity
8
0
62
7.0
100
AcDbCircle
10
50.1066780090332
20
647.91424865655
40
28.0
50
225.0
51
315.0
0
LINE
5
C5
100
AcDbEntity
8
0
62
7.0
100
AcDbLine
10
50.1066780090332
20
647.91424865655
11
69.9056678822332
21
628.1152587832499
0
LINE
5
C6
100
AcDbEntity
8
0
62
7.0
100
AcDbLine
10
30.3076881358332
20
628.11525878325
11
50.1066780090332
21
647.91424865655
0
ARC
5
C7
100
AcDbEntity
8
0
62
7.0
100
AcDbCircle
10
50.10062026977539
20
748.0156890862374
40
28.0
50
-135.0
51
-45.0
0
LINE
5
C8
100
AcDbEntity
8
0
62
7.0
100
AcDbLine
10
50.10062026977539
20
748.0156890862374
11
69.89961014297539
21
728.2166992129376
0
LINE
5
C9
100
AcDbEntity
8
0
62
7.0
100
AcDbLine
10
30.301630396575394
20
728.2166992129374
11
50.10062026977539
21
748.0156890862374
0
ARC
5
CA
100
AcDbEntity
8
0
62
7.0
100
AcDbCircle
10
52.92904739447539
20
750.8441162109375
40
28.0
50
-45.0
51
45.0
0
LINE
5
CB
100
AcDbEntity
8
0
62
7.0
100
AcDbLine
10
52.92904739447539
20
750.8441162109375
11
72.72803726777539
21
770.6431060841375
0
LINE
5
CC
100
AcDbEntity
8
0
62
7.0
100
AcDbLine
10
72.72803726777539
20
731.0451263377375
11
52.92904739447539
21
750.8441162109375
0
ARC
5
CD
100
AcDbEntity
8
0
62
7.0
100
AcDbCircle
10
50.10062026977539
20
753.6725433356376
40
28.0
50
45.0
51
135.0
0
LINE
5
CE
100
AcDbEntity
8
0
62
7.0
100
AcDbLine
10
50.10062026977539
20
753.6725433356376
11
30.30163039657539
21
773.4715332089374
0
LINE
5
CF
100
AcDbEntity
8
0
62
7.0
100
AcDbLine
10
69.89961014297539
20
773.4715332089374
11
50.10062026977539
21
753.6725433356376
0
ARC
5
D0
100
AcDbEntity
8
0
62
7.0
100
AcDbCircle
10
47.27219314507539
20
750.8441162109375
40
28.0
50
135.0
51
225.0
0
LINE
5
D1
100
AcDbEntity
8
0
62
7.0
100
AcDbLine
10
47.27219314507539
20
750.8441162109375
11
27.47320327177539
21
731.0451263377375
0
LINE
5
D2
100
AcDbEntity
8
0
62
7.0
100
AcDbLine
10
27.47320327177539
20
770.6431060841375
11
47.27219314507539
21
750.8441162109375
0
ARC
5
D3
100
AcDbEntity
8
0
62
7.0
100
AcDbCircle
10
47.281947325983595
20
850.9474487304688
40
28.0
50
135.0
51
225.0
0
LINE
5
D4
100
AcDbEntity
8
0
62
7.0
100
AcDbLine
10
47.281947325983595
20
850.9474487304688
11
27.482957452683593
21
831.1484588572688
0
LINE
5
D5
100
AcDbEntity
8
0
62
7.0
100
AcDbLine
10
27.482957452683593
20
870.7464386036687
11
47.281947325983595
21
850.9474487304688
0
ARC
5
D6
100
AcDbEntity
8
0
62
7.0
100
AcDbCircle
10
50.110374450683594
20
848.1190216057687
40
28.0
50
225.0
51
315.0
0
LINE
5
D7
100
AcDbEntity
8
0
62
7.0
100
AcDbLine
10
50.110374450683594
20
848.1190216057687
11
69.9093643238836
21
828.3200317324687
0
LINE
5
D8
100
AcDbEntity
8
0
62
7.0
100
AcDbLine
10
30.31138457748359
20
828.3200317324688
11
50.110374450683594
21
848.1190216057687
0
ARC
5
D9
100
AcDbEntity
8
0
62
7.0
100
AcDbCircle
10
52.93880157538359
20
850.9474487304688
40
28.0
50
315.0
51
405.0
0
LINE
5
DA
100
AcDbEntity
8
0
62
7.0
100
AcDbLine
10
52.93880157538359
20
850.9474487304688
11
72.7377914486836
21
870.7464386036687
0
LINE
5
DB
100
AcDbEntity
8
0
62
7.0
100
AcDbLine
10
72.7377914486836
20
831.1484588572688
11
52.93880157538359
21
850.9474487304688
0
ARC
5
DC
100
AcDbEntity
8
0
62
7.0
100
AcDbCircle
10
50.110374450683594
20
853.7758758551688
40
28.0
50
405.0
51
495.0
0
LINE
5
DD
100
AcDbEntity
8
0
62
7.0
100
AcDbLine
10
50.110374450683594
20
853.7758758551688
11
30.3113845774836
21
873.5748657284688
0
LINE
5
DE
100
AcDbEntity
8
0
62
7.0
100
AcDbLine
10
69.90936432388361
20
873.5748657284687
11
50.110374450683594
21
853.7758758551688
0
ARC
5
DF
100
AcDbEntity
8
0
62
7.0
100
AcDbCircle
10
150.20498657226563
20
53.113716889104296
40
28.0
50
45.0
51
135.0
0
LINE
5
E0
100
AcDbEntity
8
0
62
7.0
100
AcDbLine
10
150.20498657226563
20
53.113716889104296
11
130.4059966990656
21
72.9127067624043
0
LINE
5
E1
100
AcDbEntity
8
0
62
7.0
100
AcDbLine
10
170.00397644546564
20
72.9127067624043
11
150.20498657226563
21
53.113716889104296
0
ARC
5
E2
100
AcDbEntity
8
0
62
7.0
100
AcDbCircle
10
147.37655944756563
20
50.2852897644043
40
28.0
50
135.0
51
225.0
0
LINE
5
E3
100
AcDbEntity
8
0
62
7.0
100
AcDbLine
10
147.37655944756563
20
50.2852897644043
11
127.57756957426562
21
30.486299891204297
0
LINE
5
E4
100
AcDbEntity
8
0
62
7.0
100
AcDbLine
10
127.57756957426562
20
70.0842796376043
11
147.37655944756563
21
50.2852897644043
0
ARC
5
E5
100
AcDbEntity
8
0
62
7.0
100
AcDbCircle
10
150.20498657226563
20
47.4568626397043
40
28.0
50
225.0
51
315.0
0
LINE
5
E6
100
AcDbEntity
8
0
62
7.0
100
AcDbLine
10
150.20498657226563
20
47.4568626397043
11
170.0039764454656
21
27.657872766404292
0
LINE
5
E7
100
AcDbEntity
8
0
62
7.0
100
AcDbLine
10
130.4059966990656
20
27.6578727664043
11
150.20498657226563
21
47.4568626397043
0
ARC
5
E8
100
AcDbEntity
8
0
62
7.0
100
AcDbCircle
10
153.03341369696562
20
50.2852897644043
40
28.0
50
315.0
51
405.0
0
LINE
5
E9
100
AcDbEntity
8
0
62
7.0
100
AcDbLine
10
153.03341369696562
20
50.2852897644043
11
172.83240357026563
21
70.0842796376043
0
LINE
5
EA
100
AcDbEntity
8
0
62
7.0
100
AcDbLine
10
172.83240357026563
20
30.486299891204293
11
153.03341369696562
21
50.2852897644043
0
ARC
5
EB
100
AcDbEntity
8
0
62
7.0
100
AcDbCircle
10
150.21292114257813
20
153.21642761298125
40
28.0
50
45.0
51
135.0
0
LINE
5
EC
100
AcDbEntity
8
0
62
7.0
100
AcDbLine
10
150.21292114257813
20
153.21642761298125
11
130.4139312693781
21
173.01541748628125
0
LINE
5
ED
100
AcDbEntity
8
0
62
7.0
100
AcDbLine
10
170.01191101577814
20
173.01541748628125
11
150.21292114257813
21
153.21642761298125
0
ARC
5
EE
100
AcDbEntity
8
0
62
7.0
100
AcDbCircle
10
147.38449401787813
20
150.38800048828125
40
28.0
50
135.0
51
225.0
0
LINE
5
EF
100
AcDbEntity
8
0
62
7.0
100
AcDbLine
10
147.38449401787813
20
150.38800048828125
11
127.58550414457812
21
130.58901061508124
0
LINE
5
F0
100
AcDbEntity
8
0
62
7.0
100
AcDbLine
10
127.58550414457812
20
170.18699036148126
11
147.38449401787813
21
150.38800048828125
0
ARC
5
F1
100
AcDbEntity
8
0
62
7.0
100
AcDbCircle
10
150.21292114257813
20
147.55957336358125
40
28.0
50
225.0
51
315.0
0
LINE
5
F2
100
AcDbEntity
8
0
62
7.0
100
AcDbLine
10
150.21292114257813
20
147.55957336358125
11
170.0119110157781
21
127.76058349028125
0
LINE
5
F3
100
AcDbEntity
8
0
62
7.0
100
AcDbLine
10
130.4139312693781
20
127.76058349028125
11
150.21292114257813
21
147.55957336358125
0
ARC
5
F4
100
AcDbEntity
8
0
62
7.0
100
AcDbCircle
10
153.04134826727812
20
150.38800048828125
40
28.0
50
315.0
51
405.0
0
LINE
5
F5
100
AcDbEntity
8
0
62
7.0
100
AcDbLine
10
153.04134826727812
20
150.38800048828125
11
172.84033814057813
21
170.18699036148124
0
LINE
5
F6
100
AcDbEntity
8
0
62
7.0
100
AcDbLine
10
172.84033814057813
20
130.58901061508124
11
153.04134826727812
21
150.38800048828125
0
ARC
5
F7
100
AcDbEntity
8
0
62
7.0
100
AcDbCircle
10
153.04537658759062
20
250.4945526123047
40
28.0
50
-45.0
51
45.0
0
LINE
5
F8
100
AcDbEntity
8
0
62
7.0
100
AcDbLine
10
153.04537658759062
20
250.4945526123047
11
172.84436646089063
21
270.2935424855047
0
LINE
5
F9
100
AcDbEntity
8
0
62
7.0
100
AcDbLine
10
172.84436646089063
20
230.69556273910467
11
153.04537658759062
21
250.4945526123047
0
ARC
5
FA
100
AcDbEntity
8
0
62
7.0
100
AcDbCircle
10
150.21694946289063
20
253.3229797370047
40
28.0
50
45.0
51
135.0
0
LINE
5
FB
100
AcDbEntity
8
0
62
7.0
100
AcDbLine
10
150.21694946289063
20
253.3229797370047
11
130.4179595896906
21
273.1219696103047
0
LINE
5
FC
100
AcDbEntity
8
0
62
7.0
100
AcDbLine
10
170.01593933609064
20
273.1219696103047
11
150.21694946289063
21
253.3229797370047
0
ARC
5
FD
100
AcDbEntity
8
0
62
7.0
100
AcDbCircle
10
147.38852233819063
20
250.4945526123047
40
28.0
50
135.0
51
225.0
0
LINE
5
FE
100
AcDbEntity
8
0
62
7.0
100
AcDbLine
10
147.38852233819063
20
250.4945526123047
11
127.58953246489062
21
230.69556273910467
0
LINE
5
FF
100
AcDbEntity
8
0
62
7.0
100
AcDbLine
10
127.58953246489062
20
270.2935424855047
11
147.38852233819063
21
250.4945526123047
0
ARC
5
100
100
AcDbEntity
8
0
62
7.0
100
AcDbCircle
10
150.21694946289063
20
247.6661254876047
40
28.0
50
225.0
51
315.0
0
LINE
5
101
100
AcDbEntity
8
0
62
7.0
100
AcDbLine
10
150.21694946289063
20
247.6661254876047
11
170.0159393360906
21
227.8671356143047
0
LINE
5
102
100
AcDbEntity
8
0
62
7.0
100
AcDbLine
10
130.4179595896906
20
227.8671356143047
11
150.21694946289063
21
247.6661254876047
0
ARC
5
103
100
AcDbEntity
8
0
62
7.0
100
AcDbCircle
10
150.21246337890625
20
347.77069396905
40
28.0
50
-135.0
51
-45.0
0
LINE
5
104
100
AcDbEntity
8
0
62
7.0
100
AcDbLine
10
150.21246337890625
20
347.77069396905
11
170.01145325210626
21
327.97170409575
0
LINE
5
105
100
AcDbEntity
8
0
62
7.0
100
AcDbLine
10
130.41347350570626
20
327.97170409575
11
150.21246337890625
21
347.77069396905
0
ARC
5
106
100
AcDbEntity
8
0
62
7.0
100
AcDbCircle
10
153.04089050360625
20
350.59912109375
40
28.0
50
-45.0
51
45.0
0
LINE
5
107
100
AcDbEntity
8
0
62
7.0
100
AcDbLine
10
153.04089050360625
20
350.59912109375
11
172.83988037690625
21
370.39811096695
0
LINE
5
108
100
AcDbEntity
8
0
62
7.0
100
AcDbLine
10
172.83988037690625
20
330.80013122055
11
153.04089050360625
21
350.59912109375
0
ARC
5
109
100
AcDbEntity
8
0
62
7.0
100
AcDbCircle
10
150.21246337890625
20
353.42754821845
40
28.0
50
45.0
51
135.0
0
LINE
5
10A
100
AcDbEntity
8
0
62
7.0
100
AcDbLine
10
150.21246337890625
20
353.42754821845
11
130.41347350570624
21
373.22653809175
0
LINE
5
10B
100
AcDbEntity
8
0
62
7.0
100
AcDbLine
10
170.01145325210626
20
373.22653809175
11
150.21246337890625
21
353.42754821845
0
ARC
5
10C
100
AcDbEntity
8
0
62
7.0
100
AcDbCircle
10
147.38403625420625
20
350.59912109375
40
28.0
50
135.0
51
225.0
0
LINE
5
10D
100
AcDbEntity
8
0
62
7.0
100
AcDbLine
10
147.38403625420625
20
350.59912109375
11
127.58504638090625
21
330.80013122055
0
LINE
5
10E
100
AcDbEntity
8
0
62
7.0
100
AcDbLine
10
127.58504638090625
20
370.39811096695
11
147.38403625420625
21
350.59912109375
0
ARC
5
10F
100
AcDbEntity
8
0
62
7.0
100
AcDbCircle
10
150.2153778076172
20
447.8811370842844
40
28.0
50
-135.0
51
-45.0
0
LINE
5
110
100
AcDbEntity
8
0
62
7.0
100
AcDbLine
10
150.2153778076172
20
447.8811370842844
11
170.0143676808172
21
428.0821472109844
0
LINE
5
111
100
AcDbEntity
8
0
62
7.0
100
AcDbLine
10
130.4163879344172
20
428.0821472109844
11
150.2153778076172
21
447.8811370842844
0
ARC
5
112
100
AcDbEntity
8
0
62
7.0
100
AcDbCircle
10
153.0438049323172
20
450.7095642089844
40
28.0
50
-45.0
51
45.0
0
LINE
5
113
100
AcDbEntity
8
0
62
7.0
100
AcDbLine
10
153.0438049323172
20
450.7095642089844
11
172.8427948056172
21
470.5085540821844
0
LINE
5
114
100
AcDbEntity
8
0
62
7.0
100
AcDbLine
10
172.8427948056172
20
430.91057433578436
11
153.0438049323172
21
450.7095642089844
0
ARC
5
115
100
AcDbEntity
8
0
62
7.0
100
AcDbCircle
10
150.2153778076172
20
453.5379913336844
40
28.0
50
45.0
51
135.0
0
LINE
5
116
100
AcDbEntity
8
0
62
7.0
100
AcDbLine
10
150.2153778076172
20
453.5379913336844
11
130.41638793441717
21
473.3369812069844
0
LINE
5
117
100
AcDbEntity
8
0
62
7.0
100
AcDbLine
10
170.0143676808172
20
473.3369812069844
11
150.2153778076172
21
453.5379913336844
0
ARC
5
118
100
AcDbEntity
8
0
62
7.0
100
AcDbCircle
10
147.3869506829172
20
450.7095642089844
40
28.0
50
135.0
51
225.0
0
LINE
5
119
100
AcDbEntity
8
0
62
7.0
100
AcDbLine
10
147.3869506829172
20
450.7095642089844
11
127.58796080961719
21
430.91057433578436
0
LINE
5
11A
100
AcDbEntity
8
0
62
7.0
100
AcDbLine
10
127.58796080961719
20
470.5085540821844
11
147.3869506829172
21
450.7095642089844
0
ARC
5
11B
100
AcDbEntity
8
0
62
7.0
100
AcDbCircle
10
147.3784057610422
20
550.809814453125
40
28.0
50
135.0
51
225.0
0
LINE
5
11C
100
AcDbEntity
8
0
62
7.0
100
AcDbLine
10
147.3784057610422
20
550.809814453125
11
127.57941588774219
21
531.010824579925
0
LINE
5
11D
100
AcDbEntity
8
0
62
7.0
100
AcDbLine
10
127.57941588774219
20
570.608804326325
11
147.3784057610422
21
550.809814453125
0
ARC
5
11E
100
AcDbEntity
8
0
62
7.0
100
AcDbCircle
10
150.2068328857422
20
547.981387328425
40
28.0
50
225.0
51
315.0
0
LINE
5
11F
100
AcDbEntity
8
0
62
7.0
100
AcDbLine
10
150.2068328857422
20
547.981387328425
11
170.00582275894217
21
528.1823974551249
0
LINE
5
120
100
AcDbEntity
8
0
62
7.0
100
AcDbLine
10
130.40784301254217
20
528.182397455125
11
150.2068328857422
21
547.981387328425
0
ARC
5
121
100
AcDbEntity
8
0
62
7.0
100
AcDbCircle
10
153.0352600104422
20
550.809814453125
40
28.0
50
315.0
51
405.0
0
LINE
5
122
100
AcDbEntity
8
0
62
7.0
100
AcDbLine
10
153.0352600104422
20
550.809814453125
11
172.8342498837422
21
570.608804326325
0
LINE
5
123
100
AcDbEntity
8
0
62
7.0
100
AcDbLine
10
172.8342498837422
20
531.010824579925
11
153.0352600104422
21
550.809814453125
0
ARC
5
124
100
AcDbEntity
8
0
62
7.0
100
AcDbCircle
10
150.2068328857422
20
553.638241577825
40
28.0
50
405.0
51
495.0
0
LINE
5
125
100
AcDbEntity
8
0
62
7.0
100
AcDbLine
10
150.2068328857422
20
553.638241577825
11
130.4078430125422
21
573.4372314511251
0
LINE
5
126
100
AcDbEntity
8
0
62
7.0
100
AcDbLine
10
170.0058227589422
20
573.437231451125
11
150.2068328857422
21
553.638241577825
0
ARC
5
127
100
AcDbEntity
8
0
62
7.0
100
AcDbCircle
10
147.38711852959688
20
650.9248657226563
40
28.0
50
135.0
51
225.0
0
LINE
5
128
100
AcDbEntity
8
0
62
7.0
100
AcDbLine
10
147.38711852959688
20
650.9248657226563
11
127.58812865629687
21
631.1258758494563
0
LINE
5
129
100
AcDbEntity
8
0
62
7.0
100
AcDbLine
10
127.58812865629687
20
670.7238555958562
11
147.38711852959688
21
650.9248657226563
0
ARC
5
12A
100
AcDbEntity
8
0
62
7.0
100
AcDbCircle
10
150.21554565429688
20
648.0964385979562
40
28.0
50
225.0
51
315.0
0
LINE
5
12B
100
AcDbEntity
8
0
62
7.0
100
AcDbLine
10
150.21554565429688
20
648.0964385979562
11
170.01453552749686
21
628.2974487246562
0
LINE
5
12C
100
AcDbEntity
8
0
62
7.0
100
AcDbLine
10
130.41655578109686
20
628.2974487246563
11
150.21554565429688
21
648.0964385979562
0
ARC
5
12D
100
AcDbEntity
8
0
62
7.0
100
AcDbCircle
10
153.04397277899687
20
650.9248657226563
40
28.0
50
315.0
51
405.0
0
LINE
5
12E
100
AcDbEntity
8
0
62
7.0
100
AcDbLine
10
153.04397277899687
20
650.9248657226563
11
172.84296265229688
21
670.7238555958562
0
LINE
5
12F
100
AcDbEntity
8
0
62
7.0
100
AcDbLine
10
172.84296265229688
20
631.1258758494563
11
153.04397277899687
21
650.9248657226563
0
ARC
5
130
100
AcDbEntity
8
0
62
7.0
100
AcDbCircle
10
150.21554565429688
20
653.7532928473563
40
28.0
50
405.0
51
495.0
0
LINE
5
131
100
AcDbEntity
8
0
62
7.0
100
AcDbLine
10
150.21554565429688
20
653.7532928473563
11
130.4165557810969
21
673.5522827206563
0
LINE
5
132
100
AcDbEntity
8
0
62
7.0
100
AcDbLine
10
170.0145355274969
20
673.5522827206562
11
150.21554565429688
21
653.7532928473563
0
ARC
5
133
100
AcDbEntity
8
0
62
7.0
100
AcDbCircle
10
150.21376037597656
20
753.8544281012626
40
28.0
50
45.0
51
135.0
0
LINE
5
134
100
AcDbEntity
8
0
62
7.0
100
AcDbLine
10
150.21376037597656
20
753.8544281012626
11
130.41477050277655
21
773.6534179745624
0
LINE
5
135
100
AcDbEntity
8
0
62
7.0
100
AcDbLine
10
170.01275024917658
20
773.6534179745624
11
150.21376037597656
21
753.8544281012626
0
ARC
5
136
100
AcDbEntity
8
0
62
7.0
100
AcDbCircle
10
147.38533325127656
20
751.0260009765625
40
28.0
50
135.0
51
225.0
0
LINE
5
137
100
AcDbEntity
8
0
62
7.0
100
AcDbLine
10
147.38533325127656
20
751.0260009765625
11
127.58634337797656
21
731.2270111033625
0
LINE
5
138
100
AcDbEntity
8
0
62
7.0
100
AcDbLine
10
127.58634337797656
20
770.8249908497625
11
147.38533325127656
21
751.0260009765625
0
ARC
5
139
100
AcDbEntity
8
0
62
7.0
100
AcDbCircle
10
150.21376037597656
20
748.1975738518624
40
28.0
50
225.0
51
315.0
0
LINE
5
13A
100
AcDbEntity
8
0
62
7.0
100
AcDbLine
10
150.21376037597656
20
748.1975738518624
11
170.01275024917655
21
728.3985839785624
0
LINE
5
13B
100
AcDbEntity
8
0
62
7.0
100
AcDbLine
10
130.41477050277655
20
728.3985839785626
11
150.21376037597656
21
748.1975738518624
0
ARC
5
13C
100
AcDbEntity
8
0
62
7.0
100
AcDbCircle
10
153.04218750067656
20
751.0260009765625
40
28.0
50
315.0
51
405.0
0
LINE
5
13D
100
AcDbEntity
8
0
62
7.0
100
AcDbLine
10
153.04218750067656
20
751.0260009765625
11
172.84117737397656
21
770.8249908497625
0
LINE
5
13E
100
AcDbEntity
8
0
62
7.0
100
AcDbLine
10
172.84117737397656
20
731.2270111033625
11
153.04218750067656
21
751.0260009765625
0
ARC
5
13F
100
AcDbEntity
8
0
62
7.0
100
AcDbCircle
10
150.21383666992188
20
848.3277008049874
40
28.0
50
-135.0
51
-45.0
0
LINE
5
140
100
AcDbEntity
8
0
62
7.0
100
AcDbLine
10
150.21383666992188
20
848.3277008049874
11
170.0128265431219
21
828.5287109316876
0
LINE
5
141
100
AcDbEntity
8
0
62
7.0
100
AcDbLine
10
130.4148467967219
20
828.5287109316874
11
150.21383666992188
21
848.3277008049874
0
ARC
5
142
100
AcDbEntity
8
0
62
7.0
100
AcDbCircle
10
153.04226379462187
20
851.1561279296875
40
28.0
50
-45.0
51
45.0
0
LINE
5
143
100
AcDbEntity
8
0
62
7.0
100
AcDbLine
10
153.04226379462187
20
851.1561279296875
11
172.84125366792188
21
870.9551178028875
0
LINE
5
144
100
AcDbEntity
8
0
62
7.0
100
AcDbLine
10
172.84125366792188
20
831.3571380564875
11
153.04226379462187
21
851.1561279296875
0
ARC
5
145
100
AcDbEntity
8
0
62
7.0
100
AcDbCircle
10
150.21383666992188
20
853.9845550543876
40
28.0
50
45.0
51
135.0
0
LINE
5
146
100
AcDbEntity
8
0
62
7.0
100
AcDbLine
10
150.21383666992188
20
853.9845550543876
11
130.41484679672186
21
873.7835449276874
0
LINE
5
147
100
AcDbEntity
8
0
62
7.0
100
AcDbLine
10
170.0128265431219
20
873.7835449276874
11
150.21383666992188
21
853.9845550543876
0
ARC
5
148
100
AcDbEntity
8
0
62
7.0
100
AcDbCircle
10
147.38540954522188
20
851.1561279296875
40
28.0
50
135.0
51
225.0
0
LINE
5
149
100
AcDbEntity
8
0
62
7.0
100
AcDbLine
10
147.38540954522188
20
851.1561279296875
11
127.58641967192187
21
831.3571380564875
0
LINE
5
14A
100
AcDbEntity
8
0
62
7.0
100
AcDbLine
10
127.58641967192187
20
870.9551178028875
11
147.38540954522188
21
851.1561279296875
0
ARC
5
14B
100
AcDbEntity
8
0
62
7.0
100
AcDbCircle
10
250.3097991943359
20
47.38280792168672
40
28.0
50
-135.0
51
-45.0
0
LINE
5
14C
100
AcDbEntity
8
0
62
7.0
100
AcDbLine
10
250.3097991943359
20
47.38280792168672
11
270.1087890675359
21
27.58381804838672
0
LINE
5
14D
100
AcDbEntity
8
0
62
7.0
100
AcDbLine
10
230.51080932113592
20
27.583818048386714
11
250.3097991943359
21
47.38280792168672
0
ARC
5
14E
100
AcDbEntity
8
0
62
7.0
100
AcDbCircle
10
253.1382263190359
20
50.21123504638672
40
28.0
50
-45.0
51
45.0
0
LINE
5
14F
100
AcDbEntity
8
0
62
7.0
100
AcDbLine
10
253.1382263190359
20
50.21123504638672
11
272.9372161923359
21
70.01022491958672
0
LINE
5
150
100
AcDbEntity
8
0
62
7.0
100
AcDbLine
10
272.9372161923359
20
30.41224517318672
11
253.1382263190359
21
50.21123504638672
0
ARC
5
151
100
AcDbEntity
8
0
62
7.0
100
AcDbCircle
10
250.3097991943359
20
53.03966217108672
40
28.0
50
45.0
51
135.0
0
LINE
5
152
100
AcDbEntity
8
0
62
7.0
100
AcDbLine
10
250.3097991943359
20
53.03966217108672
11
230.51080932113592
21
72.83865204438672
0
LINE
5
153
100
AcDbEntity
8
0
62
7.0
100
AcDbLine
10
270.1087890675359
20
72.83865204438672
11
250.3097991943359
21
53.03966217108672
0
ARC
5
154
100
AcDbEntity
8
0
62
7.0
100
AcDbCircle
10
247.4813720696359
20
50.21123504638672
40
28.0
50
135.0
51
225.0
0
LINE
5
155
100
AcDbEntity
8
0
62
7.0
100
AcDbLine
10
247.4813720696359
20
50.21123504638672
11
227.6823821963359
21
30.41224517318672
0
LINE
5
156
100
AcDbEntity
8
0
62
7.0
100
AcDbLine
10
227.6823821963359
20
70.01022491958672
11
247.4813720696359
21
50.21123504638672
0
ARC
5
157
100
AcDbEntity
8
0
62
7.0
100
AcDbCircle
10
200.334042359075
20
120.13825225830078
40
28.0
50
-45.0
51
45.0
0
LINE
5
158
100
AcDbEntity
8
0
62
7.0
100
AcDbLine
10
200.334042359075
20
120.13825225830078
11
220.133032232375
21
139.9372421315008
0
LINE
5
159
100
AcDbEntity
8
0
62
7.0
100
AcDbLine
10
220.133032232375
20
100.33926238510078
11
200.334042359075
21
120.13825225830078
0
ARC
5
15A
100
AcDbEntity
8
0
62
7.0
100
AcDbCircle
10
200.3355834967703
20
159.90548706054688
40
28.0
50
-45.0
51
45.0
0
LINE
5
15B
100
AcDbEntity
8
0
62
7.0
100
AcDbLine
10
200.3355834967703
20
159.90548706054688
11
220.1345733700703
21
179.7044769337469
0
LINE
5
15C
100
AcDbEntity
8
0
62
7.0
100
AcDbLine
10
220.1345733700703
20
140.10649718734686
11
200.3355834967703
21
159.90548706054688
0
ARC
5
15D
100
AcDbEntity
8
0
62
7.0
100
AcDbCircle
10
200.33767395087187
20
199.68177795410156
40
28.0
50
-45.0
51
45.0
0
LINE
5
15E
100
AcDbEntity
8
0
62
7.0
100
AcDbLine
10
200.33767395087187
20
199.68177795410156
11
220.13666382417188
21
219.48076782730158
0
LINE
5
15F
100
AcDbEntity
8
0
62
7.0
100
AcDbLine
10
220.13666382417188
20
179.88278808090155
11
200.33767395087187
21
199.68177795410156
0
ARC
5
160
100
AcDbEntity
8
0
62
7.0
100
AcDbCircle
10
200.3377807623953
20
239.441650390625
40
28.0
50
-45.0
51
45.0
0
LINE
5
161
100
AcDbEntity
8
0
62
7.0
100
AcDbLine
10
200.3377807623953
20
239.441650390625
11
220.1367706356953
21
259.240640263825
0
LINE
5
162
100
AcDbEntity
8
0
62
7.0
100
AcDbLine
10
220.1367706356953
20
219.64266051742499
11
200.3377807623953
21
239.441650390625
0
ARC
5
163
100
AcDbEntity
8
0
62
7.0
100
AcDbCircle
10
220.22254943847656
20
259.46947937079375
40
28.0
50
45.0
51
135.0
0
LINE
5
164
100
AcDbEntity
8
0
62
7.0
100
AcDbLine
10
220.22254943847656
20
259.46947937079375
11
200.42355956527655
21
279.26846924409375
0
LINE
5
165
100
AcDbEntity
8
0
62
7.0
100
AcDbLine
10
240.02153931167658
20
279.26846924409375
11
220.22254943847656
21
259.46947937079375
0
ARC
5
166
100
AcDbEntity
8
0
62
7.0
100
AcDbCircle
10
228.2783081047922
20
304.8448791503906
40
28.0
50
135.0
51
225.0
0
LINE
5
167
100
AcDbEntity
8
0
62
7.0
100
AcDbLine
10
228.2783081047922
20
304.8448791503906
11
208.4793182314922
21
285.0458892771906
0
LINE
5
168
100
AcDbEntity
8
0
62
7.0
100
AcDbLine
10
208.4793182314922
20
324.64386902359064
11
228.2783081047922
21
304.8448791503906
0
ARC
5
169
100
AcDbEntity
8
0
62
7.0
100
AcDbCircle
10
200.3348205573172
20
332.9311218261719
40
28.0
50
-45.0
51
45.0
0
LINE
5
16A
100
AcDbEntity
8
0
62
7.0
100
AcDbLine
10
200.3348205573172
20
332.9311218261719
11
220.1338104306172
21
352.7301116993719
0
LINE
5
16B
100
AcDbEntity
8
0
62
7.0
100
AcDbLine
10
220.1338104306172
20
313.13213195297186
11
200.3348205573172
21
332.9311218261719
0
ARC
5
16C
100
AcDbEntity
8
0
62
7.0
100
AcDbCircle
10
245.82415771484375
20
128.28030700615938
40
28.0
50
-135.0
51
-45.0
0
LINE
5
16D
100
AcDbEntity
8
0
62
7.0
100
AcDbLine
10
245.82415771484375
20
128.28030700615938
11
265.62314758804376
21
108.48131713285937
0
LINE
5
16E
100
AcDbEntity
8
0
62
7.0
100
AcDbLine
10
226.02516784164376
20
108.48131713285937
11
245.82415771484375
21
128.28030700615938
0
ARC
5
16F
100
AcDbEntity
8
0
62
7.0
100
AcDbCircle
10
220.1363983154297
20
380.9229461663156
40
28.0
50
-135.0
51
-45.0
0
LINE
5
170
100
AcDbEntity
8
0
62
7.0
100
AcDbLine
10
220.1363983154297
20
380.9229461663156
11
239.9353881886297
21
361.1239562930156
0
LINE
5
171
100
AcDbEntity
8
0
62
7.0
100
AcDbLine
10
200.3374084422297
20
361.1239562930156
11
220.1363983154297
21
380.9229461663156
0
ARC
5
172
100
AcDbEntity
8
0
62
7.0
100
AcDbCircle
10
200.3654144293875
20
400.8368225097656
40
28.0
50
-45.0
51
45.0
0
LINE
5
173
100
AcDbEntity
8
0
62
7.0
100
AcDbLine
10
200.3654144293875
20
400.8368225097656
11
220.1644043026875
21
420.63581238296564
0
LINE
5
174
100
AcDbEntity
8
0
62
7.0
100
AcDbLine
10
220.1644043026875
20
381.0378326365656
11
200.3654144293875
21
400.8368225097656
0
ARC
5
175
100
AcDbEntity
8
0
62
7.0
100
AcDbCircle
10
253.1376220696359
20
138.93740844726563
40
28.0
50
135.0
51
225.0
0
LINE
5
176
100
AcDbEntity
8
0
62
7.0
100
AcDbLine
10
253.1376220696359
20
138.93740844726563
11
233.3386321963359
21
119.13841857406562
0
LINE
5
177
100
AcDbEntity
8
0
62
7.0
100
AcDbLine
10
233.3386321963359
20
158.73639832046564
11
253.1376220696359
21
138.93740844726563
0
ARC
5
178
100
AcDbEntity
8
0
62
7.0
100
AcDbCircle
10
228.2822906487375
20
428.8981628417969
40
28.0
50
135.0
51
225.0
0
LINE
5
179
100
AcDbEntity
8
0
62
7.0
100
AcDbLine
10
228.2822906487375
20
428.8981628417969
11
208.4833007754375
21
409.09917296859686
0
LINE
5
17A
100
AcDbEntity
8
0
62
7.0
100
AcDbLine
10
208.4833007754375
20
448.6971527149969
11
228.2822906487375
21
428.8981628417969
0
ARC
5
17B
100
AcDbEntity
8
0
62
7.0
100
AcDbCircle
10
228.2792846672922
20
468.66357421875
40
28.0
50
135.0
51
225.0
0
LINE
5
17C
100
AcDbEntity
8
0
62
7.0
100
AcDbLine
10
228.2792846672922
20
468.66357421875
11
208.4802947939922
21
448.86458434555
0
LINE
5
17D
100
AcDbEntity
8
0
62
7.0
100
AcDbLine
10
208.4802947939922
20
488.46256409195
11
228.2792846672922
21
468.66357421875
0
ARC
5
17E
100
AcDbEntity
8
0
62
7.0
100
AcDbCircle
10
220.91015319891875
20
179.10438537597656
40
28.0
50
-45.0
51
45.0
0
LINE
5
17F
100
AcDbEntity
8
0
62
7.0
100
AcDbLine
10
220.91015319891875
20
179.10438537597656
11
240.70914307221875
21
198.90337524917658
0
LINE
5
180
100
AcDbEntity
8
0
62
7.0
100
AcDbLine
10
240.70914307221875
20
159.30539550277655
11
220.91015319891875
21
179.10438537597656
0
ARC
5
181
100
AcDbEntity
8
0
62
7.0
100
AcDbCircle
10
252.9285766594797
20
219.12896728515625
40
28.0
50
135.0
51
225.0
0
LINE
5
182
100
AcDbEntity
8
0
62
7.0
100
AcDbLine
10
252.9285766594797
20
219.12896728515625
11
233.1295867861797
21
199.32997741195624
0
LINE
5
183
100
AcDbEntity
8
0
62
7.0
100
AcDbLine
10
233.1295867861797
20
238.92795715835626
11
252.9285766594797
21
219.12896728515625
0
ARC
5
184
100
AcDbEntity
8
0
62
7.0
100
AcDbCircle
10
200.33781127997344
20
496.7517395019531
40
28.0
50
-45.0
51
45.0
0
LINE
5
185
100
AcDbEntity
8
0
62
7.0
100
AcDbLine
10
200.33781127997344
20
496.7517395019531
11
220.13680115327344
21
516.5507293751531
0
LINE
5
186
100
AcDbEntity
8
0
62
7.0
100
AcDbLine
10
220.13680115327344
20
476.9527496287531
11
200.33781127997344
21
496.7517395019531
0
ARC
5
187
100
AcDbEntity
8
0
62
7.0
100
AcDbCircle
10
228.27084655694065
20
524.8345336914063
40
28.0
50
135.0
51
225.0
0
LINE
5
188
100
AcDbEntity
8
0
62
7.0
100
AcDbLine
10
228.27084655694065
20
524.8345336914063
11
208.47185668364065
21
505.03554381820624
0
LINE
5
189
100
AcDbEntity
8
0
62
7.0
100
AcDbLine
10
208.47185668364065
20
544.6335235646062
11
228.27084655694065
21
524.8345336914063
0
ARC
5
18A
100
AcDbEntity
8
0
62
7.0
100
AcDbCircle
10
221.40652160712187
20
379.8089599609375
40
28.0
50
-45.0
51
45.0
0
LINE
5
18B
100
AcDbEntity
8
0
62
7.0
100
AcDbLine
10
221.40652160712187
20
379.8089599609375
11
241.20551148042188
21
399.6079498341375
0
LINE
5
18C
100
AcDbEntity
8
0
62
7.0
100
AcDbLine
10
241.20551148042188
20
360.0099700877375
11
221.40652160712187
21
379.8089599609375
0
ARC
5
18D
100
AcDbEntity
8
0
62
7.0
100
AcDbCircle
10
228.2733032219797
20
564.5821533203125
40
28.0
50
135.0
51
225.0
0
LINE
5
18E
100
AcDbEntity
8
0
62
7.0
100
AcDbLine
10
228.2733032219797
20
564.5821533203125
11
208.4743133486797
21
544.7831634471125
0
LINE
5
18F
100
AcDbEntity
8
0
62
7.0
100
AcDbLine
10
208.4743133486797
20
584.3811431935125
11
228.2733032219797
21
564.5821533203125
0
ARC
5
190
100
AcDbEntity
8
0
62
7.0
100
AcDbCircle
10
228.13398437567656
20
244.06626892089844
40
28.0
50
-45.0
51
45.0
0
LINE
5
191
100
AcDbEntity
8
0
62
7.0
100
AcDbLine
10
228.13398437567656
20
244.06626892089844
11
247.93297424897656
21
263.86525879409845
0
LINE
5
192
100
AcDbEntity
8
0
62
7.0
100
AcDbLine
10
247.93297424897656
20
224.26727904769842
11
228.13398437567656
21
244.06626892089844
0
ARC
5
193
100
AcDbEntity
8
0
62
7.0
100
AcDbCircle
10
240.0718688964844
20
332.8008758538156
40
28.0
50
-135.0
51
-45.0
0
LINE
5
194
100
AcDbEntity
8
0
62
7.0
100
AcDbLine
10
240.0718688964844
20
332.8008758538156
11
259.8708587696844
21
313.0018859805156
0
LINE
5
195
100
AcDbEntity
8
0
62
7.0
100
AcDbLine
10
220.27287902328442
20
313.0018859805156
11
240.0718688964844
21
332.8008758538156
0
ARC
5
196
100
AcDbEntity
8
0
62
7.0
100
AcDbCircle
10
236.9665649420828
20
202.9652862548828
40
28.0
50
-45.0
51
45.0
0
LINE
5
197
100
AcDbEntity
8
0
62
7.0
100
AcDbLine
10
236.9665649420828
20
202.9652862548828
11
256.7655548153828
21
222.76427612808283
0
LINE
5
198
100
AcDbEntity
8
0
62
7.0
100
AcDbLine
10
256.7655548153828
20
183.1662963816828
11
236.9665649420828
21
202.9652862548828
0
ARC
5
199
100
AcDbEntity
8
0
62
7.0
100
AcDbCircle
10
228.28496093682344
20
604.3641967773438
40
28.0
50
135.0
51
225.0
0
LINE
5
19A
100
AcDbEntity
8
0
62
7.0
100
AcDbLine
10
228.28496093682344
20
604.3641967773438
11
208.48597106352344
21
584.5652069041438
0
LINE
5
19B
100
AcDbEntity
8
0
62
7.0
100
AcDbLine
10
208.48597106352344
20
624.1631866505437
11
228.28496093682344
21
604.3641967773438
0
ARC
5
19C
100
AcDbEntity
8
0
62
7.0
100
AcDbCircle
10
227.18618469305935
20
345.829833984375
40
28.0
50
-45.0
51
45.0
0
LINE
5
19D
100
AcDbEntity
8
0
62
7.0
100
AcDbLine
10
227.18618469305935
20
345.829833984375
11
246.98517456635935
21
365.628823857575
0
LINE
5
19E
100
AcDbEntity
8
0
62
7.0
100
AcDbLine
10
246.98517456635935
20
326.030844111175
11
227.18618469305935
21
345.829833984375
0
ARC
5
19F
100
AcDbEntity
8
0
62
7.0
100
AcDbCircle
10
228.2833129876047
20
644.11767578125
40
28.0
50
135.0
51
225.0
0
LINE
5
1A0
100
AcDbEntity
8
0
62
7.0
100
AcDbLine
10
228.2833129876047
20
644.11767578125
11
208.4843231143047
21
624.31868590805
0
LINE
5
1A1
100
AcDbEntity
8
0
62
7.0
100
AcDbLine
10
208.4843231143047
20
663.91666565445
11
228.2833129876047
21
644.11767578125
0
ARC
5
1A2
100
AcDbEntity
8
0
62
7.0
100
AcDbCircle
10
240.6477203369141
20
439.9539825432687
40
28.0
50
-135.0
51
-45.0
0
LINE
5
1A3
100
AcDbEntity
8
0
62
7.0
100
AcDbLine
10
240.6477203369141
20
439.9539825432687
11
260.4467102101141
21
420.1549926699687
0
LINE
5
1A4
100
AcDbEntity
8
0
62
7.0
100
AcDbLine
10
220.8487304637141
20
420.1549926699687
11
240.6477203369141
21
439.9539825432687
0
ARC
5
1A5
100
AcDbEntity
8
0
62
7.0
100
AcDbCircle
10
256.6997985839844
20
175.12674255303438
40
28.0
50
-135.0
51
-45.0
0
LINE
5
1A6
100
AcDbEntity
8
0
62
7.0
100
AcDbLine
10
256.6997985839844
20
175.12674255303438
11
276.4987884571844
21
155.32775267973437
0
LINE
5
1A7
100
AcDbEntity
8
0
62
7.0
100
AcDbLine
10
236.9008087107844
20
155.32775267973437
11
256.6997985839844
21
175.12674255303438
0
ARC
5
1A8
100
AcDbEntity
8
0
62
7.0
100
AcDbCircle
10
220.25006103515625
20
652.2932098395438
40
28.0
50
45.0
51
135.0
0
LINE
5
1A9
100
AcDbEntity
8
0
62
7.0
100
AcDbLine
10
220.25006103515625
20
652.2932098395438
11
200.45107116195624
21
672.0921997128437
0
LINE
5
1AA
100
AcDbEntity
8
0
62
7.0
100
AcDbLine
10
240.04905090835626
20
672.0921997128437
11
220.25006103515625
21
652.2932098395438
0
ARC
5
1AB
100
AcDbEntity
8
0
62
7.0
100
AcDbCircle
10
209.1137054450125
20
623.6875610351563
40
28.0
50
-45.0
51
45.0
0
LINE
5
1AC
100
AcDbEntity
8
0
62
7.0
100
AcDbLine
10
209.1137054450125
20
623.6875610351563
11
228.9126953183125
21
643.4865509083562
0
LINE
5
1AD
100
AcDbEntity
8
0
62
7.0
100
AcDbLine
10
228.9126953183125
20
603.8885711619563
11
209.1137054450125
21
623.6875610351563
0
ARC
5
1AE
100
AcDbEntity
8
0
62
7.0
100
AcDbCircle
10
200.3597991950125
20
700.179443359375
40
28.0
50
-45.0
51
45.0
0
LINE
5
1AF
100
AcDbEntity
8
0
62
7.0
100
AcDbLine
10
200.3597991950125
20
700.179443359375
11
220.1587890683125
21
719.978433232575
0
LINE
5
1B0
100
AcDbEntity
8
0
62
7.0
100
AcDbLine
10
220.1587890683125
20
680.380453486175
11
200.3597991950125
21
700.179443359375
0
ARC
5
1B1
100
AcDbEntity
8
0
62
7.0
100
AcDbCircle
10
248.4049713128
20
448.6511840820313
40
28.0
50
135.0
51
225.0
0
LINE
5
1B2
100
AcDbEntity
8
0
62
7.0
100
AcDbLine
10
248.4049713128
20
448.6511840820313
11
228.6059814395
21
428.8521942088313
0
LINE
5
1B3
100
AcDbEntity
8
0
62
7.0
100
AcDbLine
10
228.6059814395
20
468.4501739552313
11
248.4049713128
21
448.6511840820313
0
ARC
5
1B4
100
AcDbEntity
8
0
62
7.0
100
AcDbCircle
10
275.94775695733125
20
273.6365661621094
40
28.0
50
135.0
51
225.0
0
LINE
5
1B5
100
AcDbEntity
8
0
62
7.0
100
AcDbLine
10
275.94775695733125
20
273.6365661621094
11
256.14876708403125
21
253.83757628890936
0
LINE
5
1B6
100
AcDbEntity
8
0
62
7.0
100
AcDbLine
10
256.14876708403125
20
293.4355560353094
11
275.94775695733125
21
273.6365661621094
0
ARC
5
1B7
100
AcDbEntity
8
0
62
7.0
100
AcDbCircle
10
212.6188629157156
20
540.6296997070313
40
28.0
50
-45.0
51
45.0
0
LINE
5
1B8
100
AcDbEntity
8
0
62
7.0
100
AcDbLine
10
212.6188629157156
20
540.6296997070313
11
232.4178527890156
21
560.4286895802312
0
LINE
5
1B9
100
AcDbEntity
8
0
62
7.0
100
AcDbLine
10
232.4178527890156
20
520.8307098338313
11
212.6188629157156
21
540.6296997070313
0
ARC
5
1BA
100
AcDbEntity
8
0
62
7.0
100
AcDbCircle
10
254.5740386956125
20
482.39654541015625
40
28.0
50
135.0
51
225.0
0
LINE
5
1BB
100
AcDbEntity
8
0
62
7.0
100
AcDbLine
10
254.5740386956125
20
482.39654541015625
11
234.7750488223125
21
462.59755553695624
0
LINE
5
1BC
100
AcDbEntity
8
0
62
7.0
100
AcDbLine
10
234.7750488223125
20
502.19553528335626
11
254.5740386956125
21
482.39654541015625
0
ARC
5
1BD
100
AcDbEntity
8
0
62
7.0
100
AcDbCircle
10
228.93592834472656
20
603.6749298088937
40
28.0
50
-135.0
51
-45.0
0
LINE
5
1BE
100
AcDbEntity
8
0
62
7.0
100
AcDbLine
10
228.93592834472656
20
603.6749298088937
11
248.73491821792658
21
583.8759399355938
0
LINE
5
1BF
100
AcDbEntity
8
0
62
7.0
100
AcDbLine
10
209.13693847152658
20
583.8759399355937
11
228.93592834472656
21
603.6749298088937
0
ARC
5
1C0
100
AcDbEntity
8
0
62
7.0
100
AcDbCircle
10
200.34725647040312
20
739.9249267578125
40
28.0
50
-45.0
51
45.0
0
LINE
5
1C1
100
AcDbEntity
8
0
62
7.0
100
AcDbLine
10
200.34725647040312
20
739.9249267578125
11
220.14624634370313
21
759.7239166310125
0
LINE
5
1C2
100
AcDbEntity
8
0
62
7.0
100
AcDbLine
10
220.14624634370313
20
720.1259368846125
11
200.34725647040312
21
739.9249267578125
0
ARC
5
1C3
100
AcDbEntity
8
0
62
7.0
100
AcDbCircle
10
228.2831909172922
20
768.0113525390625
40
28.0
50
135.0
51
225.0
0
LINE
5
1C4
100
AcDbEntity
8
0
62
7.0
100
AcDbLine
10
228.2831909172922
20
768.0113525390625
11
208.4842010439922
21
748.2123626658625
0
LINE
5
1C5
100
AcDbEntity
8
0
62
7.0
100
AcDbLine
10
208.4842010439922
20
787.8103424122625
11
228.2831909172922
21
768.0113525390625
0
ARC
5
1C6
100
AcDbEntity
8
0
62
7.0
100
AcDbCircle
10
252.86962585516875
20
179.106689453125
40
28.0
50
-45.0
51
45.0
0
LINE
5
1C7
100
AcDbEntity
8
0
62
7.0
100
AcDbLine
10
252.86962585516875
20
179.106689453125
11
272.66861572846875
21
198.90567932632501
0
LINE
5
1C8
100
AcDbEntity
8
0
62
7.0
100
AcDbLine
10
272.66861572846875
20
159.30769957992499
11
252.86962585516875
21
179.106689453125
0
ARC
5
1C9
100
AcDbEntity
8
0
62
7.0
100
AcDbCircle
10
262.5102264397531
20
514.3748779296875
40
28.0
50
135.0
51
225.0
0
LINE
5
1CA
100
AcDbEntity
8
0
62
7.0
100
AcDbLine
10
262.5102264397531
20
514.3748779296875
11
242.71123656645312
21
494.5758880564875
0
LINE
5
1CB
100
AcDbEntity
8
0
62
7.0
100
AcDbLine
10
242.71123656645312
20
534.1738678028875
11
262.5102264397531
21
514.3748779296875
0
ARC
5
1CC
100
AcDbEntity
8
0
62
7.0
100
AcDbCircle
10
200.33590393134065
20
796.11181640625
40
28.0
50
-45.0
51
45.0
0
LINE
5
1CD
100
AcDbEntity
8
0
62
7.0
100
AcDbLine
10
200.33590393134065
20
796.11181640625
11
220.13489380464065
21
815.91080627945
0
LINE
5
1CE
100
AcDbEntity
8
0
62
7.0
100
AcDbLine
10
220.13489380464065
20
776.31282653305
11
200.33590393134065
21
796.11181640625
0
ARC
5
1CF
100
AcDbEntity
8
0
62
7.0
100
AcDbCircle
10
266.4659118652344
20
283.26598815985625
40
28.0
50
45.0
51
135.0
0
LINE
5
1D0
100
AcDbEntity
8
0
62
7.0
100
AcDbLine
10
266.4659118652344
20
283.26598815985625
11
246.66692199203436
21
303.06497803315625
0
LINE
5
1D1
100
AcDbEntity
8
0
62
7.0
100
AcDbLine
10
286.2649017384344
20
303.06497803315625
11
266.4659118652344
21
283.26598815985625
0
ARC
5
1D2
100
AcDbEntity
8
0
62
7.0
100
AcDbCircle
10
200.3346527106375
20
835.8931884765625
40
28.0
50
-45.0
51
45.0
0
LINE
5
1D3
100
AcDbEntity
8
0
62
7.0
100
AcDbLine
10
200.3346527106375
20
835.8931884765625
11
220.1336425839375
21
855.6921783497625
0
LINE
5
1D4
100
AcDbEntity
8
0
62
7.0
100
AcDbLine
10
220.1336425839375
20
816.0941986033625
11
200.3346527106375
21
835.8931884765625
0
ARC
5
1D5
100
AcDbEntity
8
0
62
7.0
100
AcDbCircle
10
258.8141204827219
20
649.5473022460938
40
28.0
50
135.0
51
225.0
0
LINE
5
1D6
100
AcDbEntity
8
0
62
7.0
100
AcDbLine
10
258.8141204827219
20
649.5473022460938
11
239.01513060942187
21
629.7483123728938
0
LINE
5
1D7
100
AcDbEntity
8
0
62
7.0
100
AcDbLine
10
239.01513060942187
20
669.3462921192937
11
258.8141204827219
21
649.5473022460938
0
ARC
5
1D8
100
AcDbEntity
8
0
62
7.0
100
AcDbCircle
10
265.2796051018625
20
559.8806762695313
40
28.0
50
135.0
51
225.0
0
LINE
5
1D9
100
AcDbEntity
8
0
62
7.0
100
AcDbLine
10
265.2796051018625
20
559.8806762695313
11
245.4806152285625
21
540.0816863963313
0
LINE
5
1DA
100
AcDbEntity
8
0
62
7.0
100
AcDbLine
10
245.4806152285625
20
579.6796661427312
11
265.2796051018625
21
559.8806762695313
0
ARC
5
1DB
100
AcDbEntity
8
0
62
7.0
100
AcDbCircle
10
256.3015472405344
20
695.128173828125
40
28.0
50
135.0
51
225.0
0
LINE
5
1DC
100
AcDbEntity
8
0
62
7.0
100
AcDbLine
10
256.3015472405344
20
695.128173828125
11
236.50255736723437
21
675.329183954925
0
LINE
5
1DD
100
AcDbEntity
8
0
62
7.0
100
AcDbLine
10
236.50255736723437
20
714.927163701325
11
256.3015472405344
21
695.128173828125
0
ARC
5
1DE
100
AcDbEntity
8
0
62
7.0
100
AcDbCircle
10
273.4759216308594
20
206.3668792731375
40
28.0
50
45.0
51
135.0
0
LINE
5
1DF
100
AcDbEntity
8
0
62
7.0
100
AcDbLine
10
273.4759216308594
20
206.3668792731375
11
253.67693175765936
21
226.1658691464375
0
LINE
5
1E0
100
AcDbEntity
8
0
62
7.0
100
AcDbLine
10
293.2749115040594
20
226.1658691464375
11
273.4759216308594
21
206.3668792731375
0
ARC
5
1E1
100
AcDbEntity
8
0
62
7.0
100
AcDbCircle
10
225.3482788092703
20
726.2244262695313
40
28.0
50
-45.0
51
45.0
0
LINE
5
1E2
100
AcDbEntity
8
0
62
7.0
100
AcDbLine
10
225.3482788092703
20
726.2244262695313
11
245.1472686825703
21
746.0234161427312
0
LINE
5
1E3
100
AcDbEntity
8
0
62
7.0
100
AcDbLine
10
245.1472686825703
20
706.4254363963313
11
225.3482788092703
21
726.2244262695313
0
ARC
5
1E4
100
AcDbEntity
8
0
62
7.0
100
AcDbCircle
10
220.38100891180935
20
815.9632568359375
40
28.0
50
-45.0
51
45.0
0
LINE
5
1E5
100
AcDbEntity
8
0
62
7.0
100
AcDbLine
10
220.38100891180935
20
815.9632568359375
11
240.17999878510935
21
835.7622467091375
0
LINE
5
1E6
100
AcDbEntity
8
0
62
7.0
100
AcDbLine
10
240.17999878510935
20
796.1642669627375
11
220.38100891180935
21
815.9632568359375
0
ARC
5
1E7
100
AcDbEntity
8
0
62
7.0
100
AcDbCircle
10
250.96191101141875
20
330.86407470703125
40
28.0
50
-45.0
51
45.0
0
LINE
5
1E8
100
AcDbEntity
8
0
62
7.0
100
AcDbLine
10
250.96191101141875
20
330.86407470703125
11
270.76090088471875
21
350.66306458023126
0
LINE
5
1E9
100
AcDbEntity
8
0
62
7.0
100
AcDbLine
10
270.76090088471875
20
311.06508483383124
11
250.96191101141875
21
330.86407470703125
0
ARC
5
1EA
100
AcDbEntity
8
0
62
7.0
100
AcDbCircle
10
276.971133422175
20
371.5274963378906
40
28.0
50
135.0
51
225.0
0
LINE
5
1EB
100
AcDbEntity
8
0
62
7.0
100
AcDbLine
10
276.971133422175
20
371.5274963378906
11
257.172143548875
21
351.7285064646906
0
LINE
5
1EC
100
AcDbEntity
8
0
62
7.0
100
AcDbLine
10
257.172143548875
20
391.32648621109064
11
276.971133422175
21
371.5274963378906
0
ARC
5
1ED
100
AcDbEntity
8
0
62
7.0
100
AcDbCircle
10
241.293026734075
20
535.7367553710938
40
28.0
50
-45.0
51
45.0
0
LINE
5
1EE
100
AcDbEntity
8
0
62
7.0
100
AcDbLine
10
241.293026734075
20
535.7367553710938
11
261.092016607375
21
555.5357452442937
0
LINE
5
1EF
100
AcDbEntity
8
0
62
7.0
100
AcDbLine
10
261.092016607375
20
515.9377654978938
11
241.293026734075
21
535.7367553710938
0
ARC
5
1F0
100
AcDbEntity
8
0
62
7.0
100
AcDbCircle
10
223.4050109870047
20
852.8528442382813
40
28.0
50
-45.0
51
45.0
0
LINE
5
1F1
100
AcDbEntity
8
0
62
7.0
100
AcDbLine
10
223.4050109870047
20
852.8528442382813
11
243.2040008603047
21
872.6518341114812
0
LINE
5
1F2
100
AcDbEntity
8
0
62
7.0
100
AcDbLine
10
243.2040008603047
20
833.0538543650813
11
223.4050109870047
21
852.8528442382813
0
ARC
5
1F3
100
AcDbEntity
8
0
62
7.0
100
AcDbCircle
10
264.1805419921875
20
110.06696777411406
40
28.0
50
45.0
51
135.0
0
LINE
5
1F4
100
AcDbEntity
8
0
62
7.0
100
AcDbLine
10
264.1805419921875
20
110.06696777411406
11
244.38155211898749
21
129.86595764741406
0
LINE
5
1F5
100
AcDbEntity
8
0
62
7.0
100
AcDbLine
10
283.9795318653875
20
129.86595764741406
11
264.1805419921875
21
110.06696777411406
0
ARC
5
1F6
100
AcDbEntity
8
0
62
7.0
100
AcDbCircle
10
273.4382049553781
20
461.3633728027344
40
28.0
50
135.0
51
225.0
0
LINE
5
1F7
100
AcDbEntity
8
0
62
7.0
100
AcDbLine
10
273.4382049553781
20
461.3633728027344
11
253.63921508207812
21
441.56438292953436
0
LINE
5
1F8
100
AcDbEntity
8
0
62
7.0
100
AcDbLine
10
253.63921508207812
20
481.1623626759344
11
273.4382049553781
21
461.3633728027344
0
ARC
5
1F9
100
AcDbEntity
8
0
62
7.0
100
AcDbCircle
10
225.9593322760672
20
765.5279541015625
40
28.0
50
-45.0
51
45.0
0
LINE
5
1FA
100
AcDbEntity
8
0
62
7.0
100
AcDbLine
10
225.9593322760672
20
765.5279541015625
11
245.7583221493672
21
785.3269439747625
0
LINE
5
1FB
100
AcDbEntity
8
0
62
7.0
100
AcDbLine
10
245.7583221493672
20
745.7289642283625
11
225.9593322760672
21
765.5279541015625
0
ARC
5
1FC
100
AcDbEntity
8
0
62
7.0
100
AcDbCircle
10
246.58117370673125
20
434.1644287109375
40
28.0
50
-45.0
51
45.0
0
LINE
5
1FD
100
AcDbEntity
8
0
62
7.0
100
AcDbLine
10
246.58117370673125
20
434.1644287109375
11
266.38016358003125
21
453.9634185841375
0
LINE
5
1FE
100
AcDbEntity
8
0
62
7.0
100
AcDbLine
10
266.38016358003125
20
414.3654388377375
11
246.58117370673125
21
434.1644287109375
0
ARC
5
1FF
100
AcDbEntity
8
0
62
7.0
100
AcDbCircle
10
250.4432952887625
20
398.20465087890625
40
28.0
50
-45.0
51
45.0
0
LINE
5
200
100
AcDbEntity
8
0
62
7.0
100
AcDbLine
10
250.4432952887625
20
398.20465087890625
11
270.2422851620625
21
418.00364075210626
0
LINE
5
201
100
AcDbEntity
8
0
62
7.0
100
AcDbLine
10
270.2422851620625
20
378.40566100570624
11
250.4432952887625
21
398.20465087890625
0
ARC
5
202
100
AcDbEntity
8
0
62
7.0
100
AcDbCircle
10
263.3483612053781
20
609.1754760742188
40
28.0
50
135.0
51
225.0
0
LINE
5
203
100
AcDbEntity
8
0
62
7.0
100
AcDbLine
10
263.3483612053781
20
609.1754760742188
11
243.54937133207812
21
589.3764862010188
0
LINE
5
204
100
AcDbEntity
8
0
62
7.0
100
AcDbLine
10
243.54937133207812
20
628.9744659474187
11
263.3483612053781
21
609.1754760742188
0
ARC
5
205
100
AcDbEntity
8
0
62
7.0
100
AcDbCircle
10
278.725039672175
20
743.25341796875
40
28.0
50
135.0
51
225.0
0
LINE
5
206
100
AcDbEntity
8
0
62
7.0
100
AcDbLine
10
278.725039672175
20
743.25341796875
11
258.926049798875
21
723.45442809555
0
LINE
5
207
100
AcDbEntity
8
0
62
7.0
100
AcDbLine
10
258.926049798875
20
763.05240784195
11
278.725039672175
21
743.25341796875
0
ARC
5
208
100
AcDbEntity
8
0
62
7.0
100
AcDbCircle
10
245.662655640325
20
579.6412353515625
40
28.0
50
-45.0
51
45.0
0
LINE
5
209
100
AcDbEntity
8
0
62
7.0
100
AcDbLine
10
245.662655640325
20
579.6412353515625
11
265.461645513625
21
599.4402252247625
0
LINE
5
20A
100
AcDbEntity
8
0
62
7.0
100
AcDbLine
10
265.461645513625
20
559.8422454783625
11
245.662655640325
21
579.6412353515625
0
ARC
5
20B
100
AcDbEntity
8
0
62
7.0
100
AcDbCircle
10
274.4321624749094
20
793.8036499023438
40
28.0
50
135.0
51
225.0
0
LINE
5
20C
100
AcDbEntity
8
0
62
7.0
100
AcDbLine
10
274.4321624749094
20
793.8036499023438
11
254.63317260160937
21
774.0046600291438
0
LINE
5
20D
100
AcDbEntity
8
0
62
7.0
100
AcDbLine
10
254.63317260160937
20
813.6026397755437
11
274.4321624749094
21
793.8036499023438
0
ARC
5
20E
100
AcDbEntity
8
0
62
7.0
100
AcDbCircle
10
256.60683898993443
20
254.0963592529297
40
28.0
50
-45.0
51
45.0
0
LINE
5
20F
100
AcDbEntity
8
0
62
7.0
100
AcDbLine
10
256.60683898993443
20
254.0963592529297
11
276.40582886323443
21
273.8953491261297
0
LINE
5
210
100
AcDbEntity
8
0
62
7.0
100
AcDbLine
10
276.40582886323443
20
234.29736937972967
11
256.60683898993443
21
254.0963592529297
0
ARC
5
211
100
AcDbEntity
8
0
62
7.0
100
AcDbCircle
10
242.2338409423828
20
873.1828582770438
40
28.0
50
45.0
51
135.0
0
LINE
5
212
100
AcDbEntity
8
0
62
7.0
100
AcDbLine
10
242.2338409423828
20
873.1828582770438
11
222.4348510691828
21
892.9818481503437
0
LINE
5
213
100
AcDbEntity
8
0
62
7.0
100
AcDbLine
10
262.0328308155828
20
892.9818481503437
11
242.2338409423828
21
873.1828582770438
0
ARC
5
214
100
AcDbEntity
8
0
62
7.0
100
AcDbCircle
10
238.3109710700125
20
670.200927734375
40
28.0
50
-45.0
51
45.0
0
LINE
5
215
100
AcDbEntity
8
0
62
7.0
100
AcDbLine
10
238.3109710700125
20
670.200927734375
11
258.1099609433125
21
689.999917607575
0
LINE
5
216
100
AcDbEntity
8
0
62
7.0
100
AcDbLine
10
258.1099609433125
20
650.401937861175
11
238.3109710700125
21
670.200927734375
0
ARC
5
217
100
AcDbEntity
8
0
62
7.0
100
AcDbCircle
10
265.12762451171875
20
726.056094359675
40
28.0
50
-135.0
51
-45.0
0
LINE
5
218
100
AcDbEntity
8
0
62
7.0
100
AcDbLine
10
265.12762451171875
20
726.056094359675
11
284.92661438491876
21
706.257104486375
0
LINE
5
219
100
AcDbEntity
8
0
62
7.0
100
AcDbLine
10
245.32863463851876
20
706.2571044863749
11
265.12762451171875
21
726.056094359675
0
ARC
5
21A
100
AcDbEntity
8
0
62
7.0
100
AcDbCircle
10
260.93206787109375
20
611.7337615973563
40
28.0
50
45.0
51
135.0
0
LINE
5
21B
100
AcDbEntity
8
0
62
7.0
100
AcDbLine
10
260.93206787109375
20
611.7337615973563
11
241.13307799789374
21
631.5327514706562
0
LINE
5
21C
100
AcDbEntity
8
0
62
7.0
100
AcDbLine
10
280.73105774429376
20
631.5327514706562
11
260.93206787109375
21
611.7337615973563
0
ARC
5
21D
100
AcDbEntity
8
0
62
7.0
100
AcDbCircle
10
247.34585266180935
20
823.8486938476563
40
28.0
50
-45.0
51
45.0
0
LINE
5
21E
100
AcDbEntity
8
0
62
7.0
100
AcDbLine
10
247.34585266180935
20
823.8486938476563
11
267.1448425351093
21
843.6476837208562
0
LINE
5
21F
100
AcDbEntity
8
0
62
7.0
100
AcDbLine
10
267.1448425351093
20
804.0497039744563
11
247.34585266180935
21
823.8486938476563
0
ARC
5
220
100
AcDbEntity
8
0
62
7.0
100
AcDbCircle
10
263.0527038574219
20
853.1225555426688
40
28.0
50
45.0
51
135.0
0
LINE
5
221
100
AcDbEntity
8
0
62
7.0
100
AcDbLine
10
263.0527038574219
20
853.1225555426688
11
243.25371398422186
21
872.9215454159687
0
LINE
5
222
100
AcDbEntity
8
0
62
7.0
100
AcDbLine
10
282.8516937306219
20
872.9215454159687
11
263.0527038574219
21
853.1225555426688
0
ARC
5
223
100
AcDbEntity
8
0
62
7.0
100
AcDbCircle
10
287.0628387444406
20
487.6525573730469
40
28.0
50
135.0
51
225.0
0
LINE
5
224
100
AcDbEntity
8
0
62
7.0
100
AcDbLine
10
287.0628387444406
20
487.6525573730469
11
267.2638488711406
21
467.85356749984686
0
LINE
5
225
100
AcDbEntity
8
0
62
7.0
100
AcDbLine
10
267.2638488711406
20
507.4515472462469
11
287.0628387444406
21
487.6525573730469
0
ARC
5
226
100
AcDbEntity
8
0
62
7.0
100
AcDbCircle
10
269.4796417243094
20
281.13653564453125
40
28.0
50
-45.0
51
45.0
0
LINE
5
227
100
AcDbEntity
8
0
62
7.0
100
AcDbLine
10
269.4796417243094
20
281.13653564453125
11
289.2786315976094
21
300.93552551773126
0
LINE
5
228
100
AcDbEntity
8
0
62
7.0
100
AcDbLine
10
289.2786315976094
20
261.33754577133124
11
269.4796417243094
21
281.13653564453125
0
ARC
5
229
100
AcDbEntity
8
0
62
7.0
100
AcDbCircle
10
273.84783935546875
20
786.8541900628
40
28.0
50
-135.0
51
-45.0
0
LINE
5
22A
100
AcDbEntity
8
0
62
7.0
100
AcDbLine
10
273.84783935546875
20
786.8541900628
11
293.64682922866876
21
767.0552001895
0
LINE
5
22B
100
AcDbEntity
8
0
62
7.0
100
AcDbLine
10
254.04884948226876
20
767.0552001894999
11
273.84783935546875
21
786.8541900628
0
ARC
5
22C
100
AcDbEntity
8
0
62
7.0
100
AcDbCircle
10
263.6833770758719
20
358.07794189453125
40
28.0
50
-45.0
51
45.0
0
LINE
5
22D
100
AcDbEntity
8
0
62
7.0
100
AcDbLine
10
263.6833770758719
20
358.07794189453125
11
283.4823669491719
21
377.87693176773126
0
LINE
5
22E
100
AcDbEntity
8
0
62
7.0
100
AcDbLine
10
283.4823669491719
20
338.27895202133124
11
263.6833770758719
21
358.07794189453125
0
ARC
5
22F
100
AcDbEntity
8
0
62
7.0
100
AcDbCircle
10
295.06787414483125
20
519.56201171875
40
28.0
50
135.0
51
225.0
0
LINE
5
230
100
AcDbEntity
8
0
62
7.0
100
AcDbLine
10
295.06787414483125
20
519.56201171875
11
275.26888427153125
21
499.76302184555
0
LINE
5
231
100
AcDbEntity
8
0
62
7.0
100
AcDbLine
10
275.26888427153125
20
539.36100159195
11
295.06787414483125
21
519.56201171875
0
ARC
5
232
100
AcDbEntity
8
0
62
7.0
100
AcDbCircle
10
262.4732330329031
20
554.1812744140625
40
28.0
50
-45.0
51
45.0
0
LINE
5
233
100
AcDbEntity
8
0
62
7.0
100
AcDbLine
10
262.4732330329031
20
554.1812744140625
11
282.2722229062031
21
573.9802642872625
0
LINE
5
234
100
AcDbEntity
8
0
62
7.0
100
AcDbLine
10
282.2722229062031
20
534.3822845408625
11
262.4732330329031
21
554.1812744140625
0
ARC
5
235
100
AcDbEntity
8
0
62
7.0
100
AcDbCircle
10
280.2837829589844
20
632.0739715582938
40
28.0
50
45.0
51
135.0
0
LINE
5
236
100
AcDbEntity
8
0
62
7.0
100
AcDbLine
10
280.2837829589844
20
632.0739715582938
11
260.48479308578436
21
651.8729614315937
0
LINE
5
237
100
AcDbEntity
8
0
62
7.0
100
AcDbLine
10
300.0827728321844
20
651.8729614315937
11
280.2837829589844
21
632.0739715582938
0
ARC
5
238
100
AcDbEntity
8
0
62
7.0
100
AcDbCircle
10
265.89196472235625
20
802.4920654296875
40
28.0
50
-45.0
51
45.0
0
LINE
5
239
100
AcDbEntity
8
0
62
7.0
100
AcDbLine
10
265.89196472235625
20
802.4920654296875
11
285.69095459565625
21
822.2910553028875
0
LINE
5
23A
100
AcDbEntity
8
0
62
7.0
100
AcDbLine
10
285.69095459565625
20
782.6930755564875
11
265.89196472235625
21
802.4920654296875
0
ARC
5
23B
100
AcDbEntity
8
0
62
7.0
100
AcDbCircle
10
293.6597320549875
20
679.2846069335938
40
28.0
50
135.0
51
225.0
0
LINE
5
23C
100
AcDbEntity
8
0
62
7.0
100
AcDbLine
10
293.6597320549875
20
679.2846069335938
11
273.8607421816875
21
659.4856170603938
0
LINE
5
23D
100
AcDbEntity
8
0
62
7.0
100
AcDbLine
10
273.8607421816875
20
699.0835968067937
11
293.6597320549875
21
679.2846069335938
0
ARC
5
23E
100
AcDbEntity
8
0
62
7.0
100
AcDbCircle
10
263.5063751227469
20
727.8223266601563
40
28.0
50
-45.0
51
45.0
0
LINE
5
23F
100
AcDbEntity
8
0
62
7.0
100
AcDbLine
10
263.5063751227469
20
727.8223266601563
11
283.3053649960469
21
747.6213165333562
0
LINE
5
240
100
AcDbEntity
8
0
62
7.0
100
AcDbLine
10
283.3053649960469
20
708.0233367869563
11
263.5063751227469
21
727.8223266601563
0
ARC
5
241
100
AcDbEntity
8
0
62
7.0
100
AcDbCircle
10
261.1269195563406
20
611.7865600585938
40
28.0
50
-45.0
51
45.0
0
LINE
5
242
100
AcDbEntity
8
0
62
7.0
100
AcDbLine
10
261.1269195563406
20
611.7865600585938
11
280.9259094296406
21
631.5855499317937
0
LINE
5
243
100
AcDbEntity
8
0
62
7.0
100
AcDbLine
10
280.9259094296406
20
591.9875701853938
11
261.1269195563406
21
611.7865600585938
0
ARC
5
244
100
AcDbEntity
8
0
62
7.0
100
AcDbCircle
10
267.9417388922781
20
452.3853759765625
40
28.0
50
-45.0
51
45.0
0
LINE
5
245
100
AcDbEntity
8
0
62
7.0
100
AcDbLine
10
267.9417388922781
20
452.3853759765625
11
287.7407287655781
21
472.1843658497625
0
LINE
5
246
100
AcDbEntity
8
0
62
7.0
100
AcDbLine
10
287.7407287655781
20
432.5863861033625
11
267.9417388922781
21
452.3853759765625
0
ARC
5
247
100
AcDbEntity
8
0
62
7.0
100
AcDbCircle
10
260.6077545172781
20
850.4993896484375
40
28.0
50
-45.0
51
45.0
0
LINE
5
248
100
AcDbEntity
8
0
62
7.0
100
AcDbLine
10
260.6077545172781
20
850.4993896484375
11
280.4067443905781
21
870.2983795216375
0
LINE
5
249
100
AcDbEntity
8
0
62
7.0
100
AcDbLine
10
280.4067443905781
20
830.7003997752375
11
260.6077545172781
21
850.4993896484375
0
ARC
5
24A
100
AcDbEntity
8
0
62
7.0
100
AcDbCircle
10
271.8455474860281
20
416.3737182617187
40
28.0
50
-45.0
51
45.0
0
LINE
5
24B
100
AcDbEntity
8
0
62
7.0
100
AcDbLine
10
271.8455474860281
20
416.3737182617187
11
291.6445373593281
21
436.1727081349187
0
LINE
5
24C
100
AcDbEntity
8
0
62
7.0
100
AcDbLine
10
291.6445373593281
20
396.5747283885187
11
271.8455474860281
21
416.3737182617187
0
ARC
5
24D
100
AcDbEntity
8
0
62
7.0
100
AcDbCircle
10
267.8867462164969
20
146.1072998046875
40
28.0
50
-45.0
51
45.0
0
LINE
5
24E
100
AcDbEntity
8
0
62
7.0
100
AcDbLine
10
267.8867462164969
20
146.1072998046875
11
287.6857360897969
21
165.90628967788751
0
LINE
5
24F
100
AcDbEntity
8
0
62
7.0
100
AcDbLine
10
287.6857360897969
20
126.3083099314875
11
267.8867462164969
21
146.1072998046875
0
ARC
5
250
100
AcDbEntity
8
0
62
7.0
100
AcDbCircle
10
280.49420166015625
20
875.147518921575
40
28.0
50
45.0
51
135.0
0
LINE
5
251
100
AcDbEntity
8
0
62
7.0
100
AcDbLine
10
280.49420166015625
20
875.147518921575
11
260.69521178695624
21
894.946508794875
0
LINE
5
252
100
AcDbEntity
8
0
62
7.0
100
AcDbLine
10
300.29319153335626
20
894.946508794875
11
280.49420166015625
21
875.147518921575
0
ARC
5
253
100
AcDbEntity
8
0
62
7.0
100
AcDbCircle
10
269.7481964118094
20
202.14132690429688
40
28.0
50
-45.0
51
45.0
0
LINE
5
254
100
AcDbEntity
8
0
62
7.0
100
AcDbLine
10
269.7481964118094
20
202.14132690429688
11
289.5471862851094
21
221.9403167774969
0
LINE
5
255
100
AcDbEntity
8
0
62
7.0
100
AcDbLine
10
289.5471862851094
20
182.34233703109686
11
269.7481964118094
21
202.14132690429688
0
ARC
5
256
100
AcDbEntity
8
0
62
7.0
100
AcDbCircle
10
280.4186370856375
20
239.1839141845703
40
28.0
50
-45.0
51
45.0
0
LINE
5
257
100
AcDbEntity
8
0
62
7.0
100
AcDbLine
10
280.4186370856375
20
239.1839141845703
11
300.2176269589375
21
258.9829040577703
0
LINE
5
258
100
AcDbEntity
8
0
62
7.0
100
AcDbLine
10
300.2176269589375
20
219.3849243113703
11
280.4186370856375
21
239.1839141845703
0
ARC
5
259
100
AcDbEntity
8
0
62
7.0
100
AcDbCircle
10
274.7235687262625
20
315.86041259765625
40
28.0
50
-45.0
51
45.0
0
LINE
5
25A
100
AcDbEntity
8
0
62
7.0
100
AcDbLine
10
274.7235687262625
20
315.86041259765625
11
294.5225585995625
21
335.65940247085626
0
LINE
5
25B
100
AcDbEntity
8
0
62
7.0
100
AcDbLine
10
294.5225585995625
20
296.06142272445624
11
274.7235687262625
21
315.86041259765625
0
ARC
5
25C
100
AcDbEntity
8
0
62
7.0
100
AcDbCircle
10
279.9510162360281
20
480.2911071777344
40
28.0
50
-45.0
51
45.0
0
LINE
5
25D
100
AcDbEntity
8
0
62
7.0
100
AcDbLine
10
279.9510162360281
20
480.2911071777344
11
299.7500061093281
21
500.0900970509344
0
LINE
5
25E
100
AcDbEntity
8
0
62
7.0
100
AcDbLine
10
299.7500061093281
20
460.49211730453436
11
279.9510162360281
21
480.2911071777344
0
ARC
5
25F
100
AcDbEntity
8
0
62
7.0
100
AcDbCircle
10
282.2626617438406
20
778.5818481445313
40
28.0
50
-45.0
51
45.0
0
LINE
5
260
100
AcDbEntity
8
0
62
7.0
100
AcDbLine
10
282.2626617438406
20
778.5818481445313
11
302.0616516171406
21
798.3808380177312
0
LINE
5
261
100
AcDbEntity
8
0
62
7.0
100
AcDbLine
10
302.0616516171406
20
758.7828582713313
11
282.2626617438406
21
778.5818481445313
0
ARC
5
262
100
AcDbEntity
8
0
62
7.0
100
AcDbCircle
10
273.44958190985625
20
583.9253540039063
40
28.0
50
-45.0
51
45.0
0
LINE
5
263
100
AcDbEntity
8
0
62
7.0
100
AcDbLine
10
273.44958190985625
20
583.9253540039063
11
293.24857178315625
21
603.7243438771062
0
LINE
5
264
100
AcDbEntity
8
0
62
7.0
100
AcDbLine
10
293.24857178315625
20
564.1263641307063
11
273.44958190985625
21
583.9253540039063
0
ARC
5
265
100
AcDbEntity
8
0
62
7.0
100
AcDbCircle
10
318.76971740655
20
916.2537231445313
40
28.0
50
135.0
51
225.0
0
LINE
5
266
100
AcDbEntity
8
0
62
7.0
100
AcDbLine
10
318.76971740655
20
916.2537231445313
11
298.97072753325
21
896.4547332713313
0
LINE
5
267
100
AcDbEntity
8
0
62
7.0
100
AcDbLine
10
298.97072753325
20
936.0527130177312
11
318.76971740655
21
916.2537231445313
0
ARC
5
268
100
AcDbEntity
8
0
62
7.0
100
AcDbCircle
10
276.04821472235625
20
697.0450439453125
40
28.0
50
-45.0
51
45.0
0
LINE
5
269
100
AcDbEntity
8
0
62
7.0
100
AcDbLine
10
276.04821472235625
20
697.0450439453125
11
295.84720459565625
21
716.8440338185125
0
LINE
5
26A
100
AcDbEntity
8
0
62
7.0
100
AcDbLine
10
295.84720459565625
20
677.2460540721125
11
276.04821472235625
21
697.0450439453125
0
ARC
5
26B
100
AcDbEntity
8
0
62
7.0
100
AcDbCircle
10
317.63293762139375
20
120.21771240234376
40
28.0
50
135.0
51
225.0
0
LINE
5
26C
100
AcDbEntity
8
0
62
7.0
100
AcDbLine
10
317.63293762139375
20
120.21771240234376
11
297.83394774809375
21
100.41872252914376
0
LINE
5
26D
100
AcDbEntity
8
0
62
7.0
100
AcDbLine
10
297.83394774809375
20
140.01670227554376
11
317.63293762139375
21
120.21771240234376
0
ARC
5
26E
100
AcDbEntity
8
0
62
7.0
100
AcDbCircle
10
286.4554718024344
20
665.6608276367188
40
28.0
50
-45.0
51
45.0
0
LINE
5
26F
100
AcDbEntity
8
0
62
7.0
100
AcDbLine
10
286.4554718024344
20
665.6608276367188
11
306.2544616757344
21
685.4598175099187
0
LINE
5
270
100
AcDbEntity
8
0
62
7.0
100
AcDbLine
10
306.2544616757344
20
645.8618377635188
11
286.4554718024344
21
665.6608276367188
0
ARC
5
271
100
AcDbEntity
8
0
62
7.0
100
AcDbCircle
10
321.0426971428781
20
163.80911254882813
40
28.0
50
135.0
51
225.0
0
LINE
5
272
100
AcDbEntity
8
0
62
7.0
100
AcDbLine
10
321.0426971428781
20
163.80911254882813
11
301.2437072695781
21
144.0101226756281
0
LINE
5
273
100
AcDbEntity
8
0
62
7.0
100
AcDbLine
10
301.2437072695781
20
183.60810242202814
11
321.0426971428781
21
163.80911254882813
0
ARC
5
274
100
AcDbEntity
8
0
62
7.0
100
AcDbCircle
10
295.6575622558594
20
366.0219085700125
40
28.0
50
45.0
51
135.0
0
LINE
5
275
100
AcDbEntity
8
0
62
7.0
100
AcDbLine
10
295.6575622558594
20
366.0219085700125
11
275.85857238265936
21
385.8208984433125
0
LINE
5
276
100
AcDbEntity
8
0
62
7.0
100
AcDbLine
10
315.4565521290594
20
385.8208984433125
11
295.6575622558594
21
366.0219085700125
0
ARC
5
277
100
AcDbEntity
8
0
62
7.0
100
AcDbCircle
10
295.11242370673125
20
189.8897399902344
40
28.0
50
-45.0
51
45.0
0
LINE
5
278
100
AcDbEntity
8
0
62
7.0
100
AcDbLine
10
295.11242370673125
20
189.8897399902344
11
314.91141358003125
21
209.6887298634344
0
LINE
5
279
100
AcDbEntity
8
0
62
7.0
100
AcDbLine
10
314.91141358003125
20
170.09075011703442
11
295.11242370673125
21
189.8897399902344
0
ARC
5
27A
100
AcDbEntity
8
0
62
7.0
100
AcDbCircle
10
288.451718140325
20
618.2949829101563
40
28.0
50
-45.0
51
45.0
0
LINE
5
27B
100
AcDbEntity
8
0
62
7.0
100
AcDbLine
10
288.451718140325
20
618.2949829101563
11
308.250708013625
21
638.0939727833562
0
LINE
5
27C
100
AcDbEntity
8
0
62
7.0
100
AcDbLine
10
308.250708013625
20
598.4959930369563
11
288.451718140325
21
618.2949829101563
0
ARC
5
27D
100
AcDbEntity
8
0
62
7.0
100
AcDbCircle
10
297.75872802734375
20
847.8762847893624
40
28.0
50
-135.0
51
-45.0
0
LINE
5
27E
100
AcDbEntity
8
0
62
7.0
100
AcDbLine
10
297.75872802734375
20
847.8762847893624
11
317.55771790054376
21
828.0772949160626
0
LINE
5
27F
100
AcDbEntity
8
0
62
7.0
100
AcDbLine
10
277.95973815414374
20
828.0772949160624
11
297.75872802734375
21
847.8762847893624
0
ARC
5
280
100
AcDbEntity
8
0
62
7.0
100
AcDbCircle
10
282.105038452825
20
532.6663818359375
40
28.0
50
-45.0
51
45.0
0
LINE
5
281
100
AcDbEntity
8
0
62
7.0
100
AcDbLine
10
282.105038452825
20
532.6663818359375
11
301.904028326125
21
552.4653717091375
0
LINE
5
282
100
AcDbEntity
8
0
62
7.0
100
AcDbLine
10
301.904028326125
20
512.8673919627375
11
282.105038452825
21
532.6663818359375
0
ARC
5
283
100
AcDbEntity
8
0
62
7.0
100
AcDbCircle
10
280.5690277106375
20
870.4852294921875
40
28.0
50
-45.0
51
45.0
0
LINE
5
284
100
AcDbEntity
8
0
62
7.0
100
AcDbLine
10
280.5690277106375
20
870.4852294921875
11
300.3680175839375
21
890.2842193653875
0
LINE
5
285
100
AcDbEntity
8
0
62
7.0
100
AcDbLine
10
300.3680175839375
20
850.6862396189875
11
280.5690277106375
21
870.4852294921875
0
ARC
5
286
100
AcDbEntity
8
0
62
7.0
100
AcDbCircle
10
331.5925933831125
20
558.9588012695313
40
28.0
50
135.0
51
225.0
0
LINE
5
287
100
AcDbEntity
8
0
62
7.0
100
AcDbLine
10
331.5925933831125
20
558.9588012695313
11
311.7936035098125
21
539.1598113963313
0
LINE
5
288
100
AcDbEntity
8
0
62
7.0
100
AcDbLine
10
311.7936035098125
20
578.7577911427312
11
331.5925933831125
21
558.9588012695313
0
ARC
5
289
100
AcDbEntity
8
0
62
7.0
100
AcDbCircle
10
319.2723114006906
20
349.8919372558594
40
28.0
50
135.0
51
225.0
0
LINE
5
28A
100
AcDbEntity
8
0
62
7.0
100
AcDbLine
10
319.2723114006906
20
349.8919372558594
11
299.4733215273906
21
330.09294738265936
0
LINE
5
28B
100
AcDbEntity
8
0
62
7.0
100
AcDbLine
10
299.4733215273906
20
369.6909271290594
11
319.2723114006906
21
349.8919372558594
0
ARC
5
28C
100
AcDbEntity
8
0
62
7.0
100
AcDbCircle
10
324.99133605889375
20
273.1728515625
40
28.0
50
135.0
51
225.0
0
LINE
5
28D
100
AcDbEntity
8
0
62
7.0
100
AcDbLine
10
324.99133605889375
20
273.1728515625
11
305.19234618559375
21
253.37386168929999
0
LINE
5
28E
100
AcDbEntity
8
0
62
7.0
100
AcDbLine
10
305.19234618559375
20
292.9718414357
11
324.99133605889375
21
273.1728515625
0
ARC
5
28F
100
AcDbEntity
8
0
62
7.0
100
AcDbCircle
10
330.6322967522531
20
307.4443359375
40
28.0
50
135.0
51
225.0
0
LINE
5
290
100
AcDbEntity
8
0
62
7.0
100
AcDbLine
10
330.6322967522531
20
307.4443359375
11
310.8333068789531
21
287.6453460643
0
LINE
5
291
100
AcDbEntity
8
0
62
7.0
100
AcDbLine
10
310.8333068789531
20
327.2433258107
11
330.6322967522531
21
307.4443359375
0
ARC
5
292
100
AcDbEntity
8
0
62
7.0
100
AcDbCircle
10
299.56298523016875
20
369.7429504394531
40
28.0
50
-45.0
51
45.0
0
LINE
5
293
100
AcDbEntity
8
0
62
7.0
100
AcDbLine
10
299.56298523016875
20
369.7429504394531
11
319.36197510346875
21
389.54194031265314
0
LINE
5
294
100
AcDbEntity
8
0
62
7.0
100
AcDbLine
10
319.36197510346875
20
349.9439605662531
11
299.56298523016875
21
369.7429504394531
0
ARC
5
295
100
AcDbEntity
8
0
62
7.0
100
AcDbCircle
10
320.5643646233469
20
731.0960083007813
40
28.0
50
135.0
51
225.0
0
LINE
5
296
100
AcDbEntity
8
0
62
7.0
100
AcDbLine
10
320.5643646233469
20
731.0960083007813
11
300.7653747500469
21
711.2970184275813
0
LINE
5
297
100
AcDbEntity
8
0
62
7.0
100
AcDbLine
10
300.7653747500469
20
750.8949981739812
11
320.5643646233469
21
731.0960083007813
0
ARC
5
298
100
AcDbEntity
8
0
62
7.0
100
AcDbCircle
10
327.64892883233125
20
411.3326416015625
40
28.0
50
135.0
51
225.0
0
LINE
5
299
100
AcDbEntity
8
0
62
7.0
100
AcDbLine
10
327.64892883233125
20
411.3326416015625
11
307.84993895903125
21
391.5336517283625
0
LINE
5
29A
100
AcDbEntity
8
0
62
7.0
100
AcDbLine
10
307.84993895903125
20
431.1316314747625
11
327.64892883233125
21
411.3326416015625
0
ARC
5
29B
100
AcDbEntity
8
0
62
7.0
100
AcDbCircle
10
294.8422515875906
20
444.2889404296875
40
28.0
50
-45.0
51
45.0
0
LINE
5
29C
100
AcDbEntity
8
0
62
7.0
100
AcDbLine
10
294.8422515875906
20
444.2889404296875
11
314.6412414608906
21
464.0879303028875
0
LINE
5
29D
100
AcDbEntity
8
0
62
7.0
100
AcDbLine
10
314.6412414608906
20
424.4899505564875
11
294.8422515875906
21
444.2889404296875
0
ARC
5
29E
100
AcDbEntity
8
0
62
7.0
100
AcDbCircle
10
331.8304168694406
20
702.2864379882813
40
28.0
50
135.0
51
225.0
0
LINE
5
29F
100
AcDbEntity
8
0
62
7.0
100
AcDbLine
10
331.8304168694406
20
702.2864379882813
11
312.0314269961406
21
682.4874481150813
0
LINE
5
2A0
100
AcDbEntity
8
0
62
7.0
100
AcDbLine
10
312.0314269961406
20
722.0854278614812
11
331.8304168694406
21
702.2864379882813
0
ARC
5
2A1
100
AcDbEntity
8
0
62
7.0
100
AcDbCircle
10
304.3935821539969
20
333.8267822265625
40
28.0
50
-45.0
51
45.0
0
LINE
5
2A2
100
AcDbEntity
8
0
62
7.0
100
AcDbLine
10
304.3935821539969
20
333.8267822265625
11
324.1925720272969
21
353.6257720997625
0
LINE
5
2A3
100
AcDbEntity
8
0
62
7.0
100
AcDbLine
10
324.1925720272969
20
314.0277923533625
11
304.3935821539969
21
333.8267822265625
0
ARC
5
2A4
100
AcDbEntity
8
0
62
7.0
100
AcDbCircle
10
338.1726409905344
20
592.2901000976563
40
28.0
50
135.0
51
225.0
0
LINE
5
2A5
100
AcDbEntity
8
0
62
7.0
100
AcDbLine
10
338.1726409905344
20
592.2901000976563
11
318.3736511172344
21
572.4911102244563
0
LINE
5
2A6
100
AcDbEntity
8
0
62
7.0
100
AcDbLine
10
318.3736511172344
20
612.0890899708562
11
338.1726409905344
21
592.2901000976563
0
ARC
5
2A7
100
AcDbEntity
8
0
62
7.0
100
AcDbCircle
10
302.44640808173125
20
798.255615234375
40
28.0
50
-45.0
51
45.0
0
LINE
5
2A8
100
AcDbEntity
8
0
62
7.0
100
AcDbLine
10
302.44640808173125
20
798.255615234375
11
322.24539795503125
21
818.054605107575
0
LINE
5
2A9
100
AcDbEntity
8
0
62
7.0
100
AcDbLine
10
322.24539795503125
20
778.456625361175
11
302.44640808173125
21
798.255615234375
0
ARC
5
2AA
100
AcDbEntity
8
0
62
7.0
100
AcDbCircle
10
298.2446563727469
20
892.7293701171875
40
28.0
50
-45.0
51
45.0
0
LINE
5
2AB
100
AcDbEntity
8
0
62
7.0
100
AcDbLine
10
298.2446563727469
20
892.7293701171875
11
318.0436462460469
21
912.5283599903875
0
LINE
5
2AC
100
AcDbEntity
8
0
62
7.0
100
AcDbLine
10
318.0436462460469
20
872.9303802439875
11
298.2446563727469
21
892.7293701171875
0
ARC
5
2AD
100
AcDbEntity
8
0
62
7.0
100
AcDbCircle
10
335.634707640925
20
228.87274169921875
40
28.0
50
135.0
51
225.0
0
LINE
5
2AE
100
AcDbEntity
8
0
62
7.0
100
AcDbLine
10
335.634707640925
20
228.87274169921875
11
315.835717767625
21
209.07375182601874
0
LINE
5
2AF
100
AcDbEntity
8
0
62
7.0
100
AcDbLine
10
315.835717767625
20
248.67173157241876
11
335.634707640925
21
228.87274169921875
0
ARC
5
2B0
100
AcDbEntity
8
0
62
7.0
100
AcDbCircle
10
297.64233093329375
20
754.1607666015625
40
28.0
50
-45.0
51
45.0
0
LINE
5
2B1
100
AcDbEntity
8
0
62
7.0
100
AcDbLine
10
297.64233093329375
20
754.1607666015625
11
317.44132080659375
21
773.9597564747625
0
LINE
5
2B2
100
AcDbEntity
8
0
62
7.0
100
AcDbLine
10
317.44132080659375
20
734.3617767283625
11
297.64233093329375
21
754.1607666015625
0
ARC
5
2B3
100
AcDbEntity
8
0
62
7.0
100
AcDbCircle
10
313.1572265625
20
487.0007598883719
40
28.0
50
45.0
51
135.0
0
LINE
5
2B4
100
AcDbEntity
8
0
62
7.0
100
AcDbLine
10
313.1572265625
20
487.0007598883719
11
293.3582366893
21
506.7997497616719
0
LINE
5
2B5
100
AcDbEntity
8
0
62
7.0
100
AcDbLine
10
332.9562164357
20
506.7997497616719
11
313.1572265625
21
487.0007598883719
0
ARC
5
2B6
100
AcDbEntity
8
0
62
7.0
100
AcDbCircle
10
297.84423523016875
20
847.9326171875
40
28.0
50
-45.0
51
45.0
0
LINE
5
2B7
100
AcDbEntity
8
0
62
7.0
100
AcDbLine
10
297.84423523016875
20
847.9326171875
11
317.64322510346875
21
867.7316070607
0
LINE
5
2B8
100
AcDbEntity
8
0
62
7.0
100
AcDbLine
10
317.64322510346875
20
828.1336273143
11
297.84423523016875
21
847.9326171875
0
ARC
5
2B9
100
AcDbEntity
8
0
62
7.0
100
AcDbCircle
10
320.4551696777344
20
65.37896270684297
40
28.0
50
-135.0
51
-45.0
0
LINE
5
2BA
100
AcDbEntity
8
0
62
7.0
100
AcDbLine
10
320.4551696777344
20
65.37896270684297
11
340.2541595509344
21
45.57997283354297
0
LINE
5
2BB
100
AcDbEntity
8
0
62
7.0
100
AcDbLine
10
300.65617980453436
20
45.57997283354297
11
320.4551696777344
21
65.37896270684297
0
ARC
5
2BC
100
AcDbEntity
8
0
62
7.0
100
AcDbCircle
10
320.2330017089844
20
93.47849578789766
40
28.0
50
-135.0
51
-45.0
0
LINE
5
2BD
100
AcDbEntity
8
0
62
7.0
100
AcDbLine
10
320.2330017089844
20
93.47849578789766
11
340.0319915821844
21
73.67950591459766
0
LINE
5
2BE
100
AcDbEntity
8
0
62
7.0
100
AcDbLine
10
300.43401183578436
20
73.67950591459766
11
320.2330017089844
21
93.47849578789766
0
ARC
5
2BF
100
AcDbEntity
8
0
62
7.0
100
AcDbCircle
10
300.0503204352469
20
137.9442138671875
40
28.0
50
-45.0
51
45.0
0
LINE
5
2C0
100
AcDbEntity
8
0
62
7.0
100
AcDbLine
10
300.0503204352469
20
137.9442138671875
11
319.8493103085469
21
157.74320374038751
0
LINE
5
2C1
100
AcDbEntity
8
0
62
7.0
100
AcDbLine
10
319.8493103085469
20
118.1452239939875
11
300.0503204352469
21
137.9442138671875
0
ARC
5
2C2
100
AcDbEntity
8
0
62
7.0
100
AcDbCircle
10
338.3539764397531
20
643.76708984375
40
28.0
50
135.0
51
225.0
0
LINE
5
2C3
100
AcDbEntity
8
0
62
7.0
100
AcDbLine
10
338.3539764397531
20
643.76708984375
11
318.5549865664531
21
623.96809997055
0
LINE
5
2C4
100
AcDbEntity
8
0
62
7.0
100
AcDbLine
10
318.5549865664531
20
663.56607971695
11
338.3539764397531
21
643.76708984375
0
ARC
5
2C5
100
AcDbEntity
8
0
62
7.0
100
AcDbCircle
10
346.05163879326875
20
922.971435546875
40
28.0
50
135.0
51
225.0
0
LINE
5
2C6
100
AcDbEntity
8
0
62
7.0
100
AcDbLine
10
346.05163879326875
20
922.971435546875
11
326.25264891996875
21
903.172445673675
0
LINE
5
2C7
100
AcDbEntity
8
0
62
7.0
100
AcDbLine
10
326.25264891996875
20
942.770425420075
11
346.05163879326875
21
922.971435546875
0
ARC
5
2C8
100
AcDbEntity
8
0
62
7.0
100
AcDbCircle
10
327.7674865722656
20
541.1690704338937
40
28.0
50
-135.0
51
-45.0
0
LINE
5
2C9
100
AcDbEntity
8
0
62
7.0
100
AcDbLine
10
327.7674865722656
20
541.1690704338937
11
347.56647644546564
21
521.3700805605938
0
LINE
5
2CA
100
AcDbEntity
8
0
62
7.0
100
AcDbLine
10
307.9684966990656
20
521.3700805605937
11
327.7674865722656
21
541.1690704338937
0
ARC
5
2CB
100
AcDbEntity
8
0
62
7.0
100
AcDbCircle
10
325.76715087890625
20
88.08678894110625
40
28.0
50
45.0
51
135.0
0
LINE
5
2CC
100
AcDbEntity
8
0
62
7.0
100
AcDbLine
10
325.76715087890625
20
88.08678894110625
11
305.96816100570624
21
107.88577881440625
0
LINE
5
2CD
100
AcDbEntity
8
0
62
7.0
100
AcDbLine
10
345.56614075210626
20
107.88577881440625
11
325.76715087890625
21
88.08678894110625
0
ARC
5
2CE
100
AcDbEntity
8
0
62
7.0
100
AcDbCircle
10
317.8942535407156
20
160.01406860351563
40
28.0
50
-45.0
51
45.0
0
LINE
5
2CF
100
AcDbEntity
8
0
62
7.0
100
AcDbLine
10
317.8942535407156
20
160.01406860351563
11
337.6932434140156
21
179.81305847671564
0
LINE
5
2D0
100
AcDbEntity
8
0
62
7.0
100
AcDbLine
10
337.6932434140156
20
140.2150787303156
11
317.8942535407156
21
160.01406860351563
0
ARC
5
2D1
100
AcDbEntity
8
0
62
7.0
100
AcDbCircle
10
350.91614074639375
20
194.92071533203125
40
28.0
50
135.0
51
225.0
0
LINE
5
2D2
100
AcDbEntity
8
0
62
7.0
100
AcDbLine
10
350.91614074639375
20
194.92071533203125
11
331.11715087309375
21
175.12172545883124
0
LINE
5
2D3
100
AcDbEntity
8
0
62
7.0
100
AcDbLine
10
331.11715087309375
20
214.71970520523126
11
350.91614074639375
21
194.92071533203125
0
ARC
5
2D4
100
AcDbEntity
8
0
62
7.0
100
AcDbCircle
10
333.7937927246094
20
843.999453734675
40
28.0
50
-135.0
51
-45.0
0
LINE
5
2D5
100
AcDbEntity
8
0
62
7.0
100
AcDbLine
10
333.7937927246094
20
843.999453734675
11
353.5927825978094
21
824.200463861375
0
LINE
5
2D6
100
AcDbEntity
8
0
62
7.0
100
AcDbLine
10
313.99480285140936
20
824.2004638613749
11
333.7937927246094
21
843.999453734675
0
ARC
5
2D7
100
AcDbEntity
8
0
62
7.0
100
AcDbCircle
10
313.8726470954031
20
671.751708984375
40
28.0
50
-45.0
51
45.0
0
LINE
5
2D8
100
AcDbEntity
8
0
62
7.0
100
AcDbLine
10
313.8726470954031
20
671.751708984375
11
333.6716369687031
21
691.550698857575
0
LINE
5
2D9
100
AcDbEntity
8
0
62
7.0
100
AcDbLine
10
333.6716369687031
20
651.952719111175
11
313.8726470954031
21
671.751708984375
0
ARC
5
2DA
100
AcDbEntity
8
0
62
7.0
100
AcDbCircle
10
347.9133941643625
20
256.5148010253906
40
28.0
50
135.0
51
225.0
0
LINE
5
2DB
100
AcDbEntity
8
0
62
7.0
100
AcDbLine
10
347.9133941643625
20
256.5148010253906
11
328.1144042910625
21
236.7158111521906
0
LINE
5
2DC
100
AcDbEntity
8
0
62
7.0
100
AcDbLine
10
328.1144042910625
20
276.31379089859064
11
347.9133941643625
21
256.5148010253906
0
ARC
5
2DD
100
AcDbEntity
8
0
62
7.0
100
AcDbCircle
10
348.1667816155344
20
725.8748779296875
40
28.0
50
135.0
51
225.0
0
LINE
5
2DE
100
AcDbEntity
8
0
62
7.0
100
AcDbLine
10
348.1667816155344
20
725.8748779296875
11
328.3677917422344
21
706.0758880564875
0
LINE
5
2DF
100
AcDbEntity
8
0
62
7.0
100
AcDbLine
10
328.3677917422344
20
745.6738678028875
11
348.1667816155344
21
725.8748779296875
0
ARC
5
2E0
100
AcDbEntity
8
0
62
7.0
100
AcDbCircle
10
353.40051574639375
20
291.0250549316406
40
28.0
50
135.0
51
225.0
0
LINE
5
2E1
100
AcDbEntity
8
0
62
7.0
100
AcDbLine
10
353.40051574639375
20
291.0250549316406
11
333.60152587309375
21
271.2260650584406
0
LINE
5
2E2
100
AcDbEntity
8
0
62
7.0
100
AcDbLine
10
333.60152587309375
20
310.82404480484064
11
353.40051574639375
21
291.0250549316406
0
ARC
5
2E3
100
AcDbEntity
8
0
62
7.0
100
AcDbCircle
10
313.0702789313406
20
396.1474304199219
40
28.0
50
-45.0
51
45.0
0
LINE
5
2E4
100
AcDbEntity
8
0
62
7.0
100
AcDbLine
10
313.0702789313406
20
396.1474304199219
11
332.8692688046406
21
415.9464202931219
0
LINE
5
2E5
100
AcDbEntity
8
0
62
7.0
100
AcDbLine
10
332.8692688046406
20
376.34844054672186
11
313.0702789313406
21
396.1474304199219
0
ARC
5
2E6
100
AcDbEntity
8
0
62
7.0
100
AcDbCircle
10
335.09417724609375
20
850.6152313239188
40
28.0
50
45.0
51
135.0
0
LINE
5
2E7
100
AcDbEntity
8
0
62
7.0
100
AcDbLine
10
335.09417724609375
20
850.6152313239188
11
315.29518737289374
21
870.4142211972187
0
LINE
5
2E8
100
AcDbEntity
8
0
62
7.0
100
AcDbLine
10
354.89316711929376
20
870.4142211972187
11
335.09417724609375
21
850.6152313239188
0
ARC
5
2E9
100
AcDbEntity
8
0
62
7.0
100
AcDbCircle
10
306.8505523688406
20
472.206298828125
40
28.0
50
-45.0
51
45.0
0
LINE
5
2EA
100
AcDbEntity
8
0
62
7.0
100
AcDbLine
10
306.8505523688406
20
472.206298828125
11
326.6495422421406
21
492.005288701325
0
LINE
5
2EB
100
AcDbEntity
8
0
62
7.0
100
AcDbLine
10
326.6495422421406
20
452.407308954925
11
306.8505523688406
21
472.206298828125
0
ARC
5
2EC
100
AcDbEntity
8
0
62
7.0
100
AcDbCircle
10
354.6724273674875
20
358.5531921386719
40
28.0
50
135.0
51
225.0
0
LINE
5
2ED
100
AcDbEntity
8
0
62
7.0
100
AcDbLine
10
354.6724273674875
20
358.5531921386719
11
334.8734374941875
21
338.75420226547186
0
LINE
5
2EE
100
AcDbEntity
8
0
62
7.0
100
AcDbLine
10
334.8734374941875
20
378.3521820118719
11
354.6724273674875
21
358.5531921386719
0
ARC
5
2EF
100
AcDbEntity
8
0
62
7.0
100
AcDbCircle
10
320.69921569891875
20
428.4295349121094
40
28.0
50
-45.0
51
45.0
0
LINE
5
2F0
100
AcDbEntity
8
0
62
7.0
100
AcDbLine
10
320.69921569891875
20
428.4295349121094
11
340.49820557221875
21
448.2285247853094
0
LINE
5
2F1
100
AcDbEntity
8
0
62
7.0
100
AcDbLine
10
340.49820557221875
20
408.63054503890936
11
320.69921569891875
21
428.4295349121094
0
ARC
5
2F2
100
AcDbEntity
8
0
62
7.0
100
AcDbCircle
10
353.2312957756906
20
761.2354125976563
40
28.0
50
135.0
51
225.0
0
LINE
5
2F3
100
AcDbEntity
8
0
62
7.0
100
AcDbLine
10
353.2312957756906
20
761.2354125976563
11
333.4323059023906
21
741.4364227244563
0
LINE
5
2F4
100
AcDbEntity
8
0
62
7.0
100
AcDbLine
10
333.4323059023906
20
781.0344024708562
11
353.2312957756906
21
761.2354125976563
0
ARC
5
2F5
100
AcDbEntity
8
0
62
7.0
100
AcDbCircle
10
343.60858154296875
20
564.3596832268624
40
28.0
50
-135.0
51
-45.0
0
LINE
5
2F6
100
AcDbEntity
8
0
62
7.0
100
AcDbLine
10
343.60858154296875
20
564.3596832268624
11
363.40757141616876
21
544.5606933535626
0
LINE
5
2F7
100
AcDbEntity
8
0
62
7.0
100
AcDbLine
10
323.80959166976874
20
544.5606933535624
11
343.60858154296875
21
564.3596832268624
0
ARC
5
2F8
100
AcDbEntity
8
0
62
7.0
100
AcDbCircle
10
327.6214263922781
20
60.8354606628418
40
28.0
50
-45.0
51
45.0
0
LINE
5
2F9
100
AcDbEntity
8
0
62
7.0
100
AcDbLine
10
327.6214263922781
20
60.8354606628418
11
347.4204162655781
21
80.6344505360418
0
LINE
5
2FA
100
AcDbEntity
8
0
62
7.0
100
AcDbLine
10
347.4204162655781
20
41.0364707896418
11
327.6214263922781
21
60.8354606628418
0
ARC
5
2FB
100
AcDbEntity
8
0
62
7.0
100
AcDbCircle
10
338.2084045410156
20
592.0887481682687
40
28.0
50
-135.0
51
-45.0
0
LINE
5
2FC
100
AcDbEntity
8
0
62
7.0
100
AcDbLine
10
338.2084045410156
20
592.0887481682687
11
358.00739441421564
21
572.2897582949688
0
LINE
5
2FD
100
AcDbEntity
8
0
62
7.0
100
AcDbLine
10
318.4094146678156
20
572.2897582949687
11
338.2084045410156
21
592.0887481682687
0
ARC
5
2FE
100
AcDbEntity
8
0
62
7.0
100
AcDbCircle
10
336.0637512207031
20
633.928652953425
40
28.0
50
-135.0
51
-45.0
0
LINE
5
2FF
100
AcDbEntity
8
0
62
7.0
100
AcDbLine
10
336.0637512207031
20
633.928652953425
11
355.86274109390314
21
614.129663080125
0
LINE
5
300
100
AcDbEntity
8
0
62
7.0
100
AcDbLine
10
316.2647613475031
20
614.1296630801249
11
336.0637512207031
21
633.928652953425
0
ARC
5
301
100
AcDbEntity
8
0
62
7.0
100
AcDbCircle
10
346.118896484375
20
336.04968566826875
40
28.0
50
-135.0
51
-45.0
0
LINE
5
302
100
AcDbEntity
8
0
62
7.0
100
AcDbLine
10
346.118896484375
20
336.04968566826875
11
365.917886357575
21
316.25069579496875
0
LINE
5
303
100
AcDbEntity
8
0
62
7.0
100
AcDbLine
10
326.319906611175
20
316.25069579496875
11
346.118896484375
21
336.04968566826875
0
ARC
5
304
100
AcDbEntity
8
0
62
7.0
100
AcDbCircle
10
326.3564727789969
20
127.24205017089844
40
28.0
50
-45.0
51
45.0
0
LINE
5
305
100
AcDbEntity
8
0
62
7.0
100
AcDbLine
10
326.3564727789969
20
127.24205017089844
11
346.1554626522969
21
147.04104004409845
0
LINE
5
306
100
AcDbEntity
8
0
62
7.0
100
AcDbLine
10
346.1554626522969
20
107.44306029769844
11
326.3564727789969
21
127.24205017089844
0
ARC
5
307
100
AcDbEntity
8
0
62
7.0
100
AcDbCircle
10
323.7596710211844
20
495.2106323242187
40
28.0
50
-45.0
51
45.0
0
LINE
5
308
100
AcDbEntity
8
0
62
7.0
100
AcDbLine
10
323.7596710211844
20
495.2106323242187
11
343.5586608944844
21
515.0096221974187
0
LINE
5
309
100
AcDbEntity
8
0
62
7.0
100
AcDbLine
10
343.5586608944844
20
475.4116424510187
11
323.7596710211844
21
495.2106323242187
0
ARC
5
30A
100
AcDbEntity
8
0
62
7.0
100
AcDbCircle
10
328.84399108954375
20
785.7650146484375
40
28.0
50
-45.0
51
45.0
0
LINE
5
30B
100
AcDbEntity
8
0
62
7.0
100
AcDbLine
10
328.84399108954375
20
785.7650146484375
11
348.64298096284375
21
805.5640045216375
0
LINE
5
30C
100
AcDbEntity
8
0
62
7.0
100
AcDbLine
10
348.64298096284375
20
765.9660247752375
11
328.84399108954375
21
785.7650146484375
0
ARC
5
30D
100
AcDbEntity
8
0
62
7.0
100
AcDbCircle
10
347.5214538574219
20
678.0231292731376
40
28.0
50
45.0
51
135.0
0
LINE
5
30E
100
AcDbEntity
8
0
62
7.0
100
AcDbLine
10
347.5214538574219
20
678.0231292731376
11
327.72246398422186
21
697.8221191464374
0
LINE
5
30F
100
AcDbEntity
8
0
62
7.0
100
AcDbLine
10
367.3204437306219
20
697.8221191464374
11
347.5214538574219
21
678.0231292731376
0
ARC
5
310
100
AcDbEntity
8
0
62
7.0
100
AcDbCircle
10
347.671142578125
20
108.80827636651094
40
28.0
50
-135.0
51
-45.0
0
LINE
5
311
100
AcDbEntity
8
0
62
7.0
100
AcDbLine
10
347.671142578125
20
108.80827636651094
11
367.470132451325
21
89.00928649321094
0
LINE
5
312
100
AcDbEntity
8
0
62
7.0
100
AcDbLine
10
327.872152704925
20
89.00928649321094
11
347.671142578125
21
108.80827636651094
0
ARC
5
313
100
AcDbEntity
8
0
62
7.0
100
AcDbCircle
10
346.3399353027344
20
199.63898925848903
40
28.0
50
45.0
51
135.0
0
LINE
5
314
100
AcDbEntity
8
0
62
7.0
100
AcDbLine
10
346.3399353027344
20
199.63898925848903
11
326.54094542953436
21
219.43797913178904
0
LINE
5
315
100
AcDbEntity
8
0
62
7.0
100
AcDbLine
10
366.1389251759344
20
219.43797913178904
11
346.3399353027344
21
199.63898925848903
0
ARC
5
316
100
AcDbEntity
8
0
62
7.0
100
AcDbCircle
10
332.46758728095
20
637.73779296875
40
28.0
50
-45.0
51
45.0
0
LINE
5
317
100
AcDbEntity
8
0
62
7.0
100
AcDbLine
10
332.46758728095
20
637.73779296875
11
352.26657715425
21
657.53678284195
0
LINE
5
318
100
AcDbEntity
8
0
62
7.0
100
AcDbLine
10
352.26657715425
20
617.93880309555
11
332.46758728095
21
637.73779296875
0
ARC
5
319
100
AcDbEntity
8
0
62
7.0
100
AcDbCircle
10
331.0980499274344
20
457.9453125
40
28.0
50
-45.0
51
45.0
0
LINE
5
31A
100
AcDbEntity
8
0
62
7.0
100
AcDbLine
10
331.0980499274344
20
457.9453125
11
350.8970398007344
21
477.7443023732
0
LINE
5
31B
100
AcDbEntity
8
0
62
7.0
100
AcDbLine
10
350.8970398007344
20
438.1463226268
11
331.0980499274344
21
457.9453125
0
ARC
5
31C
100
AcDbEntity
8
0
62
7.0
100
AcDbCircle
10
337.1394927985281
20
245.5201416015625
40
28.0
50
-45.0
51
45.0
0
LINE
5
31D
100
AcDbEntity
8
0
62
7.0
100
AcDbLine
10
337.1394927985281
20
245.5201416015625
11
356.9384826718281
21
265.3191314747625
0
LINE
5
31E
100
AcDbEntity
8
0
62
7.0
100
AcDbLine
10
356.9384826718281
20
225.72115172836249
11
337.1394927985281
21
245.5201416015625
0
ARC
5
31F
100
AcDbEntity
8
0
62
7.0
100
AcDbCircle
10
345.3360595703125
20
905.8606597893623
40
28.0
50
-135.0
51
-45.0
0
LINE
5
320
100
AcDbEntity
8
0
62
7.0
100
AcDbLine
10
345.3360595703125
20
905.8606597893623
11
365.1350494435125
21
886.0616699160624
0
LINE
5
321
100
AcDbEntity
8
0
62
7.0
100
AcDbLine
10
325.5370696971125
20
886.0616699160623
11
345.3360595703125
21
905.8606597893623
0
ARC
5
322
100
AcDbEntity
8
0
62
7.0
100
AcDbCircle
10
376.2503082268625
20
724.6242065429688
40
28.0
50
135.0
51
225.0
0
LINE
5
323
100
AcDbEntity
8
0
62
7.0
100
AcDbLine
10
376.2503082268625
20
724.6242065429688
11
356.4513183535625
21
704.8252166697688
0
LINE
5
324
100
AcDbEntity
8
0
62
7.0
100
AcDbLine
10
356.4513183535625
20
744.4231964161687
11
376.2503082268625
21
724.6242065429688
0
ARC
5
325
100
AcDbEntity
8
0
62
7.0
100
AcDbCircle
10
368.1016265862375
20
385.0396423339844
40
28.0
50
135.0
51
225.0
0
LINE
5
326
100
AcDbEntity
8
0
62
7.0
100
AcDbLine
10
368.1016265862375
20
385.0396423339844
11
348.3026367129375
21
365.24065246078436
0
LINE
5
327
100
AcDbEntity
8
0
62
7.0
100
AcDbLine
10
348.3026367129375
20
404.8386322071844
11
368.1016265862375
21
385.0396423339844
0
ARC
5
328
100
AcDbEntity
8
0
62
7.0
100
AcDbCircle
10
375.6361419670969
20
417.4215087890625
40
28.0
50
135.0
51
225.0
0
LINE
5
329
100
AcDbEntity
8
0
62
7.0
100
AcDbLine
10
375.6361419670969
20
417.4215087890625
11
355.8371520937969
21
397.6225189158625
0
LINE
5
32A
100
AcDbEntity
8
0
62
7.0
100
AcDbLine
10
355.8371520937969
20
437.2204986622625
11
375.6361419670969
21
417.4215087890625
0
ARC
5
32B
100
AcDbEntity
8
0
62
7.0
100
AcDbCircle
10
356.8954162597656
20
160.9264038092703
40
28.0
50
45.0
51
135.0
0
LINE
5
32C
100
AcDbEntity
8
0
62
7.0
100
AcDbLine
10
356.8954162597656
20
160.9264038092703
11
337.0964263865656
21
180.7253936825703
0
LINE
5
32D
100
AcDbEntity
8
0
62
7.0
100
AcDbLine
10
376.69440613296564
20
180.7253936825703
11
356.8954162597656
21
160.9264038092703
0
ARC
5
32E
100
AcDbEntity
8
0
62
7.0
100
AcDbCircle
10
331.3173492438406
20
846.6284790039063
40
28.0
50
-45.0
51
45.0
0
LINE
5
32F
100
AcDbEntity
8
0
62
7.0
100
AcDbLine
10
331.3173492438406
20
846.6284790039063
11
351.1163391171406
21
866.4274688771062
0
LINE
5
330
100
AcDbEntity
8
0
62
7.0
100
AcDbLine
10
351.1163391171406
20
826.8294891307063
11
331.3173492438406
21
846.6284790039063
0
ARC
5
331
100
AcDbEntity
8
0
62
7.0
100
AcDbCircle
10
383.4492218010813
20
584.2950439453125
40
28.0
50
135.0
51
225.0
0
LINE
5
332
100
AcDbEntity
8
0
62
7.0
100
AcDbLine
10
383.4492218010813
20
584.2950439453125
11
363.6502319277813
21
564.4960540721125
0
LINE
5
333
100
AcDbEntity
8
0
62
7.0
100
AcDbLine
10
363.6502319277813
20
604.0940338185125
11
383.4492218010813
21
584.2950439453125
0
ARC
5
334
100
AcDbEntity
8
0
62
7.0
100
AcDbCircle
10
363.7521362304687
20
771.5772735588937
40
28.0
50
-135.0
51
-45.0
0
LINE
5
335
100
AcDbEntity
8
0
62
7.0
100
AcDbLine
10
363.7521362304687
20
771.5772735588937
11
383.5511261036687
21
751.7782836855938
0
LINE
5
336
100
AcDbEntity
8
0
62
7.0
100
AcDbLine
10
343.9531463572687
20
751.7782836855937
11
363.7521362304687
21
771.5772735588937
0
ARC
5
337
100
AcDbEntity
8
0
62
7.0
100
AcDbCircle
10
383.5463897698313
20
64.71192169189453
40
28.0
50
135.0
51
225.0
0
LINE
5
338
100
AcDbEntity
8
0
62
7.0
100
AcDbLine
10
383.5463897698313
20
64.71192169189453
11
363.7473998965313
21
44.91293181869453
0
LINE
5
339
100
AcDbEntity
8
0
62
7.0
100
AcDbLine
10
363.7473998965313
20
84.51091156509453
11
383.5463897698313
21
64.71192169189453
0
ARC
5
33A
100
AcDbEntity
8
0
62
7.0
100
AcDbCircle
10
360.2241516113281
20
794.2971160895438
40
28.0
50
45.0
51
135.0
0
LINE
5
33B
100
AcDbEntity
8
0
62
7.0
100
AcDbLine
10
360.2241516113281
20
794.2971160895438
11
340.4251617381281
21
814.0961059628437
0
LINE
5
33C
100
AcDbEntity
8
0
62
7.0
100
AcDbLine
10
380.02314148452814
20
814.0961059628437
11
360.2241516113281
21
794.2971160895438
0
ARC
5
33D
100
AcDbEntity
8
0
62
7.0
100
AcDbCircle
10
366.2933654785156
20
885.0456512457938
40
28.0
50
45.0
51
135.0
0
LINE
5
33E
100
AcDbEntity
8
0
62
7.0
100
AcDbLine
10
366.2933654785156
20
885.0456512457938
11
346.4943756053156
21
904.8446411190937
0
LINE
5
33F
100
AcDbEntity
8
0
62
7.0
100
AcDbLine
10
386.09235535171564
20
904.8446411190937
11
366.2933654785156
21
885.0456512457938
0
ARC
5
340
100
AcDbEntity
8
0
62
7.0
100
AcDbCircle
10
342.9639556891531
20
279.60736083984375
40
28.0
50
-45.0
51
45.0
0
LINE
5
341
100
AcDbEntity
8
0
62
7.0
100
AcDbLine
10
342.9639556891531
20
279.60736083984375
11
362.7629455624531
21
299.40635071304376
0
LINE
5
342
100
AcDbEntity
8
0
62
7.0
100
AcDbLine
10
362.7629455624531
20
259.80837096664374
11
342.9639556891531
21
279.60736083984375
0
ARC
5
343
100
AcDbEntity
8
0
62
7.0
100
AcDbCircle
10
352.9618194586844
20
440.2480773925781
40
28.0
50
-45.0
51
45.0
0
LINE
5
344
100
AcDbEntity
8
0
62
7.0
100
AcDbLine
10
352.9618194586844
20
440.2480773925781
11
372.7608093319844
21
460.04706726577814
0
LINE
5
345
100
AcDbEntity
8
0
62
7.0
100
AcDbLine
10
372.7608093319844
20
420.4490875193781
11
352.9618194586844
21
440.2480773925781
0
ARC
5
346
100
AcDbEntity
8
0
62
7.0
100
AcDbCircle
10
362.4866638183594
20
535.9449493401437
40
28.0
50
-135.0
51
-45.0
0
LINE
5
347
100
AcDbEntity
8
0
62
7.0
100
AcDbLine
10
362.4866638183594
20
535.9449493401437
11
382.2856536915594
21
516.1459594668438
0
LINE
5
348
100
AcDbEntity
8
0
62
7.0
100
AcDbLine
10
342.68767394515936
20
516.1459594668437
11
362.4866638183594
21
535.9449493401437
0
ARC
5
349
100
AcDbEntity
8
0
62
7.0
100
AcDbCircle
10
390.5087921135813
20
205.3024139404297
40
28.0
50
135.0
51
225.0
0
LINE
5
34A
100
AcDbEntity
8
0
62
7.0
100
AcDbLine
10
390.5087921135813
20
205.3024139404297
11
370.7098022402813
21
185.50342406722967
0
LINE
5
34B
100
AcDbEntity
8
0
62
7.0
100
AcDbLine
10
370.7098022402813
20
225.1014038136297
11
390.5087921135813
21
205.3024139404297
0
ARC
5
34C
100
AcDbEntity
8
0
62
7.0
100
AcDbCircle
10
342.3220489508719
20
339.989501953125
40
28.0
50
-45.0
51
45.0
0
LINE
5
34D
100
AcDbEntity
8
0
62
7.0
100
AcDbLine
10
342.3220489508719
20
339.989501953125
11
362.1210388241719
21
359.788491826325
0
LINE
5
34E
100
AcDbEntity
8
0
62
7.0
100
AcDbLine
10
362.1210388241719
20
320.190512079925
11
342.3220489508719
21
339.989501953125
0
ARC
5
34F
100
AcDbEntity
8
0
62
7.0
100
AcDbCircle
10
341.753964234075
20
668.3672485351563
40
28.0
50
-45.0
51
45.0
0
LINE
5
350
100
AcDbEntity
8
0
62
7.0
100
AcDbLine
10
341.753964234075
20
668.3672485351563
11
361.552954107375
21
688.1662384083562
0
LINE
5
351
100
AcDbEntity
8
0
62
7.0
100
AcDbLine
10
361.552954107375
20
648.5682586619563
11
341.753964234075
21
668.3672485351563
0
ARC
5
352
100
AcDbEntity
8
0
62
7.0
100
AcDbCircle
10
347.7082183844656
20
108.91382598876952
40
28.0
50
-45.0
51
45.0
0
LINE
5
353
100
AcDbEntity
8
0
62
7.0
100
AcDbLine
10
347.7082183844656
20
108.91382598876952
11
367.5072082577656
21
128.71281586196952
0
LINE
5
354
100
AcDbEntity
8
0
62
7.0
100
AcDbLine
10
367.5072082577656
20
89.11483611556952
11
347.7082183844656
21
108.91382598876952
0
ARC
5
355
100
AcDbEntity
8
0
62
7.0
100
AcDbCircle
10
372.3626403808594
20
157.2570983879953
40
28.0
50
-135.0
51
-45.0
0
LINE
5
356
100
AcDbEntity
8
0
62
7.0
100
AcDbLine
10
372.3626403808594
20
157.2570983879953
11
392.1616302540594
21
137.4581085146953
0
LINE
5
357
100
AcDbEntity
8
0
62
7.0
100
AcDbLine
10
352.56365050765936
20
137.4581085146953
11
372.3626403808594
21
157.2570983879953
0
ARC
5
358
100
AcDbEntity
8
0
62
7.0
100
AcDbCircle
10
386.14709777764375
20
621.5137939453125
40
28.0
50
135.0
51
225.0
0
LINE
5
359
100
AcDbEntity
8
0
62
7.0
100
AcDbLine
10
386.14709777764375
20
621.5137939453125
11
366.34810790434375
21
601.7148040721125
0
LINE
5
35A
100
AcDbEntity
8
0
62
7.0
100
AcDbLine
10
366.34810790434375
20
641.3127838185125
11
386.14709777764375
21
621.5137939453125
0
ARC
5
35B
100
AcDbEntity
8
0
62
7.0
100
AcDbCircle
10
376.07818603515625
20
759.4825408942313
40
28.0
50
45.0
51
135.0
0
LINE
5
35C
100
AcDbEntity
8
0
62
7.0
100
AcDbLine
10
376.07818603515625
20
759.4825408942313
11
356.27919616195624
21
779.2815307675312
0
LINE
5
35D
100
AcDbEntity
8
0
62
7.0
100
AcDbLine
10
395.87717590835626
20
779.2815307675312
11
376.07818603515625
21
759.4825408942313
0
ARC
5
35E
100
AcDbEntity
8
0
62
7.0
100
AcDbCircle
10
381.7692260742187
20
908.5080535895438
40
28.0
50
45.0
51
135.0
0
LINE
5
35F
100
AcDbEntity
8
0
62
7.0
100
AcDbLine
10
381.7692260742187
20
908.5080535895438
11
361.9702362010187
21
928.3070434628437
0
LINE
5
360
100
AcDbEntity
8
0
62
7.0
100
AcDbLine
10
401.5682159474187
20
928.3070434628437
11
381.7692260742187
21
908.5080535895438
0
ARC
5
361
100
AcDbEntity
8
0
62
7.0
100
AcDbCircle
10
356.2817047125906
20
306.2853698730469
40
28.0
50
-45.0
51
45.0
0
LINE
5
362
100
AcDbEntity
8
0
62
7.0
100
AcDbLine
10
356.2817047125906
20
306.2853698730469
11
376.0806945858906
21
326.0843597462469
0
LINE
5
363
100
AcDbEntity
8
0
62
7.0
100
AcDbLine
10
376.0806945858906
20
286.48637999984686
11
356.2817047125906
21
306.2853698730469
0
ARC
5
364
100
AcDbEntity
8
0
62
7.0
100
AcDbCircle
10
399.4850799553781
20
236.24205017089844
40
28.0
50
135.0
51
225.0
0
LINE
5
365
100
AcDbEntity
8
0
62
7.0
100
AcDbLine
10
399.4850799553781
20
236.24205017089844
11
379.6860900820781
21
216.44306029769842
0
LINE
5
366
100
AcDbEntity
8
0
62
7.0
100
AcDbLine
10
379.6860900820781
20
256.04104004409845
11
399.4850799553781
21
236.24205017089844
0
ARC
5
367
100
AcDbEntity
8
0
62
7.0
100
AcDbCircle
10
361.51647644110625
20
688.5178833007813
40
28.0
50
-45.0
51
45.0
0
LINE
5
368
100
AcDbEntity
8
0
62
7.0
100
AcDbLine
10
361.51647644110625
20
688.5178833007813
11
381.31546631440625
21
708.3168731739812
0
LINE
5
369
100
AcDbEntity
8
0
62
7.0
100
AcDbLine
10
381.31546631440625
20
668.7188934275813
11
361.51647644110625
21
688.5178833007813
0
ARC
5
36A
100
AcDbEntity
8
0
62
7.0
100
AcDbCircle
10
366.55157165595
20
734.46533203125
40
28.0
50
-45.0
51
45.0
0
LINE
5
36B
100
AcDbEntity
8
0
62
7.0
100
AcDbLine
10
366.55157165595
20
734.46533203125
11
386.35056152925
21
754.26432190445
0
LINE
5
36C
100
AcDbEntity
8
0
62
7.0
100
AcDbLine
10
386.35056152925
20
714.66634215805
11
366.55157165595
21
734.46533203125
0
ARC
5
36D
100
AcDbEntity
8
0
62
7.0
100
AcDbCircle
10
374.22021484375
20
573.4967071526437
40
28.0
50
-135.0
51
-45.0
0
LINE
5
36E
100
AcDbEntity
8
0
62
7.0
100
AcDbLine
10
374.22021484375
20
573.4967071526437
11
394.01920471695
21
553.6977172793438
0
LINE
5
36F
100
AcDbEntity
8
0
62
7.0
100
AcDbLine
10
354.42122497055
20
553.6977172793437
11
374.22021484375
21
573.4967071526437
0
ARC
5
370
100
AcDbEntity
8
0
62
7.0
100
AcDbCircle
10
352.71423034735625
20
369.5089721679687
40
28.0
50
-45.0
51
45.0
0
LINE
5
371
100
AcDbEntity
8
0
62
7.0
100
AcDbLine
10
352.71423034735625
20
369.5089721679687
11
372.51322022065625
21
389.3079620411687
0
LINE
5
372
100
AcDbEntity
8
0
62
7.0
100
AcDbLine
10
372.51322022065625
20
349.7099822947687
11
352.71423034735625
21
369.5089721679687
0
ARC
5
373
100
AcDbEntity
8
0
62
7.0
100
AcDbCircle
10
379.2203704827219
20
486.9133605957031
40
28.0
50
135.0
51
225.0
0
LINE
5
374
100
AcDbEntity
8
0
62
7.0
100
AcDbLine
10
379.2203704827219
20
486.9133605957031
11
359.4213806094219
21
467.1143707225031
0
LINE
5
375
100
AcDbEntity
8
0
62
7.0
100
AcDbLine
10
359.4213806094219
20
506.71235046890314
11
379.2203704827219
21
486.9133605957031
0
ARC
5
376
100
AcDbEntity
8
0
62
7.0
100
AcDbCircle
10
368.4815643317313
20
267.3872985839844
40
28.0
50
-45.0
51
45.0
0
LINE
5
377
100
AcDbEntity
8
0
62
7.0
100
AcDbLine
10
368.4815643317313
20
267.3872985839844
11
388.2805542050313
21
287.1862884571844
0
LINE
5
378
100
AcDbEntity
8
0
62
7.0
100
AcDbLine
10
388.2805542050313
20
247.58830871078436
11
368.4815643317313
21
267.3872985839844
0
ARC
5
379
100
AcDbEntity
8
0
62
7.0
100
AcDbCircle
10
377.4255981445313
20
816.4949920661063
40
28.0
50
45.0
51
135.0
0
LINE
5
37A
100
AcDbEntity
8
0
62
7.0
100
AcDbLine
10
377.4255981445313
20
816.4949920661063
11
357.6266082713313
21
836.2939819394062
0
LINE
5
37B
100
AcDbEntity
8
0
62
7.0
100
AcDbLine
10
397.2245880177313
20
836.2939819394062
11
377.4255981445313
21
816.4949920661063
0
ARC
5
37C
100
AcDbEntity
8
0
62
7.0
100
AcDbCircle
10
380.43157958984375
20
627.3727996832938
40
28.0
50
45.0
51
135.0
0
LINE
5
37D
100
AcDbEntity
8
0
62
7.0
100
AcDbLine
10
380.43157958984375
20
627.3727996832938
11
360.63258971664374
21
647.1717895565937
0
LINE
5
37E
100
AcDbEntity
8
0
62
7.0
100
AcDbLine
10
400.23056946304376
20
647.1717895565937
11
380.43157958984375
21
627.3727996832938
0
ARC
5
37F
100
AcDbEntity
8
0
62
7.0
100
AcDbCircle
10
369.954159546575
20
803.8062133789063
40
28.0
50
-45.0
51
45.0
0
LINE
5
380
100
AcDbEntity
8
0
62
7.0
100
AcDbLine
10
369.954159546575
20
803.8062133789063
11
389.753149419875
21
823.6052032521062
0
LINE
5
381
100
AcDbEntity
8
0
62
7.0
100
AcDbLine
10
389.753149419875
20
784.0072235057063
11
369.954159546575
21
803.8062133789063
0
ARC
5
382
100
AcDbEntity
8
0
62
7.0
100
AcDbCircle
10
362.9666412360281
20
166.80130004882813
40
28.0
50
-45.0
51
45.0
0
LINE
5
383
100
AcDbEntity
8
0
62
7.0
100
AcDbLine
10
362.9666412360281
20
166.80130004882813
11
382.7656311093281
21
186.60028992202814
0
LINE
5
384
100
AcDbEntity
8
0
62
7.0
100
AcDbLine
10
382.7656311093281
20
147.0023101756281
11
362.9666412360281
21
166.80130004882813
0
ARC
5
385
100
AcDbEntity
8
0
62
7.0
100
AcDbCircle
10
399.9414093010813
20
88.23184204101563
40
28.0
50
135.0
51
225.0
0
LINE
5
386
100
AcDbEntity
8
0
62
7.0
100
AcDbLine
10
399.9414093010813
20
88.23184204101563
11
380.1424194277813
21
68.43285216781562
0
LINE
5
387
100
AcDbEntity
8
0
62
7.0
100
AcDbLine
10
380.1424194277813
20
108.03083191421563
11
399.9414093010813
21
88.23184204101563
0
ARC
5
388
100
AcDbEntity
8
0
62
7.0
100
AcDbCircle
10
360.27660827704375
20
401.85992431640625
40
28.0
50
-45.0
51
45.0
0
LINE
5
389
100
AcDbEntity
8
0
62
7.0
100
AcDbLine
10
360.27660827704375
20
401.85992431640625
11
380.07559815034375
21
421.65891418960626
0
LINE
5
38A
100
AcDbEntity
8
0
62
7.0
100
AcDbLine
10
380.07559815034375
20
382.06093444320624
11
360.27660827704375
21
401.85992431640625
0
ARC
5
38B
100
AcDbEntity
8
0
62
7.0
100
AcDbCircle
10
369.5353668219656
20
332.9527282714844
40
28.0
50
-45.0
51
45.0
0
LINE
5
38C
100
AcDbEntity
8
0
62
7.0
100
AcDbLine
10
369.5353668219656
20
332.9527282714844
11
389.3343566952656
21
352.7517181446844
0
LINE
5
38D
100
AcDbEntity
8
0
62
7.0
100
AcDbLine
10
389.3343566952656
20
313.15373839828436
11
369.5353668219656
21
332.9527282714844
0
ARC
5
38E
100
AcDbEntity
8
0
62
7.0
100
AcDbCircle
10
352.0873687750906
20
865.58056640625
40
28.0
50
-45.0
51
45.0
0
LINE
5
38F
100
AcDbEntity
8
0
62
7.0
100
AcDbLine
10
352.0873687750906
20
865.58056640625
11
371.8863586483906
21
885.37955627945
0
LINE
5
390
100
AcDbEntity
8
0
62
7.0
100
AcDbLine
10
371.8863586483906
20
845.78157653305
11
352.0873687750906
21
865.58056640625
0
ARC
5
391
100
AcDbEntity
8
0
62
7.0
100
AcDbCircle
10
382.8953552246094
20
450.2375762946219
40
28.0
50
45.0
51
135.0
0
LINE
5
392
100
AcDbEntity
8
0
62
7.0
100
AcDbLine
10
382.8953552246094
20
450.2375762946219
11
363.09636535140936
21
470.0365661679219
0
LINE
5
393
100
AcDbEntity
8
0
62
7.0
100
AcDbLine
10
402.6943450978094
20
470.0365661679219
11
382.8953552246094
21
450.2375762946219
0
ARC
5
394
100
AcDbEntity
8
0
62
7.0
100
AcDbCircle
10
375.8694732672781
20
112.44741821289063
40
28.0
50
-45.0
51
45.0
0
LINE
5
395
100
AcDbEntity
8
0
62
7.0
100
AcDbLine
10
375.8694732672781
20
112.44741821289063
11
395.6684631405781
21
132.24640808609064
0
LINE
5
396
100
AcDbEntity
8
0
62
7.0
100
AcDbLine
10
395.6684631405781
20
92.64842833969062
11
375.8694732672781
21
112.44741821289063
0
ARC
5
397
100
AcDbEntity
8
0
62
7.0
100
AcDbCircle
10
366.3866241461844
20
601.5020751953125
40
28.0
50
-45.0
51
45.0
0
LINE
5
398
100
AcDbEntity
8
0
62
7.0
100
AcDbLine
10
366.3866241461844
20
601.5020751953125
11
386.1856140194844
21
621.3010650685125
0
LINE
5
399
100
AcDbEntity
8
0
62
7.0
100
AcDbLine
10
386.1856140194844
20
581.7030853221125
11
366.3866241461844
21
601.5020751953125
0
ARC
5
39A
100
AcDbEntity
8
0
62
7.0
100
AcDbCircle
10
381.3857696539969
20
55.57767868041992
40
28.0
50
-45.0
51
45.0
0
LINE
5
39B
100
AcDbEntity
8
0
62
7.0
100
AcDbLine
10
381.3857696539969
20
55.57767868041992
11
401.1847595272969
21
75.37666855361992
0
LINE
5
39C
100
AcDbEntity
8
0
62
7.0
100
AcDbLine
10
401.1847595272969
20
35.77868880721992
11
381.3857696539969
21
55.57767868041992
0
ARC
5
39D
100
AcDbEntity
8
0
62
7.0
100
AcDbCircle
10
408.2583038323313
20
527.096923828125
40
28.0
50
135.0
51
225.0
0
LINE
5
39E
100
AcDbEntity
8
0
62
7.0
100
AcDbLine
10
408.2583038323313
20
527.096923828125
11
388.4593139590313
21
507.297933954925
0
LINE
5
39F
100
AcDbEntity
8
0
62
7.0
100
AcDbLine
10
388.4593139590313
20
546.895913701325
11
408.2583038323313
21
527.096923828125
0
ARC
5
3A0
100
AcDbEntity
8
0
62
7.0
100
AcDbCircle
10
387.4105529785156
20
478.865780640325
40
28.0
50
45.0
51
135.0
0
LINE
5
3A1
100
AcDbEntity
8
0
62
7.0
100
AcDbLine
10
387.4105529785156
20
478.865780640325
11
367.6115631053156
21
498.664770513625
0
LINE
5
3A2
100
AcDbEntity
8
0
62
7.0
100
AcDbLine
10
407.20954285171564
20
498.664770513625
11
387.4105529785156
21
478.865780640325
0
ARC
5
3A3
100
AcDbEntity
8
0
62
7.0
100
AcDbCircle
10
378.9183013922781
20
854.7498168945313
40
28.0
50
-45.0
51
45.0
0
LINE
5
3A4
100
AcDbEntity
8
0
62
7.0
100
AcDbLine
10
378.9183013922781
20
854.7498168945313
11
398.7172912655781
21
874.5488067677312
0
LINE
5
3A5
100
AcDbEntity
8
0
62
7.0
100
AcDbLine
10
398.7172912655781
20
834.9508270213313
11
378.9183013922781
21
854.7498168945313
0
ARC
5
3A6
100
AcDbEntity
8
0
62
7.0
100
AcDbCircle
10
383.1095245368094
20
146.65170288085938
40
28.0
50
-45.0
51
45.0
0
LINE
5
3A7
100
AcDbEntity
8
0
62
7.0
100
AcDbLine
10
383.1095245368094
20
146.65170288085938
11
402.9085144101094
21
166.4506927540594
0
LINE
5
3A8
100
AcDbEntity
8
0
62
7.0
100
AcDbLine
10
402.9085144101094
20
126.85271300765937
11
383.1095245368094
21
146.65170288085938
0
ARC
5
3A9
100
AcDbEntity
8
0
62
7.0
100
AcDbCircle
10
380.5042083747
20
627.30126953125
40
28.0
50
-45.0
51
45.0
0
LINE
5
3AA
100
AcDbEntity
8
0
62
7.0
100
AcDbLine
10
380.5042083747
20
627.30126953125
11
400.303198248
21
647.10025940445
0
LINE
5
3AB
100
AcDbEntity
8
0
62
7.0
100
AcDbLine
10
400.303198248
20
607.50227965805
11
380.5042083747
21
627.30126953125
0
ARC
5
3AC
100
AcDbEntity
8
0
62
7.0
100
AcDbCircle
10
382.1220062262625
20
293.6606750488281
40
28.0
50
-45.0
51
45.0
0
LINE
5
3AD
100
AcDbEntity
8
0
62
7.0
100
AcDbLine
10
382.1220062262625
20
293.6606750488281
11
401.9209960995625
21
313.45966492202814
0
LINE
5
3AE
100
AcDbEntity
8
0
62
7.0
100
AcDbLine
10
401.9209960995625
20
273.8616851756281
11
382.1220062262625
21
293.6606750488281
0
ARC
5
3AF
100
AcDbEntity
8
0
62
7.0
100
AcDbCircle
10
398.79779052734375
20
379.3334686272531
40
28.0
50
-135.0
51
-45.0
0
LINE
5
3B0
100
AcDbEntity
8
0
62
7.0
100
AcDbLine
10
398.79779052734375
20
379.3334686272531
11
418.59678040054376
21
359.5344787539531
0
LINE
5
3B1
100
AcDbEntity
8
0
62
7.0
100
AcDbLine
10
378.99880065414374
20
359.5344787539531
11
398.79779052734375
21
379.3334686272531
0
ARC
5
3B2
100
AcDbEntity
8
0
62
7.0
100
AcDbCircle
10
376.2675750739187
20
571.5938720703125
40
28.0
50
-45.0
51
45.0
0
LINE
5
3B3
100
AcDbEntity
8
0
62
7.0
100
AcDbLine
10
376.2675750739187
20
571.5938720703125
11
396.0665649472187
21
591.3928619435125
0
LINE
5
3B4
100
AcDbEntity
8
0
62
7.0
100
AcDbLine
10
396.0665649472187
20
551.7948821971125
11
376.2675750739187
21
571.5938720703125
0
ARC
5
3B5
100
AcDbEntity
8
0
62
7.0
100
AcDbCircle
10
377.56713562079375
20
192.214111328125
40
28.0
50
-45.0
51
45.0
0
LINE
5
3B6
100
AcDbEntity
8
0
62
7.0
100
AcDbLine
10
377.56713562079375
20
192.214111328125
11
397.36612549409375
21
212.01310120132501
0
LINE
5
3B7
100
AcDbEntity
8
0
62
7.0
100
AcDbLine
10
397.36612549409375
20
172.41512145492499
11
377.56713562079375
21
192.214111328125
0
ARC
5
3B8
100
AcDbEntity
8
0
62
7.0
100
AcDbCircle
10
386.5297210700125
20
391.7481994628906
40
28.0
50
-45.0
51
45.0
0
LINE
5
3B9
100
AcDbEntity
8
0
62
7.0
100
AcDbLine
10
386.5297210700125
20
391.7481994628906
11
406.3287109433125
21
411.54718933609064
0
LINE
5
3BA
100
AcDbEntity
8
0
62
7.0
100
AcDbLine
10
406.3287109433125
20
371.9492095896906
11
386.5297210700125
21
391.7481994628906
0
ARC
5
3BB
100
AcDbEntity
8
0
62
7.0
100
AcDbCircle
10
380.1483734137625
20
667.365966796875
40
28.0
50
-45.0
51
45.0
0
LINE
5
3BC
100
AcDbEntity
8
0
62
7.0
100
AcDbLine
10
380.1483734137625
20
667.365966796875
11
399.9473632870625
21
687.164956670075
0
LINE
5
3BD
100
AcDbEntity
8
0
62
7.0
100
AcDbLine
10
399.9473632870625
20
647.566976923675
11
380.1483734137625
21
667.365966796875
0
ARC
5
3BE
100
AcDbEntity
8
0
62
7.0
100
AcDbCircle
10
446.65846340264375
20
19.906746124267578
40
28.0
50
135.0
51
225.0
0
LINE
5
3BF
100
AcDbEntity
8
0
62
7.0
100
AcDbLine
10
446.65846340264375
20
19.906746124267578
11
426.85947352934375
21
0.10775625106757758
0
LINE
5
3C0
100
AcDbEntity
8
0
62
7.0
100
AcDbLine
10
426.85947352934375
20
39.70573599746758
11
446.65846340264375
21
19.906746124267578
0
ARC
5
3C1
100
AcDbEntity
8
0
62
7.0
100
AcDbCircle
10
446.65846340264375
20
59.604746124267585
40
28.0
50
135.0
51
225.0
0
LINE
5
3C2
100
AcDbEntity
8
0
62
7.0
100
AcDbLine
10
446.65846340264375
20
59.604746124267585
11
426.85947352934375
21
39.805756251067585
0
LINE
5
3C3
100
AcDbEntity
8
0
62
7.0
100
AcDbLine
10
426.85947352934375
20
79.40373599746758
11
446.65846340264375
21
59.604746124267585
0
ARC
5
3C4
100
AcDbEntity
8
0
62
7.0
100
AcDbCircle
10
446.65846340264375
20
99.30274612426756
40
28.0
50
135.0
51
225.0
0
LINE
5
3C5
100
AcDbEntity
8
0
62
7.0
100
AcDbLine
10
446.65846340264375
20
99.30274612426756
11
426.85947352934375
21
79.50375625106756
0
LINE
5
3C6
100
AcDbEntity
8
0
62
7.0
100
AcDbLine
10
426.85947352934375
20
119.10173599746756
11
446.65846340264375
21
99.30274612426756
0
ARC
5
3C7
100
AcDbEntity
8
0
62
7.0
100
AcDbCircle
10
446.65846340264375
20
139.00074612426758
40
28.0
50
135.0
51
225.0
0
LINE
5
3C8
100
AcDbEntity
8
0
62
7.0
100
AcDbLine
10
446.65846340264375
20
139.00074612426758
11
426.85947352934375
21
119.20175625106758
0
LINE
5
3C9
100
AcDbEntity
8
0
62
7.0
100
AcDbLine
10
426.85947352934375
20
158.79973599746756
11
446.65846340264375
21
139.00074612426758
0
ARC
5
3CA
100
AcDbEntity
8
0
62
7.0
100
AcDbCircle
10
446.65846340264375
20
178.6987461242676
40
28.0
50
135.0
51
225.0
0
LINE
5
3CB
100
AcDbEntity
8
0
62
7.0
100
AcDbLine
10
446.65846340264375
20
178.6987461242676
11
426.85947352934375
21
158.89975625106757
0
LINE
5
3CC
100
AcDbEntity
8
0
62
7.0
100
AcDbLine
10
426.85947352934375
20
198.4977359974676
11
446.65846340264375
21
178.6987461242676
0
ARC
5
3CD
100
AcDbEntity
8
0
62
7.0
100
AcDbCircle
10
446.65846340264375
20
218.3967461242676
40
28.0
50
135.0
51
225.0
0
LINE
5
3CE
100
AcDbEntity
8
0
62
7.0
100
AcDbLine
10
446.65846340264375
20
218.3967461242676
11
426.85947352934375
21
198.5977562510676
0
LINE
5
3CF
100
AcDbEntity
8
0
62
7.0
100
AcDbLine
10
426.85947352934375
20
238.19573599746758
11
446.65846340264375
21
218.3967461242676
0
ARC
5
3D0
100
AcDbEntity
8
0
62
7.0
100
AcDbCircle
10
446.65846340264375
20
258.0947461242676
40
28.0
50
135.0
51
225.0
0
LINE
5
3D1
100
AcDbEntity
8
0
62
7.0
100
AcDbLine
10
446.65846340264375
20
258.0947461242676
11
426.85947352934375
21
238.2957562510676
0
LINE
5
3D2
100
AcDbEntity
8
0
62
7.0
100
AcDbLine
10
426.85947352934375
20
277.8937359974676
11
446.65846340264375
21
258.0947461242676
0
ARC
5
3D3
100
AcDbEntity
8
0
62
7.0
100
AcDbCircle
10
446.65846340264375
20
297.79274612426764
40
28.0
50
135.0
51
225.0
0
LINE
5
3D4
100
AcDbEntity
8
0
62
7.0
100
AcDbLine
10
446.65846340264375
20
297.79274612426764
11
426.85947352934375
21
277.9937562510676
0
LINE
5
3D5
100
AcDbEntity
8
0
62
7.0
100
AcDbLine
10
426.85947352934375
20
317.59173599746765
11
446.65846340264375
21
297.79274612426764
0
ARC
5
3D6
100
AcDbEntity
8
0
62
7.0
100
AcDbCircle
10
446.65846340264375
20
337.4907461242676
40
28.0
50
135.0
51
225.0
0
LINE
5
3D7
100
AcDbEntity
8
0
62
7.0
100
AcDbLine
10
446.65846340264375
20
337.4907461242676
11
426.85947352934375
21
317.6917562510676
0
LINE
5
3D8
100
AcDbEntity
8
0
62
7.0
100
AcDbLine
10
426.85947352934375
20
357.28973599746763
11
446.65846340264375
21
337.4907461242676
0
ARC
5
3D9
100
AcDbEntity
8
0
62
7.0
100
AcDbCircle
10
446.65846340264375
20
377.1887461242676
40
28.0
50
135.0
51
225.0
0
LINE
5
3DA
100
AcDbEntity
8
0
62
7.0
100
AcDbLine
10
446.65846340264375
20
377.1887461242676
11
426.85947352934375
21
357.3897562510676
0
LINE
5
3DB
100
AcDbEntity
8
0
62
7.0
100
AcDbLine
10
426.85947352934375
20
396.9877359974676
11
446.65846340264375
21
377.1887461242676
0
ARC
5
3DC
100
AcDbEntity
8
0
62
7.0
100
AcDbCircle
10
446.65846340264375
20
416.8867461242676
40
28.0
50
135.0
51
225.0
0
LINE
5
3DD
100
AcDbEntity
8
0
62
7.0
100
AcDbLine
10
446.65846340264375
20
416.8867461242676
11
426.85947352934375
21
397.08775625106756
0
LINE
5
3DE
100
AcDbEntity
8
0
62
7.0
100
AcDbLine
10
426.85947352934375
20
436.6857359974676
11
446.65846340264375
21
416.8867461242676
0
LWPOLYLINE
5
3DF
100
AcDbEntity
8
BIN_BOUNDARY
100
AcDbPolyline
90
4.0
70
1.0
10
0.0
20
0.0
10
1000.0
20
0.0
10
1000.0
20
1000.0
10
0.0
20
1000.0
0
ENDSEC
0
EOF
