0
SECTION
2
HEADER
9
$ACADVER
1
AC1027
9
$INSUNITS
70
4.0
9
$MEASUREMENT
70
1.0
0
ENDSEC
0
SECTION
2
TABLES
0
TABLE
2
LAYER
0
LAYER
2
0
70
0.0
62
7.0
0
LAYER
2
BIN_BOUNDARY
70
0.0
62
5.0
0
ENDTAB
0
ENDSEC
0
SECTION
2
ENTITIES
0
CIRCLE
5
1
100
AcDbEntity
8
0
62
7.0
100
AcDbCircle
10
54.02696990966797
20
54.00731658935547
40
35.00000000000001
0
LINE
5
2
100
AcDbEntity
8
0
62
7.0
100
AcDbLine
10
4.026969909667969
20
4.007316589355469
11
104.02696990966797
21
4.007316589355469
0
LINE
5
3
100
AcDbEntity
8
0
62
7.0
100
AcDbLine
10
4.026969909667969
20
4.007316589355469
11
4.026969909667969
21
104.00731658935547
0
LINE
5
4
100
AcDbEntity
8
0
62
7.0
100
AcDbLine
10
4.026969909667969
20
104.00731658935547
11
104.02696990966797
21
104.00731658935547
0
LINE
5
5
100
AcDbEntity
8
0
62
7.0
100
AcDbLine
10
104.02696990966797
20
4.007316589355469
11
104.02696990966797
21
104.00731658935547
0
POINT
5
6
100
AcDbEntity
8
0
62
7.0
100
AcDbPoint
10
54.02696990966797
20
54.00731658935547
0
CIRCLE
5
7
100
AcDbEntity
8
0
62
7.0
100
AcDbCircle
10
158.02789306640625
20
54.00228500366211
40
35.00000000000001
0
LINE
5
8
100
AcDbEntity
8
0
62
7.0
100
AcDbLine
10
108.02789306640625
20
4.002285003662109
11
208.02789306640625
21
4.002285003662109
0
LINE
5
9
100
AcDbEntity
8
0
62
7.0
100
AcDbLine
10
108.02789306640625
20
4.002285003662109
11
108.02789306640625
21
104.00228500366211
0
LINE
5
A
100
AcDbEntity
8
0
62
7.0
100
AcDbLine
10
108.02789306640625
20
104.00228500366211
11
208.02789306640625
21
104.00228500366211
0
LINE
5
B
100
AcDbEntity
8
0
62
7.0
100
AcDbLine
10
208.02789306640625
20
4.002285003662109
11
208.02789306640625
21
104.00228500366211
0
POINT
5
C
100
AcDbEntity
8
0
62
7.0
100
AcDbPoint
10
158.02789306640625
20
54.00228500366211
0
CIRCLE
5
D
100
AcDbEntity
8
0
62
7.0
100
AcDbCircle
10
262.0326843261719
20
54.005393981933594
40
35.00000000000001
0
LINE
5
E
100
AcDbEntity
8
0
62
7.0
100
AcDbLine
10
312.0326843261719
20
104.0053939819336
11
212.03268432617188
21
104.0053939819336
0
LINE
5
F
100
AcDbEntity
8
0
62
7.0
100
AcDbLine
10
312.0326843261719
20
104.0053939819336
11
312.0326843261719
21
4.005393981933601
0
LINE
5
10
100
AcDbEntity
8
0
62
7.0
100
AcDbLine
10
312.0326843261719
20
4.005393981933601
11
212.03268432617188
21
4.005393981933587
0
LINE
5
11
100
AcDbEntity
8
0
62
7.0
100
AcDbLine
10
212.03268432617188
20
104.0053939819336
11
212.03268432617188
21
4.005393981933587
0
POINT
5
12
100
AcDbEntity
8
0
62
7.0
100
AcDbPoint
10
262.0326843261719
20
54.005393981933594
0
CIRCLE
5
13
100
AcDbEntity
8
0
62
7.0
100
AcDbCircle
10
366.0402526855469
20
54.00777053833008
40
35.00000000000001
0
LINE
5
14
100
AcDbEntity
8
0
62
7.0
100
AcDbLine
10
316.0402526855469
20
4.007770538330078
11
416.0402526855469
21
4.007770538330078
0
LINE
5
15
100
AcDbEntity
8
0
62
7.0
100
AcDbLine
10
316.0402526855469
20
4.007770538330078
11
316.0402526855469
21
104.00777053833008
0
LINE
5
16
100
AcDbEntity
8
0
62
7.0
100
AcDbLine
10
316.0402526855469
20
104.00777053833008
11
416.0402526855469
21
104.00777053833008
0
LINE
5
17
100
AcDbEntity
8
0
62
7.0
100
AcDbLine
10
416.0402526855469
20
4.007770538330078
11
416.0402526855469
21
104.00777053833008
0
POINT
5
18
100
AcDbEntity
8
0
62
7.0
100
AcDbPoint
10
366.0402526855469
20
54.00777053833008
0
CIRCLE
5
19
100
AcDbEntity
8
0
62
7.0
100
AcDbCircle
10
470.0466003417969
20
54.00178909301758
40
35.00000000000001
0
LINE
5
1A
100
AcDbEntity
8
0
62
7.0
100
AcDbLine
10
420.0466003417969
20
104.00178909301758
11
420.0466003417969
21
4.001789093017578
0
LINE
5
1B
100
AcDbEntity
8
0
62
7.0
100
AcDbLine
10
420.0466003417969
20
104.00178909301758
11
520.0466003417969
21
104.00178909301758
0
LINE
5
1C
100
AcDbEntity
8
0
62
7.0
100
AcDbLine
10
520.0466003417969
20
104.00178909301758
11
520.0466003417969
21
4.001789093017578
0
LINE
5
1D
100
AcDbEntity
8
0
62
7.0
100
AcDbLine
10
420.0466003417969
20
4.001789093017578
11
520.0466003417969
21
4.001789093017578
0
POINT
5
1E
100
AcDbEntity
8
0
62
7.0
100
AcDbPoint
10
470.0466003417969
20
54.00178909301758
0
CIRCLE
5
1F
100
AcDbEntity
8
0
62
7.0
100
AcDbCircle
10
574.0559692382813
20
54.0102653503418
40
35.00000000000001
0
LINE
5
20
100
AcDbEntity
8
0
62
7.0
100
AcDbLine
10
624.0559692382813
20
4.010265350341797
11
624.0559692382813
21
104.0102653503418
0
LINE
5
21
100
AcDbEntity
8
0
62
7.0
100
AcDbLine
10
624.0559692382813
20
4.010265350341797
11
524.0559692382813
21
4.010265350341797
0
LINE
5
22
100
AcDbEntity
8
0
62
7.0
100
AcDbLine
10
524.0559692382813
20
4.010265350341797
11
524.0559692382813
21
104.0102653503418
0
LINE
5
23
100
AcDbEntity
8
0
62
7.0
100
AcDbLine
10
624.0559692382813
20
104.0102653503418
11
524.0559692382813
21
104.0102653503418
0
POINT
5
24
100
AcDbEntity
8
0
62
7.0
100
AcDbPoint
10
574.0559692382813
20
54.0102653503418
0
CIRCLE
5
25
100
AcDbEntity
8
0
62
7.0
100
AcDbCircle
10
678.056396484375
20
54.0102424621582
40
35.00000000000001
0
LINE
5
26
100
AcDbEntity
8
0
62
7.0
100
AcDbLine
10
728.056396484375
20
104.0102424621582
11
628.056396484375
21
104.0102424621582
0
LINE
5
27
100
AcDbEntity
8
0
62
7.0
100
AcDbLine
10
728.056396484375
20
104.0102424621582
11
728.056396484375
21
4.01024246215821
0
LINE
5
28
100
AcDbEntity
8
0
62
7.0
100
AcDbLine
10
728.056396484375
20
4.01024246215821
11
628.056396484375
21
4.010242462158196
0
LINE
5
29
100
AcDbEntity
8
0
62
7.0
100
AcDbLine
10
628.056396484375
20
104.0102424621582
11
628.056396484375
21
4.010242462158196
0
POINT
5
2A
100
AcDbEntity
8
0
62
7.0
100
AcDbPoint
10
678.056396484375
20
54.0102424621582
0
CIRCLE
5
2B
100
AcDbEntity
8
0
62
7.0
100
AcDbCircle
10
782.0597534179688
20
54.00812530517578
40
35.00000000000001
0
LINE
5
2C
100
AcDbEntity
8
0
62
7.0
100
AcDbLine
10
832.0597534179688
20
4.008125305175781
11
832.0597534179688
21
104.00812530517578
0
LINE
5
2D
100
AcDbEntity
8
0
62
7.0
100
AcDbLine
10
832.0597534179688
20
4.008125305175781
11
732.0597534179688
21
4.008125305175781
0
LINE
5
2E
100
AcDbEntity
8
0
62
7.0
100
AcDbLine
10
732.0597534179688
20
4.008125305175781
11
732.0597534179688
21
104.00812530517578
0
LINE
5
2F
100
AcDbEntity
8
0
62
7.0
100
AcDbLine
10
832.0597534179688
20
104.00812530517578
11
732.0597534179688
21
104.00812530517578
0
POINT
5
30
100
AcDbEntity
8
0
62
7.0
100
AcDbPoint
10
782.0597534179688
20
54.00812530517578
0
CIRCLE
5
31
100
AcDbEntity
8
0
62
7.0
100
AcDbCircle
10
886.1126098632813
20
54.00819778442383
40
35.00000000000001
0
LINE
5
32
100
AcDbEntity
8
0
62
7.0
100
AcDbLine
10
936.1126098632813
20
4.008197784423828
11
936.1126098632813
21
104.00819778442383
0
LINE
5
33
100
AcDbEntity
8
0
62
7.0
100
AcDbLine
10
936.1126098632813
20
4.008197784423828
11
836.1126098632813
21
4.008197784423828
0
LINE
5
34
100
AcDbEntity
8
0
62
7.0
100
AcDbLine
10
836.1126098632813
20
4.008197784423828
11
836.1126098632813
21
104.00819778442383
0
LINE
5
35
100
AcDbEntity
8
0
62
7.0
100
AcDbLine
10
936.1126098632813
20
104.00819778442383
11
836.1126098632813
21
104.00819778442383
0
POINT
5
36
100
AcDbEntity
8
0
62
7.0
100
AcDbPoint
10
886.1126098632813
20
54.00819778442383
0
CIRCLE
5
37
100
AcDbEntity
8
0
62
7.0
100
AcDbCircle
10
54.16407775878906
20
158.00758361816406
40
35.00000000000001
0
LINE
5
38
100
AcDbEntity
8
0
62
7.0
100
AcDbLine
10
4.1640777587890625
20
208.00758361816406
11
4.1640777587890625
21
108.00758361816406
0
LINE
5
39
100
AcDbEntity
8
0
62
7.0
100
AcDbLine
10
4.1640777587890625
20
208.00758361816406
11
104.16407775878906
21
208.00758361816406
0
LINE
5
3A
100
AcDbEntity
8
0
62
7.0
100
AcDbLine
10
104.16407775878906
20
208.00758361816406
11
104.16407775878906
21
108.00758361816406
0
LINE
5
3B
100
AcDbEntity
8
0
62
7.0
100
AcDbLine
10
4.1640777587890625
20
108.00758361816406
11
104.16407775878906
21
108.00758361816406
0
POINT
5
3C
100
AcDbEntity
8
0
62
7.0
100
AcDbPoint
10
54.16407775878906
20
158.00758361816406
0
CIRCLE
5
3D
100
AcDbEntity
8
0
62
7.0
100
AcDbCircle
10
158.17681884765625
20
158.0062713623047
40
35.00000000000001
0
LINE
5
3E
100
AcDbEntity
8
0
62
7.0
100
AcDbLine
10
108.17681884765625
20
108.00627136230469
11
208.17681884765625
21
108.00627136230469
0
LINE
5
3F
100
AcDbEntity
8
0
62
7.0
100
AcDbLine
10
108.17681884765625
20
108.00627136230469
11
108.17681884765625
21
208.0062713623047
0
LINE
5
40
100
AcDbEntity
8
0
62
7.0
100
AcDbLine
10
108.17681884765625
20
208.0062713623047
11
208.17681884765625
21
208.0062713623047
0
LINE
5
41
100
AcDbEntity
8
0
62
7.0
100
AcDbLine
10
208.17681884765625
20
108.00627136230469
11
208.17681884765625
21
208.0062713623047
0
POINT
5
42
100
AcDbEntity
8
0
62
7.0
100
AcDbPoint
10
158.17681884765625
20
158.0062713623047
0
CIRCLE
5
43
100
AcDbEntity
8
0
62
7.0
100
AcDbCircle
10
262.17938232421875
20
158.01731872558594
40
35.00000000000001
0
LINE
5
44
100
AcDbEntity
8
0
62
7.0
100
AcDbLine
10
212.17938232421875
20
208.01731872558594
11
212.17938232421875
21
108.01731872558594
0
LINE
5
45
100
AcDbEntity
8
0
62
7.0
100
AcDbLine
10
212.17938232421875
20
208.01731872558594
11
312.17938232421875
21
208.01731872558594
0
LINE
5
46
100
AcDbEntity
8
0
62
7.0
100
AcDbLine
10
312.17938232421875
20
208.01731872558594
11
312.17938232421875
21
108.01731872558594
0
LINE
5
47
100
AcDbEntity
8
0
62
7.0
100
AcDbLine
10
212.17938232421875
20
108.01731872558594
11
312.17938232421875
21
108.01731872558594
0
POINT
5
48
100
AcDbEntity
8
0
62
7.0
100
AcDbPoint
10
262.17938232421875
20
158.01731872558594
0
CIRCLE
5
49
100
AcDbEntity
8
0
62
7.0
100
AcDbCircle
10
366.1868286132813
20
158.00782775878906
40
35.00000000000001
0
LINE
5
4A
100
AcDbEntity
8
0
62
7.0
100
AcDbLine
10
316.1868286132813
20
208.00782775878906
11
316.1868286132813
21
108.00782775878906
0
LINE
5
4B
100
AcDbEntity
8
0
62
7.0
100
AcDbLine
10
316.1868286132813
20
208.00782775878906
11
416.1868286132813
21
208.00782775878906
0
LINE
5
4C
100
AcDbEntity
8
0
62
7.0
100
AcDbLine
10
416.1868286132813
20
208.00782775878906
11
416.1868286132813
21
108.00782775878906
0
LINE
5
4D
100
AcDbEntity
8
0
62
7.0
100
AcDbLine
10
316.1868286132813
20
108.00782775878906
11
416.1868286132813
21
108.00782775878906
0
POINT
5
4E
100
AcDbEntity
8
0
62
7.0
100
AcDbPoint
10
366.1868286132813
20
158.00782775878906
0
CIRCLE
5
4F
100
AcDbEntity
8
0
62
7.0
100
AcDbCircle
10
470.190673828125
20
158.01513671875
40
35.00000000000001
0
LINE
5
50
100
AcDbEntity
8
0
62
7.0
100
AcDbLine
10
520.190673828125
20
108.01513671875
11
520.190673828125
21
208.01513671875
0
LINE
5
51
100
AcDbEntity
8
0
62
7.0
100
AcDbLine
10
520.190673828125
20
108.01513671875
11
420.190673828125
21
108.01513671875
0
LINE
5
52
100
AcDbEntity
8
0
62
7.0
100
AcDbLine
10
420.190673828125
20
108.01513671875
11
420.190673828125
21
208.01513671875
0
LINE
5
53
100
AcDbEntity
8
0
62
7.0
100
AcDbLine
10
520.190673828125
20
208.01513671875
11
420.190673828125
21
208.01513671875
0
POINT
5
54
100
AcDbEntity
8
0
62
7.0
100
AcDbPoint
10
470.190673828125
20
158.01513671875
0
CIRCLE
5
55
100
AcDbEntity
8
0
62
7.0
100
AcDbCircle
10
606.3394165039063
20
158.01365661621094
40
35.00000000000001
0
LINE
5
56
100
AcDbEntity
8
0
62
7.0
100
AcDbLine
10
556.3394165039063
20
208.01365661621094
11
556.3394165039063
21
108.01365661621094
0
LINE
5
57
100
AcDbEntity
8
0
62
7.0
100
AcDbLine
10
556.3394165039063
20
208.01365661621094
11
656.3394165039063
21
208.01365661621094
0
LINE
5
58
100
AcDbEntity
8
0
62
7.0
100
AcDbLine
10
656.3394165039063
20
208.01365661621094
11
656.3394165039063
21
108.01365661621094
0
LINE
5
59
100
AcDbEntity
8
0
62
7.0
100
AcDbLine
10
556.3394165039063
20
108.01365661621094
11
656.3394165039063
21
108.01365661621094
0
POINT
5
5A
100
AcDbEntity
8
0
62
7.0
100
AcDbPoint
10
606.3394165039063
20
158.01365661621094
0
CIRCLE
5
5B
100
AcDbEntity
8
0
62
7.0
100
AcDbCircle
10
710.3414916992188
20
158.01455688476563
40
35.00000000000001
0
LINE
5
5C
100
AcDbEntity
8
0
62
7.0
100
AcDbLine
10
660.3414916992188
20
108.01455688476563
11
760.3414916992188
21
108.01455688476563
0
LINE
5
5D
100
AcDbEntity
8
0
62
7.0
100
AcDbLine
10
660.3414916992188
20
108.01455688476563
11
660.3414916992188
21
208.01455688476563
0
LINE
5
5E
100
AcDbEntity
8
0
62
7.0
100
AcDbLine
10
660.3414916992188
20
208.01455688476563
11
760.3414916992188
21
208.01455688476563
0
LINE
5
5F
100
AcDbEntity
8
0
62
7.0
100
AcDbLine
10
760.3414916992188
20
108.01455688476563
11
760.3414916992188
21
208.01455688476563
0
POINT
5
60
100
AcDbEntity
8
0
62
7.0
100
AcDbPoint
10
710.3414916992188
20
158.01455688476563
0
CIRCLE
5
61
100
AcDbEntity
8
0
62
7.0
100
AcDbCircle
10
814.3417358398438
20
158.0141143798828
40
35.00000000000001
0
LINE
5
62
100
AcDbEntity
8
0
62
7.0
100
AcDbLine
10
864.3417358398438
20
108.01411437988281
11
864.3417358398438
21
208.0141143798828
0
LINE
5
63
100
AcDbEntity
8
0
62
7.0
100
AcDbLine
10
864.3417358398438
20
108.01411437988281
11
764.3417358398438
21
108.01411437988281
0
LINE
5
64
100
AcDbEntity
8
0
62
7.0
100
AcDbLine
10
764.3417358398438
20
108.01411437988281
11
764.3417358398438
21
208.0141143798828
0
LINE
5
65
100
AcDbEntity
8
0
62
7.0
100
AcDbLine
10
864.3417358398438
20
208.0141143798828
11
764.3417358398438
21
208.0141143798828
0
POINT
5
66
100
AcDbEntity
8
0
62
7.0
100
AcDbPoint
10
814.3417358398438
20
158.0141143798828
0
CIRCLE
5
67
100
AcDbEntity
8
0
62
7.0
100
AcDbCircle
10
54.25117492675781
20
262.0077819824219
40
35.00000000000001
0
LINE
5
68
100
AcDbEntity
8
0
62
7.0
100
AcDbLine
10
4.2511749267578125
20
212.00778198242188
11
104.25117492675781
21
212.00778198242188
0
LINE
5
69
100
AcDbEntity
8
0
62
7.0
100
AcDbLine
10
4.2511749267578125
20
212.00778198242188
11
4.2511749267578125
21
312.0077819824219
0
LINE
5
6A
100
AcDbEntity
8
0
62
7.0
100
AcDbLine
10
4.2511749267578125
20
312.0077819824219
11
104.25117492675781
21
312.0077819824219
0
LINE
5
6B
100
AcDbEntity
8
0
62
7.0
100
AcDbLine
10
104.25117492675781
20
212.00778198242188
11
104.25117492675781
21
312.0077819824219
0
POINT
5
6C
100
AcDbEntity
8
0
62
7.0
100
AcDbPoint
10
54.25117492675781
20
262.0077819824219
0
CIRCLE
5
6D
100
AcDbEntity
8
0
62
7.0
100
AcDbCircle
10
158.27352905273438
20
262.0173645019531
40
35.00000000000001
0
LINE
5
6E
100
AcDbEntity
8
0
62
7.0
100
AcDbLine
10
208.27352905273438
20
312.0173645019531
11
108.27352905273438
21
312.0173645019531
0
LINE
5
6F
100
AcDbEntity
8
0
62
7.0
100
AcDbLine
10
208.27352905273438
20
312.0173645019531
11
208.27352905273438
21
212.01736450195313
0
LINE
5
70
100
AcDbEntity
8
0
62
7.0
100
AcDbLine
10
208.27352905273438
20
212.01736450195313
11
108.27352905273438
21
212.01736450195313
0
LINE
5
71
100
AcDbEntity
8
0
62
7.0
100
AcDbLine
10
108.27352905273438
20
312.0173645019531
11
108.27352905273438
21
212.01736450195313
0
POINT
5
72
100
AcDbEntity
8
0
62
7.0
100
AcDbPoint
10
158.27352905273438
20
262.0173645019531
0
CIRCLE
5
73
100
AcDbEntity
8
0
62
7.0
100
AcDbCircle
10
262.274169921875
20
262.01763916015625
40
35.00000000000001
0
LINE
5
74
100
AcDbEntity
8
0
62
7.0
100
AcDbLine
10
212.274169921875
20
312.01763916015625
11
212.274169921875
21
212.01763916015625
0
LINE
5
75
100
AcDbEntity
8
0
62
7.0
100
AcDbLine
10
212.274169921875
20
312.01763916015625
11
312.274169921875
21
312.01763916015625
0
LINE
5
76
100
AcDbEntity
8
0
62
7.0
100
AcDbLine
10
312.274169921875
20
312.01763916015625
11
312.274169921875
21
212.01763916015625
0
LINE
5
77
100
AcDbEntity
8
0
62
7.0
100
AcDbLine
10
212.274169921875
20
212.01763916015625
11
312.274169921875
21
212.01763916015625
0
POINT
5
78
100
AcDbEntity
8
0
62
7.0
100
AcDbPoint
10
262.274169921875
20
262.01763916015625
0
CIRCLE
5
79
100
AcDbEntity
8
0
62
7.0
100
AcDbCircle
10
366.2823181152344
20
262.0160827636719
40
35.00000000000001
0
LINE
5
7A
100
AcDbEntity
8
0
62
7.0
100
AcDbLine
10
316.2823181152344
20
212.01608276367188
11
416.2823181152344
21
212.01608276367188
0
LINE
5
7B
100
AcDbEntity
8
0
62
7.0
100
AcDbLine
10
316.2823181152344
20
212.01608276367188
11
316.2823181152344
21
312.0160827636719
0
LINE
5
7C
100
AcDbEntity
8
0
62
7.0
100
AcDbLine
10
316.2823181152344
20
312.0160827636719
11
416.2823181152344
21
312.0160827636719
0
LINE
5
7D
100
AcDbEntity
8
0
62
7.0
100
AcDbLine
10
416.2823181152344
20
212.01608276367188
11
416.2823181152344
21
312.0160827636719
0
POINT
5
7E
100
AcDbEntity
8
0
62
7.0
100
AcDbPoint
10
366.2823181152344
20
262.0160827636719
0
CIRCLE
5
7F
100
AcDbEntity
8
0
62
7.0
100
AcDbCircle
10
470.2956848144531
20
262.0159606933594
40
35.00000000000001
0
LINE
5
80
100
AcDbEntity
8
0
62
7.0
100
AcDbLine
10
420.2956848144531
20
212.01596069335938
11
520.2956848144531
21
212.01596069335938
0
LINE
5
81
100
AcDbEntity
8
0
62
7.0
100
AcDbLine
10
420.2956848144531
20
212.01596069335938
11
420.2956848144531
21
312.0159606933594
0
LINE
5
82
100
AcDbEntity
8
0
62
7.0
100
AcDbLine
10
420.2956848144531
20
312.0159606933594
11
520.2956848144531
21
312.0159606933594
0
LINE
5
83
100
AcDbEntity
8
0
62
7.0
100
AcDbLine
10
520.2956848144531
20
212.01596069335938
11
520.2956848144531
21
312.0159606933594
0
POINT
5
84
100
AcDbEntity
8
0
62
7.0
100
AcDbPoint
10
470.2956848144531
20
262.0159606933594
0
CIRCLE
5
85
100
AcDbEntity
8
0
62
7.0
100
AcDbCircle
10
574.30615234375
20
262.0190734863281
40
35.00000000000001
0
LINE
5
86
100
AcDbEntity
8
0
62
7.0
100
AcDbLine
10
624.30615234375
20
312.0190734863281
11
524.30615234375
21
312.0190734863281
0
LINE
5
87
100
AcDbEntity
8
0
62
7.0
100
AcDbLine
10
624.30615234375
20
312.0190734863281
11
624.30615234375
21
212.01907348632813
0
LINE
5
88
100
AcDbEntity
8
0
62
7.0
100
AcDbLine
10
624.30615234375
20
212.01907348632813
11
524.30615234375
21
212.01907348632813
0
LINE
5
89
100
AcDbEntity
8
0
62
7.0
100
AcDbLine
10
524.30615234375
20
312.0190734863281
11
524.30615234375
21
212.01907348632813
0
POINT
5
8A
100
AcDbEntity
8
0
62
7.0
100
AcDbPoint
10
574.30615234375
20
262.0190734863281
0
CIRCLE
5
8B
100
AcDbEntity
8
0
62
7.0
100
AcDbCircle
10
678.3132934570313
20
262.0168151855469
40
35.00000000000001
0
LINE
5
8C
100
AcDbEntity
8
0
62
7.0
100
AcDbLine
10
628.3132934570313
20
212.01681518554688
11
728.3132934570313
21
212.01681518554688
0
LINE
5
8D
100
AcDbEntity
8
0
62
7.0
100
AcDbLine
10
628.3132934570313
20
212.01681518554688
11
628.3132934570313
21
312.0168151855469
0
LINE
5
8E
100
AcDbEntity
8
0
62
7.0
100
AcDbLine
10
628.3132934570313
20
312.0168151855469
11
728.3132934570313
21
312.0168151855469
0
LINE
5
8F
100
AcDbEntity
8
0
62
7.0
100
AcDbLine
10
728.3132934570313
20
212.01681518554688
11
728.3132934570313
21
312.0168151855469
0
POINT
5
90
100
AcDbEntity
8
0
62
7.0
100
AcDbPoint
10
678.3132934570313
20
262.0168151855469
0
CIRCLE
5
91
100
AcDbEntity
8
0
62
7.0
100
AcDbCircle
10
782.3231811523438
20
262.0262145996094
40
35.00000000000001
0
LINE
5
92
100
AcDbEntity
8
0
62
7.0
100
AcDbLine
10
732.3231811523438
20
212.02621459960938
11
832.3231811523438
21
212.02621459960938
0
LINE
5
93
100
AcDbEntity
8
0
62
7.0
100
AcDbLine
10
732.3231811523438
20
212.02621459960938
11
732.3231811523438
21
312.0262145996094
0
LINE
5
94
100
AcDbEntity
8
0
62
7.0
100
AcDbLine
10
732.3231811523438
20
312.0262145996094
11
832.3231811523438
21
312.0262145996094
0
LINE
5
95
100
AcDbEntity
8
0
62
7.0
100
AcDbLine
10
832.3231811523438
20
212.02621459960938
11
832.3231811523438
21
312.0262145996094
0
POINT
5
96
100
AcDbEntity
8
0
62
7.0
100
AcDbPoint
10
782.3231811523438
20
262.0262145996094
0
CIRCLE
5
97
100
AcDbEntity
8
0
62
7.0
100
AcDbCircle
10
918.3446655273438
20
158.03521728515625
40
35.00000000000001
0
LINE
5
98
100
AcDbEntity
8
0
62
7.0
100
AcDbLine
10
868.3446655273438
20
108.03521728515625
11
968.3446655273438
21
108.03521728515625
0
LINE
5
99
100
AcDbEntity
8
0
62
7.0
100
AcDbLine
10
868.3446655273438
20
108.03521728515625
11
868.3446655273438
21
208.03521728515625
0
LINE
5
9A
100
AcDbEntity
8
0
62
7.0
100
AcDbLine
10
868.3446655273438
20
208.03521728515625
11
968.3446655273438
21
208.03521728515625
0
LINE
5
9B
100
AcDbEntity
8
0
62
7.0
100
AcDbLine
10
968.3446655273438
20
108.03521728515625
11
968.3446655273438
21
208.03521728515625
0
POINT
5
9C
100
AcDbEntity
8
0
62
7.0
100
AcDbPoint
10
918.3446655273438
20
158.03521728515625
0
CIRCLE
5
9D
100
AcDbEntity
8
0
62
7.0
100
AcDbCircle
10
886.3440551757813
20
262.03558349609375
40
35.00000000000001
0
LINE
5
9E
100
AcDbEntity
8
0
62
7.0
100
AcDbLine
10
936.3440551757813
20
212.03558349609375
11
936.3440551757813
21
312.03558349609375
0
LINE
5
9F
100
AcDbEntity
8
0
62
7.0
100
AcDbLine
10
936.3440551757813
20
212.03558349609375
11
836.3440551757813
21
212.03558349609375
0
LINE
5
A0
100
AcDbEntity
8
0
62
7.0
100
AcDbLine
10
836.3440551757813
20
212.03558349609375
11
836.3440551757813
21
312.03558349609375
0
LINE
5
A1
100
AcDbEntity
8
0
62
7.0
100
AcDbLine
10
936.3440551757813
20
312.03558349609375
11
836.3440551757813
21
312.03558349609375
0
POINT
5
A2
100
AcDbEntity
8
0
62
7.0
100
AcDbPoint
10
886.3440551757813
20
262.03558349609375
0
CIRCLE
5
A3
100
AcDbEntity
8
0
62
7.0
100
AcDbCircle
10
54.04647445678711
20
366.01080322265625
40
35.00000000000001
0
LINE
5
A4
100
AcDbEntity
8
0
62
7.0
100
AcDbLine
10
104.04647445678711
20
416.01080322265625
11
4.046474456787102
21
416.01080322265625
0
LINE
5
A5
100
AcDbEntity
8
0
62
7.0
100
AcDbLine
10
104.04647445678711
20
416.01080322265625
11
104.04647445678711
21
316.01080322265625
0
LINE
5
A6
100
AcDbEntity
8
0
62
7.0
100
AcDbLine
10
104.04647445678711
20
316.01080322265625
11
4.0464744567871165
21
316.01080322265625
0
LINE
5
A7
100
AcDbEntity
8
0
62
7.0
100
AcDbLine
10
4.046474456787102
20
416.01080322265625
11
4.0464744567871165
21
316.01080322265625
0
POINT
5
A8
100
AcDbEntity
8
0
62
7.0
100
AcDbPoint
10
54.04647445678711
20
366.01080322265625
0
CIRCLE
5
A9
100
AcDbEntity
8
0
62
7.0
100
AcDbCircle
10
158.04736328125
20
366.0181884765625
40
35.00000000000001
0
LINE
5
AA
100
AcDbEntity
8
0
62
7.0
100
AcDbLine
10
108.04736328125
20
316.0181884765625
11
208.04736328125
21
316.0181884765625
0
LINE
5
AB
100
AcDbEntity
8
0
62
7.0
100
AcDbLine
10
108.04736328125
20
316.0181884765625
11
108.04736328125
21
416.0181884765625
0
LINE
5
AC
100
AcDbEntity
8
0
62
7.0
100
AcDbLine
10
108.04736328125
20
416.0181884765625
11
208.04736328125
21
416.0181884765625
0
LINE
5
AD
100
AcDbEntity
8
0
62
7.0
100
AcDbLine
10
208.04736328125
20
316.0181884765625
11
208.04736328125
21
416.0181884765625
0
POINT
5
AE
100
AcDbEntity
8
0
62
7.0
100
AcDbPoint
10
158.04736328125
20
366.0181884765625
0
CIRCLE
5
AF
100
AcDbEntity
8
0
62
7.0
100
AcDbCircle
10
262.06304931640625
20
366.01800537109375
40
35.00000000000001
0
LINE
5
B0
100
AcDbEntity
8
0
62
7.0
100
AcDbLine
10
312.06304931640625
20
416.01800537109375
11
212.06304931640625
21
416.01800537109375
0
LINE
5
B1
100
AcDbEntity
8
0
62
7.0
100
AcDbLine
10
312.06304931640625
20
416.01800537109375
11
312.06304931640625
21
316.01800537109375
0
LINE
5
B2
100
AcDbEntity
8
0
62
7.0
100
AcDbLine
10
312.06304931640625
20
316.01800537109375
11
212.06304931640625
21
316.01800537109375
0
LINE
5
B3
100
AcDbEntity
8
0
62
7.0
100
AcDbLine
10
212.06304931640625
20
416.01800537109375
11
212.06304931640625
21
316.01800537109375
0
POINT
5
B4
100
AcDbEntity
8
0
62
7.0
100
AcDbPoint
10
262.06304931640625
20
366.01800537109375
0
CIRCLE
5
B5
100
AcDbEntity
8
0
62
7.0
100
AcDbCircle
10
366.0648498535156
20
366.0191650390625
40
35.00000000000001
0
LINE
5
B6
100
AcDbEntity
8
0
62
7.0
100
AcDbLine
10
316.0648498535156
20
416.0191650390625
11
316.0648498535156
21
316.0191650390625
0
LINE
5
B7
100
AcDbEntity
8
0
62
7.0
100
AcDbLine
10
316.0648498535156
20
416.0191650390625
11
416.0648498535156
21
416.0191650390625
0
LINE
5
B8
100
AcDbEntity
8
0
62
7.0
100
AcDbLine
10
416.0648498535156
20
416.0191650390625
11
416.0648498535156
21
316.0191650390625
0
LINE
5
B9
100
AcDbEntity
8
0
62
7.0
100
AcDbLine
10
316.0648498535156
20
316.0191650390625
11
416.0648498535156
21
316.0191650390625
0
POINT
5
BA
100
AcDbEntity
8
0
62
7.0
100
AcDbPoint
10
366.0648498535156
20
366.0191650390625
0
CIRCLE
5
BB
100
AcDbEntity
8
0
62
7.0
100
AcDbCircle
10
502.1730346679687
20
366.0191650390625
40
35.00000000000001
0
LINE
5
BC
100
AcDbEntity
8
0
62
7.0
100
AcDbLine
10
452.1730346679687
20
416.0191650390625
11
452.1730346679687
21
316.0191650390625
0
LINE
5
BD
100
AcDbEntity
8
0
62
7.0
100
AcDbLine
10
452.1730346679687
20
416.0191650390625
11
552.1730346679688
21
416.0191650390625
0
LINE
5
BE
100
AcDbEntity
8
0
62
7.0
100
AcDbLine
10
552.1730346679688
20
416.0191650390625
11
552.1730346679688
21
316.0191650390625
0
LINE
5
BF
100
AcDbEntity
8
0
62
7.0
100
AcDbLine
10
452.1730346679687
20
316.0191650390625
11
552.1730346679688
21
316.0191650390625
0
POINT
5
C0
100
AcDbEntity
8
0
62
7.0
100
AcDbPoint
10
502.1730346679687
20
366.0191650390625
0
CIRCLE
5
C1
100
AcDbEntity
8
0
62
7.0
100
AcDbCircle
10
606.1748657226563
20
366.0201416015625
40
35.00000000000001
0
LINE
5
C2
100
AcDbEntity
8
0
62
7.0
100
AcDbLine
10
656.1748657226563
20
416.0201416015625
11
556.1748657226563
21
416.0201416015625
0
LINE
5
C3
100
AcDbEntity
8
0
62
7.0
100
AcDbLine
10
656.1748657226563
20
416.0201416015625
11
656.1748657226563
21
316.0201416015625
0
LINE
5
C4
100
AcDbEntity
8
0
62
7.0
100
AcDbLine
10
656.1748657226563
20
316.0201416015625
11
556.1748657226563
21
316.0201416015625
0
LINE
5
C5
100
AcDbEntity
8
0
62
7.0
100
AcDbLine
10
556.1748657226563
20
416.0201416015625
11
556.1748657226563
21
316.0201416015625
0
POINT
5
C6
100
AcDbEntity
8
0
62
7.0
100
AcDbPoint
10
606.1748657226563
20
366.0201416015625
0
CIRCLE
5
C7
100
AcDbEntity
8
0
62
7.0
100
AcDbCircle
10
710.196044921875
20
366.0271301269531
40
35.00000000000001
0
LINE
5
C8
100
AcDbEntity
8
0
62
7.0
100
AcDbLine
10
660.196044921875
20
316.0271301269531
11
760.196044921875
21
316.0271301269531
0
LINE
5
C9
100
AcDbEntity
8
0
62
7.0
100
AcDbLine
10
660.196044921875
20
316.0271301269531
11
660.196044921875
21
416.0271301269531
0
LINE
5
CA
100
AcDbEntity
8
0
62
7.0
100
AcDbLine
10
660.196044921875
20
416.0271301269531
11
760.196044921875
21
416.0271301269531
0
LINE
5
CB
100
AcDbEntity
8
0
62
7.0
100
AcDbLine
10
760.196044921875
20
316.0271301269531
11
760.196044921875
21
416.0271301269531
0
POINT
5
CC
100
AcDbEntity
8
0
62
7.0
100
AcDbPoint
10
710.196044921875
20
366.0271301269531
0
CIRCLE
5
CD
100
AcDbEntity
8
0
62
7.0
100
AcDbCircle
10
814.2055053710938
20
366.03570556640625
40
35.00000000000001
0
LINE
5
CE
100
AcDbEntity
8
0
62
7.0
100
AcDbLine
10
764.2055053710938
20
416.03570556640625
11
764.2055053710938
21
316.03570556640625
0
LINE
5
CF
100
AcDbEntity
8
0
62
7.0
100
AcDbLine
10
764.2055053710938
20
416.03570556640625
11
864.2055053710938
21
416.03570556640625
0
LINE
5
D0
100
AcDbEntity
8
0
62
7.0
100
AcDbLine
10
864.2055053710938
20
416.03570556640625
11
864.2055053710938
21
316.03570556640625
0
LINE
5
D1
100
AcDbEntity
8
0
62
7.0
100
AcDbLine
10
764.2055053710938
20
316.03570556640625
11
864.2055053710938
21
316.03570556640625
0
POINT
5
D2
100
AcDbEntity
8
0
62
7.0
100
AcDbPoint
10
814.2055053710938
20
366.03570556640625
0
CIRCLE
5
D3
100
AcDbEntity
8
0
62
7.0
100
AcDbCircle
10
918.218017578125
20
366.0371398925781
40
35.00000000000001
0
LINE
5
D4
100
AcDbEntity
8
0
62
7.0
100
AcDbLine
10
868.218017578125
20
316.0371398925781
11
968.218017578125
21
316.0371398925781
0
LINE
5
D5
100
AcDbEntity
8
0
62
7.0
100
AcDbLine
10
868.218017578125
20
316.0371398925781
11
868.218017578125
21
416.0371398925781
0
LINE
5
D6
100
AcDbEntity
8
0
62
7.0
100
AcDbLine
10
868.218017578125
20
416.0371398925781
11
968.218017578125
21
416.0371398925781
0
LINE
5
D7
100
AcDbEntity
8
0
62
7.0
100
AcDbLine
10
968.218017578125
20
316.0371398925781
11
968.218017578125
21
416.0371398925781
0
POINT
5
D8
100
AcDbEntity
8
0
62
7.0
100
AcDbPoint
10
918.218017578125
20
366.0371398925781
0
CIRCLE
5
D9
100
AcDbEntity
8
0
62
7.0
100
AcDbCircle
10
54.04277420043945
20
470.0218811035156
40
35.00000000000001
0
LINE
5
DA
100
AcDbEntity
8
0
62
7.0
100
AcDbLine
10
4.042774200439453
20
520.0218811035156
11
4.042774200439453
21
420.0218811035156
0
LINE
5
DB
100
AcDbEntity
8
0
62
7.0
100
AcDbLine
10
4.042774200439453
20
520.0218811035156
11
104.04277420043945
21
520.0218811035156
0
LINE
5
DC
100
AcDbEntity
8
0
62
7.0
100
AcDbLine
10
104.04277420043945
20
520.0218811035156
11
104.04277420043945
21
420.0218811035156
0
LINE
5
DD
100
AcDbEntity
8
0
62
7.0
100
AcDbLine
10
4.042774200439453
20
420.0218811035156
11
104.04277420043945
21
420.0218811035156
0
POINT
5
DE
100
AcDbEntity
8
0
62
7.0
100
AcDbPoint
10
54.04277420043945
20
470.0218811035156
0
CIRCLE
5
DF
100
AcDbEntity
8
0
62
7.0
100
AcDbCircle
10
158.05172729492188
20
470.0237731933594
40
35.00000000000001
0
LINE
5
E0
100
AcDbEntity
8
0
62
7.0
100
AcDbLine
10
108.05172729492188
20
520.0237731933594
11
108.05172729492188
21
420.0237731933594
0
LINE
5
E1
100
AcDbEntity
8
0
62
7.0
100
AcDbLine
10
108.05172729492188
20
520.0237731933594
11
208.05172729492188
21
520.0237731933594
0
LINE
5
E2
100
AcDbEntity
8
0
62
7.0
100
AcDbLine
10
208.05172729492188
20
520.0237731933594
11
208.05172729492188
21
420.0237731933594
0
LINE
5
E3
100
AcDbEntity
8
0
62
7.0
100
AcDbLine
10
108.05172729492188
20
420.0237731933594
11
208.05172729492188
21
420.0237731933594
0
POINT
5
E4
100
AcDbEntity
8
0
62
7.0
100
AcDbPoint
10
158.05172729492188
20
470.0237731933594
0
CIRCLE
5
E5
100
AcDbEntity
8
0
62
7.0
100
AcDbCircle
10
262.05621337890625
20
470.0238952636719
40
35.00000000000001
0
LINE
5
E6
100
AcDbEntity
8
0
62
7.0
100
AcDbLine
10
312.05621337890625
20
420.0238952636719
11
312.05621337890625
21
520.0238952636719
0
LINE
5
E7
100
AcDbEntity
8
0
62
7.0
100
AcDbLine
10
312.05621337890625
20
420.0238952636719
11
212.05621337890625
21
420.0238952636719
0
LINE
5
E8
100
AcDbEntity
8
0
62
7.0
100
AcDbLine
10
212.05621337890625
20
420.0238952636719
11
212.05621337890625
21
520.0238952636719
0
LINE
5
E9
100
AcDbEntity
8
0
62
7.0
100
AcDbLine
10
312.05621337890625
20
520.0238952636719
11
212.05621337890625
21
520.0238952636719
0
POINT
5
EA
100
AcDbEntity
8
0
62
7.0
100
AcDbPoint
10
262.05621337890625
20
470.0238952636719
0
CIRCLE
5
EB
100
AcDbEntity
8
0
62
7.0
100
AcDbCircle
10
366.06353759765625
20
470.0203857421875
40
35.00000000000001
0
LINE
5
EC
100
AcDbEntity
8
0
62
7.0
100
AcDbLine
10
416.06353759765625
20
520.0203857421875
11
316.06353759765625
21
520.0203857421875
0
LINE
5
ED
100
AcDbEntity
8
0
62
7.0
100
AcDbLine
10
416.06353759765625
20
520.0203857421875
11
416.06353759765625
21
420.0203857421875
0
LINE
5
EE
100
AcDbEntity
8
0
62
7.0
100
AcDbLine
10
416.06353759765625
20
420.0203857421875
11
316.06353759765625
21
420.0203857421875
0
LINE
5
EF
100
AcDbEntity
8
0
62
7.0
100
AcDbLine
10
316.06353759765625
20
520.0203857421875
11
316.06353759765625
21
420.0203857421875
0
POINT
5
F0
100
AcDbEntity
8
0
62
7.0
100
AcDbPoint
10
366.06353759765625
20
470.0203857421875
0
CIRCLE
5
F1
100
AcDbEntity
8
0
62
7.0
100
AcDbCircle
10
470.0816650390625
20
470.0262756347656
40
35.00000000000001
0
LINE
5
F2
100
AcDbEntity
8
0
62
7.0
100
AcDbLine
10
520.0816650390625
20
520.0262756347656
11
420.0816650390625
21
520.0262756347656
0
LINE
5
F3
100
AcDbEntity
8
0
62
7.0
100
AcDbLine
10
520.0816650390625
20
520.0262756347656
11
520.0816650390625
21
420.0262756347656
0
LINE
5
F4
100
AcDbEntity
8
0
62
7.0
100
AcDbLine
10
520.0816650390625
20
420.0262756347656
11
420.0816650390625
21
420.0262756347656
0
LINE
5
F5
100
AcDbEntity
8
0
62
7.0
100
AcDbLine
10
420.0816650390625
20
520.0262756347656
11
420.0816650390625
21
420.0262756347656
0
POINT
5
F6
100
AcDbEntity
8
0
62
7.0
100
AcDbPoint
10
470.0816650390625
20
470.0262756347656
0
CIRCLE
5
F7
100
AcDbEntity
8
0
62
7.0
100
AcDbCircle
10
574.097412109375
20
470.0306396484375
40
35.00000000000001
0
LINE
5
F8
100
AcDbEntity
8
0
62
7.0
100
AcDbLine
10
624.097412109375
20
420.0306396484375
11
624.097412109375
21
520.0306396484375
0
LINE
5
F9
100
AcDbEntity
8
0
62
7.0
100
AcDbLine
10
624.097412109375
20
420.0306396484375
11
524.097412109375
21
420.0306396484375
0
LINE
5
FA
100
AcDbEntity
8
0
62
7.0
100
AcDbLine
10
524.097412109375
20
420.0306396484375
11
524.097412109375
21
520.0306396484375
0
LINE
5
FB
100
AcDbEntity
8
0
62
7.0
100
AcDbLine
10
624.097412109375
20
520.0306396484375
11
524.097412109375
21
520.0306396484375
0
POINT
5
FC
100
AcDbEntity
8
0
62
7.0
100
AcDbPoint
10
574.097412109375
20
470.0306396484375
0
CIRCLE
5
FD
100
AcDbEntity
8
0
62
7.0
100
AcDbCircle
10
678.0984497070313
20
470.0400695800781
40
35.00000000000001
0
LINE
5
FE
100
AcDbEntity
8
0
62
7.0
100
AcDbLine
10
628.0984497070313
20
520.0400695800781
11
628.0984497070313
21
420.0400695800781
0
LINE
5
FF
100
AcDbEntity
8
0
62
7.0
100
AcDbLine
10
628.0984497070313
20
520.0400695800781
11
728.0984497070313
21
520.0400695800781
0
LINE
5
100
100
AcDbEntity
8
0
62
7.0
100
AcDbLine
10
728.0984497070313
20
520.0400695800781
11
728.0984497070313
21
420.0400695800781
0
LINE
5
101
100
AcDbEntity
8
0
62
7.0
100
AcDbLine
10
628.0984497070313
20
420.0400695800781
11
728.0984497070313
21
420.0400695800781
0
POINT
5
102
100
AcDbEntity
8
0
62
7.0
100
AcDbPoint
10
678.0984497070313
20
470.0400695800781
0
CIRCLE
5
103
100
AcDbEntity
8
0
62
7.0
100
AcDbCircle
10
782.1057739257813
20
470.04876708984375
40
35.00000000000001
0
LINE
5
104
100
AcDbEntity
8
0
62
7.0
100
AcDbLine
10
832.1057739257813
20
520.0487670898438
11
732.1057739257813
21
520.0487670898438
0
LINE
5
105
100
AcDbEntity
8
0
62
7.0
100
AcDbLine
10
832.1057739257813
20
520.0487670898438
11
832.1057739257813
21
420.04876708984375
0
LINE
5
106
100
AcDbEntity
8
0
62
7.0
100
AcDbLine
10
832.1057739257813
20
420.04876708984375
11
732.1057739257813
21
420.04876708984375
0
LINE
5
107
100
AcDbEntity
8
0
62
7.0
100
AcDbLine
10
732.1057739257813
20
520.0487670898438
11
732.1057739257813
21
420.04876708984375
0
POINT
5
108
100
AcDbEntity
8
0
62
7.0
100
AcDbPoint
10
782.1057739257813
20
470.04876708984375
0
CIRCLE
5
109
100
AcDbEntity
8
0
62
7.0
100
AcDbCircle
10
886.1142578125
20
470.0433654785156
40
35.00000000000001
0
LINE
5
10A
100
AcDbEntity
8
0
62
7.0
100
AcDbLine
10
836.1142578125
20
520.0433654785156
11
836.1142578125
21
420.0433654785156
0
LINE
5
10B
100
AcDbEntity
8
0
62
7.0
100
AcDbLine
10
836.1142578125
20
520.0433654785156
11
936.1142578125
21
520.0433654785156
0
LINE
5
10C
100
AcDbEntity
8
0
62
7.0
100
AcDbLine
10
936.1142578125
20
520.0433654785156
11
936.1142578125
21
420.0433654785156
0
LINE
5
10D
100
AcDbEntity
8
0
62
7.0
100
AcDbLine
10
836.1142578125
20
420.0433654785156
11
936.1142578125
21
420.0433654785156
0
POINT
5
10E
100
AcDbEntity
8
0
62
7.0
100
AcDbPoint
10
886.1142578125
20
470.0433654785156
0
CIRCLE
5
10F
100
AcDbEntity
8
0
62
7.0
100
AcDbCircle
10
54.02540969848633
20
574.0291137695313
40
35.00000000000001
0
LINE
5
110
100
AcDbEntity
8
0
62
7.0
100
AcDbLine
10
4.025409698486328
20
524.0291137695313
11
104.02540969848633
21
524.0291137695313
0
LINE
5
111
100
AcDbEntity
8
0
62
7.0
100
AcDbLine
10
4.025409698486328
20
524.0291137695313
11
4.025409698486328
21
624.0291137695313
0
LINE
5
112
100
AcDbEntity
8
0
62
7.0
100
AcDbLine
10
4.025409698486328
20
624.0291137695313
11
104.02540969848633
21
624.0291137695313
0
LINE
5
113
100
AcDbEntity
8
0
62
7.0
100
AcDbLine
10
104.02540969848633
20
524.0291137695313
11
104.02540969848633
21
624.0291137695313
0
POINT
5
114
100
AcDbEntity
8
0
62
7.0
100
AcDbPoint
10
54.02540969848633
20
574.0291137695313
0
CIRCLE
5
115
100
AcDbEntity
8
0
62
7.0
100
AcDbCircle
10
158.03431701660156
20
574.0241088867188
40
35.00000000000001
0
LINE
5
116
100
AcDbEntity
8
0
62
7.0
100
AcDbLine
10
108.03431701660156
20
624.0241088867188
11
108.03431701660156
21
524.0241088867188
0
LINE
5
117
100
AcDbEntity
8
0
62
7.0
100
AcDbLine
10
108.03431701660156
20
624.0241088867188
11
208.03431701660156
21
624.0241088867188
0
LINE
5
118
100
AcDbEntity
8
0
62
7.0
100
AcDbLine
10
208.03431701660156
20
624.0241088867188
11
208.03431701660156
21
524.0241088867188
0
LINE
5
119
100
AcDbEntity
8
0
62
7.0
100
AcDbLine
10
108.03431701660156
20
524.0241088867188
11
208.03431701660156
21
524.0241088867188
0
POINT
5
11A
100
AcDbEntity
8
0
62
7.0
100
AcDbPoint
10
158.03431701660156
20
574.0241088867188
0
CIRCLE
5
11B
100
AcDbEntity
8
0
62
7.0
100
AcDbCircle
10
262.040283203125
20
574.0259399414063
40
35.00000000000001
0
LINE
5
11C
100
AcDbEntity
8
0
62
7.0
100
AcDbLine
10
312.040283203125
20
624.0259399414063
11
212.040283203125
21
624.0259399414063
0
LINE
5
11D
100
AcDbEntity
8
0
62
7.0
100
AcDbLine
10
312.040283203125
20
624.0259399414063
11
312.040283203125
21
524.0259399414063
0
LINE
5
11E
100
AcDbEntity
8
0
62
7.0
100
AcDbLine
10
312.040283203125
20
524.0259399414063
11
212.040283203125
21
524.0259399414063
0
LINE
5
11F
100
AcDbEntity
8
0
62
7.0
100
AcDbLine
10
212.040283203125
20
624.0259399414063
11
212.040283203125
21
524.0259399414063
0
POINT
5
120
100
AcDbEntity
8
0
62
7.0
100
AcDbPoint
10
262.040283203125
20
574.0259399414063
0
CIRCLE
5
121
100
AcDbEntity
8
0
62
7.0
100
AcDbCircle
10
366.0603942871094
20
574.0247192382813
40
35.00000000000001
0
LINE
5
122
100
AcDbEntity
8
0
62
7.0
100
AcDbLine
10
316.0603942871094
20
624.0247192382813
11
316.0603942871094
21
524.0247192382813
0
LINE
5
123
100
AcDbEntity
8
0
62
7.0
100
AcDbLine
10
316.0603942871094
20
624.0247192382813
11
416.0603942871094
21
624.0247192382813
0
LINE
5
124
100
AcDbEntity
8
0
62
7.0
100
AcDbLine
10
416.0603942871094
20
624.0247192382813
11
416.0603942871094
21
524.0247192382813
0
LINE
5
125
100
AcDbEntity
8
0
62
7.0
100
AcDbLine
10
316.0603942871094
20
524.0247192382813
11
416.0603942871094
21
524.0247192382813
0
POINT
5
126
100
AcDbEntity
8
0
62
7.0
100
AcDbPoint
10
366.0603942871094
20
574.0247192382813
0
CIRCLE
5
127
100
AcDbEntity
8
0
62
7.0
100
AcDbCircle
10
470.0870056152344
20
574.0314331054688
40
35.00000000000001
0
LINE
5
128
100
AcDbEntity
8
0
62
7.0
100
AcDbLine
10
520.0870056152344
20
524.0314331054688
11
520.0870056152344
21
624.0314331054688
0
LINE
5
129
100
AcDbEntity
8
0
62
7.0
100
AcDbLine
10
520.0870056152344
20
524.0314331054688
11
420.0870056152344
21
524.0314331054688
0
LINE
5
12A
100
AcDbEntity
8
0
62
7.0
100
AcDbLine
10
420.0870056152344
20
524.0314331054688
11
420.0870056152344
21
624.0314331054688
0
LINE
5
12B
100
AcDbEntity
8
0
62
7.0
100
AcDbLine
10
520.0870056152344
20
624.0314331054688
11
420.0870056152344
21
624.0314331054688
0
POINT
5
12C
100
AcDbEntity
8
0
62
7.0
100
AcDbPoint
10
470.0870056152344
20
574.0314331054688
0
CIRCLE
5
12D
100
AcDbEntity
8
0
62
7.0
100
AcDbCircle
10
574.0928955078125
20
574.048828125
40
35.00000000000001
0
LINE
5
12E
100
AcDbEntity
8
0
62
7.0
100
AcDbLine
10
624.0928955078125
20
624.048828125
11
524.0928955078125
21
624.048828125
0
LINE
5
12F
100
AcDbEntity
8
0
62
7.0
100
AcDbLine
10
624.0928955078125
20
624.048828125
11
624.0928955078125
21
524.048828125
0
LINE
5
130
100
AcDbEntity
8
0
62
7.0
100
AcDbLine
10
624.0928955078125
20
524.048828125
11
524.0928955078125
21
524.048828125
0
LINE
5
131
100
AcDbEntity
8
0
62
7.0
100
AcDbLine
10
524.0928955078125
20
624.048828125
11
524.0928955078125
21
524.048828125
0
POINT
5
132
100
AcDbEntity
8
0
62
7.0
100
AcDbPoint
10
574.0928955078125
20
574.048828125
0
CIRCLE
5
133
100
AcDbEntity
8
0
62
7.0
100
AcDbCircle
10
678.1004638671875
20
574.041015625
40
35.00000000000001
0
LINE
5
134
100
AcDbEntity
8
0
62
7.0
100
AcDbLine
10
628.1004638671875
20
624.041015625
11
628.1004638671875
21
524.041015625
0
LINE
5
135
100
AcDbEntity
8
0
62
7.0
100
AcDbLine
10
628.1004638671875
20
624.041015625
11
728.1004638671875
21
624.041015625
0
LINE
5
136
100
AcDbEntity
8
0
62
7.0
100
AcDbLine
10
728.1004638671875
20
624.041015625
11
728.1004638671875
21
524.041015625
0
LINE
5
137
100
AcDbEntity
8
0
62
7.0
100
AcDbLine
10
628.1004638671875
20
524.041015625
11
728.1004638671875
21
524.041015625
0
POINT
5
138
100
AcDbEntity
8
0
62
7.0
100
AcDbPoint
10
678.1004638671875
20
574.041015625
0
CIRCLE
5
139
100
AcDbEntity
8
0
62
7.0
100
AcDbCircle
10
782.1057739257813
20
574.052978515625
40
35.00000000000001
0
LINE
5
13A
100
AcDbEntity
8
0
62
7.0
100
AcDbLine
10
732.1057739257813
20
624.052978515625
11
732.1057739257813
21
524.052978515625
0
LINE
5
13B
100
AcDbEntity
8
0
62
7.0
100
AcDbLine
10
732.1057739257813
20
624.052978515625
11
832.1057739257813
21
624.052978515625
0
LINE
5
13C
100
AcDbEntity
8
0
62
7.0
100
AcDbLine
10
832.1057739257813
20
624.052978515625
11
832.1057739257813
21
524.052978515625
0
LINE
5
13D
100
AcDbEntity
8
0
62
7.0
100
AcDbLine
10
732.1057739257813
20
524.052978515625
11
832.1057739257813
21
524.052978515625
0
POINT
5
13E
100
AcDbEntity
8
0
62
7.0
100
AcDbPoint
10
782.1057739257813
20
574.052978515625
0
CIRCLE
5
13F
100
AcDbEntity
8
0
62
7.0
100
AcDbCircle
10
886.1064453125
20
574.0459594726563
40
35.00000000000001
0
LINE
5
140
100
AcDbEntity
8
0
62
7.0
100
AcDbLine
10
836.1064453125
20
524.0459594726563
11
936.1064453125
21
524.0459594726563
0
LINE
5
141
100
AcDbEntity
8
0
62
7.0
100
AcDbLine
10
836.1064453125
20
524.0459594726563
11
836.1064453125
21
624.0459594726563
0
LINE
5
142
100
AcDbEntity
8
0
62
7.0
100
AcDbLine
10
836.1064453125
20
624.0459594726563
11
936.1064453125
21
624.0459594726563
0
LINE
5
143
100
AcDbEntity
8
0
62
7.0
100
AcDbLine
10
936.1064453125
20
524.0459594726563
11
936.1064453125
21
624.0459594726563
0
POINT
5
144
100
AcDbEntity
8
0
62
7.0
100
AcDbPoint
10
886.1064453125
20
574.0459594726563
0
CIRCLE
5
145
100
AcDbEntity
8
0
62
7.0
100
AcDbCircle
10
54.04657745361328
20
678.036376953125
40
35.00000000000001
0
LINE
5
146
100
AcDbEntity
8
0
62
7.0
100
AcDbLine
10
104.04657745361328
20
628.036376953125
11
104.04657745361328
21
728.036376953125
0
LINE
5
147
100
AcDbEntity
8
0
62
7.0
100
AcDbLine
10
104.04657745361328
20
628.036376953125
11
4.046577453613281
21
628.036376953125
0
LINE
5
148
100
AcDbEntity
8
0
62
7.0
100
AcDbLine
10
4.046577453613281
20
628.036376953125
11
4.046577453613281
21
728.036376953125
0
LINE
5
149
100
AcDbEntity
8
0
62
7.0
100
AcDbLine
10
104.04657745361328
20
728.036376953125
11
4.046577453613281
21
728.036376953125
0
POINT
5
14A
100
AcDbEntity
8
0
62
7.0
100
AcDbPoint
10
54.04657745361328
20
678.036376953125
0
CIRCLE
5
14B
100
AcDbEntity
8
0
62
7.0
100
AcDbCircle
10
158.05221557617188
20
678.029052734375
40
35.00000000000001
0
LINE
5
14C
100
AcDbEntity
8
0
62
7.0
100
AcDbLine
10
108.05221557617188
20
628.029052734375
11
208.05221557617188
21
628.029052734375
0
LINE
5
14D
100
AcDbEntity
8
0
62
7.0
100
AcDbLine
10
108.05221557617188
20
628.029052734375
11
108.05221557617188
21
728.029052734375
0
LINE
5
14E
100
AcDbEntity
8
0
62
7.0
100
AcDbLine
10
108.05221557617188
20
728.029052734375
11
208.05221557617188
21
728.029052734375
0
LINE
5
14F
100
AcDbEntity
8
0
62
7.0
100
AcDbLine
10
208.05221557617188
20
628.029052734375
11
208.05221557617188
21
728.029052734375
0
POINT
5
150
100
AcDbEntity
8
0
62
7.0
100
AcDbPoint
10
158.05221557617188
20
678.029052734375
0
CIRCLE
5
151
100
AcDbEntity
8
0
62
7.0
100
AcDbCircle
10
262.0580749511719
20
678.0270385742188
40
35.00000000000001
0
LINE
5
152
100
AcDbEntity
8
0
62
7.0
100
AcDbLine
10
312.0580749511719
20
628.0270385742188
11
312.0580749511719
21
728.0270385742188
0
LINE
5
153
100
AcDbEntity
8
0
62
7.0
100
AcDbLine
10
312.0580749511719
20
628.0270385742188
11
212.05807495117188
21
628.0270385742188
0
LINE
5
154
100
AcDbEntity
8
0
62
7.0
100
AcDbLine
10
212.05807495117188
20
628.0270385742188
11
212.05807495117188
21
728.0270385742188
0
LINE
5
155
100
AcDbEntity
8
0
62
7.0
100
AcDbLine
10
312.0580749511719
20
728.0270385742188
11
212.05807495117188
21
728.0270385742188
0
POINT
5
156
100
AcDbEntity
8
0
62
7.0
100
AcDbPoint
10
262.0580749511719
20
678.0270385742188
0
CIRCLE
5
157
100
AcDbEntity
8
0
62
7.0
100
AcDbCircle
10
366.0692138671875
20
678.03564453125
40
35.00000000000001
0
LINE
5
158
100
AcDbEntity
8
0
62
7.0
100
AcDbLine
10
316.0692138671875
20
628.03564453125
11
416.0692138671875
21
628.03564453125
0
LINE
5
159
100
AcDbEntity
8
0
62
7.0
100
AcDbLine
10
316.0692138671875
20
628.03564453125
11
316.0692138671875
21
728.03564453125
0
LINE
5
15A
100
AcDbEntity
8
0
62
7.0
100
AcDbLine
10
316.0692138671875
20
728.03564453125
11
416.0692138671875
21
728.03564453125
0
LINE
5
15B
100
AcDbEntity
8
0
62
7.0
100
AcDbLine
10
416.0692138671875
20
628.03564453125
11
416.0692138671875
21
728.03564453125
0
POINT
5
15C
100
AcDbEntity
8
0
62
7.0
100
AcDbPoint
10
366.0692138671875
20
678.03564453125
0
CIRCLE
5
15D
100
AcDbEntity
8
0
62
7.0
100
AcDbCircle
10
470.0855407714844
20
678.0376586914063
40
35.00000000000001
0
LINE
5
15E
100
AcDbEntity
8
0
62
7.0
100
AcDbLine
10
420.0855407714844
20
628.0376586914063
11
520.0855407714844
21
628.0376586914063
0
LINE
5
15F
100
AcDbEntity
8
0
62
7.0
100
AcDbLine
10
420.0855407714844
20
628.0376586914063
11
420.0855407714844
21
728.0376586914063
0
LINE
5
160
100
AcDbEntity
8
0
62
7.0
100
AcDbLine
10
420.0855407714844
20
728.0376586914063
11
520.0855407714844
21
728.0376586914063
0
LINE
5
161
100
AcDbEntity
8
0
62
7.0
100
AcDbLine
10
520.0855407714844
20
628.0376586914063
11
520.0855407714844
21
728.0376586914063
0
POINT
5
162
100
AcDbEntity
8
0
62
7.0
100
AcDbPoint
10
470.0855407714844
20
678.0376586914063
0
CIRCLE
5
163
100
AcDbEntity
8
0
62
7.0
100
AcDbCircle
10
574.0921020507813
20
678.0552978515625
40
35.00000000000001
0
LINE
5
164
100
AcDbEntity
8
0
62
7.0
100
AcDbLine
10
624.0921020507813
20
728.0552978515625
11
524.0921020507813
21
728.0552978515625
0
LINE
5
165
100
AcDbEntity
8
0
62
7.0
100
AcDbLine
10
624.0921020507813
20
728.0552978515625
11
624.0921020507813
21
628.0552978515625
0
LINE
5
166
100
AcDbEntity
8
0
62
7.0
100
AcDbLine
10
624.0921020507813
20
628.0552978515625
11
524.0921020507813
21
628.0552978515625
0
LINE
5
167
100
AcDbEntity
8
0
62
7.0
100
AcDbLine
10
524.0921020507813
20
728.0552978515625
11
524.0921020507813
21
628.0552978515625
0
POINT
5
168
100
AcDbEntity
8
0
62
7.0
100
AcDbPoint
10
574.0921020507813
20
678.0552978515625
0
CIRCLE
5
169
100
AcDbEntity
8
0
62
7.0
100
AcDbCircle
10
678.10546875
20
678.0452270507813
40
35.00000000000001
0
LINE
5
16A
100
AcDbEntity
8
0
62
7.0
100
AcDbLine
10
628.10546875
20
628.0452270507813
11
728.10546875
21
628.0452270507813
0
LINE
5
16B
100
AcDbEntity
8
0
62
7.0
100
AcDbLine
10
628.10546875
20
628.0452270507813
11
628.10546875
21
728.0452270507813
0
LINE
5
16C
100
AcDbEntity
8
0
62
7.0
100
AcDbLine
10
628.10546875
20
728.0452270507813
11
728.10546875
21
728.0452270507813
0
LINE
5
16D
100
AcDbEntity
8
0
62
7.0
100
AcDbLine
10
728.10546875
20
628.0452270507813
11
728.10546875
21
728.0452270507813
0
POINT
5
16E
100
AcDbEntity
8
0
62
7.0
100
AcDbPoint
10
678.10546875
20
678.0452270507813
0
CIRCLE
5
16F
100
AcDbEntity
8
0
62
7.0
100
AcDbCircle
10
782.1123657226563
20
678.0535278320313
40
35.00000000000001
0
LINE
5
170
100
AcDbEntity
8
0
62
7.0
100
AcDbLine
10
832.1123657226563
20
628.0535278320313
11
832.1123657226563
21
728.0535278320313
0
LINE
5
171
100
AcDbEntity
8
0
62
7.0
100
AcDbLine
10
832.1123657226563
20
628.0535278320313
11
732.1123657226563
21
628.0535278320313
0
LINE
5
172
100
AcDbEntity
8
0
62
7.0
100
AcDbLine
10
732.1123657226563
20
628.0535278320313
11
732.1123657226563
21
728.0535278320313
0
LINE
5
173
100
AcDbEntity
8
0
62
7.0
100
AcDbLine
10
832.1123657226563
20
728.0535278320313
11
732.1123657226563
21
728.0535278320313
0
POINT
5
174
100
AcDbEntity
8
0
62
7.0
100
AcDbPoint
10
782.1123657226563
20
678.0535278320313
0
CIRCLE
5
175
100
AcDbEntity
8
0
62
7.0
100
AcDbCircle
10
886.1146240234375
20
678.0533447265625
40
35.00000000000001
0
LINE
5
176
100
AcDbEntity
8
0
62
7.0
100
AcDbLine
10
936.1146240234375
20
728.0533447265625
11
836.1146240234375
21
728.0533447265625
0
LINE
5
177
100
AcDbEntity
8
0
62
7.0
100
AcDbLine
10
936.1146240234375
20
728.0533447265625
11
936.1146240234375
21
628.0533447265625
0
LINE
5
178
100
AcDbEntity
8
0
62
7.0
100
AcDbLine
10
936.1146240234375
20
628.0533447265625
11
836.1146240234375
21
628.0533447265625
0
LINE
5
179
100
AcDbEntity
8
0
62
7.0
100
AcDbLine
10
836.1146240234375
20
728.0533447265625
11
836.1146240234375
21
628.0533447265625
0
POINT
5
17A
100
AcDbEntity
8
0
62
7.0
100
AcDbPoint
10
886.1146240234375
20
678.0533447265625
0
CIRCLE
5
17B
100
AcDbEntity
8
0
62
7.0
100
AcDbCircle
10
54.06190872192383
20
782.041015625
40
35.00000000000001
0
LINE
5
17C
100
AcDbEntity
8
0
62
7.0
100
AcDbLine
10
104.06190872192383
20
832.041015625
11
4.061908721923821
21
832.041015625
0
LINE
5
17D
100
AcDbEntity
8
0
62
7.0
100
AcDbLine
10
104.06190872192383
20
832.041015625
11
104.06190872192383
21
732.041015625
0
LINE
5
17E
100
AcDbEntity
8
0
62
7.0
100
AcDbLine
10
104.06190872192383
20
732.041015625
11
4.061908721923835
21
732.041015625
0
LINE
5
17F
100
AcDbEntity
8
0
62
7.0
100
AcDbLine
10
4.061908721923821
20
832.041015625
11
4.061908721923835
21
732.041015625
0
POINT
5
180
100
AcDbEntity
8
0
62
7.0
100
AcDbPoint
10
54.06190872192383
20
782.041015625
0
CIRCLE
5
181
100
AcDbEntity
8
0
62
7.0
100
AcDbCircle
10
158.0653839111328
20
782.0391845703125
40
35.00000000000001
0
LINE
5
182
100
AcDbEntity
8
0
62
7.0
100
AcDbLine
10
208.0653839111328
20
732.0391845703125
11
208.0653839111328
21
832.0391845703125
0
LINE
5
183
100
AcDbEntity
8
0
62
7.0
100
AcDbLine
10
208.0653839111328
20
732.0391845703125
11
108.06538391113281
21
732.0391845703125
0
LINE
5
184
100
AcDbEntity
8
0
62
7.0
100
AcDbLine
10
108.06538391113281
20
732.0391845703125
11
108.06538391113281
21
832.0391845703125
0
LINE
5
185
100
AcDbEntity
8
0
62
7.0
100
AcDbLine
10
208.0653839111328
20
832.0391845703125
11
108.06538391113281
21
832.0391845703125
0
POINT
5
186
100
AcDbEntity
8
0
62
7.0
100
AcDbPoint
10
158.0653839111328
20
782.0391845703125
0
CIRCLE
5
187
100
AcDbEntity
8
0
62
7.0
100
AcDbCircle
10
262.0762023925781
20
782.0393676757813
40
35.00000000000001
0
LINE
5
188
100
AcDbEntity
8
0
62
7.0
100
AcDbLine
10
212.07620239257813
20
732.0393676757813
11
312.0762023925781
21
732.0393676757813
0
LINE
5
189
100
AcDbEntity
8
0
62
7.0
100
AcDbLine
10
212.07620239257813
20
732.0393676757813
11
212.07620239257813
21
832.0393676757813
0
LINE
5
18A
100
AcDbEntity
8
0
62
7.0
100
AcDbLine
10
212.07620239257813
20
832.0393676757813
11
312.0762023925781
21
832.0393676757813
0
LINE
5
18B
100
AcDbEntity
8
0
62
7.0
100
AcDbLine
10
312.0762023925781
20
732.0393676757813
11
312.0762023925781
21
832.0393676757813
0
POINT
5
18C
100
AcDbEntity
8
0
62
7.0
100
AcDbPoint
10
262.0762023925781
20
782.0393676757813
0
CIRCLE
5
18D
100
AcDbEntity
8
0
62
7.0
100
AcDbCircle
10
366.0835266113281
20
782.0393676757813
40
35.00000000000001
0
LINE
5
18E
100
AcDbEntity
8
0
62
7.0
100
AcDbLine
10
316.0835266113281
20
832.0393676757813
11
316.0835266113281
21
732.0393676757813
0
LINE
5
18F
100
AcDbEntity
8
0
62
7.0
100
AcDbLine
10
316.0835266113281
20
832.0393676757813
11
416.0835266113281
21
832.0393676757813
0
LINE
5
190
100
AcDbEntity
8
0
62
7.0
100
AcDbLine
10
416.0835266113281
20
832.0393676757813
11
416.0835266113281
21
732.0393676757813
0
LINE
5
191
100
AcDbEntity
8
0
62
7.0
100
AcDbLine
10
316.0835266113281
20
732.0393676757813
11
416.0835266113281
21
732.0393676757813
0
POINT
5
192
100
AcDbEntity
8
0
62
7.0
100
AcDbPoint
10
366.0835266113281
20
782.0393676757813
0
CIRCLE
5
193
100
AcDbEntity
8
0
62
7.0
100
AcDbCircle
10
470.0849304199219
20
782.0396728515625
40
35.00000000000001
0
LINE
5
194
100
AcDbEntity
8
0
62
7.0
100
AcDbLine
10
520.0849304199219
20
732.0396728515625
11
520.0849304199219
21
832.0396728515625
0
LINE
5
195
100
AcDbEntity
8
0
62
7.0
100
AcDbLine
10
520.0849304199219
20
732.0396728515625
11
420.0849304199219
21
732.0396728515625
0
LINE
5
196
100
AcDbEntity
8
0
62
7.0
100
AcDbLine
10
420.0849304199219
20
732.0396728515625
11
420.0849304199219
21
832.0396728515625
0
LINE
5
197
100
AcDbEntity
8
0
62
7.0
100
AcDbLine
10
520.0849304199219
20
832.0396728515625
11
420.0849304199219
21
832.0396728515625
0
POINT
5
198
100
AcDbEntity
8
0
62
7.0
100
AcDbPoint
10
470.0849304199219
20
782.0396728515625
0
CIRCLE
5
199
100
AcDbEntity
8
0
62
7.0
100
AcDbCircle
10
574.092041015625
20
782.055419921875
40
35.00000000000001
0
LINE
5
19A
100
AcDbEntity
8
0
62
7.0
100
AcDbLine
10
524.092041015625
20
832.055419921875
11
524.092041015625
21
732.055419921875
0
LINE
5
19B
100
AcDbEntity
8
0
62
7.0
100
AcDbLine
10
524.092041015625
20
832.055419921875
11
624.092041015625
21
832.055419921875
0
LINE
5
19C
100
AcDbEntity
8
0
62
7.0
100
AcDbLine
10
624.092041015625
20
832.055419921875
11
624.092041015625
21
732.055419921875
0
LINE
5
19D
100
AcDbEntity
8
0
62
7.0
100
AcDbLine
10
524.092041015625
20
732.055419921875
11
624.092041015625
21
732.055419921875
0
POINT
5
19E
100
AcDbEntity
8
0
62
7.0
100
AcDbPoint
10
574.092041015625
20
782.055419921875
0
CIRCLE
5
19F
100
AcDbEntity
8
0
62
7.0
100
AcDbCircle
10
678.0953979492188
20
782.046875
40
35.00000000000001
0
LINE
5
1A0
100
AcDbEntity
8
0
62
7.0
100
AcDbLine
10
728.0953979492188
20
732.046875
11
728.0953979492188
21
832.046875
0
LINE
5
1A1
100
AcDbEntity
8
0
62
7.0
100
AcDbLine
10
728.0953979492188
20
732.046875
11
628.0953979492188
21
732.046875
0
LINE
5
1A2
100
AcDbEntity
8
0
62
7.0
100
AcDbLine
10
628.0953979492188
20
732.046875
11
628.0953979492188
21
832.046875
0
LINE
5
1A3
100
AcDbEntity
8
0
62
7.0
100
AcDbLine
10
728.0953979492188
20
832.046875
11
628.0953979492188
21
832.046875
0
POINT
5
1A4
100
AcDbEntity
8
0
62
7.0
100
AcDbPoint
10
678.0953979492188
20
782.046875
0
CIRCLE
5
1A5
100
AcDbEntity
8
0
62
7.0
100
AcDbCircle
10
782.0972900390625
20
782.0542602539063
40
35.00000000000001
0
LINE
5
1A6
100
AcDbEntity
8
0
62
7.0
100
AcDbLine
10
732.0972900390625
20
832.0542602539063
11
732.0972900390625
21
732.0542602539063
0
LINE
5
1A7
100
AcDbEntity
8
0
62
7.0
100
AcDbLine
10
732.0972900390625
20
832.0542602539063
11
832.0972900390625
21
832.0542602539063
0
LINE
5
1A8
100
AcDbEntity
8
0
62
7.0
100
AcDbLine
10
832.0972900390625
20
832.0542602539063
11
832.0972900390625
21
732.0542602539063
0
LINE
5
1A9
100
AcDbEntity
8
0
62
7.0
100
AcDbLine
10
732.0972900390625
20
732.0542602539063
11
832.0972900390625
21
732.0542602539063
0
POINT
5
1AA
100
AcDbEntity
8
0
62
7.0
100
AcDbPoint
10
782.0972900390625
20
782.0542602539063
0
CIRCLE
5
1AB
100
AcDbEntity
8
0
62
7.0
100
AcDbCircle
10
886.1011962890625
20
782.0569458007813
40
35.00000000000001
0
LINE
5
1AC
100
AcDbEntity
8
0
62
7.0
100
AcDbLine
10
836.1011962890625
20
732.0569458007813
11
936.1011962890625
21
732.0569458007813
0
LINE
5
1AD
100
AcDbEntity
8
0
62
7.0
100
AcDbLine
10
836.1011962890625
20
732.0569458007813
11
836.1011962890625
21
832.0569458007813
0
LINE
5
1AE
100
AcDbEntity
8
0
62
7.0
100
AcDbLine
10
836.1011962890625
20
832.0569458007813
11
936.1011962890625
21
832.0569458007813
0
LINE
5
1AF
100
AcDbEntity
8
0
62
7.0
100
AcDbLine
10
936.1011962890625
20
732.0569458007813
11
936.1011962890625
21
832.0569458007813
0
POINT
5
1B0
100
AcDbEntity
8
0
62
7.0
100
AcDbPoint
10
886.1011962890625
20
782.0569458007813
0
CIRCLE
5
1B1
100
AcDbEntity
8
0
62
7.0
100
AcDbCircle
10
54.02829360961914
20
886.04345703125
40
35.00000000000001
0
LINE
5
1B2
100
AcDbEntity
8
0
62
7.0
100
AcDbLine
10
4.028293609619141
20
936.04345703125
11
4.028293609619141
21
836.04345703125
0
LINE
5
1B3
100
AcDbEntity
8
0
62
7.0
100
AcDbLine
10
4.028293609619141
20
936.04345703125
11
104.02829360961914
21
936.04345703125
0
LINE
5
1B4
100
AcDbEntity
8
0
62
7.0
100
AcDbLine
10
104.02829360961914
20
936.04345703125
11
104.02829360961914
21
836.04345703125
0
LINE
5
1B5
100
AcDbEntity
8
0
62
7.0
100
AcDbLine
10
4.028293609619141
20
836.04345703125
11
104.02829360961914
21
836.04345703125
0
POINT
5
1B6
100
AcDbEntity
8
0
62
7.0
100
AcDbPoint
10
54.02829360961914
20
886.04345703125
0
CIRCLE
5
1B7
100
AcDbEntity
8
0
62
7.0
100
AcDbCircle
10
190.1313934326172
20
886.042724609375
40
35.00000000000001
0
LINE
5
1B8
100
AcDbEntity
8
0
62
7.0
100
AcDbLine
10
140.1313934326172
20
836.042724609375
11
240.1313934326172
21
836.042724609375
0
LINE
5
1B9
100
AcDbEntity
8
0
62
7.0
100
AcDbLine
10
140.1313934326172
20
836.042724609375
11
140.1313934326172
21
936.042724609375
0
LINE
5
1BA
100
AcDbEntity
8
0
62
7.0
100
AcDbLine
10
140.1313934326172
20
936.042724609375
11
240.1313934326172
21
936.042724609375
0
LINE
5
1BB
100
AcDbEntity
8
0
62
7.0
100
AcDbLine
10
240.1313934326172
20
836.042724609375
11
240.1313934326172
21
936.042724609375
0
POINT
5
1BC
100
AcDbEntity
8
0
62
7.0
100
AcDbPoint
10
190.1313934326172
20
886.042724609375
0
CIRCLE
5
1BD
100
AcDbEntity
8
0
62
7.0
100
AcDbCircle
10
294.1352844238281
20
886.043212890625
40
35.00000000000001
0
LINE
5
1BE
100
AcDbEntity
8
0
62
7.0
100
AcDbLine
10
244.13528442382813
20
836.043212890625
11
344.1352844238281
21
836.043212890625
0
LINE
5
1BF
100
AcDbEntity
8
0
62
7.0
100
AcDbLine
10
244.13528442382813
20
836.043212890625
11
244.13528442382813
21
936.043212890625
0
LINE
5
1C0
100
AcDbEntity
8
0
62
7.0
100
AcDbLine
10
244.13528442382813
20
936.043212890625
11
344.1352844238281
21
936.043212890625
0
LINE
5
1C1
100
AcDbEntity
8
0
62
7.0
100
AcDbLine
10
344.1352844238281
20
836.043212890625
11
344.1352844238281
21
936.043212890625
0
POINT
5
1C2
100
AcDbEntity
8
0
62
7.0
100
AcDbPoint
10
294.1352844238281
20
886.043212890625
0
CIRCLE
5
1C3
100
AcDbEntity
8
0
62
7.0
100
AcDbCircle
10
398.1363220214844
20
886.0426635742188
40
35.00000000000001
0
LINE
5
1C4
100
AcDbEntity
8
0
62
7.0
100
AcDbLine
10
348.1363220214844
20
936.0426635742188
11
348.1363220214844
21
836.0426635742188
0
LINE
5
1C5
100
AcDbEntity
8
0
62
7.0
100
AcDbLine
10
348.1363220214844
20
936.0426635742188
11
448.1363220214844
21
936.0426635742188
0
LINE
5
1C6
100
AcDbEntity
8
0
62
7.0
100
AcDbLine
10
448.1363220214844
20
936.0426635742188
11
448.1363220214844
21
836.0426635742188
0
LINE
5
1C7
100
AcDbEntity
8
0
62
7.0
100
AcDbLine
10
348.1363220214844
20
836.0426635742188
11
448.1363220214844
21
836.0426635742188
0
POINT
5
1C8
100
AcDbEntity
8
0
62
7.0
100
AcDbPoint
10
398.1363220214844
20
886.0426635742188
0
CIRCLE
5
1C9
100
AcDbEntity
8
0
62
7.0
100
AcDbCircle
10
502.1452941894531
20
886.0580444335938
40
35.00000000000001
0
LINE
5
1CA
100
AcDbEntity
8
0
62
7.0
100
AcDbLine
10
452.1452941894531
20
836.0580444335938
11
552.1452941894531
21
836.0580444335938
0
LINE
5
1CB
100
AcDbEntity
8
0
62
7.0
100
AcDbLine
10
452.1452941894531
20
836.0580444335938
11
452.1452941894531
21
936.0580444335938
0
LINE
5
1CC
100
AcDbEntity
8
0
62
7.0
100
AcDbLine
10
452.1452941894531
20
936.0580444335938
11
552.1452941894531
21
936.0580444335938
0
LINE
5
1CD
100
AcDbEntity
8
0
62
7.0
100
AcDbLine
10
552.1452941894531
20
836.0580444335938
11
552.1452941894531
21
936.0580444335938
0
POINT
5
1CE
100
AcDbEntity
8
0
62
7.0
100
AcDbPoint
10
502.1452941894531
20
886.0580444335938
0
CIRCLE
5
1CF
100
AcDbEntity
8
0
62
7.0
100
AcDbCircle
10
606.1553955078125
20
886.05615234375
40
35.00000000000001
0
LINE
5
1D0
100
AcDbEntity
8
0
62
7.0
100
AcDbLine
10
656.1553955078125
20
836.05615234375
11
656.1553955078125
21
936.05615234375
0
LINE
5
1D1
100
AcDbEntity
8
0
62
7.0
100
AcDbLine
10
656.1553955078125
20
836.05615234375
11
556.1553955078125
21
836.05615234375
0
LINE
5
1D2
100
AcDbEntity
8
0
62
7.0
100
AcDbLine
10
556.1553955078125
20
836.05615234375
11
556.1553955078125
21
936.05615234375
0
LINE
5
1D3
100
AcDbEntity
8
0
62
7.0
100
AcDbLine
10
656.1553955078125
20
936.05615234375
11
556.1553955078125
21
936.05615234375
0
POINT
5
1D4
100
AcDbEntity
8
0
62
7.0
100
AcDbPoint
10
606.1553955078125
20
886.05615234375
0
CIRCLE
5
1D5
100
AcDbEntity
8
0
62
7.0
100
AcDbCircle
10
710.1771240234375
20
886.0568237304688
40
35.00000000000001
0
LINE
5
1D6
100
AcDbEntity
8
0
62
7.0
100
AcDbLine
10
660.1771240234375
20
936.0568237304688
11
660.1771240234375
21
836.0568237304688
0
LINE
5
1D7
100
AcDbEntity
8
0
62
7.0
100
AcDbLine
10
660.1771240234375
20
936.0568237304688
11
760.1771240234375
21
936.0568237304688
0
LINE
5
1D8
100
AcDbEntity
8
0
62
7.0
100
AcDbLine
10
760.1771240234375
20
936.0568237304688
11
760.1771240234375
21
836.0568237304688
0
LINE
5
1D9
100
AcDbEntity
8
0
62
7.0
100
AcDbLine
10
660.1771240234375
20
836.0568237304688
11
760.1771240234375
21
836.0568237304688
0
POINT
5
1DA
100
AcDbEntity
8
0
62
7.0
100
AcDbPoint
10
710.1771240234375
20
886.0568237304688
0
CIRCLE
5
1DB
100
AcDbEntity
8
0
62
7.0
100
AcDbCircle
10
814.179931640625
20
886.0570678710938
40
35.00000000000001
0
LINE
5
1DC
100
AcDbEntity
8
0
62
7.0
100
AcDbLine
10
864.179931640625
20
836.0570678710938
11
864.179931640625
21
936.0570678710938
0
LINE
5
1DD
100
AcDbEntity
8
0
62
7.0
100
AcDbLine
10
864.179931640625
20
836.0570678710938
11
764.179931640625
21
836.0570678710938
0
LINE
5
1DE
100
AcDbEntity
8
0
62
7.0
100
AcDbLine
10
764.179931640625
20
836.0570678710938
11
764.179931640625
21
936.0570678710938
0
LINE
5
1DF
100
AcDbEntity
8
0
62
7.0
100
AcDbLine
10
864.179931640625
20
936.0570678710938
11
764.179931640625
21
936.0570678710938
0
POINT
5
1E0
100
AcDbEntity
8
0
62
7.0
100
AcDbPoint
10
814.179931640625
20
886.0570678710938
0
CIRCLE
5
1E1
100
AcDbEntity
8
0
62
7.0
100
AcDbCircle
10
918.1886596679688
20
886.0578002929688
40
35.00000000000001
0
LINE
5
1E2
100
AcDbEntity
8
0
62
7.0
100
AcDbLine
10
868.1886596679688
20
836.0578002929688
11
968.1886596679688
21
836.0578002929688
0
LINE
5
1E3
100
AcDbEntity
8
0
62
7.0
100
AcDbLine
10
868.1886596679688
20
836.0578002929688
11
868.1886596679688
21
936.0578002929688
0
LINE
5
1E4
100
AcDbEntity
8
0
62
7.0
100
AcDbLine
10
868.1886596679688
20
936.0578002929688
11
968.1886596679688
21
936.0578002929688
0
LINE
5
1E5
100
AcDbEntity
8
0
62
7.0
100
AcDbLine
10
968.1886596679688
20
836.0578002929688
11
968.1886596679688
21
936.0578002929688
0
POINT
5
1E6
100
AcDbEntity
8
0
62
7.0
100
AcDbPoint
10
918.1886596679688
20
886.0578002929688
0
ARC
5
1E7
100
AcDbEntity
8
0
62
7.0
100
AcDbCircle
10
552.1533233635812
20
127.9029541015625
40
28.0
50
135.0
51
225.0
0
LINE
5
1E8
100
AcDbEntity
8
0
62
7.0
100
AcDbLine
10
552.1533233635812
20
127.9029541015625
11
532.3543334902813
21
108.1039642283625
0
LINE
5
1E9
100
AcDbEntity
8
0
62
7.0
100
AcDbLine
10
532.3543334902813
20
147.70194397476251
11
552.1533233635812
21
127.9029541015625
0
ARC
5
1EA
100
AcDbEntity
8
0
62
7.0
100
AcDbCircle
10
448.0295745842844
20
335.9095764160156
40
28.0
50
135.0
51
225.0
0
LINE
5
1EB
100
AcDbEntity
8
0
62
7.0
100
AcDbLine
10
448.0295745842844
20
335.9095764160156
11
428.2305847109844
21
316.1105865428156
0
LINE
5
1EC
100
AcDbEntity
8
0
62
7.0
100
AcDbLine
10
428.2305847109844
20
355.70856628921564
11
448.0295745842844
21
335.9095764160156
0
ARC
5
1ED
100
AcDbEntity
8
0
62
7.0
100
AcDbCircle
10
968.0770294182687
20
439.9498291015625
40
28.0
50
135.0
51
225.0
0
LINE
5
1EE
100
AcDbEntity
8
0
62
7.0
100
AcDbLine
10
968.0770294182687
20
439.9498291015625
11
948.2780395449688
21
420.1508392283625
0
LINE
5
1EF
100
AcDbEntity
8
0
62
7.0
100
AcDbLine
10
948.2780395449688
20
459.7488189747625
11
968.0770294182687
21
439.9498291015625
0
ARC
5
1F0
100
AcDbEntity
8
0
62
7.0
100
AcDbCircle
10
135.99051208428438
20
855.9309692382813
40
28.0
50
135.0
51
225.0
0
LINE
5
1F1
100
AcDbEntity
8
0
62
7.0
100
AcDbLine
10
135.99051208428438
20
855.9309692382813
11
116.19152221098437
21
836.1319793650813
0
LINE
5
1F2
100
AcDbEntity
8
0
62
7.0
100
AcDbLine
10
116.19152221098437
20
875.7299591114812
11
135.99051208428438
21
855.9309692382813
0
ARC
5
1F3
100
AcDbEntity
8
0
62
7.0
100
AcDbCircle
10
968.0760528557687
20
483.62841796875
40
28.0
50
135.0
51
225.0
0
LINE
5
1F4
100
AcDbEntity
8
0
62
7.0
100
AcDbLine
10
968.0760528557687
20
483.62841796875
11
948.2770629824688
21
463.82942809555
0
LINE
5
1F5
100
AcDbEntity
8
0
62
7.0
100
AcDbLine
10
948.2770629824688
20
503.42740784195
11
968.0760528557687
21
483.62841796875
0
ARC
5
1F6
100
AcDbEntity
8
0
62
7.0
100
AcDbCircle
10
968.068789672175
20
527.333740234375
40
28.0
50
135.0
51
225.0
0
LINE
5
1F7
100
AcDbEntity
8
0
62
7.0
100
AcDbLine
10
968.068789672175
20
527.333740234375
11
948.269799798875
21
507.534750361175
0
LINE
5
1F8
100
AcDbEntity
8
0
62
7.0
100
AcDbLine
10
948.269799798875
20
547.132730107575
11
968.068789672175
21
527.333740234375
0
ARC
5
1F9
100
AcDbEntity
8
0
62
7.0
100
AcDbCircle
10
968.070742797175
20
571.01708984375
40
28.0
50
135.0
51
225.0
0
LINE
5
1FA
100
AcDbEntity
8
0
62
7.0
100
AcDbLine
10
968.070742797175
20
571.01708984375
11
948.271752923875
21
551.21809997055
0
LINE
5
1FB
100
AcDbEntity
8
0
62
7.0
100
AcDbLine
10
948.271752923875
20
590.81607971695
11
968.070742797175
21
571.01708984375
0
ARC
5
1FC
100
AcDbEntity
8
0
62
7.0
100
AcDbCircle
10
940.2536590582938
20
23.870849609375
40
28.0
50
-45.0
51
45.0
0
LINE
5
1FD
100
AcDbEntity
8
0
62
7.0
100
AcDbLine
10
940.2536590582938
20
23.870849609375
11
960.0526489315937
21
43.669839482575
0
LINE
5
1FE
100
AcDbEntity
8
0
62
7.0
100
AcDbLine
10
960.0526489315937
20
4.071859736175
11
940.2536590582938
21
23.870849609375
0
ARC
5
1FF
100
AcDbEntity
8
0
62
7.0
100
AcDbCircle
10
968.0691558831123
20
614.6990356445313
40
28.0
50
135.0
51
225.0
0
LINE
5
200
100
AcDbEntity
8
0
62
7.0
100
AcDbLine
10
968.0691558831123
20
614.6990356445313
11
948.2701660098123
21
594.9000457713313
0
LINE
5
201
100
AcDbEntity
8
0
62
7.0
100
AcDbLine
10
948.2701660098123
20
634.4980255177312
11
968.0691558831123
21
614.6990356445313
0
ARC
5
202
100
AcDbEntity
8
0
62
7.0
100
AcDbCircle
10
968.0800811760812
20
658.3927001953125
40
28.0
50
135.0
51
225.0
0
LINE
5
203
100
AcDbEntity
8
0
62
7.0
100
AcDbLine
10
968.0800811760812
20
658.3927001953125
11
948.2810913027813
21
638.5937103221125
0
LINE
5
204
100
AcDbEntity
8
0
62
7.0
100
AcDbLine
10
948.2810913027813
20
678.1916900685125
11
968.0800811760812
21
658.3927001953125
0
ARC
5
205
100
AcDbEntity
8
0
62
7.0
100
AcDbCircle
10
940.2551849372
20
691.8751220703125
40
28.0
50
-45.0
51
45.0
0
LINE
5
206
100
AcDbEntity
8
0
62
7.0
100
AcDbLine
10
940.2551849372
20
691.8751220703125
11
960.0541748105
21
711.6741119435125
0
LINE
5
207
100
AcDbEntity
8
0
62
7.0
100
AcDbLine
10
960.0541748105
20
672.0761321971125
11
940.2551849372
21
691.8751220703125
0
ARC
5
208
100
AcDbEntity
8
0
62
7.0
100
AcDbCircle
10
968.0901519768623
20
725.372802734375
40
28.0
50
135.0
51
225.0
0
LINE
5
209
100
AcDbEntity
8
0
62
7.0
100
AcDbLine
10
968.0901519768623
20
725.372802734375
11
948.2911621035623
21
705.573812861175
0
LINE
5
20A
100
AcDbEntity
8
0
62
7.0
100
AcDbLine
10
948.2911621035623
20
745.171792607575
11
968.0901519768623
21
725.372802734375
0
ARC
5
20B
100
AcDbEntity
8
0
62
7.0
100
AcDbCircle
10
940.25176696845
20
758.868896484375
40
28.0
50
-45.0
51
45.0
0
LINE
5
20C
100
AcDbEntity
8
0
62
7.0
100
AcDbLine
10
940.25176696845
20
758.868896484375
11
960.05075684175
21
778.667886357575
0
LINE
5
20D
100
AcDbEntity
8
0
62
7.0
100
AcDbLine
10
960.05075684175
20
739.069906611175
11
940.25176696845
21
758.868896484375
0
ARC
5
20E
100
AcDbEntity
8
0
62
7.0
100
AcDbCircle
10
940.2521942145438
20
67.55378723144531
40
28.0
50
-45.0
51
45.0
0
LINE
5
20F
100
AcDbEntity
8
0
62
7.0
100
AcDbLine
10
940.2521942145438
20
67.55378723144531
11
960.0511840878437
21
87.35277710464531
0
LINE
5
210
100
AcDbEntity
8
0
62
7.0
100
AcDbLine
10
960.0511840878437
20
47.75479735824531
11
940.2521942145438
21
67.55378723144531
0
ARC
5
211
100
AcDbEntity
8
0
62
7.0
100
AcDbCircle
10
968.3064605706123
20
231.92970275878903
40
28.0
50
135.0
51
225.0
0
LINE
5
212
100
AcDbEntity
8
0
62
7.0
100
AcDbLine
10
968.3064605706123
20
231.92970275878903
11
948.5074706973123
21
212.13071288558905
0
LINE
5
213
100
AcDbEntity
8
0
62
7.0
100
AcDbLine
10
948.5074706973123
20
251.72869263198902
11
968.3064605706123
21
231.92970275878903
0
ARC
5
214
100
AcDbEntity
8
0
62
7.0
100
AcDbCircle
10
23.91912078857422
20
940.1831024176688
40
28.0
50
45.0
51
135.0
0
LINE
5
215
100
AcDbEntity
8
0
62
7.0
100
AcDbLine
10
23.91912078857422
20
940.1831024176688
11
4.120130915374219
21
959.9820922909687
0
LINE
5
216
100
AcDbEntity
8
0
62
7.0
100
AcDbLine
10
43.71811066177422
20
959.9820922909687
11
23.91912078857422
21
940.1831024176688
0
ARC
5
217
100
AcDbEntity
8
0
62
7.0
100
AcDbCircle
10
57.405364990234375
20
968.0065338128
40
28.0
50
-135.0
51
-45.0
0
LINE
5
218
100
AcDbEntity
8
0
62
7.0
100
AcDbLine
10
57.405364990234375
20
968.0065338128
11
77.20435486343438
21
948.2075439395
0
LINE
5
219
100
AcDbEntity
8
0
62
7.0
100
AcDbLine
10
37.606375117034375
20
948.2075439394999
11
57.405364990234375
21
968.0065338128
0
ARC
5
21A
100
AcDbEntity
8
0
62
7.0
100
AcDbCircle
10
108.11898040771484
20
967.9511749260812
40
28.0
50
-135.0
51
-45.0
0
LINE
5
21B
100
AcDbEntity
8
0
62
7.0
100
AcDbLine
10
108.11898040771484
20
967.9511749260812
11
127.91797028091484
21
948.1521850527813
0
LINE
5
21C
100
AcDbEntity
8
0
62
7.0
100
AcDbLine
10
88.31999053451484
20
948.1521850527812
11
108.11898040771484
21
967.9511749260812
0
ARC
5
21D
100
AcDbEntity
8
0
62
7.0
100
AcDbCircle
10
141.4871826171875
20
940.2398651129813
40
28.0
50
45.0
51
135.0
0
LINE
5
21E
100
AcDbEntity
8
0
62
7.0
100
AcDbLine
10
141.4871826171875
20
940.2398651129813
11
121.6881927439875
21
960.0388549862812
0
LINE
5
21F
100
AcDbEntity
8
0
62
7.0
100
AcDbLine
10
161.28617249038751
20
960.0388549862812
11
141.4871826171875
21
940.2398651129813
0
ARC
5
220
100
AcDbEntity
8
0
62
7.0
100
AcDbCircle
10
174.970458984375
20
968.0059844963937
40
28.0
50
-135.0
51
-45.0
0
LINE
5
221
100
AcDbEntity
8
0
62
7.0
100
AcDbLine
10
174.970458984375
20
968.0059844963937
11
194.76944885757501
21
948.2069946230938
0
LINE
5
222
100
AcDbEntity
8
0
62
7.0
100
AcDbLine
10
155.171469111175
20
948.2069946230937
11
174.970458984375
21
968.0059844963937
0
ARC
5
223
100
AcDbEntity
8
0
62
7.0
100
AcDbCircle
10
218.6534881591797
20
968.00702209405
40
28.0
50
-135.0
51
-45.0
0
LINE
5
224
100
AcDbEntity
8
0
62
7.0
100
AcDbLine
10
218.6534881591797
20
968.00702209405
11
238.4524780323797
21
948.20803222075
0
LINE
5
225
100
AcDbEntity
8
0
62
7.0
100
AcDbLine
10
198.8544982859797
20
948.2080322207499
11
218.6534881591797
21
968.00702209405
0
ARC
5
226
100
AcDbEntity
8
0
62
7.0
100
AcDbCircle
10
252.1107482910156
20
940.2182586676688
40
28.0
50
45.0
51
135.0
0
LINE
5
227
100
AcDbEntity
8
0
62
7.0
100
AcDbLine
10
252.1107482910156
20
940.2182586676688
11
232.3117584178156
21
960.0172485409687
0
LINE
5
228
100
AcDbEntity
8
0
62
7.0
100
AcDbLine
10
271.9097381642156
20
960.0172485409687
11
252.1107482910156
21
940.2182586676688
0
ARC
5
229
100
AcDbEntity
8
0
62
7.0
100
AcDbCircle
10
285.56341552734375
20
968.0087921135812
40
28.0
50
-135.0
51
-45.0
0
LINE
5
22A
100
AcDbEntity
8
0
62
7.0
100
AcDbLine
10
285.56341552734375
20
968.0087921135812
11
305.36240540054376
21
948.2098022402813
0
LINE
5
22B
100
AcDbEntity
8
0
62
7.0
100
AcDbLine
10
265.76442565414374
20
948.2098022402812
11
285.56341552734375
21
968.0087921135812
0
ARC
5
22C
100
AcDbEntity
8
0
62
7.0
100
AcDbCircle
10
329.26959228515625
20
968.0062286370187
40
28.0
50
-135.0
51
-45.0
0
LINE
5
22D
100
AcDbEntity
8
0
62
7.0
100
AcDbLine
10
329.26959228515625
20
968.0062286370187
11
349.06858215835626
21
948.2072387637188
0
LINE
5
22E
100
AcDbEntity
8
0
62
7.0
100
AcDbLine
10
309.47060241195624
20
948.2072387637187
11
329.26959228515625
21
968.0062286370187
0
ARC
5
22F
100
AcDbEntity
8
0
62
7.0
100
AcDbCircle
10
378.8979217522531
20
959.9483032226563
40
28.0
50
135.0
51
225.0
0
LINE
5
230
100
AcDbEntity
8
0
62
7.0
100
AcDbLine
10
378.8979217522531
20
959.9483032226563
11
359.0989318789531
21
940.1493133494563
0
LINE
5
231
100
AcDbEntity
8
0
62
7.0
100
AcDbLine
10
359.0989318789531
20
979.7472930958562
11
378.8979217522531
21
959.9483032226563
0
ARC
5
232
100
AcDbEntity
8
0
62
7.0
100
AcDbCircle
10
392.6200866699219
20
968.0062286370187
40
28.0
50
-135.0
51
-45.0
0
LINE
5
233
100
AcDbEntity
8
0
62
7.0
100
AcDbLine
10
392.6200866699219
20
968.0062286370187
11
412.4190765431219
21
948.2072387637188
0
LINE
5
234
100
AcDbEntity
8
0
62
7.0
100
AcDbLine
10
372.82109679672186
20
948.2072387637187
11
392.6200866699219
21
968.0062286370187
0
ARC
5
235
100
AcDbEntity
8
0
62
7.0
100
AcDbCircle
10
442.2615386956125
20
959.928955078125
40
28.0
50
135.0
51
225.0
0
LINE
5
236
100
AcDbEntity
8
0
62
7.0
100
AcDbLine
10
442.2615386956125
20
959.928955078125
11
422.4625488223125
21
940.129965204925
0
LINE
5
237
100
AcDbEntity
8
0
62
7.0
100
AcDbLine
10
422.4625488223125
20
979.727944951325
11
442.2615386956125
21
959.928955078125
0
ARC
5
238
100
AcDbEntity
8
0
62
7.0
100
AcDbCircle
10
456.1070861816406
20
968.0299102776437
40
28.0
50
-135.0
51
-45.0
0
LINE
5
239
100
AcDbEntity
8
0
62
7.0
100
AcDbLine
10
456.1070861816406
20
968.0299102776437
11
475.90607605484064
21
948.2309204043438
0
LINE
5
23A
100
AcDbEntity
8
0
62
7.0
100
AcDbLine
10
436.3080963084406
20
948.2309204043437
11
456.1070861816406
21
968.0299102776437
0
ARC
5
23B
100
AcDbEntity
8
0
62
7.0
100
AcDbCircle
10
478.1775512695313
20
951.6163299567313
40
28.0
50
45.0
51
135.0
0
LINE
5
23C
100
AcDbEntity
8
0
62
7.0
100
AcDbLine
10
478.1775512695313
20
951.6163299567313
11
458.3785613963313
21
971.4153198300312
0
LINE
5
23D
100
AcDbEntity
8
0
62
7.0
100
AcDbLine
10
497.9765411427313
20
971.4153198300312
11
478.1775512695313
21
951.6163299567313
0
ARC
5
23E
100
AcDbEntity
8
0
62
7.0
100
AcDbCircle
10
492.1897857672781
20
959.9093627929688
40
28.0
50
-45.0
51
45.0
0
LINE
5
23F
100
AcDbEntity
8
0
62
7.0
100
AcDbLine
10
492.1897857672781
20
959.9093627929688
11
511.9887756405781
21
979.7083526661687
0
LINE
5
240
100
AcDbEntity
8
0
62
7.0
100
AcDbLine
10
511.9887756405781
20
940.1103729197688
11
492.1897857672781
21
959.9093627929688
0
ARC
5
241
100
AcDbEntity
8
0
62
7.0
100
AcDbCircle
10
552.1155426018624
20
959.9476318359376
40
28.0
50
135.0
51
225.0
0
LINE
5
242
100
AcDbEntity
8
0
62
7.0
100
AcDbLine
10
552.1155426018624
20
959.9476318359376
11
532.3165527285626
21
940.1486419627377
0
LINE
5
243
100
AcDbEntity
8
0
62
7.0
100
AcDbLine
10
532.3165527285626
20
979.7466217091376
11
552.1155426018624
21
959.9476318359376
0
ARC
5
244
100
AcDbEntity
8
0
62
7.0
100
AcDbCircle
10
565.8505859375
20
968.0200225823312
40
28.0
50
-135.0
51
-45.0
0
LINE
5
245
100
AcDbEntity
8
0
62
7.0
100
AcDbLine
10
565.8505859375
20
968.0200225823312
11
585.6495758107
21
948.2210327090313
0
LINE
5
246
100
AcDbEntity
8
0
62
7.0
100
AcDbLine
10
546.0515960643
20
948.2210327090312
11
565.8505859375
21
968.0200225823312
0
ARC
5
247
100
AcDbEntity
8
0
62
7.0
100
AcDbCircle
10
587.8795166015625
20
951.6488616950124
40
28.0
50
45.0
51
135.0
0
LINE
5
248
100
AcDbEntity
8
0
62
7.0
100
AcDbLine
10
587.8795166015625
20
951.6488616950124
11
568.0805267283625
21
971.4478515683124
0
LINE
5
249
100
AcDbEntity
8
0
62
7.0
100
AcDbLine
10
607.6785064747625
20
971.4478515683124
11
587.8795166015625
21
951.6488616950124
0
ARC
5
24A
100
AcDbEntity
8
0
62
7.0
100
AcDbCircle
10
609.9945068359375
20
968.1054718010812
40
28.0
50
-135.0
51
-45.0
0
LINE
5
24B
100
AcDbEntity
8
0
62
7.0
100
AcDbLine
10
609.9945068359375
20
968.1054718010812
11
629.7934967091375
21
948.3064819277813
0
LINE
5
24C
100
AcDbEntity
8
0
62
7.0
100
AcDbLine
10
590.1955169627375
20
948.3064819277812
11
609.9945068359375
21
968.1054718010812
0
ARC
5
24D
100
AcDbEntity
8
0
62
7.0
100
AcDbCircle
10
631.950927734375
20
951.8298309332938
40
28.0
50
45.0
51
135.0
0
LINE
5
24E
100
AcDbEntity
8
0
62
7.0
100
AcDbLine
10
631.950927734375
20
951.8298309332938
11
612.151937861175
21
971.6288208065937
0
LINE
5
24F
100
AcDbEntity
8
0
62
7.0
100
AcDbLine
10
651.749917607575
20
971.6288208065937
11
631.950927734375
21
951.8298309332938
0
ARC
5
250
100
AcDbEntity
8
0
62
7.0
100
AcDbCircle
10
645.7072113043876
20
959.912109375
40
28.0
50
-45.0
51
45.0
0
LINE
5
251
100
AcDbEntity
8
0
62
7.0
100
AcDbLine
10
645.7072113043876
20
959.912109375
11
665.5062011776874
21
979.7110992482
0
LINE
5
252
100
AcDbEntity
8
0
62
7.0
100
AcDbLine
10
665.5062011776874
20
940.1131195018
11
645.7072113043876
21
959.912109375
0
ARC
5
253
100
AcDbEntity
8
0
62
7.0
100
AcDbCircle
10
960.39013671875
20
245.5218780524344
40
28.0
50
45.0
51
135.0
0
LINE
5
254
100
AcDbEntity
8
0
62
7.0
100
AcDbLine
10
960.39013671875
20
245.5218780524344
11
940.59114684555
21
265.32086792573443
0
LINE
5
255
100
AcDbEntity
8
0
62
7.0
100
AcDbLine
10
980.18912659195
20
265.32086792573443
11
960.39013671875
21
245.5218780524344
0
ARC
5
256
100
AcDbEntity
8
0
62
7.0
100
AcDbCircle
10
695.4974975585938
20
968.02264709405
40
28.0
50
-135.0
51
-45.0
0
LINE
5
257
100
AcDbEntity
8
0
62
7.0
100
AcDbLine
10
695.4974975585938
20
968.02264709405
11
715.2964874317937
21
948.22365722075
0
LINE
5
258
100
AcDbEntity
8
0
62
7.0
100
AcDbLine
10
675.6985076853938
20
948.2236572207499
11
695.4974975585938
21
968.02264709405
0
ARC
5
259
100
AcDbEntity
8
0
62
7.0
100
AcDbCircle
10
739.1683349609375
20
968.1397125237376
40
28.0
50
-135.0
51
-45.0
0
LINE
5
25A
100
AcDbEntity
8
0
62
7.0
100
AcDbLine
10
739.1683349609375
20
968.1397125237376
11
758.9673248341375
21
948.3407226504377
0
LINE
5
25B
100
AcDbEntity
8
0
62
7.0
100
AcDbLine
10
719.3693450877375
20
948.3407226504376
11
739.1683349609375
21
968.1397125237376
0
ARC
5
25C
100
AcDbEntity
8
0
62
7.0
100
AcDbCircle
10
773.111328125
20
979.5169708245187
40
28.0
50
-135.0
51
-45.0
0
LINE
5
25D
100
AcDbEntity
8
0
62
7.0
100
AcDbLine
10
773.111328125
20
979.5169708245187
11
792.9103179982
21
959.7179809512188
0
LINE
5
25E
100
AcDbEntity
8
0
62
7.0
100
AcDbLine
10
753.3123382518
20
959.7179809512187
11
773.111328125
21
979.5169708245187
0
ARC
5
25F
100
AcDbEntity
8
0
62
7.0
100
AcDbCircle
10
807.0751953125
20
968.0255157463937
40
28.0
50
-135.0
51
-45.0
0
LINE
5
260
100
AcDbEntity
8
0
62
7.0
100
AcDbLine
10
807.0751953125
20
968.0255157463937
11
826.8741851857
21
948.2265258730938
0
LINE
5
261
100
AcDbEntity
8
0
62
7.0
100
AcDbLine
10
787.2762054393
20
948.2265258730937
11
807.0751953125
21
968.0255157463937
0
ARC
5
262
100
AcDbEntity
8
0
62
7.0
100
AcDbCircle
10
839.72900390625
20
941.0288055426688
40
28.0
50
45.0
51
135.0
0
LINE
5
263
100
AcDbEntity
8
0
62
7.0
100
AcDbLine
10
839.72900390625
20
941.0288055426688
11
819.93001403305
21
960.8277954159687
0
LINE
5
264
100
AcDbEntity
8
0
62
7.0
100
AcDbLine
10
859.52799377945
20
960.8277954159687
11
839.72900390625
21
941.0288055426688
0
ARC
5
265
100
AcDbEntity
8
0
62
7.0
100
AcDbCircle
10
872.3922729492188
20
968.0322296135812
40
28.0
50
-135.0
51
-45.0
0
LINE
5
266
100
AcDbEntity
8
0
62
7.0
100
AcDbLine
10
872.3922729492188
20
968.0322296135812
11
892.1912628224187
21
948.2332397402813
0
LINE
5
267
100
AcDbEntity
8
0
62
7.0
100
AcDbLine
10
852.5932830760188
20
948.2332397402812
11
872.3922729492188
21
968.0322296135812
0
ARC
5
268
100
AcDbEntity
8
0
62
7.0
100
AcDbCircle
10
960.0076904296876
20
782.75274353095
40
28.0
50
45.0
51
135.0
0
LINE
5
269
100
AcDbEntity
8
0
62
7.0
100
AcDbLine
10
960.0076904296876
20
782.75274353095
11
940.2087005564877
21
802.55173340425
0
LINE
5
26A
100
AcDbEntity
8
0
62
7.0
100
AcDbLine
10
979.8066803028876
20
802.55173340425
11
960.0076904296876
21
782.75274353095
0
ARC
5
26B
100
AcDbEntity
8
0
62
7.0
100
AcDbCircle
10
79.24551391601563
20
951.8363616950124
40
28.0
50
45.0
51
135.0
0
LINE
5
26C
100
AcDbEntity
8
0
62
7.0
100
AcDbLine
10
79.24551391601563
20
951.8363616950124
11
59.446524042815625
21
971.6353515683124
0
LINE
5
26D
100
AcDbEntity
8
0
62
7.0
100
AcDbLine
10
99.04450378921563
20
971.6353515683124
11
79.24551391601563
21
951.8363616950124
0
ARC
5
26E
100
AcDbEntity
8
0
62
7.0
100
AcDbCircle
10
907.7610473632813
20
977.97479553155
40
28.0
50
-135.0
51
-45.0
0
LINE
5
26F
100
AcDbEntity
8
0
62
7.0
100
AcDbLine
10
907.7610473632813
20
977.97479553155
11
927.5600372364812
21
958.17580565825
0
LINE
5
270
100
AcDbEntity
8
0
62
7.0
100
AcDbLine
10
887.9620574900813
20
958.1758056582499
11
907.7610473632813
21
977.97479553155
0
ARC
5
271
100
AcDbEntity
8
0
62
7.0
100
AcDbCircle
10
196.8243865966797
20
951.8436859137624
40
28.0
50
45.0
51
135.0
0
LINE
5
272
100
AcDbEntity
8
0
62
7.0
100
AcDbLine
10
196.8243865966797
20
951.8436859137624
11
177.02539672347967
21
971.6426757870624
0
LINE
5
273
100
AcDbEntity
8
0
62
7.0
100
AcDbLine
10
216.6233764698797
20
971.6426757870624
11
196.8243865966797
21
951.8436859137624
0
ARC
5
274
100
AcDbEntity
8
0
62
7.0
100
AcDbCircle
10
274.7471618652344
20
962.9067352301688
40
28.0
50
45.0
51
135.0
0
LINE
5
275
100
AcDbEntity
8
0
62
7.0
100
AcDbLine
10
274.7471618652344
20
962.9067352301688
11
254.94817199203436
21
982.7057251034687
0
LINE
5
276
100
AcDbEntity
8
0
62
7.0
100
AcDbLine
10
294.5461517384344
20
982.7057251034687
11
274.7471618652344
21
962.9067352301688
0
ARC
5
277
100
AcDbEntity
8
0
62
7.0
100
AcDbCircle
10
711.7496337890625
20
995.7763702385812
40
28.0
50
-135.0
51
-45.0
0
LINE
5
278
100
AcDbEntity
8
0
62
7.0
100
AcDbLine
10
711.7496337890625
20
995.7763702385812
11
731.5486236622625
21
975.9773803652813
0
LINE
5
279
100
AcDbEntity
8
0
62
7.0
100
AcDbLine
10
691.9506439158625
20
975.9773803652812
11
711.7496337890625
21
995.7763702385812
0
ARC
5
27A
100
AcDbEntity
8
0
62
7.0
100
AcDbCircle
10
943.263916015625
20
968.02069396905
40
28.0
50
-135.0
51
-45.0
0
LINE
5
27B
100
AcDbEntity
8
0
62
7.0
100
AcDbLine
10
943.263916015625
20
968.02069396905
11
963.062905888825
21
948.22170409575
0
LINE
5
27C
100
AcDbEntity
8
0
62
7.0
100
AcDbLine
10
923.464926142425
20
948.2217040957499
11
943.263916015625
21
968.02069396905
0
ARC
5
27D
100
AcDbEntity
8
0
62
7.0
100
AcDbCircle
10
952.3997161872
20
548.66357421875
40
28.0
50
-45.0
51
45.0
0
LINE
5
27E
100
AcDbEntity
8
0
62
7.0
100
AcDbLine
10
952.3997161872
20
548.66357421875
11
972.1987060605
21
568.46256409195
0
LINE
5
27F
100
AcDbEntity
8
0
62
7.0
100
AcDbLine
10
972.1987060605
20
528.86458434555
11
952.3997161872
21
548.66357421875
0
ARC
5
280
100
AcDbEntity
8
0
62
7.0
100
AcDbCircle
10
941.6984222418877
20
975.245849609375
40
28.0
50
-45.0
51
45.0
0
LINE
5
281
100
AcDbEntity
8
0
62
7.0
100
AcDbLine
10
941.6984222418877
20
975.245849609375
11
961.4974121151877
21
995.044839482575
0
LINE
5
282
100
AcDbEntity
8
0
62
7.0
100
AcDbLine
10
961.4974121151877
20
955.446859736175
11
941.6984222418877
21
975.245849609375
0
ARC
5
283
100
AcDbEntity
8
0
62
7.0
100
AcDbCircle
10
113.87351989746094
20
967.8558319098563
40
28.0
50
45.0
51
135.0
0
LINE
5
284
100
AcDbEntity
8
0
62
7.0
100
AcDbLine
10
113.87351989746094
20
967.8558319098563
11
94.07453002426094
21
987.6548217831562
0
LINE
5
285
100
AcDbEntity
8
0
62
7.0
100
AcDbLine
10
133.67250977066095
20
987.6548217831562
11
113.87351989746094
21
967.8558319098563
0
ARC
5
286
100
AcDbEntity
8
0
62
7.0
100
AcDbCircle
10
960.2383422851563
20
277.6401031500906
40
28.0
50
45.0
51
135.0
0
LINE
5
287
100
AcDbEntity
8
0
62
7.0
100
AcDbLine
10
960.2383422851563
20
277.6401031500906
11
940.4393524119563
21
297.4390930233906
0
LINE
5
288
100
AcDbEntity
8
0
62
7.0
100
AcDbLine
10
980.0373321583562
20
297.4390930233906
11
960.2383422851563
21
277.6401031500906
0
ARC
5
289
100
AcDbEntity
8
0
62
7.0
100
AcDbCircle
10
951.9055145270438
20
636.5240478515625
40
28.0
50
-45.0
51
45.0
0
LINE
5
28A
100
AcDbEntity
8
0
62
7.0
100
AcDbLine
10
951.9055145270438
20
636.5240478515625
11
971.7045044003437
21
656.3230377247625
0
LINE
5
28B
100
AcDbEntity
8
0
62
7.0
100
AcDbLine
10
971.7045044003437
20
616.7250579783625
11
951.9055145270438
21
636.5240478515625
0
ARC
5
28C
100
AcDbEntity
8
0
62
7.0
100
AcDbCircle
10
951.90704040595
20
461.7828674316406
40
28.0
50
-45.0
51
45.0
0
LINE
5
28D
100
AcDbEntity
8
0
62
7.0
100
AcDbLine
10
951.90704040595
20
461.7828674316406
11
971.70603027925
21
481.58185730484064
0
LINE
5
28E
100
AcDbEntity
8
0
62
7.0
100
AcDbLine
10
971.70603027925
20
441.9838775584406
11
951.90704040595
21
461.7828674316406
0
ARC
5
28F
100
AcDbEntity
8
0
62
7.0
100
AcDbCircle
10
951.9847381598563
20
592.8471069335938
40
28.0
50
-45.0
51
45.0
0
LINE
5
290
100
AcDbEntity
8
0
62
7.0
100
AcDbLine
10
951.9847381598563
20
592.8471069335938
11
971.7837280331562
21
612.6460968067937
0
LINE
5
291
100
AcDbEntity
8
0
62
7.0
100
AcDbLine
10
971.7837280331562
20
573.0481170603938
11
951.9847381598563
21
592.8471069335938
0
ARC
5
292
100
AcDbEntity
8
0
62
7.0
100
AcDbCircle
10
965.1410491950124
20
87.70702362060547
40
28.0
50
-45.0
51
45.0
0
LINE
5
293
100
AcDbEntity
8
0
62
7.0
100
AcDbLine
10
965.1410491950124
20
87.70702362060547
11
984.9400390683124
21
107.50601349380547
0
LINE
5
294
100
AcDbEntity
8
0
62
7.0
100
AcDbLine
10
984.9400390683124
20
67.90803374740547
11
965.1410491950124
21
87.70702362060547
0
ARC
5
295
100
AcDbEntity
8
0
62
7.0
100
AcDbCircle
10
790.3545532226563
20
967.9503143317313
40
28.0
50
45.0
51
135.0
0
LINE
5
296
100
AcDbEntity
8
0
62
7.0
100
AcDbLine
10
790.3545532226563
20
967.9503143317313
11
770.5555633494563
21
987.7493042050312
0
LINE
5
297
100
AcDbEntity
8
0
62
7.0
100
AcDbLine
10
810.1535430958562
20
987.7493042050312
11
790.3545532226563
21
967.9503143317313
0
ARC
5
298
100
AcDbEntity
8
0
62
7.0
100
AcDbCircle
10
157.88272094726563
20
967.9532440192313
40
28.0
50
45.0
51
135.0
0
LINE
5
299
100
AcDbEntity
8
0
62
7.0
100
AcDbLine
10
157.88272094726563
20
967.9532440192313
11
138.0837310740656
21
987.7522338925312
0
LINE
5
29A
100
AcDbEntity
8
0
62
7.0
100
AcDbLine
10
177.68171082046564
20
987.7522338925312
11
157.88272094726563
21
967.9532440192313
0
ARC
5
29B
100
AcDbEntity
8
0
62
7.0
100
AcDbCircle
10
43.05704498291016
20
965.9538543707938
40
28.0
50
45.0
51
135.0
0
LINE
5
29C
100
AcDbEntity
8
0
62
7.0
100
AcDbLine
10
43.05704498291016
20
965.9538543707938
11
23.258055109710163
21
985.7528442440937
0
LINE
5
29D
100
AcDbEntity
8
0
62
7.0
100
AcDbLine
10
62.85603485611016
20
985.7528442440937
11
43.05704498291016
21
965.9538543707938
0
ARC
5
29E
100
AcDbEntity
8
0
62
7.0
100
AcDbCircle
10
963.2692840582938
20
242.62464904785156
40
28.0
50
-45.0
51
45.0
0
LINE
5
29F
100
AcDbEntity
8
0
62
7.0
100
AcDbLine
10
963.2692840582938
20
242.62464904785156
11
983.0682739315937
21
262.4236389210516
0
LINE
5
2A0
100
AcDbEntity
8
0
62
7.0
100
AcDbLine
10
983.0682739315937
20
222.82565917465155
11
963.2692840582938
21
242.62464904785156
0
ARC
5
2A1
100
AcDbEntity
8
0
62
7.0
100
AcDbCircle
10
963.5284393317313
20
824.5635375976563
40
28.0
50
-45.0
51
45.0
0
LINE
5
2A2
100
AcDbEntity
8
0
62
7.0
100
AcDbLine
10
963.5284393317313
20
824.5635375976563
11
983.3274292050312
21
844.3625274708562
0
LINE
5
2A3
100
AcDbEntity
8
0
62
7.0
100
AcDbLine
10
983.3274292050312
20
804.7645477244563
11
963.5284393317313
21
824.5635375976563
0
ARC
5
2A4
100
AcDbEntity
8
0
62
7.0
100
AcDbCircle
10
878.2979125976563
20
967.7840545661063
40
28.0
50
45.0
51
135.0
0
LINE
5
2A5
100
AcDbEntity
8
0
62
7.0
100
AcDbLine
10
878.2979125976563
20
967.7840545661063
11
858.4989227244563
21
987.5830444394062
0
LINE
5
2A6
100
AcDbEntity
8
0
62
7.0
100
AcDbLine
10
898.0969024708562
20
987.5830444394062
11
878.2979125976563
21
967.7840545661063
0
ARC
5
2A7
100
AcDbEntity
8
0
62
7.0
100
AcDbCircle
10
315.2252197265625
20
967.7436492926688
40
28.0
50
45.0
51
135.0
0
LINE
5
2A8
100
AcDbEntity
8
0
62
7.0
100
AcDbLine
10
315.2252197265625
20
967.7436492926688
11
295.4262298533625
21
987.5426391659687
0
LINE
5
2A9
100
AcDbEntity
8
0
62
7.0
100
AcDbLine
10
335.0242095997625
20
987.5426391659687
11
315.2252197265625
21
967.7436492926688
0
ARC
5
2AA
100
AcDbEntity
8
0
62
7.0
100
AcDbCircle
10
954.0118377692313
20
505.067138671875
40
28.0
50
-45.0
51
45.0
0
LINE
5
2AB
100
AcDbEntity
8
0
62
7.0
100
AcDbLine
10
954.0118377692313
20
505.067138671875
11
973.8108276425312
21
524.866128545075
0
LINE
5
2AC
100
AcDbEntity
8
0
62
7.0
100
AcDbLine
10
973.8108276425312
20
485.268148798675
11
954.0118377692313
21
505.067138671875
0
ARC
5
2AD
100
AcDbEntity
8
0
62
7.0
100
AcDbCircle
10
377.684326171875
20
966.818905640325
40
28.0
50
45.0
51
135.0
0
LINE
5
2AE
100
AcDbEntity
8
0
62
7.0
100
AcDbLine
10
377.684326171875
20
966.818905640325
11
357.885336298675
21
986.617895513625
0
LINE
5
2AF
100
AcDbEntity
8
0
62
7.0
100
AcDbLine
10
397.483316045075
20
986.617895513625
11
377.684326171875
21
966.818905640325
0
ARC
5
2B0
100
AcDbEntity
8
0
62
7.0
100
AcDbCircle
10
963.0690277106377
20
714.5130004882813
40
28.0
50
-45.0
51
45.0
0
LINE
5
2B1
100
AcDbEntity
8
0
62
7.0
100
AcDbLine
10
963.0690277106377
20
714.5130004882813
11
982.8680175839377
21
734.3119903614812
0
LINE
5
2B2
100
AcDbEntity
8
0
62
7.0
100
AcDbLine
10
982.8680175839377
20
694.7140106150813
11
963.0690277106377
21
714.5130004882813
0
ARC
5
2B3
100
AcDbEntity
8
0
62
7.0
100
AcDbCircle
10
923.4522094726563
20
967.941952515325
40
28.0
50
45.0
51
135.0
0
LINE
5
2B4
100
AcDbEntity
8
0
62
7.0
100
AcDbLine
10
923.4522094726563
20
967.941952515325
11
903.6532195994563
21
987.740942388625
0
LINE
5
2B5
100
AcDbEntity
8
0
62
7.0
100
AcDbLine
10
943.2511993458562
20
987.740942388625
11
923.4522094726563
21
967.941952515325
0
ARC
5
2B6
100
AcDbEntity
8
0
62
7.0
100
AcDbCircle
10
963.7252166754813
20
780.8099975585938
40
28.0
50
-45.0
51
45.0
0
LINE
5
2B7
100
AcDbEntity
8
0
62
7.0
100
AcDbLine
10
963.7252166754813
20
780.8099975585938
11
983.5242065487812
21
800.6089874317937
0
LINE
5
2B8
100
AcDbEntity
8
0
62
7.0
100
AcDbLine
10
983.5242065487812
20
761.0110076853938
11
963.7252166754813
21
780.8099975585938
0
ARC
5
2B9
100
AcDbEntity
8
0
62
7.0
100
AcDbCircle
10
552.1555816643624
20
171.58885192871094
40
28.0
50
135.0
51
225.0
0
LINE
5
2BA
100
AcDbEntity
8
0
62
7.0
100
AcDbLine
10
552.1555816643624
20
171.58885192871094
11
532.3565917910626
21
151.78986205551092
0
LINE
5
2BB
100
AcDbEntity
8
0
62
7.0
100
AcDbLine
10
532.3565917910626
20
191.38784180191095
11
552.1555816643624
21
171.58885192871094
0
ARC
5
2BC
100
AcDbEntity
8
0
62
7.0
100
AcDbCircle
10
442.0733947753906
20
965.7832000739188
40
28.0
50
45.0
51
135.0
0
LINE
5
2BD
100
AcDbEntity
8
0
62
7.0
100
AcDbLine
10
442.0733947753906
20
965.7832000739188
11
422.2744049021906
21
985.5821899472187
0
LINE
5
2BE
100
AcDbEntity
8
0
62
7.0
100
AcDbLine
10
461.87238464859064
20
985.5821899472187
11
442.0733947753906
21
965.7832000739188
0
ARC
5
2BF
100
AcDbEntity
8
0
62
7.0
100
AcDbCircle
10
226.13058471679688
20
967.8530242926688
40
28.0
50
45.0
51
135.0
0
LINE
5
2C0
100
AcDbEntity
8
0
62
7.0
100
AcDbLine
10
226.13058471679688
20
967.8530242926688
11
206.33159484359686
21
987.6520141659687
0
LINE
5
2C1
100
AcDbEntity
8
0
62
7.0
100
AcDbLine
10
245.9295745899969
20
987.6520141659687
11
226.13058471679688
21
967.8530242926688
0
LWPOLYLINE
5
2C2
100
AcDbEntity
8
BIN_BOUNDARY
100
AcDbPolyline
90
4.0
70
1.0
10
0.0
20
0.0
10
1000.0
20
0.0
10
1000.0
20
1000.0
10
0.0
20
1000.0
0
ENDSEC
0
EOF
