0
SECTION
2
HEADER
9
$ACADVER
1
AC1027
9
$INSUNITS
70
4.0
9
$MEASUREMENT
70
1.0
0
ENDSEC
0
SECTION
2
TABLES
0
TABLE
2
LAYER
0
LAYER
2
0
70
0.0
62
7.0
0
LAYER
2
BIN_BOUNDARY
70
0.0
62
5.0
0
ENDTAB
0
ENDSEC
0
SECTION
2
ENTITIES
0
CIRCLE
5
1
100
AcDbEntity
8
0
62
7.0
100
AcDbCircle
10
50.104488372802734
20
50.104957580566406
40
35.00000000000001
0
LINE
5
2
100
AcDbEntity
8
0
62
7.0
100
AcDbLine
10
0.10448837280273438
20
0.10495758056640625
11
100.10448837280273
21
0.10495758056640625
0
LINE
5
3
100
AcDbEntity
8
0
62
7.0
100
AcDbLine
10
0.10448837280273438
20
0.10495758056640625
11
0.10448837280273438
21
100.1049575805664
0
LINE
5
4
100
AcDbEntity
8
0
62
7.0
100
AcDbLine
10
0.10448837280273438
20
100.1049575805664
11
100.10448837280273
21
100.1049575805664
0
LINE
5
5
100
AcDbEntity
8
0
62
7.0
100
AcDbLine
10
100.10448837280273
20
0.10495758056640625
11
100.10448837280273
21
100.1049575805664
0
POINT
5
6
100
AcDbEntity
8
0
62
7.0
100
AcDbPoint
10
50.104488372802734
20
50.104957580566406
0
CIRCLE
5
7
100
AcDbEntity
8
0
62
7.0
100
AcDbCircle
10
50.103721618652344
20
150.20838928222656
40
35.00000000000001
0
LINE
5
8
100
AcDbEntity
8
0
62
7.0
100
AcDbLine
10
100.10372161865234
20
100.20838928222656
11
100.10372161865234
21
200.20838928222656
0
LINE
5
9
100
AcDbEntity
8
0
62
7.0
100
AcDbLine
10
100.10372161865234
20
100.20838928222656
11
0.10372161865234375
21
100.20838928222656
0
LINE
5
A
100
AcDbEntity
8
0
62
7.0
100
AcDbLine
10
0.10372161865234375
20
100.20838928222656
11
0.10372161865234375
21
200.20838928222656
0
LINE
5
B
100
AcDbEntity
8
0
62
7.0
100
AcDbLine
10
100.10372161865234
20
200.20838928222656
11
0.10372161865234375
21
200.20838928222656
0
POINT
5
C
100
AcDbEntity
8
0
62
7.0
100
AcDbPoint
10
50.103721618652344
20
150.20838928222656
0
CIRCLE
5
D
100
AcDbEntity
8
0
62
7.0
100
AcDbCircle
10
50.10240936279297
20
250.3203582763672
40
35.00000000000001
0
LINE
5
E
100
AcDbEntity
8
0
62
7.0
100
AcDbLine
10
0.10240936279296875
20
300.3203582763672
11
0.10240936279296875
21
200.3203582763672
0
LINE
5
F
100
AcDbEntity
8
0
62
7.0
100
AcDbLine
10
0.10240936279296875
20
300.3203582763672
11
100.10240936279297
21
300.3203582763672
0
LINE
5
10
100
AcDbEntity
8
0
62
7.0
100
AcDbLine
10
100.10240936279297
20
300.3203582763672
11
100.10240936279297
21
200.3203582763672
0
LINE
5
11
100
AcDbEntity
8
0
62
7.0
100
AcDbLine
10
0.10240936279296875
20
200.3203582763672
11
100.10240936279297
21
200.3203582763672
0
POINT
5
12
100
AcDbEntity
8
0
62
7.0
100
AcDbPoint
10
50.10240936279297
20
250.3203582763672
0
CIRCLE
5
13
100
AcDbEntity
8
0
62
7.0
100
AcDbCircle
10
50.101104736328125
20
350.4400634765625
40
35.00000000000001
0
LINE
5
14
100
AcDbEntity
8
0
62
7.0
100
AcDbLine
10
0.101104736328125
20
300.4400634765625
11
100.10110473632813
21
300.4400634765625
0
LINE
5
15
100
AcDbEntity
8
0
62
7.0
100
AcDbLine
10
0.101104736328125
20
300.4400634765625
11
0.101104736328125
21
400.4400634765625
0
LINE
5
16
100
AcDbEntity
8
0
62
7.0
100
AcDbLine
10
0.101104736328125
20
400.4400634765625
11
100.10110473632813
21
400.4400634765625
0
LINE
5
17
100
AcDbEntity
8
0
62
7.0
100
AcDbLine
10
100.10110473632813
20
300.4400634765625
11
100.10110473632813
21
400.4400634765625
0
POINT
5
18
100
AcDbEntity
8
0
62
7.0
100
AcDbPoint
10
50.101104736328125
20
350.4400634765625
0
CIRCLE
5
19
100
AcDbEntity
8
0
62
7.0
100
AcDbCircle
10
50.109886169433594
20
450.5438537597656
40
35.00000000000001
0
LINE
5
1A
100
AcDbEntity
8
0
62
7.0
100
AcDbLine
10
100.1098861694336
20
400.5438537597656
11
100.1098861694336
21
500.5438537597656
0
LINE
5
1B
100
AcDbEntity
8
0
62
7.0
100
AcDbLine
10
100.1098861694336
20
400.5438537597656
11
0.10988616943359375
21
400.5438537597656
0
LINE
5
1C
100
AcDbEntity
8
0
62
7.0
100
AcDbLine
10
0.10988616943359375
20
400.5438537597656
11
0.10988616943359375
21
500.5438537597656
0
LINE
5
1D
100
AcDbEntity
8
0
62
7.0
100
AcDbLine
10
100.1098861694336
20
500.5438537597656
11
0.10988616943359375
21
500.5438537597656
0
POINT
5
1E
100
AcDbEntity
8
0
62
7.0
100
AcDbPoint
10
50.109886169433594
20
450.5438537597656
0
CIRCLE
5
1F
100
AcDbEntity
8
0
62
7.0
100
AcDbCircle
10
50.11005783081055
20
550.6704711914063
40
35.00000000000001
0
LINE
5
20
100
AcDbEntity
8
0
62
7.0
100
AcDbLine
10
100.11005783081055
20
600.6704711914063
11
0.11005783081053977
21
600.6704711914063
0
LINE
5
21
100
AcDbEntity
8
0
62
7.0
100
AcDbLine
10
100.11005783081055
20
600.6704711914063
11
100.11005783081055
21
500.67047119140625
0
LINE
5
22
100
AcDbEntity
8
0
62
7.0
100
AcDbLine
10
100.11005783081055
20
500.67047119140625
11
0.11005783081055398
21
500.67047119140625
0
LINE
5
23
100
AcDbEntity
8
0
62
7.0
100
AcDbLine
10
0.11005783081053977
20
600.6704711914063
11
0.11005783081055398
21
500.67047119140625
0
POINT
5
24
100
AcDbEntity
8
0
62
7.0
100
AcDbPoint
10
50.11005783081055
20
550.6704711914063
0
CIRCLE
5
25
100
AcDbEntity
8
0
62
7.0
100
AcDbCircle
10
50.10350036621094
20
650.773193359375
40
35.00000000000001
0
LINE
5
26
100
AcDbEntity
8
0
62
7.0
100
AcDbLine
10
100.10350036621094
20
600.773193359375
11
100.10350036621094
21
700.773193359375
0
LINE
5
27
100
AcDbEntity
8
0
62
7.0
100
AcDbLine
10
100.10350036621094
20
600.773193359375
11
0.1035003662109375
21
600.773193359375
0
LINE
5
28
100
AcDbEntity
8
0
62
7.0
100
AcDbLine
10
0.1035003662109375
20
600.773193359375
11
0.1035003662109375
21
700.773193359375
0
LINE
5
29
100
AcDbEntity
8
0
62
7.0
100
AcDbLine
10
100.10350036621094
20
700.773193359375
11
0.1035003662109375
21
700.773193359375
0
POINT
5
2A
100
AcDbEntity
8
0
62
7.0
100
AcDbPoint
10
50.10350036621094
20
650.773193359375
0
CIRCLE
5
2B
100
AcDbEntity
8
0
62
7.0
100
AcDbCircle
10
50.10456466674805
20
750.874267578125
40
35.00000000000001
0
LINE
5
2C
100
AcDbEntity
8
0
62
7.0
100
AcDbLine
10
100.10456466674805
20
800.874267578125
11
0.10456466674803977
21
800.874267578125
0
LINE
5
2D
100
AcDbEntity
8
0
62
7.0
100
AcDbLine
10
100.10456466674805
20
800.874267578125
11
100.10456466674805
21
700.874267578125
0
LINE
5
2E
100
AcDbEntity
8
0
62
7.0
100
AcDbLine
10
100.10456466674805
20
700.874267578125
11
0.10456466674805398
21
700.874267578125
0
LINE
5
2F
100
AcDbEntity
8
0
62
7.0
100
AcDbLine
10
0.10456466674803977
20
800.874267578125
11
0.10456466674805398
21
700.874267578125
0
POINT
5
30
100
AcDbEntity
8
0
62
7.0
100
AcDbPoint
10
50.10456466674805
20
750.874267578125
0
CIRCLE
5
31
100
AcDbEntity
8
0
62
7.0
100
AcDbCircle
10
50.10478591918945
20
850.9822387695313
40
35.00000000000001
0
LINE
5
32
100
AcDbEntity
8
0
62
7.0
100
AcDbLine
10
100.10478591918945
20
800.9822387695313
11
100.10478591918945
21
900.9822387695313
0
LINE
5
33
100
AcDbEntity
8
0
62
7.0
100
AcDbLine
10
100.10478591918945
20
800.9822387695313
11
0.10478591918945313
21
800.9822387695313
0
LINE
5
34
100
AcDbEntity
8
0
62
7.0
100
AcDbLine
10
0.10478591918945313
20
800.9822387695313
11
0.10478591918945313
21
900.9822387695313
0
LINE
5
35
100
AcDbEntity
8
0
62
7.0
100
AcDbLine
10
100.10478591918945
20
900.9822387695313
11
0.10478591918945313
21
900.9822387695313
0
POINT
5
36
100
AcDbEntity
8
0
62
7.0
100
AcDbPoint
10
50.10478591918945
20
850.9822387695313
0
CIRCLE
5
37
100
AcDbEntity
8
0
62
7.0
100
AcDbCircle
10
150.2059326171875
20
50.16693878173828
40
35.00000000000001
0
LINE
5
38
100
AcDbEntity
8
0
62
7.0
100
AcDbLine
10
200.2059326171875
20
100.16693878173828
11
100.2059326171875
21
100.16693878173828
0
LINE
5
39
100
AcDbEntity
8
0
62
7.0
100
AcDbLine
10
200.2059326171875
20
100.16693878173828
11
200.2059326171875
21
0.16693878173828836
0
LINE
5
3A
100
AcDbEntity
8
0
62
7.0
100
AcDbLine
10
200.2059326171875
20
0.16693878173828836
11
100.2059326171875
21
0.16693878173827414
0
LINE
5
3B
100
AcDbEntity
8
0
62
7.0
100
AcDbLine
10
100.2059326171875
20
100.16693878173828
11
100.2059326171875
21
0.16693878173827414
0
POINT
5
3C
100
AcDbEntity
8
0
62
7.0
100
AcDbPoint
10
150.2059326171875
20
50.16693878173828
0
CIRCLE
5
3D
100
AcDbEntity
8
0
62
7.0
100
AcDbCircle
10
150.20697021484375
20
150.2781219482422
40
35.00000000000001
0
LINE
5
3E
100
AcDbEntity
8
0
62
7.0
100
AcDbLine
10
100.20697021484375
20
200.2781219482422
11
100.20697021484375
21
100.27812194824219
0
LINE
5
3F
100
AcDbEntity
8
0
62
7.0
100
AcDbLine
10
100.20697021484375
20
200.2781219482422
11
200.20697021484375
21
200.2781219482422
0
LINE
5
40
100
AcDbEntity
8
0
62
7.0
100
AcDbLine
10
200.20697021484375
20
200.2781219482422
11
200.20697021484375
21
100.27812194824219
0
LINE
5
41
100
AcDbEntity
8
0
62
7.0
100
AcDbLine
10
100.20697021484375
20
100.27812194824219
11
200.20697021484375
21
100.27812194824219
0
POINT
5
42
100
AcDbEntity
8
0
62
7.0
100
AcDbPoint
10
150.20697021484375
20
150.2781219482422
0
CIRCLE
5
43
100
AcDbEntity
8
0
62
7.0
100
AcDbCircle
10
150.20252990722656
20
250.4093017578125
40
35.00000000000001
0
LINE
5
44
100
AcDbEntity
8
0
62
7.0
100
AcDbLine
10
100.20252990722656
20
300.4093017578125
11
100.20252990722656
21
200.4093017578125
0
LINE
5
45
100
AcDbEntity
8
0
62
7.0
100
AcDbLine
10
100.20252990722656
20
300.4093017578125
11
200.20252990722656
21
300.4093017578125
0
LINE
5
46
100
AcDbEntity
8
0
62
7.0
100
AcDbLine
10
200.20252990722656
20
300.4093017578125
11
200.20252990722656
21
200.4093017578125
0
LINE
5
47
100
AcDbEntity
8
0
62
7.0
100
AcDbLine
10
100.20252990722656
20
200.4093017578125
11
200.20252990722656
21
200.4093017578125
0
POINT
5
48
100
AcDbEntity
8
0
62
7.0
100
AcDbPoint
10
150.20252990722656
20
250.4093017578125
0
CIRCLE
5
49
100
AcDbEntity
8
0
62
7.0
100
AcDbCircle
10
150.2106170654297
20
350.5129699707031
40
35.00000000000001
0
LINE
5
4A
100
AcDbEntity
8
0
62
7.0
100
AcDbLine
10
200.2106170654297
20
300.5129699707031
11
200.2106170654297
21
400.5129699707031
0
LINE
5
4B
100
AcDbEntity
8
0
62
7.0
100
AcDbLine
10
200.2106170654297
20
300.5129699707031
11
100.21061706542969
21
300.5129699707031
0
LINE
5
4C
100
AcDbEntity
8
0
62
7.0
100
AcDbLine
10
100.21061706542969
20
300.5129699707031
11
100.21061706542969
21
400.5129699707031
0
LINE
5
4D
100
AcDbEntity
8
0
62
7.0
100
AcDbLine
10
200.2106170654297
20
400.5129699707031
11
100.21061706542969
21
400.5129699707031
0
POINT
5
4E
100
AcDbEntity
8
0
62
7.0
100
AcDbPoint
10
150.2106170654297
20
350.5129699707031
0
CIRCLE
5
4F
100
AcDbEntity
8
0
62
7.0
100
AcDbCircle
10
150.2152557373047
20
450.6139831542969
40
35.00000000000001
0
LINE
5
50
100
AcDbEntity
8
0
62
7.0
100
AcDbLine
10
200.2152557373047
20
400.6139831542969
11
200.2152557373047
21
500.6139831542969
0
LINE
5
51
100
AcDbEntity
8
0
62
7.0
100
AcDbLine
10
200.2152557373047
20
400.6139831542969
11
100.21525573730469
21
400.6139831542969
0
LINE
5
52
100
AcDbEntity
8
0
62
7.0
100
AcDbLine
10
100.21525573730469
20
400.6139831542969
11
100.21525573730469
21
500.6139831542969
0
LINE
5
53
100
AcDbEntity
8
0
62
7.0
100
AcDbLine
10
200.2152557373047
20
500.6139831542969
11
100.21525573730469
21
500.6139831542969
0
POINT
5
54
100
AcDbEntity
8
0
62
7.0
100
AcDbPoint
10
150.2152557373047
20
450.6139831542969
0
CIRCLE
5
55
100
AcDbEntity
8
0
62
7.0
100
AcDbCircle
10
150.21197509765625
20
550.7537841796875
40
35.00000000000001
0
LINE
5
56
100
AcDbEntity
8
0
62
7.0
100
AcDbLine
10
100.21197509765625
20
600.7537841796875
11
100.21197509765625
21
500.7537841796875
0
LINE
5
57
100
AcDbEntity
8
0
62
7.0
100
AcDbLine
10
100.21197509765625
20
600.7537841796875
11
200.21197509765625
21
600.7537841796875
0
LINE
5
58
100
AcDbEntity
8
0
62
7.0
100
AcDbLine
10
200.21197509765625
20
600.7537841796875
11
200.21197509765625
21
500.7537841796875
0
LINE
5
59
100
AcDbEntity
8
0
62
7.0
100
AcDbLine
10
100.21197509765625
20
500.7537841796875
11
200.21197509765625
21
500.7537841796875
0
POINT
5
5A
100
AcDbEntity
8
0
62
7.0
100
AcDbPoint
10
150.21197509765625
20
550.7537841796875
0
CIRCLE
5
5B
100
AcDbEntity
8
0
62
7.0
100
AcDbCircle
10
150.20555114746094
20
650.8574829101563
40
35.00000000000001
0
LINE
5
5C
100
AcDbEntity
8
0
62
7.0
100
AcDbLine
10
200.20555114746094
20
600.8574829101563
11
200.20555114746094
21
700.8574829101563
0
LINE
5
5D
100
AcDbEntity
8
0
62
7.0
100
AcDbLine
10
200.20555114746094
20
600.8574829101563
11
100.20555114746094
21
600.8574829101563
0
LINE
5
5E
100
AcDbEntity
8
0
62
7.0
100
AcDbLine
10
100.20555114746094
20
600.8574829101563
11
100.20555114746094
21
700.8574829101563
0
LINE
5
5F
100
AcDbEntity
8
0
62
7.0
100
AcDbLine
10
200.20555114746094
20
700.8574829101563
11
100.20555114746094
21
700.8574829101563
0
POINT
5
60
100
AcDbEntity
8
0
62
7.0
100
AcDbPoint
10
150.20555114746094
20
650.8574829101563
0
CIRCLE
5
61
100
AcDbEntity
8
0
62
7.0
100
AcDbCircle
10
150.20510864257813
20
750.958251953125
40
35.00000000000001
0
LINE
5
62
100
AcDbEntity
8
0
62
7.0
100
AcDbLine
10
200.20510864257813
20
800.958251953125
11
100.20510864257813
21
800.958251953125
0
LINE
5
63
100
AcDbEntity
8
0
62
7.0
100
AcDbLine
10
200.20510864257813
20
800.958251953125
11
200.20510864257813
21
700.958251953125
0
LINE
5
64
100
AcDbEntity
8
0
62
7.0
100
AcDbLine
10
200.20510864257813
20
700.958251953125
11
100.20510864257813
21
700.958251953125
0
LINE
5
65
100
AcDbEntity
8
0
62
7.0
100
AcDbLine
10
100.20510864257813
20
800.958251953125
11
100.20510864257813
21
700.958251953125
0
POINT
5
66
100
AcDbEntity
8
0
62
7.0
100
AcDbPoint
10
150.20510864257813
20
750.958251953125
0
CIRCLE
5
67
100
AcDbEntity
8
0
62
7.0
100
AcDbCircle
10
150.205078125
20
851.061767578125
40
35.00000000000001
0
LINE
5
68
100
AcDbEntity
8
0
62
7.0
100
AcDbLine
10
100.205078125
20
901.061767578125
11
100.205078125
21
801.061767578125
0
LINE
5
69
100
AcDbEntity
8
0
62
7.0
100
AcDbLine
10
100.205078125
20
901.061767578125
11
200.205078125
21
901.061767578125
0
LINE
5
6A
100
AcDbEntity
8
0
62
7.0
100
AcDbLine
10
200.205078125
20
901.061767578125
11
200.205078125
21
801.061767578125
0
LINE
5
6B
100
AcDbEntity
8
0
62
7.0
100
AcDbLine
10
100.205078125
20
801.061767578125
11
200.205078125
21
801.061767578125
0
POINT
5
6C
100
AcDbEntity
8
0
62
7.0
100
AcDbPoint
10
150.205078125
20
851.061767578125
0
CIRCLE
5
6D
100
AcDbEntity
8
0
62
7.0
100
AcDbCircle
10
250.31005859375
20
50.88118362426758
40
35.00000000000001
0
LINE
5
6E
100
AcDbEntity
8
0
62
7.0
100
AcDbLine
10
300.31005859375
20
100.88118362426758
11
200.31005859375
21
100.88118362426758
0
LINE
5
6F
100
AcDbEntity
8
0
62
7.0
100
AcDbLine
10
300.31005859375
20
100.88118362426758
11
300.31005859375
21
0.8811836242675852
0
LINE
5
70
100
AcDbEntity
8
0
62
7.0
100
AcDbLine
10
300.31005859375
20
0.8811836242675852
11
200.31005859375
21
0.881183624267571
0
LINE
5
71
100
AcDbEntity
8
0
62
7.0
100
AcDbLine
10
200.31005859375
20
100.88118362426758
11
200.31005859375
21
0.881183624267571
0
POINT
5
72
100
AcDbEntity
8
0
62
7.0
100
AcDbPoint
10
250.31005859375
20
50.88118362426758
0
ARC
5
73
100
AcDbEntity
8
0
62
7.0
100
AcDbCircle
10
228.2691070549875
20
120.91085052490234
40
28.0
50
135.0
51
225.0
0
LINE
5
74
100
AcDbEntity
8
0
62
7.0
100
AcDbLine
10
228.2691070549875
20
120.91085052490234
11
208.4701171816875
21
101.11186065170234
0
LINE
5
75
100
AcDbEntity
8
0
62
7.0
100
AcDbLine
10
208.4701171816875
20
140.70984039810236
11
228.2691070549875
21
120.91085052490234
0
ARC
5
76
100
AcDbEntity
8
0
62
7.0
100
AcDbCircle
10
220.21478271484375
20
129.11993103095
40
28.0
50
45.0
51
135.0
0
LINE
5
77
100
AcDbEntity
8
0
62
7.0
100
AcDbLine
10
220.21478271484375
20
129.11993103095
11
200.41579284164374
21
148.91892090425
0
LINE
5
78
100
AcDbEntity
8
0
62
7.0
100
AcDbLine
10
240.01377258804376
20
148.91892090425
11
220.21478271484375
21
129.11993103095
0
ARC
5
79
100
AcDbEntity
8
0
62
7.0
100
AcDbCircle
10
228.2718688958078
20
174.49368286132813
40
28.0
50
135.0
51
225.0
0
LINE
5
7A
100
AcDbEntity
8
0
62
7.0
100
AcDbLine
10
228.2718688958078
20
174.49368286132813
11
208.4728790225078
21
154.6946929881281
0
LINE
5
7B
100
AcDbEntity
8
0
62
7.0
100
AcDbLine
10
208.4728790225078
20
194.29267273452814
11
228.2718688958078
21
174.49368286132813
0
ARC
5
7C
100
AcDbEntity
8
0
62
7.0
100
AcDbCircle
10
200.33735351630156
20
202.56967163085935
40
28.0
50
-45.0
51
45.0
0
LINE
5
7D
100
AcDbEntity
8
0
62
7.0
100
AcDbLine
10
200.33735351630156
20
202.56967163085935
11
220.13634338960156
21
222.36866150405933
0
LINE
5
7E
100
AcDbEntity
8
0
62
7.0
100
AcDbLine
10
220.13634338960156
20
182.77068175765936
11
200.33735351630156
21
202.56967163085935
0
ARC
5
7F
100
AcDbEntity
8
0
62
7.0
100
AcDbCircle
10
200.3237121588797
20
242.31459045410156
40
28.0
50
-45.0
51
45.0
0
LINE
5
80
100
AcDbEntity
8
0
62
7.0
100
AcDbLine
10
200.3237121588797
20
242.31459045410156
11
220.1227020321797
21
262.1135803273016
0
LINE
5
81
100
AcDbEntity
8
0
62
7.0
100
AcDbLine
10
220.1227020321797
20
222.51560058090155
11
200.3237121588797
21
242.31459045410156
0
ARC
5
82
100
AcDbEntity
8
0
62
7.0
100
AcDbCircle
10
220.12814331054688
20
290.2830230706125
40
28.0
50
-135.0
51
-45.0
0
LINE
5
83
100
AcDbEntity
8
0
62
7.0
100
AcDbLine
10
220.12814331054688
20
290.2830230706125
11
239.9271331837469
21
270.4840331973125
0
LINE
5
84
100
AcDbEntity
8
0
62
7.0
100
AcDbLine
10
200.3291534373469
20
270.4840331973125
11
220.12814331054688
21
290.2830230706125
0
ARC
5
85
100
AcDbEntity
8
0
62
7.0
100
AcDbCircle
10
200.33149414130156
20
310.3283386230469
40
28.0
50
-45.0
51
45.0
0
LINE
5
86
100
AcDbEntity
8
0
62
7.0
100
AcDbLine
10
200.33149414130156
20
310.3283386230469
11
220.13048401460156
21
330.1273284962469
0
LINE
5
87
100
AcDbEntity
8
0
62
7.0
100
AcDbLine
10
220.13048401460156
20
290.52934874984686
11
200.33149414130156
21
310.3283386230469
0
ARC
5
88
100
AcDbEntity
8
0
62
7.0
100
AcDbCircle
10
228.2723266594797
20
338.4198303222656
40
28.0
50
135.0
51
225.0
0
LINE
5
89
100
AcDbEntity
8
0
62
7.0
100
AcDbLine
10
228.2723266594797
20
338.4198303222656
11
208.4733367861797
21
318.6208404490656
0
LINE
5
8A
100
AcDbEntity
8
0
62
7.0
100
AcDbLine
10
208.4733367861797
20
358.21882019546564
11
228.2723266594797
21
338.4198303222656
0
ARC
5
8B
100
AcDbEntity
8
0
62
7.0
100
AcDbCircle
10
221.26752929755156
20
128.06321716308594
40
28.0
50
-45.0
51
45.0
0
LINE
5
8C
100
AcDbEntity
8
0
62
7.0
100
AcDbLine
10
221.26752929755156
20
128.06321716308594
11
241.06651917085156
21
147.86220703628595
0
LINE
5
8D
100
AcDbEntity
8
0
62
7.0
100
AcDbLine
10
241.06651917085156
20
108.26422728988594
11
221.26752929755156
21
128.06321716308594
0
ARC
5
8E
100
AcDbEntity
8
0
62
7.0
100
AcDbCircle
10
228.2784301751047
20
378.19293212890625
40
28.0
50
135.0
51
225.0
0
LINE
5
8F
100
AcDbEntity
8
0
62
7.0
100
AcDbLine
10
228.2784301751047
20
378.19293212890625
11
208.4794403018047
21
358.39394225570624
0
LINE
5
90
100
AcDbEntity
8
0
62
7.0
100
AcDbLine
10
208.4794403018047
20
397.99192200210626
11
228.2784301751047
21
378.19293212890625
0
ARC
5
91
100
AcDbEntity
8
0
62
7.0
100
AcDbCircle
10
228.27937622002656
20
417.96234130859375
40
28.0
50
135.0
51
225.0
0
LINE
5
92
100
AcDbEntity
8
0
62
7.0
100
AcDbLine
10
228.27937622002656
20
417.96234130859375
11
208.48038634672656
21
398.16335143539374
0
LINE
5
93
100
AcDbEntity
8
0
62
7.0
100
AcDbLine
10
208.48038634672656
20
437.76133118179376
11
228.27937622002656
21
417.96234130859375
0
ARC
5
94
100
AcDbEntity
8
0
62
7.0
100
AcDbCircle
10
220.13946533203125
20
463.4665863030344
40
28.0
50
-135.0
51
-45.0
0
LINE
5
95
100
AcDbEntity
8
0
62
7.0
100
AcDbLine
10
220.13946533203125
20
463.4665863030344
11
239.93845520523126
21
443.6675964297344
0
LINE
5
96
100
AcDbEntity
8
0
62
7.0
100
AcDbLine
10
200.34047545883126
20
443.6675964297344
11
220.13946533203125
21
463.4665863030344
0
ARC
5
97
100
AcDbEntity
8
0
62
7.0
100
AcDbCircle
10
220.1368865966797
20
492.1289398186594
40
28.0
50
-135.0
51
-45.0
0
LINE
5
98
100
AcDbEntity
8
0
62
7.0
100
AcDbLine
10
220.1368865966797
20
492.1289398186594
11
239.9358764698797
21
472.3299499453594
0
LINE
5
99
100
AcDbEntity
8
0
62
7.0
100
AcDbLine
10
200.3378967234797
20
472.3299499453594
11
220.1368865966797
21
492.1289398186594
0
ARC
5
9A
100
AcDbEntity
8
0
62
7.0
100
AcDbCircle
10
220.3157775885672
20
222.5004425048828
40
28.0
50
-45.0
51
45.0
0
LINE
5
9B
100
AcDbEntity
8
0
62
7.0
100
AcDbLine
10
220.3157775885672
20
222.5004425048828
11
240.1147674618672
21
242.29943237808283
0
LINE
5
9C
100
AcDbEntity
8
0
62
7.0
100
AcDbLine
10
240.1147674618672
20
202.7014526316828
11
220.3157775885672
21
222.5004425048828
0
ARC
5
9D
100
AcDbEntity
8
0
62
7.0
100
AcDbCircle
10
200.33295898505156
20
512.0706176757813
40
28.0
50
-45.0
51
45.0
0
LINE
5
9E
100
AcDbEntity
8
0
62
7.0
100
AcDbLine
10
200.33295898505156
20
512.0706176757813
11
220.13194885835156
21
531.8696075489812
0
LINE
5
9F
100
AcDbEntity
8
0
62
7.0
100
AcDbLine
10
220.13194885835156
20
492.27162780258124
11
200.33295898505156
21
512.0706176757813
0
ARC
5
A0
100
AcDbEntity
8
0
62
7.0
100
AcDbCircle
10
256.25281066826875
20
171.96470642089844
40
28.0
50
135.0
51
225.0
0
LINE
5
A1
100
AcDbEntity
8
0
62
7.0
100
AcDbLine
10
256.25281066826875
20
171.96470642089844
11
236.45382079496875
21
152.16571654769842
0
LINE
5
A2
100
AcDbEntity
8
0
62
7.0
100
AcDbLine
10
236.45382079496875
20
191.76369629409845
11
256.25281066826875
21
171.96470642089844
0
ARC
5
A3
100
AcDbEntity
8
0
62
7.0
100
AcDbCircle
10
208.54340820380156
20
358.3140563964844
40
28.0
50
-45.0
51
45.0
0
LINE
5
A4
100
AcDbEntity
8
0
62
7.0
100
AcDbLine
10
208.54340820380156
20
358.3140563964844
11
228.34239807710156
21
378.1130462696844
0
LINE
5
A5
100
AcDbEntity
8
0
62
7.0
100
AcDbLine
10
228.34239807710156
20
338.51506652328436
11
208.54340820380156
21
358.3140563964844
0
ARC
5
A6
100
AcDbEntity
8
0
62
7.0
100
AcDbCircle
10
228.27460021905
20
540.2351684570313
40
28.0
50
135.0
51
225.0
0
LINE
5
A7
100
AcDbEntity
8
0
62
7.0
100
AcDbLine
10
228.27460021905
20
540.2351684570313
11
208.47561034575
21
520.4361785838313
0
LINE
5
A8
100
AcDbEntity
8
0
62
7.0
100
AcDbLine
10
208.47561034575
20
560.0341583302312
11
228.27460021905
21
540.2351684570313
0
ARC
5
A9
100
AcDbEntity
8
0
62
7.0
100
AcDbCircle
10
254.53113098076875
20
295.79376220703125
40
28.0
50
135.0
51
225.0
0
LINE
5
AA
100
AcDbEntity
8
0
62
7.0
100
AcDbLine
10
254.53113098076875
20
295.79376220703125
11
234.73214110746875
21
275.99477233383124
0
LINE
5
AB
100
AcDbEntity
8
0
62
7.0
100
AcDbLine
10
234.73214110746875
20
315.59275208023126
11
254.53113098076875
21
295.79376220703125
0
ARC
5
AC
100
AcDbEntity
8
0
62
7.0
100
AcDbCircle
10
208.6851928717703
20
398.0908508300781
40
28.0
50
-45.0
51
45.0
0
LINE
5
AD
100
AcDbEntity
8
0
62
7.0
100
AcDbLine
10
208.6851928717703
20
398.0908508300781
11
228.4841827450703
21
417.88984070327814
0
LINE
5
AE
100
AcDbEntity
8
0
62
7.0
100
AcDbLine
10
228.4841827450703
20
378.2918609568781
11
208.6851928717703
21
398.0908508300781
0
ARC
5
AF
100
AcDbEntity
8
0
62
7.0
100
AcDbCircle
10
275.6120330803781
20
141.85044860839844
40
28.0
50
135.0
51
225.0
0
LINE
5
B0
100
AcDbEntity
8
0
62
7.0
100
AcDbLine
10
275.6120330803781
20
141.85044860839844
11
255.81304320707812
21
122.05145873519844
0
LINE
5
B1
100
AcDbEntity
8
0
62
7.0
100
AcDbLine
10
255.81304320707812
20
161.64943848159845
11
275.6120330803781
21
141.85044860839844
0
ARC
5
B2
100
AcDbEntity
8
0
62
7.0
100
AcDbCircle
10
230.59834594658903
20
577.8234252929688
40
28.0
50
135.0
51
225.0
0
LINE
5
B3
100
AcDbEntity
8
0
62
7.0
100
AcDbLine
10
230.59834594658903
20
577.8234252929688
11
210.79935607328903
21
558.0244354197688
0
LINE
5
B4
100
AcDbEntity
8
0
62
7.0
100
AcDbLine
10
210.79935607328903
20
597.6224151661687
11
230.59834594658903
21
577.8234252929688
0
ARC
5
B5
100
AcDbEntity
8
0
62
7.0
100
AcDbCircle
10
228.272891234675
20
615.2716064453125
40
28.0
50
135.0
51
225.0
0
LINE
5
B6
100
AcDbEntity
8
0
62
7.0
100
AcDbLine
10
228.272891234675
20
615.2716064453125
11
208.473901361375
21
595.4726165721125
0
LINE
5
B7
100
AcDbEntity
8
0
62
7.0
100
AcDbLine
10
208.473901361375
20
635.0705963185125
11
228.272891234675
21
615.2716064453125
0
ARC
5
B8
100
AcDbEntity
8
0
62
7.0
100
AcDbCircle
10
228.2720367424875
20
655.0221557617188
40
28.0
50
135.0
51
225.0
0
LINE
5
B9
100
AcDbEntity
8
0
62
7.0
100
AcDbLine
10
228.2720367424875
20
655.0221557617188
11
208.4730468691875
21
635.2231658885188
0
LINE
5
BA
100
AcDbEntity
8
0
62
7.0
100
AcDbLine
10
208.4730468691875
20
674.8211456349187
11
228.2720367424875
21
655.0221557617188
0
ARC
5
BB
100
AcDbEntity
8
0
62
7.0
100
AcDbCircle
10
264.741641234675
20
256.6617126464844
40
28.0
50
135.0
51
225.0
0
LINE
5
BC
100
AcDbEntity
8
0
62
7.0
100
AcDbLine
10
264.741641234675
20
256.6617126464844
11
244.942651361375
21
236.86272277328436
0
LINE
5
BD
100
AcDbEntity
8
0
62
7.0
100
AcDbLine
10
244.942651361375
20
276.4607025196844
11
264.741641234675
21
256.6617126464844
0
ARC
5
BE
100
AcDbEntity
8
0
62
7.0
100
AcDbCircle
10
220.6690490729422
20
329.8131103515625
40
28.0
50
-45.0
51
45.0
0
LINE
5
BF
100
AcDbEntity
8
0
62
7.0
100
AcDbLine
10
220.6690490729422
20
329.8131103515625
11
240.4680389462422
21
349.6121002247625
0
LINE
5
C0
100
AcDbEntity
8
0
62
7.0
100
AcDbLine
10
240.4680389462422
20
310.0141204783625
11
220.6690490729422
21
329.8131103515625
0
ARC
5
C1
100
AcDbEntity
8
0
62
7.0
100
AcDbCircle
10
200.3263519293875
20
683.1204223632813
40
28.0
50
-45.0
51
45.0
0
LINE
5
C2
100
AcDbEntity
8
0
62
7.0
100
AcDbLine
10
200.3263519293875
20
683.1204223632813
11
220.1253418026875
21
702.9194122364812
0
LINE
5
C3
100
AcDbEntity
8
0
62
7.0
100
AcDbLine
10
220.1253418026875
20
663.3214324900813
11
200.3263519293875
21
683.1204223632813
0
ARC
5
C4
100
AcDbEntity
8
0
62
7.0
100
AcDbCircle
10
241.29797058173125
20
309.1702880859375
40
28.0
50
-45.0
51
45.0
0
LINE
5
C5
100
AcDbEntity
8
0
62
7.0
100
AcDbLine
10
241.29797058173125
20
309.1702880859375
11
261.09696045503125
21
328.9692779591375
0
LINE
5
C6
100
AcDbEntity
8
0
62
7.0
100
AcDbLine
10
261.09696045503125
20
289.3712982127375
11
241.29797058173125
21
309.1702880859375
0
ARC
5
C7
100
AcDbEntity
8
0
62
7.0
100
AcDbCircle
10
221.66750793524687
20
425.0649719238281
40
28.0
50
-45.0
51
45.0
0
LINE
5
C8
100
AcDbEntity
8
0
62
7.0
100
AcDbLine
10
221.66750793524687
20
425.0649719238281
11
241.46649780854688
21
444.86396179702814
0
LINE
5
C9
100
AcDbEntity
8
0
62
7.0
100
AcDbLine
10
241.46649780854688
20
405.2659820506281
11
221.66750793524687
21
425.0649719238281
0
ARC
5
CA
100
AcDbEntity
8
0
62
7.0
100
AcDbCircle
10
220.61336975165312
20
531.6250610351563
40
28.0
50
-45.0
51
45.0
0
LINE
5
CB
100
AcDbEntity
8
0
62
7.0
100
AcDbLine
10
220.61336975165312
20
531.6250610351563
11
240.41235962495313
21
551.4240509083562
0
LINE
5
CC
100
AcDbEntity
8
0
62
7.0
100
AcDbLine
10
240.41235962495313
20
511.82607116195624
11
220.61336975165312
21
531.6250610351563
0
ARC
5
CD
100
AcDbEntity
8
0
62
7.0
100
AcDbCircle
10
228.2675353997141
20
711.2141723632813
40
28.0
50
135.0
51
225.0
0
LINE
5
CE
100
AcDbEntity
8
0
62
7.0
100
AcDbLine
10
228.2675353997141
20
711.2141723632813
11
208.4685455264141
21
691.4151824900813
0
LINE
5
CF
100
AcDbEntity
8
0
62
7.0
100
AcDbLine
10
208.4685455264141
20
731.0131622364812
11
228.2675353997141
21
711.2141723632813
0
ARC
5
D0
100
AcDbEntity
8
0
62
7.0
100
AcDbCircle
10
274.8143035881906
20
193.31430053710935
40
28.0
50
135.0
51
225.0
0
LINE
5
D1
100
AcDbEntity
8
0
62
7.0
100
AcDbLine
10
274.8143035881906
20
193.31430053710935
11
255.01531371489062
21
173.51531066390936
0
LINE
5
D2
100
AcDbEntity
8
0
62
7.0
100
AcDbLine
10
255.01531371489062
20
213.11329041030933
11
274.8143035881906
21
193.31430053710935
0
ARC
5
D3
100
AcDbEntity
8
0
62
7.0
100
AcDbCircle
10
261.31274108954375
20
156.2915496826172
40
28.0
50
-45.0
51
45.0
0
LINE
5
D4
100
AcDbEntity
8
0
62
7.0
100
AcDbLine
10
261.31274108954375
20
156.2915496826172
11
281.11173096284375
21
176.0905395558172
0
LINE
5
D5
100
AcDbEntity
8
0
62
7.0
100
AcDbLine
10
281.11173096284375
20
136.49255980941717
11
261.31274108954375
21
156.2915496826172
0
ARC
5
D6
100
AcDbEntity
8
0
62
7.0
100
AcDbCircle
10
228.27096862725313
20
750.9981079101563
40
28.0
50
135.0
51
225.0
0
LINE
5
D7
100
AcDbEntity
8
0
62
7.0
100
AcDbLine
10
228.27096862725313
20
750.9981079101563
11
208.47197875395312
21
731.1991180369563
0
LINE
5
D8
100
AcDbEntity
8
0
62
7.0
100
AcDbLine
10
208.47197875395312
20
770.7970977833562
11
228.27096862725313
21
750.9981079101563
0
ARC
5
D9
100
AcDbEntity
8
0
62
7.0
100
AcDbCircle
10
260.86962890625
20
260.68139343329375
40
28.0
50
45.0
51
135.0
0
LINE
5
DA
100
AcDbEntity
8
0
62
7.0
100
AcDbLine
10
260.86962890625
20
260.68139343329375
11
241.07063903304999
21
280.48038330659375
0
LINE
5
DB
100
AcDbEntity
8
0
62
7.0
100
AcDbLine
10
280.66861877945
20
280.48038330659375
11
260.86962890625
21
260.68139343329375
0
ARC
5
DC
100
AcDbEntity
8
0
62
7.0
100
AcDbCircle
10
254.98919677734375
20
386.9873077385813
40
28.0
50
-135.0
51
-45.0
0
LINE
5
DD
100
AcDbEntity
8
0
62
7.0
100
AcDbLine
10
254.98919677734375
20
386.9873077385813
11
274.78818665054376
21
367.1883178652813
0
LINE
5
DE
100
AcDbEntity
8
0
62
7.0
100
AcDbLine
10
235.19020690414376
20
367.1883178652813
11
254.98919677734375
21
386.9873077385813
0
ARC
5
DF
100
AcDbEntity
8
0
62
7.0
100
AcDbCircle
10
214.5786560065359
20
593.984619140625
40
28.0
50
-45.0
51
45.0
0
LINE
5
E0
100
AcDbEntity
8
0
62
7.0
100
AcDbLine
10
214.5786560065359
20
593.984619140625
11
234.3776458798359
21
613.783609013825
0
LINE
5
E1
100
AcDbEntity
8
0
62
7.0
100
AcDbLine
10
234.3776458798359
20
574.185629267425
11
214.5786560065359
21
593.984619140625
0
ARC
5
E2
100
AcDbEntity
8
0
62
7.0
100
AcDbCircle
10
220.59188537665312
20
491.83001708984375
40
28.0
50
-45.0
51
45.0
0
LINE
5
E3
100
AcDbEntity
8
0
62
7.0
100
AcDbLine
10
220.59188537665312
20
491.83001708984375
11
240.39087524995313
21
511.62900696304376
0
LINE
5
E4
100
AcDbEntity
8
0
62
7.0
100
AcDbLine
10
240.39087524995313
20
472.03102721664374
11
220.59188537665312
21
491.83001708984375
0
ARC
5
E5
100
AcDbEntity
8
0
62
7.0
100
AcDbCircle
10
263.8688079827219
20
567.234619140625
40
28.0
50
135.0
51
225.0
0
LINE
5
E6
100
AcDbEntity
8
0
62
7.0
100
AcDbLine
10
263.8688079827219
20
567.234619140625
11
244.06981810942187
21
547.435629267425
0
LINE
5
E7
100
AcDbEntity
8
0
62
7.0
100
AcDbLine
10
244.06981810942187
20
587.033609013825
11
263.8688079827219
21
567.234619140625
0
ARC
5
E8
100
AcDbEntity
8
0
62
7.0
100
AcDbCircle
10
228.2673522942453
20
790.740478515625
40
28.0
50
135.0
51
225.0
0
LINE
5
E9
100
AcDbEntity
8
0
62
7.0
100
AcDbLine
10
228.2673522942453
20
790.740478515625
11
208.4683624209453
21
770.941488642425
0
LINE
5
EA
100
AcDbEntity
8
0
62
7.0
100
AcDbLine
10
208.4683624209453
20
810.539468388825
11
228.2673522942453
21
790.740478515625
0
ARC
5
EB
100
AcDbEntity
8
0
62
7.0
100
AcDbCircle
10
208.74406127997344
20
770.6668090820313
40
28.0
50
-45.0
51
45.0
0
LINE
5
EC
100
AcDbEntity
8
0
62
7.0
100
AcDbLine
10
208.74406127997344
20
770.6668090820313
11
228.54305115327344
21
790.4657989552312
0
LINE
5
ED
100
AcDbEntity
8
0
62
7.0
100
AcDbLine
10
228.54305115327344
20
750.8678192088313
11
208.74406127997344
21
770.6668090820313
0
ARC
5
EE
100
AcDbEntity
8
0
62
7.0
100
AcDbCircle
10
248.9781677239328
20
634.3014526367188
40
28.0
50
135.0
51
225.0
0
LINE
5
EF
100
AcDbEntity
8
0
62
7.0
100
AcDbLine
10
248.9781677239328
20
634.3014526367188
11
229.1791778506328
21
614.5024627635188
0
LINE
5
F0
100
AcDbEntity
8
0
62
7.0
100
AcDbLine
10
229.1791778506328
20
654.1004425099187
11
248.9781677239328
21
634.3014526367188
0
ARC
5
F1
100
AcDbEntity
8
0
62
7.0
100
AcDbCircle
10
220.1350250244141
20
836.226992797175
40
28.0
50
-135.0
51
-45.0
0
LINE
5
F2
100
AcDbEntity
8
0
62
7.0
100
AcDbLine
10
220.1350250244141
20
836.226992797175
11
239.9340148976141
21
816.428002923875
0
LINE
5
F3
100
AcDbEntity
8
0
62
7.0
100
AcDbLine
10
200.3360351512141
20
816.4280029238749
11
220.1350250244141
21
836.226992797175
0
ARC
5
F4
100
AcDbEntity
8
0
62
7.0
100
AcDbCircle
10
264.90325927734375
20
215.9776123053641
40
28.0
50
45.0
51
135.0
0
LINE
5
F5
100
AcDbEntity
8
0
62
7.0
100
AcDbLine
10
264.90325927734375
20
215.9776123053641
11
245.10426940414374
21
235.7766021786641
0
LINE
5
F6
100
AcDbEntity
8
0
62
7.0
100
AcDbLine
10
284.70224915054376
20
235.7766021786641
11
264.90325927734375
21
215.9776123053641
0
ARC
5
F7
100
AcDbEntity
8
0
62
7.0
100
AcDbCircle
10
227.6964996344656
20
458.9495544433594
40
28.0
50
-45.0
51
45.0
0
LINE
5
F8
100
AcDbEntity
8
0
62
7.0
100
AcDbLine
10
227.6964996344656
20
458.9495544433594
11
247.4954895077656
21
478.7485443165594
0
LINE
5
F9
100
AcDbEntity
8
0
62
7.0
100
AcDbLine
10
247.4954895077656
20
439.15056457015936
11
227.6964996344656
21
458.9495544433594
0
ARC
5
FA
100
AcDbEntity
8
0
62
7.0
100
AcDbCircle
10
239.26205139227812
20
402.860107421875
40
28.0
50
-45.0
51
45.0
0
LINE
5
FB
100
AcDbEntity
8
0
62
7.0
100
AcDbLine
10
239.26205139227812
20
402.860107421875
11
259.0610412655781
21
422.659097295075
0
LINE
5
FC
100
AcDbEntity
8
0
62
7.0
100
AcDbLine
10
259.0610412655781
20
383.061117548675
11
239.26205139227812
21
402.860107421875
0
ARC
5
FD
100
AcDbEntity
8
0
62
7.0
100
AcDbCircle
10
246.33068542548125
20
480.2378234863281
40
28.0
50
-45.0
51
45.0
0
LINE
5
FE
100
AcDbEntity
8
0
62
7.0
100
AcDbLine
10
246.33068542548125
20
480.2378234863281
11
266.12967529878125
21
500.03681335952814
0
LINE
5
FF
100
AcDbEntity
8
0
62
7.0
100
AcDbLine
10
266.12967529878125
20
460.4388336131281
11
246.33068542548125
21
480.2378234863281
0
ARC
5
100
100
AcDbEntity
8
0
62
7.0
100
AcDbCircle
10
228.26712341240935
20
844.5103759765625
40
28.0
50
135.0
51
225.0
0
LINE
5
101
100
AcDbEntity
8
0
62
7.0
100
AcDbLine
10
228.26712341240935
20
844.5103759765625
11
208.46813353910935
21
824.7113861033625
0
LINE
5
102
100
AcDbEntity
8
0
62
7.0
100
AcDbLine
10
208.46813353910935
20
864.3093658497625
11
228.26712341240935
21
844.5103759765625
0
ARC
5
103
100
AcDbEntity
8
0
62
7.0
100
AcDbCircle
10
228.3223571777344
20
750.9011871331124
40
28.0
50
-135.0
51
-45.0
0
LINE
5
104
100
AcDbEntity
8
0
62
7.0
100
AcDbLine
10
228.3223571777344
20
750.9011871331124
11
248.12134705093442
21
731.1021972598126
0
LINE
5
105
100
AcDbEntity
8
0
62
7.0
100
AcDbLine
10
208.52336730453442
20
731.1021972598124
11
228.3223571777344
21
750.9011871331124
0
ARC
5
106
100
AcDbEntity
8
0
62
7.0
100
AcDbCircle
10
251.7740173339844
20
596.7095916754813
40
28.0
50
45.0
51
135.0
0
LINE
5
107
100
AcDbEntity
8
0
62
7.0
100
AcDbLine
10
251.7740173339844
20
596.7095916754813
11
231.97502746078442
21
616.5085815487812
0
LINE
5
108
100
AcDbEntity
8
0
62
7.0
100
AcDbLine
10
271.5730072071844
20
616.5085815487812
11
251.7740173339844
21
596.7095916754813
0
ARC
5
109
100
AcDbEntity
8
0
62
7.0
100
AcDbCircle
10
220.2156799323172
20
663.2303466796875
40
28.0
50
-45.0
51
45.0
0
LINE
5
10A
100
AcDbEntity
8
0
62
7.0
100
AcDbLine
10
220.2156799323172
20
663.2303466796875
11
240.0146698056172
21
683.0293365528875
0
LINE
5
10B
100
AcDbEntity
8
0
62
7.0
100
AcDbLine
10
240.0146698056172
20
643.4313568064875
11
220.2156799323172
21
663.2303466796875
0
ARC
5
10C
100
AcDbEntity
8
0
62
7.0
100
AcDbCircle
10
246.57955627509065
20
438.03070068359375
40
28.0
50
-45.0
51
45.0
0
LINE
5
10D
100
AcDbEntity
8
0
62
7.0
100
AcDbLine
10
246.57955627509065
20
438.03070068359375
11
266.3785461483907
21
457.82969055679376
0
LINE
5
10E
100
AcDbEntity
8
0
62
7.0
100
AcDbLine
10
266.3785461483907
20
418.23171081039374
11
246.57955627509065
21
438.03070068359375
0
ARC
5
10F
100
AcDbEntity
8
0
62
7.0
100
AcDbCircle
10
220.2908477783203
20
852.6326873786063
40
28.0
50
45.0
51
135.0
0
LINE
5
110
100
AcDbEntity
8
0
62
7.0
100
AcDbLine
10
220.2908477783203
20
852.6326873786063
11
200.4918579051203
21
872.4316772519062
0
LINE
5
111
100
AcDbEntity
8
0
62
7.0
100
AcDbLine
10
240.08983765152033
20
872.4316772519062
11
220.2908477783203
21
852.6326873786063
0
ARC
5
112
100
AcDbEntity
8
0
62
7.0
100
AcDbCircle
10
246.2491455078125
20
713.3975250237374
40
28.0
50
-135.0
51
-45.0
0
LINE
5
113
100
AcDbEntity
8
0
62
7.0
100
AcDbLine
10
246.2491455078125
20
713.3975250237374
11
266.0481353810125
21
693.5985351504376
0
LINE
5
114
100
AcDbEntity
8
0
62
7.0
100
AcDbLine
10
226.4501556346125
20
693.5985351504374
11
246.2491455078125
21
713.3975250237374
0
ARC
5
115
100
AcDbEntity
8
0
62
7.0
100
AcDbCircle
10
298.998965453425
20
458.00103759765625
40
28.0
50
135.0
51
225.0
0
LINE
5
116
100
AcDbEntity
8
0
62
7.0
100
AcDbLine
10
298.998965453425
20
458.00103759765625
11
279.199975580125
21
438.20204772445624
0
LINE
5
117
100
AcDbEntity
8
0
62
7.0
100
AcDbLine
10
279.199975580125
20
477.80002747085626
11
298.998965453425
21
458.00103759765625
0
ARC
5
118
100
AcDbEntity
8
0
62
7.0
100
AcDbCircle
10
261.831787109375
20
328.55041198798125
40
28.0
50
45.0
51
135.0
0
LINE
5
119
100
AcDbEntity
8
0
62
7.0
100
AcDbLine
10
261.831787109375
20
328.55041198798125
11
242.03279723617499
21
348.34940186128125
0
LINE
5
11A
100
AcDbEntity
8
0
62
7.0
100
AcDbLine
10
281.630776982575
20
348.34940186128125
11
261.831787109375
21
328.55041198798125
0
ARC
5
11B
100
AcDbEntity
8
0
62
7.0
100
AcDbCircle
10
221.62173156805935
20
797.7078857421875
40
28.0
50
-45.0
51
45.0
0
LINE
5
11C
100
AcDbEntity
8
0
62
7.0
100
AcDbLine
10
221.62173156805935
20
797.7078857421875
11
241.42072144135935
21
817.5068756153875
0
LINE
5
11D
100
AcDbEntity
8
0
62
7.0
100
AcDbLine
10
241.42072144135935
20
777.9088958689875
11
221.62173156805935
21
797.7078857421875
0
ARC
5
11E
100
AcDbEntity
8
0
62
7.0
100
AcDbCircle
10
259.1393096930594
20
382.9816284179687
40
28.0
50
-45.0
51
45.0
0
LINE
5
11F
100
AcDbEntity
8
0
62
7.0
100
AcDbLine
10
259.1393096930594
20
382.9816284179687
11
278.9382995663594
21
402.7806182911687
0
LINE
5
120
100
AcDbEntity
8
0
62
7.0
100
AcDbLine
10
278.9382995663594
20
363.1826385447687
11
259.1393096930594
21
382.9816284179687
0
ARC
5
121
100
AcDbEntity
8
0
62
7.0
100
AcDbCircle
10
266.2805480957031
20
500.2017486579031
40
28.0
50
45.0
51
135.0
0
LINE
5
122
100
AcDbEntity
8
0
62
7.0
100
AcDbLine
10
266.2805480957031
20
500.2017486579031
11
246.4815582225031
21
520.0007385312031
0
LINE
5
123
100
AcDbEntity
8
0
62
7.0
100
AcDbLine
10
286.07953796890314
20
520.0007385312031
11
266.2805480957031
21
500.2017486579031
0
ARC
5
124
100
AcDbEntity
8
0
62
7.0
100
AcDbCircle
10
223.04411010809844
20
836.1973266601563
40
28.0
50
-45.0
51
45.0
0
LINE
5
125
100
AcDbEntity
8
0
62
7.0
100
AcDbLine
10
223.04411010809844
20
836.1973266601563
11
242.84309998139844
21
855.9963165333562
0
LINE
5
126
100
AcDbEntity
8
0
62
7.0
100
AcDbLine
10
242.84309998139844
20
816.3983367869563
11
223.04411010809844
21
836.1973266601563
0
ARC
5
127
100
AcDbEntity
8
0
62
7.0
100
AcDbCircle
10
278.5848083496094
20
270.34497375420625
40
28.0
50
-135.0
51
-45.0
0
LINE
5
128
100
AcDbEntity
8
0
62
7.0
100
AcDbLine
10
278.5848083496094
20
270.34497375420625
11
298.3837982228094
21
250.54598388090625
0
LINE
5
129
100
AcDbEntity
8
0
62
7.0
100
AcDbLine
10
258.78581847640936
20
250.54598388090625
11
278.5848083496094
21
270.34497375420625
0
ARC
5
12A
100
AcDbEntity
8
0
62
7.0
100
AcDbCircle
10
240.12551574774687
20
643.3907470703125
40
28.0
50
-45.0
51
45.0
0
LINE
5
12B
100
AcDbEntity
8
0
62
7.0
100
AcDbLine
10
240.12551574774687
20
643.3907470703125
11
259.9245056210469
21
663.1897369435125
0
LINE
5
12C
100
AcDbEntity
8
0
62
7.0
100
AcDbLine
10
259.9245056210469
20
623.5917571971125
11
240.12551574774687
21
643.3907470703125
0
ARC
5
12D
100
AcDbEntity
8
0
62
7.0
100
AcDbCircle
10
228.61408691473903
20
750.7520751953125
40
28.0
50
-45.0
51
45.0
0
LINE
5
12E
100
AcDbEntity
8
0
62
7.0
100
AcDbLine
10
228.61408691473903
20
750.7520751953125
11
248.41307678803904
21
770.5510650685125
0
LINE
5
12F
100
AcDbEntity
8
0
62
7.0
100
AcDbLine
10
248.41307678803904
20
730.9530853221125
11
228.61408691473903
21
750.7520751953125
0
ARC
5
130
100
AcDbEntity
8
0
62
7.0
100
AcDbCircle
10
255.77224426337187
20
546.5078125
40
28.0
50
-45.0
51
45.0
0
LINE
5
131
100
AcDbEntity
8
0
62
7.0
100
AcDbLine
10
255.77224426337187
20
546.5078125
11
275.5712341366719
21
566.3068023732
0
LINE
5
132
100
AcDbEntity
8
0
62
7.0
100
AcDbLine
10
275.5712341366719
20
526.7088226268
11
255.77224426337187
21
546.5078125
0
ARC
5
133
100
AcDbEntity
8
0
62
7.0
100
AcDbCircle
10
249.13100891180935
20
582.1156616210938
40
28.0
50
-45.0
51
45.0
0
LINE
5
134
100
AcDbEntity
8
0
62
7.0
100
AcDbLine
10
249.13100891180935
20
582.1156616210938
11
268.9299987851093
21
601.9146514942937
0
LINE
5
135
100
AcDbEntity
8
0
62
7.0
100
AcDbLine
10
268.9299987851093
20
562.3166717478938
11
249.13100891180935
21
582.1156616210938
0
ARC
5
136
100
AcDbEntity
8
0
62
7.0
100
AcDbCircle
10
281.42956848076875
20
718.13818359375
40
28.0
50
135.0
51
225.0
0
LINE
5
137
100
AcDbEntity
8
0
62
7.0
100
AcDbLine
10
281.42956848076875
20
718.13818359375
11
261.63057860746875
21
698.33919372055
0
LINE
5
138
100
AcDbEntity
8
0
62
7.0
100
AcDbLine
10
261.63057860746875
20
737.93717346695
11
281.42956848076875
21
718.13818359375
0
ARC
5
139
100
AcDbEntity
8
0
62
7.0
100
AcDbCircle
10
258.6955230719656
20
209.5746612548828
40
28.0
50
-45.0
51
45.0
0
LINE
5
13A
100
AcDbEntity
8
0
62
7.0
100
AcDbLine
10
258.6955230719656
20
209.5746612548828
11
278.49451294526557
21
229.37365112808283
0
LINE
5
13B
100
AcDbEntity
8
0
62
7.0
100
AcDbLine
10
278.49451294526557
20
189.7756713816828
11
258.6955230719656
21
209.5746612548828
0
ARC
5
13C
100
AcDbEntity
8
0
62
7.0
100
AcDbCircle
10
265.5748870856375
20
120.81037139892578
40
28.0
50
-45.0
51
45.0
0
LINE
5
13D
100
AcDbEntity
8
0
62
7.0
100
AcDbLine
10
265.5748870856375
20
120.81037139892578
11
285.3738769589375
21
140.6093612721258
0
LINE
5
13E
100
AcDbEntity
8
0
62
7.0
100
AcDbLine
10
285.3738769589375
20
101.01138152572578
11
265.5748870856375
21
120.81037139892578
0
ARC
5
13F
100
AcDbEntity
8
0
62
7.0
100
AcDbCircle
10
233.8364685065359
20
865.31640625
40
28.0
50
-45.0
51
45.0
0
LINE
5
140
100
AcDbEntity
8
0
62
7.0
100
AcDbLine
10
233.8364685065359
20
865.31640625
11
253.6354583798359
21
885.1153961232
0
LINE
5
141
100
AcDbEntity
8
0
62
7.0
100
AcDbLine
10
253.6354583798359
20
845.5174163768
11
233.8364685065359
21
865.31640625
0
ARC
5
142
100
AcDbEntity
8
0
62
7.0
100
AcDbCircle
10
243.21072082587187
20
815.6478881835938
40
28.0
50
-45.0
51
45.0
0
LINE
5
143
100
AcDbEntity
8
0
62
7.0
100
AcDbLine
10
243.21072082587187
20
815.6478881835938
11
263.0097106991719
21
835.4468780567937
0
LINE
5
144
100
AcDbEntity
8
0
62
7.0
100
AcDbLine
10
263.0097106991719
20
795.8488983103938
11
243.21072082587187
21
815.6478881835938
0
ARC
5
145
100
AcDbEntity
8
0
62
7.0
100
AcDbCircle
10
253.5418975836844
20
845.2286376953125
40
28.0
50
-45.0
51
45.0
0
LINE
5
146
100
AcDbEntity
8
0
62
7.0
100
AcDbLine
10
253.5418975836844
20
845.2286376953125
11
273.34088745698443
21
865.0276275685125
0
LINE
5
147
100
AcDbEntity
8
0
62
7.0
100
AcDbLine
10
273.34088745698443
20
825.4296478221125
11
253.5418975836844
21
845.2286376953125
0
ARC
5
148
100
AcDbEntity
8
0
62
7.0
100
AcDbCircle
10
255.85995178290312
20
743.8494873046875
40
28.0
50
-45.0
51
45.0
0
LINE
5
149
100
AcDbEntity
8
0
62
7.0
100
AcDbLine
10
255.85995178290312
20
743.8494873046875
11
275.6589416562031
21
763.6484771778875
0
LINE
5
14A
100
AcDbEntity
8
0
62
7.0
100
AcDbLine
10
275.6589416562031
20
724.0504974314875
11
255.85995178290312
21
743.8494873046875
0
ARC
5
14B
100
AcDbEntity
8
0
62
7.0
100
AcDbCircle
10
248.29617004462187
20
675.1447143554688
40
28.0
50
-45.0
51
45.0
0
LINE
5
14C
100
AcDbEntity
8
0
62
7.0
100
AcDbLine
10
248.29617004462187
20
675.1447143554688
11
268.0951599179219
21
694.9437042286687
0
LINE
5
14D
100
AcDbEntity
8
0
62
7.0
100
AcDbLine
10
268.0951599179219
20
655.3457244822688
11
248.29617004462187
21
675.1447143554688
0
ARC
5
14E
100
AcDbEntity
8
0
62
7.0
100
AcDbCircle
10
260.3810729980469
20
796.192813109675
40
28.0
50
-135.0
51
-45.0
0
LINE
5
14F
100
AcDbEntity
8
0
62
7.0
100
AcDbLine
10
260.3810729980469
20
796.192813109675
11
280.1800628712469
21
776.393823236375
0
LINE
5
150
100
AcDbEntity
8
0
62
7.0
100
AcDbLine
10
240.5820831248469
20
776.3938232363749
11
260.3810729980469
21
796.192813109675
0
ARC
5
151
100
AcDbEntity
8
0
62
7.0
100
AcDbCircle
10
266.11266784735625
20
415.9192504882813
40
28.0
50
-45.0
51
45.0
0
LINE
5
152
100
AcDbEntity
8
0
62
7.0
100
AcDbLine
10
266.11266784735625
20
415.9192504882813
11
285.91165772065625
21
435.7182403614813
0
LINE
5
153
100
AcDbEntity
8
0
62
7.0
100
AcDbLine
10
285.91165772065625
20
396.1202606150813
11
266.11266784735625
21
415.9192504882813
0
ARC
5
154
100
AcDbEntity
8
0
62
7.0
100
AcDbCircle
10
296.550723265925
20
881.144287109375
40
28.0
50
135.0
51
225.0
0
LINE
5
155
100
AcDbEntity
8
0
62
7.0
100
AcDbLine
10
296.550723265925
20
881.144287109375
11
276.751733392625
21
861.345297236175
0
LINE
5
156
100
AcDbEntity
8
0
62
7.0
100
AcDbLine
10
276.751733392625
20
900.943276982575
11
296.550723265925
21
881.144287109375
0
ARC
5
157
100
AcDbEntity
8
0
62
7.0
100
AcDbCircle
10
264.4367034918875
20
792.2840576171875
40
28.0
50
-45.0
51
45.0
0
LINE
5
158
100
AcDbEntity
8
0
62
7.0
100
AcDbLine
10
264.4367034918875
20
792.2840576171875
11
284.2356933651875
21
812.0830474903875
0
LINE
5
159
100
AcDbEntity
8
0
62
7.0
100
AcDbLine
10
284.2356933651875
20
772.4850677439875
11
264.4367034918875
21
792.2840576171875
0
ARC
5
15A
100
AcDbEntity
8
0
62
7.0
100
AcDbCircle
10
266.4309661872
20
500.0148620605469
40
28.0
50
-45.0
51
45.0
0
LINE
5
15B
100
AcDbEntity
8
0
62
7.0
100
AcDbLine
10
266.4309661872
20
500.0148620605469
11
286.2299560605
21
519.8138519337468
0
LINE
5
15C
100
AcDbEntity
8
0
62
7.0
100
AcDbLine
10
286.2299560605
20
480.21587218734686
11
266.4309661872
21
500.0148620605469
0
ARC
5
15D
100
AcDbEntity
8
0
62
7.0
100
AcDbCircle
10
239.5062255859375
20
873.0982635504813
40
28.0
50
45.0
51
135.0
0
LINE
5
15E
100
AcDbEntity
8
0
62
7.0
100
AcDbLine
10
239.5062255859375
20
873.0982635504813
11
219.70723571273749
21
892.8972534237812
0
LINE
5
15F
100
AcDbEntity
8
0
62
7.0
100
AcDbLine
10
259.3052154591375
20
892.8972534237812
11
239.5062255859375
21
873.0982635504813
0
ARC
5
160
100
AcDbEntity
8
0
62
7.0
100
AcDbCircle
10
263.22008972235625
20
607.9532470703125
40
28.0
50
-45.0
51
45.0
0
LINE
5
161
100
AcDbEntity
8
0
62
7.0
100
AcDbLine
10
263.22008972235625
20
607.9532470703125
11
283.01907959565625
21
627.7522369435125
0
LINE
5
162
100
AcDbEntity
8
0
62
7.0
100
AcDbLine
10
283.01907959565625
20
588.1542571971125
11
263.22008972235625
21
607.9532470703125
0
ARC
5
163
100
AcDbEntity
8
0
62
7.0
100
AcDbCircle
10
265.955136109075
20
295.3421936035156
40
28.0
50
-45.0
51
45.0
0
LINE
5
164
100
AcDbEntity
8
0
62
7.0
100
AcDbLine
10
265.955136109075
20
295.3421936035156
11
285.754125982375
21
315.14118347671564
0
LINE
5
165
100
AcDbEntity
8
0
62
7.0
100
AcDbLine
10
285.754125982375
20
275.5432037303156
11
265.955136109075
21
295.3421936035156
0
ARC
5
166
100
AcDbEntity
8
0
62
7.0
100
AcDbCircle
10
296.1579925530344
20
641.2249755859375
40
28.0
50
135.0
51
225.0
0
LINE
5
167
100
AcDbEntity
8
0
62
7.0
100
AcDbLine
10
296.1579925530344
20
641.2249755859375
11
276.3590026797344
21
621.4259857127375
0
LINE
5
168
100
AcDbEntity
8
0
62
7.0
100
AcDbLine
10
276.3590026797344
20
661.0239654591375
11
296.1579925530344
21
641.2249755859375
0
ARC
5
169
100
AcDbEntity
8
0
62
7.0
100
AcDbCircle
10
263.4745452887625
20
699.8779907226563
40
28.0
50
-45.0
51
45.0
0
LINE
5
16A
100
AcDbEntity
8
0
62
7.0
100
AcDbLine
10
263.4745452887625
20
699.8779907226563
11
283.2735351620625
21
719.6769805958562
0
LINE
5
16B
100
AcDbEntity
8
0
62
7.0
100
AcDbLine
10
283.2735351620625
20
680.0790008494563
11
263.4745452887625
21
699.8779907226563
0
ARC
5
16C
100
AcDbEntity
8
0
62
7.0
100
AcDbCircle
10
276.7038848883719
20
565.2604370117188
40
28.0
50
-45.0
51
45.0
0
LINE
5
16D
100
AcDbEntity
8
0
62
7.0
100
AcDbLine
10
276.7038848883719
20
565.2604370117188
11
296.5028747616719
21
585.0594268849187
0
LINE
5
16E
100
AcDbEntity
8
0
62
7.0
100
AcDbLine
10
296.5028747616719
20
545.4614471385188
11
276.7038848883719
21
565.2604370117188
0
ARC
5
16F
100
AcDbEntity
8
0
62
7.0
100
AcDbCircle
10
293.9764709472656
20
643.5500457770438
40
28.0
50
45.0
51
135.0
0
LINE
5
170
100
AcDbEntity
8
0
62
7.0
100
AcDbLine
10
293.9764709472656
20
643.5500457770438
11
274.1774810740656
21
663.3490356503437
0
LINE
5
171
100
AcDbEntity
8
0
62
7.0
100
AcDbLine
10
313.77546082046564
20
663.3490356503437
11
293.9764709472656
21
643.5500457770438
0
ARC
5
172
100
AcDbEntity
8
0
62
7.0
100
AcDbCircle
10
216.248291015625
20
924.1274444573312
40
28.0
50
-135.0
51
-45.0
0
LINE
5
173
100
AcDbEntity
8
0
62
7.0
100
AcDbLine
10
216.248291015625
20
924.1274444573312
11
236.04728088882501
21
904.3284545840313
0
LINE
5
174
100
AcDbEntity
8
0
62
7.0
100
AcDbLine
10
196.449301142425
20
904.3284545840312
11
216.248291015625
21
924.1274444573312
0
ARC
5
175
100
AcDbEntity
8
0
62
7.0
100
AcDbCircle
10
306.550723265925
20
334.2410888671875
40
28.0
50
135.0
51
225.0
0
LINE
5
176
100
AcDbEntity
8
0
62
7.0
100
AcDbLine
10
306.550723265925
20
334.2410888671875
11
286.751733392625
21
314.4420989939875
0
LINE
5
177
100
AcDbEntity
8
0
62
7.0
100
AcDbLine
10
286.751733392625
20
354.0400787403875
11
306.550723265925
21
334.2410888671875
0
ARC
5
178
100
AcDbEntity
8
0
62
7.0
100
AcDbCircle
10
256.0289306640625
20
895.789608765325
40
28.0
50
45.0
51
135.0
0
LINE
5
179
100
AcDbEntity
8
0
62
7.0
100
AcDbLine
10
256.0289306640625
20
895.789608765325
11
236.22994079086249
21
915.588598638625
0
LINE
5
17A
100
AcDbEntity
8
0
62
7.0
100
AcDbLine
10
275.8279205372625
20
915.588598638625
11
256.0289306640625
21
895.789608765325
0
ARC
5
17B
100
AcDbEntity
8
0
62
7.0
100
AcDbCircle
10
19.930572509765625
20
929.04413146905
40
28.0
50
-135.0
51
-45.0
0
LINE
5
17C
100
AcDbEntity
8
0
62
7.0
100
AcDbLine
10
19.930572509765625
20
929.04413146905
11
39.729562382965625
21
909.24514159575
0
LINE
5
17D
100
AcDbEntity
8
0
62
7.0
100
AcDbLine
10
0.13158263656562852
20
909.2451415957499
11
19.930572509765625
21
929.04413146905
0
ARC
5
17E
100
AcDbEntity
8
0
62
7.0
100
AcDbCircle
10
47.9060173034668
20
901.2150238043876
40
28.0
50
45.0
51
135.0
0
LINE
5
17F
100
AcDbEntity
8
0
62
7.0
100
AcDbLine
10
47.9060173034668
20
901.2150238043876
11
28.107027430266797
21
921.0140136776874
0
LINE
5
180
100
AcDbEntity
8
0
62
7.0
100
AcDbLine
10
67.7050071766668
20
921.0140136776874
11
47.9060173034668
21
901.2150238043876
0
ARC
5
181
100
AcDbEntity
8
0
62
7.0
100
AcDbCircle
10
87.7164535522461
20
901.1100433356376
40
28.0
50
45.0
51
135.0
0
LINE
5
182
100
AcDbEntity
8
0
62
7.0
100
AcDbLine
10
87.7164535522461
20
901.1100433356376
11
67.9174636790461
21
920.9090332089374
0
LINE
5
183
100
AcDbEntity
8
0
62
7.0
100
AcDbLine
10
107.5154434254461
20
920.9090332089374
11
87.7164535522461
21
901.1100433356376
0
ARC
5
184
100
AcDbEntity
8
0
62
7.0
100
AcDbCircle
10
111.56297302246094
20
952.0343048088937
40
28.0
50
-135.0
51
-45.0
0
LINE
5
185
100
AcDbEntity
8
0
62
7.0
100
AcDbLine
10
111.56297302246094
20
952.0343048088937
11
131.36196289566095
21
932.2353149355938
0
LINE
5
186
100
AcDbEntity
8
0
62
7.0
100
AcDbLine
10
91.76398314926094
20
932.2353149355937
11
111.56297302246094
21
952.0343048088937
0
ARC
5
187
100
AcDbEntity
8
0
62
7.0
100
AcDbCircle
10
127.884521484375
20
929.1268341057687
40
28.0
50
-135.0
51
-45.0
0
LINE
5
188
100
AcDbEntity
8
0
62
7.0
100
AcDbLine
10
127.884521484375
20
929.1268341057687
11
147.68351135757501
21
909.3278442324688
0
LINE
5
189
100
AcDbEntity
8
0
62
7.0
100
AcDbLine
10
108.085531611175
20
909.3278442324687
11
127.884521484375
21
929.1268341057687
0
ARC
5
18A
100
AcDbEntity
8
0
62
7.0
100
AcDbCircle
10
25.433143615722656
20
923.6864593512624
40
28.0
50
45.0
51
135.0
0
LINE
5
18B
100
AcDbEntity
8
0
62
7.0
100
AcDbLine
10
25.433143615722656
20
923.6864593512624
11
5.634153742522656
21
943.4854492245624
0
LINE
5
18C
100
AcDbEntity
8
0
62
7.0
100
AcDbLine
10
45.232133488922656
20
943.4854492245624
11
25.433143615722656
21
923.6864593512624
0
ARC
5
18D
100
AcDbEntity
8
0
62
7.0
100
AcDbCircle
10
170.3807556145578
20
925.9185791015624
40
28.0
50
135.0
51
225.0
0
LINE
5
18E
100
AcDbEntity
8
0
62
7.0
100
AcDbLine
10
170.3807556145578
20
925.9185791015624
11
150.5817657412578
21
906.1195892283624
0
LINE
5
18F
100
AcDbEntity
8
0
62
7.0
100
AcDbLine
10
150.5817657412578
20
945.7175689747623
11
170.3807556145578
21
925.9185791015624
0
ARC
5
190
100
AcDbEntity
8
0
62
7.0
100
AcDbCircle
10
216.47732543945313
20
924.041073609075
40
28.0
50
45.0
51
135.0
0
LINE
5
191
100
AcDbEntity
8
0
62
7.0
100
AcDbLine
10
216.47732543945313
20
924.041073609075
11
196.6783355662531
21
943.840063482375
0
LINE
5
192
100
AcDbEntity
8
0
62
7.0
100
AcDbLine
10
236.27631531265314
20
943.840063482375
11
216.47732543945313
21
924.041073609075
0
ARC
5
193
100
AcDbEntity
8
0
62
7.0
100
AcDbCircle
10
64.9432144165039
20
923.9205902106377
40
28.0
50
45.0
51
135.0
0
LINE
5
194
100
AcDbEntity
8
0
62
7.0
100
AcDbLine
10
64.9432144165039
20
923.9205902106377
11
45.144224543303906
21
943.7195800839377
0
LINE
5
195
100
AcDbEntity
8
0
62
7.0
100
AcDbLine
10
84.7422042897039
20
943.7195800839377
11
64.9432144165039
21
923.9205902106377
0
ARC
5
196
100
AcDbEntity
8
0
62
7.0
100
AcDbCircle
10
242.85104370117188
20
950.2730133049876
40
28.0
50
-135.0
51
-45.0
0
LINE
5
197
100
AcDbEntity
8
0
62
7.0
100
AcDbLine
10
242.85104370117188
20
950.2730133049876
11
262.6500335743719
21
930.4740234316877
0
LINE
5
198
100
AcDbEntity
8
0
62
7.0
100
AcDbLine
10
223.0520538279719
20
930.4740234316876
11
242.85104370117188
21
950.2730133049876
0
ARC
5
199
100
AcDbEntity
8
0
62
7.0
100
AcDbCircle
10
318.9106780999094
20
691.0697631835938
40
28.0
50
135.0
51
225.0
0
LINE
5
19A
100
AcDbEntity
8
0
62
7.0
100
AcDbLine
10
318.9106780999094
20
691.0697631835938
11
299.1116882266094
21
671.2707733103938
0
LINE
5
19B
100
AcDbEntity
8
0
62
7.0
100
AcDbLine
10
299.1116882266094
20
710.8687530567937
11
318.9106780999094
21
691.0697631835938
0
ARC
5
19C
100
AcDbEntity
8
0
62
7.0
100
AcDbCircle
10
273.3385894782156
20
184.18833923339844
40
28.0
50
-45.0
51
45.0
0
LINE
5
19D
100
AcDbEntity
8
0
62
7.0
100
AcDbLine
10
273.3385894782156
20
184.18833923339844
11
293.1375793515156
21
203.98732910659845
0
LINE
5
19E
100
AcDbEntity
8
0
62
7.0
100
AcDbLine
10
293.1375793515156
20
164.38934936019842
11
273.3385894782156
21
184.18833923339844
0
ARC
5
19F
100
AcDbEntity
8
0
62
7.0
100
AcDbCircle
10
313.0823699944406
20
367.6217956542969
40
28.0
50
135.0
51
225.0
0
LINE
5
1A0
100
AcDbEntity
8
0
62
7.0
100
AcDbLine
10
313.0823699944406
20
367.6217956542969
11
293.2833801211406
21
347.82280578109686
0
LINE
5
1A1
100
AcDbEntity
8
0
62
7.0
100
AcDbLine
10
293.2833801211406
20
387.4207855274969
11
313.0823699944406
21
367.6217956542969
0
ARC
5
1A2
100
AcDbEntity
8
0
62
7.0
100
AcDbCircle
10
283.3625762946219
20
473.7816162109375
40
28.0
50
-45.0
51
45.0
0
LINE
5
1A3
100
AcDbEntity
8
0
62
7.0
100
AcDbLine
10
283.3625762946219
20
473.7816162109375
11
303.1615661679219
21
493.5806060841375
0
LINE
5
1A4
100
AcDbEntity
8
0
62
7.0
100
AcDbLine
10
303.1615661679219
20
453.9826263377375
11
283.3625762946219
21
473.7816162109375
0
ARC
5
1A5
100
AcDbEntity
8
0
62
7.0
100
AcDbCircle
10
269.2878723144531
20
923.985897827825
40
28.0
50
45.0
51
135.0
0
LINE
5
1A6
100
AcDbEntity
8
0
62
7.0
100
AcDbLine
10
269.2878723144531
20
923.985897827825
11
249.4888824412531
21
943.784887701125
0
LINE
5
1A7
100
AcDbEntity
8
0
62
7.0
100
AcDbLine
10
289.08686218765314
20
943.784887701125
11
269.2878723144531
21
923.985897827825
0
ARC
5
1A8
100
AcDbEntity
8
0
62
7.0
100
AcDbCircle
10
276.94408874579375
20
860.93359375
40
28.0
50
-45.0
51
45.0
0
LINE
5
1A9
100
AcDbEntity
8
0
62
7.0
100
AcDbLine
10
276.94408874579375
20
860.93359375
11
296.74307861909375
21
880.7325836232
0
LINE
5
1AA
100
AcDbEntity
8
0
62
7.0
100
AcDbLine
10
296.74307861909375
20
841.1346038768
11
276.94408874579375
21
860.93359375
0
ARC
5
1AB
100
AcDbEntity
8
0
62
7.0
100
AcDbCircle
10
172.35838317871094
20
924.0927093512624
40
28.0
50
45.0
51
135.0
0
LINE
5
1AC
100
AcDbEntity
8
0
62
7.0
100
AcDbLine
10
172.35838317871094
20
924.0927093512624
11
152.55939330551092
21
943.8916992245624
0
LINE
5
1AD
100
AcDbEntity
8
0
62
7.0
100
AcDbLine
10
192.15737305191095
20
943.8916992245624
11
172.35838317871094
21
924.0927093512624
0
ARC
5
1AE
100
AcDbEntity
8
0
62
7.0
100
AcDbCircle
10
280.237362671575
20
729.8848876953125
40
28.0
50
-45.0
51
45.0
0
LINE
5
1AF
100
AcDbEntity
8
0
62
7.0
100
AcDbLine
10
280.237362671575
20
729.8848876953125
11
300.036352544875
21
749.6838775685125
0
LINE
5
1B0
100
AcDbEntity
8
0
62
7.0
100
AcDbLine
10
300.036352544875
20
710.0858978221125
11
280.237362671575
21
729.8848876953125
0
ARC
5
1B1
100
AcDbEntity
8
0
62
7.0
100
AcDbCircle
10
307.1038238518625
20
828.6166381835938
40
28.0
50
135.0
51
225.0
0
LINE
5
1B2
100
AcDbEntity
8
0
62
7.0
100
AcDbLine
10
307.1038238518625
20
828.6166381835938
11
287.3048339785625
21
808.8176483103938
0
LINE
5
1B3
100
AcDbEntity
8
0
62
7.0
100
AcDbLine
10
287.3048339785625
20
848.4156280567937
11
307.1038238518625
21
828.6166381835938
0
ARC
5
1B4
100
AcDbEntity
8
0
62
7.0
100
AcDbCircle
10
312.79211730889375
20
762.583740234375
40
28.0
50
135.0
51
225.0
0
LINE
5
1B5
100
AcDbEntity
8
0
62
7.0
100
AcDbLine
10
312.79211730889375
20
762.583740234375
11
292.99312743559375
21
742.784750361175
0
LINE
5
1B6
100
AcDbEntity
8
0
62
7.0
100
AcDbLine
10
292.99312743559375
20
782.382730107575
11
312.79211730889375
21
762.583740234375
0
ARC
5
1B7
100
AcDbEntity
8
0
62
7.0
100
AcDbCircle
10
328.3763153069406
20
20.0740909576416
40
28.0
50
135.0
51
225.0
0
LINE
5
1B8
100
AcDbEntity
8
0
62
7.0
100
AcDbLine
10
328.3763153069406
20
20.0740909576416
11
308.5773254336406
21
0.27510108444160153
0
LINE
5
1B9
100
AcDbEntity
8
0
62
7.0
100
AcDbLine
10
308.5773254336406
20
39.8730808308416
11
328.3763153069406
21
20.0740909576416
0
ARC
5
1BA
100
AcDbEntity
8
0
62
7.0
100
AcDbCircle
10
319.7055389397531
20
268.8352355957031
40
28.0
50
135.0
51
225.0
0
LINE
5
1BB
100
AcDbEntity
8
0
62
7.0
100
AcDbLine
10
319.7055389397531
20
268.8352355957031
11
299.9065490664531
21
249.0362457225031
0
LINE
5
1BC
100
AcDbEntity
8
0
62
7.0
100
AcDbLine
10
299.9065490664531
20
288.63422546890314
11
319.7055389397531
21
268.8352355957031
0
ARC
5
1BD
100
AcDbEntity
8
0
62
7.0
100
AcDbCircle
10
313.9929840081125
20
223.0109710693359
40
28.0
50
135.0
51
225.0
0
LINE
5
1BE
100
AcDbEntity
8
0
62
7.0
100
AcDbLine
10
313.9929840081125
20
223.0109710693359
11
294.1939941348125
21
203.21198119613592
0
LINE
5
1BF
100
AcDbEntity
8
0
62
7.0
100
AcDbLine
10
294.1939941348125
20
242.8099609425359
11
313.9929840081125
21
223.0109710693359
0
ARC
5
1C0
100
AcDbEntity
8
0
62
7.0
100
AcDbCircle
10
322.17090148858125
20
894.1065063476563
40
28.0
50
135.0
51
225.0
0
LINE
5
1C1
100
AcDbEntity
8
0
62
7.0
100
AcDbLine
10
322.17090148858125
20
894.1065063476563
11
302.37191161528125
21
874.3075164744563
0
LINE
5
1C2
100
AcDbEntity
8
0
62
7.0
100
AcDbLine
10
302.37191161528125
20
913.9054962208562
11
322.17090148858125
21
894.1065063476563
0
ARC
5
1C3
100
AcDbEntity
8
0
62
7.0
100
AcDbCircle
10
293.96288757391875
20
346.9750061035156
40
28.0
50
-45.0
51
45.0
0
LINE
5
1C4
100
AcDbEntity
8
0
62
7.0
100
AcDbLine
10
293.96288757391875
20
346.9750061035156
11
313.76187744721875
21
366.77399597671564
0
LINE
5
1C5
100
AcDbEntity
8
0
62
7.0
100
AcDbLine
10
313.76187744721875
20
327.1760162303156
11
293.96288757391875
21
346.9750061035156
0
ARC
5
1C6
100
AcDbEntity
8
0
62
7.0
100
AcDbCircle
10
305.23114013671875
20
375.6458404547781
40
28.0
50
45.0
51
135.0
0
LINE
5
1C7
100
AcDbEntity
8
0
62
7.0
100
AcDbLine
10
305.23114013671875
20
375.6458404547781
11
285.43215026351874
21
395.4448303280781
0
LINE
5
1C8
100
AcDbEntity
8
0
62
7.0
100
AcDbLine
10
325.03013000991876
20
395.4448303280781
11
305.23114013671875
21
375.6458404547781
0
ARC
5
1C9
100
AcDbEntity
8
0
62
7.0
100
AcDbCircle
10
278.78063659735625
20
527.5765380859375
40
28.0
50
-45.0
51
45.0
0
LINE
5
1CA
100
AcDbEntity
8
0
62
7.0
100
AcDbLine
10
278.78063659735625
20
527.5765380859375
11
298.57962647065625
21
547.3755279591375
0
LINE
5
1CB
100
AcDbEntity
8
0
62
7.0
100
AcDbLine
10
298.57962647065625
20
507.7775482127375
11
278.78063659735625
21
527.5765380859375
0
ARC
5
1CC
100
AcDbEntity
8
0
62
7.0
100
AcDbCircle
10
304.11602783203125
20
417.8319976813406
40
28.0
50
45.0
51
135.0
0
LINE
5
1CD
100
AcDbEntity
8
0
62
7.0
100
AcDbLine
10
304.11602783203125
20
417.8319976813406
11
284.31703795883124
21
437.6309875546406
0
LINE
5
1CE
100
AcDbEntity
8
0
62
7.0
100
AcDbLine
10
323.91501770523126
20
437.6309875546406
11
304.11602783203125
21
417.8319976813406
0
ARC
5
1CF
100
AcDbEntity
8
0
62
7.0
100
AcDbCircle
10
287.9696929938406
20
593.9179077148438
40
28.0
50
-45.0
51
45.0
0
LINE
5
1D0
100
AcDbEntity
8
0
62
7.0
100
AcDbLine
10
287.9696929938406
20
593.9179077148438
11
307.7686828671406
21
613.7168975880437
0
LINE
5
1D1
100
AcDbEntity
8
0
62
7.0
100
AcDbLine
10
307.7686828671406
20
574.1189178416438
11
287.9696929938406
21
593.9179077148438
0
ARC
5
1D2
100
AcDbEntity
8
0
62
7.0
100
AcDbCircle
10
320.6471282952219
20
307.8148193359375
40
28.0
50
135.0
51
225.0
0
LINE
5
1D3
100
AcDbEntity
8
0
62
7.0
100
AcDbLine
10
320.6471282952219
20
307.8148193359375
11
300.8481384219219
21
288.0158294627375
0
LINE
5
1D4
100
AcDbEntity
8
0
62
7.0
100
AcDbLine
10
300.8481384219219
20
327.6138092091375
11
320.6471282952219
21
307.8148193359375
0
ARC
5
1D5
100
AcDbEntity
8
0
62
7.0
100
AcDbCircle
10
303.9127838128
20
915.5931396484376
40
28.0
50
135.0
51
225.0
0
LINE
5
1D6
100
AcDbEntity
8
0
62
7.0
100
AcDbLine
10
303.9127838128
20
915.5931396484376
11
284.1137939395
21
895.7941497752377
0
LINE
5
1D7
100
AcDbEntity
8
0
62
7.0
100
AcDbLine
10
284.1137939395
20
935.3921295216376
11
303.9127838128
21
915.5931396484376
0
ARC
5
1D8
100
AcDbEntity
8
0
62
7.0
100
AcDbCircle
10
328.382266234675
20
59.824161529541016
40
28.0
50
135.0
51
225.0
0
LINE
5
1D9
100
AcDbEntity
8
0
62
7.0
100
AcDbLine
10
328.382266234675
20
59.824161529541016
11
308.583276361375
21
40.025171656341016
0
LINE
5
1DA
100
AcDbEntity
8
0
62
7.0
100
AcDbLine
10
308.583276361375
20
79.62315140274102
11
328.382266234675
21
59.824161529541016
0
ARC
5
1DB
100
AcDbEntity
8
0
62
7.0
100
AcDbCircle
10
327.5515472405344
20
931.0001220703124
40
28.0
50
135.0
51
225.0
0
LINE
5
1DC
100
AcDbEntity
8
0
62
7.0
100
AcDbLine
10
327.5515472405344
20
931.0001220703124
11
307.7525573672344
21
911.2011321971124
0
LINE
5
1DD
100
AcDbEntity
8
0
62
7.0
100
AcDbLine
10
307.7525573672344
20
950.7991119435123
11
327.5515472405344
21
931.0001220703124
0
ARC
5
1DE
100
AcDbEntity
8
0
62
7.0
100
AcDbCircle
10
296.5277984625906
20
200.15866088867188
40
28.0
50
-45.0
51
45.0
0
LINE
5
1DF
100
AcDbEntity
8
0
62
7.0
100
AcDbLine
10
296.5277984625906
20
200.15866088867188
11
316.3267883358906
21
219.9576507618719
0
LINE
5
1E0
100
AcDbEntity
8
0
62
7.0
100
AcDbLine
10
316.3267883358906
20
180.35967101547186
11
296.5277984625906
21
200.15866088867188
0
ARC
5
1E1
100
AcDbEntity
8
0
62
7.0
100
AcDbCircle
10
134.22003173828125
20
929.5286224372
40
28.0
50
45.0
51
135.0
0
LINE
5
1E2
100
AcDbEntity
8
0
62
7.0
100
AcDbLine
10
134.22003173828125
20
929.5286224372
11
114.42104186508125
21
949.3276123105
0
LINE
5
1E3
100
AcDbEntity
8
0
62
7.0
100
AcDbLine
10
154.01902161148126
20
949.3276123105
11
134.22003173828125
21
929.5286224372
0
ARC
5
1E4
100
AcDbEntity
8
0
62
7.0
100
AcDbCircle
10
298.7167022711844
20
547.5528564453125
40
28.0
50
-45.0
51
45.0
0
LINE
5
1E5
100
AcDbEntity
8
0
62
7.0
100
AcDbLine
10
298.7167022711844
20
547.5528564453125
11
318.5156921444844
21
567.3518463185125
0
LINE
5
1E6
100
AcDbEntity
8
0
62
7.0
100
AcDbLine
10
318.5156921444844
20
527.7538665721125
11
298.7167022711844
21
547.5528564453125
0
ARC
5
1E7
100
AcDbEntity
8
0
62
7.0
100
AcDbCircle
10
291.5382354743094
20
109.82379913330078
40
28.0
50
-45.0
51
45.0
0
LINE
5
1E8
100
AcDbEntity
8
0
62
7.0
100
AcDbLine
10
291.5382354743094
20
109.82379913330078
11
311.3372253476094
21
129.6227890065008
0
LINE
5
1E9
100
AcDbEntity
8
0
62
7.0
100
AcDbLine
10
311.3372253476094
20
90.02480926010078
11
291.5382354743094
21
109.82379913330078
0
ARC
5
1EA
100
AcDbEntity
8
0
62
7.0
100
AcDbCircle
10
177.54791259765625
20
929.12713928155
40
28.0
50
-135.0
51
-45.0
0
LINE
5
1EB
100
AcDbEntity
8
0
62
7.0
100
AcDbLine
10
177.54791259765625
20
929.12713928155
11
197.34690247085626
21
909.32814940825
0
LINE
5
1EC
100
AcDbEntity
8
0
62
7.0
100
AcDbLine
10
157.74892272445626
20
909.3281494082499
11
177.54791259765625
21
929.12713928155
0
ARC
5
1ED
100
AcDbEntity
8
0
62
7.0
100
AcDbCircle
10
302.89013671875
20
647.7879669182687
40
28.0
50
-135.0
51
-45.0
0
LINE
5
1EE
100
AcDbEntity
8
0
62
7.0
100
AcDbLine
10
302.89013671875
20
647.7879669182687
11
322.68912659195
21
627.9889770449688
0
LINE
5
1EF
100
AcDbEntity
8
0
62
7.0
100
AcDbLine
10
283.09114684555
20
627.9889770449687
11
302.89013671875
21
647.7879669182687
0
ARC
5
1F0
100
AcDbEntity
8
0
62
7.0
100
AcDbCircle
10
287.2704437262625
20
145.3008575439453
40
28.0
50
-45.0
51
45.0
0
LINE
5
1F1
100
AcDbEntity
8
0
62
7.0
100
AcDbLine
10
287.2704437262625
20
145.3008575439453
11
307.0694335995625
21
165.09984741714533
0
LINE
5
1F2
100
AcDbEntity
8
0
62
7.0
100
AcDbLine
10
307.0694335995625
20
125.50186767074531
11
287.2704437262625
21
145.3008575439453
0
ARC
5
1F3
100
AcDbEntity
8
0
62
7.0
100
AcDbCircle
10
294.6849365234375
20
938.3341644293877
40
28.0
50
45.0
51
135.0
0
LINE
5
1F4
100
AcDbEntity
8
0
62
7.0
100
AcDbLine
10
294.6849365234375
20
938.3341644293877
11
274.8859466502375
21
958.1331543026877
0
LINE
5
1F5
100
AcDbEntity
8
0
62
7.0
100
AcDbLine
10
314.4839263966375
20
958.1331543026877
11
294.6849365234375
21
938.3341644293877
0
ARC
5
1F6
100
AcDbEntity
8
0
62
7.0
100
AcDbCircle
10
315.21295166015625
20
261.5437957756906
40
28.0
50
-135.0
51
-45.0
0
LINE
5
1F7
100
AcDbEntity
8
0
62
7.0
100
AcDbLine
10
315.21295166015625
20
261.5437957756906
11
335.01194153335626
21
241.74480590239062
0
LINE
5
1F8
100
AcDbEntity
8
0
62
7.0
100
AcDbLine
10
295.41396178695624
20
241.74480590239062
11
315.21295166015625
21
261.5437957756906
0
ARC
5
1F9
100
AcDbEntity
8
0
62
7.0
100
AcDbCircle
10
320.4602386467844
20
794.8268432617188
40
28.0
50
135.0
51
225.0
0
LINE
5
1FA
100
AcDbEntity
8
0
62
7.0
100
AcDbLine
10
320.4602386467844
20
794.8268432617188
11
300.6612487734844
21
775.0278533885188
0
LINE
5
1FB
100
AcDbEntity
8
0
62
7.0
100
AcDbLine
10
300.6612487734844
20
814.6258331349187
11
320.4602386467844
21
794.8268432617188
0
ARC
5
1FC
100
AcDbEntity
8
0
62
7.0
100
AcDbCircle
10
305.4226959235281
20
82.92762756347656
40
28.0
50
-45.0
51
45.0
0
LINE
5
1FD
100
AcDbEntity
8
0
62
7.0
100
AcDbLine
10
305.4226959235281
20
82.92762756347656
11
325.2216857968281
21
102.72661743667656
0
LINE
5
1FE
100
AcDbEntity
8
0
62
7.0
100
AcDbLine
10
325.2216857968281
20
63.12863769027656
11
305.4226959235281
21
82.92762756347656
0
ARC
5
1FF
100
AcDbEntity
8
0
62
7.0
100
AcDbCircle
10
19.937028884887695
20
979.4509307854562
40
28.0
50
-135.0
51
-45.0
0
LINE
5
200
100
AcDbEntity
8
0
62
7.0
100
AcDbLine
10
19.937028884887695
20
979.4509307854562
11
39.736018758087695
21
959.6519409121563
0
LINE
5
201
100
AcDbEntity
8
0
62
7.0
100
AcDbLine
10
0.13803901168769883
20
959.6519409121562
11
19.937028884887695
21
979.4509307854562
0
ARC
5
202
100
AcDbEntity
8
0
62
7.0
100
AcDbCircle
10
320.58001708984375
20
794.8040191643624
40
28.0
50
-135.0
51
-45.0
0
LINE
5
203
100
AcDbEntity
8
0
62
7.0
100
AcDbLine
10
320.58001708984375
20
794.8040191643624
11
340.37900696304376
21
775.0050292910626
0
LINE
5
204
100
AcDbEntity
8
0
62
7.0
100
AcDbLine
10
300.78102721664374
20
775.0050292910624
11
320.58001708984375
21
794.8040191643624
0
ARC
5
205
100
AcDbEntity
8
0
62
7.0
100
AcDbCircle
10
297.04821472235625
20
818.3943481445313
40
28.0
50
-45.0
51
45.0
0
LINE
5
206
100
AcDbEntity
8
0
62
7.0
100
AcDbLine
10
297.04821472235625
20
818.3943481445313
11
316.84720459565625
21
838.1933380177312
0
LINE
5
207
100
AcDbEntity
8
0
62
7.0
100
AcDbLine
10
316.84720459565625
20
798.5953582713313
11
297.04821472235625
21
818.3943481445313
0
ARC
5
208
100
AcDbEntity
8
0
62
7.0
100
AcDbCircle
10
70.26013946533203
20
951.4988983161063
40
28.0
50
45.0
51
135.0
0
LINE
5
209
100
AcDbEntity
8
0
62
7.0
100
AcDbLine
10
70.26013946533203
20
951.4988983161063
11
50.46114959213203
21
971.2978881894062
0
LINE
5
20A
100
AcDbEntity
8
0
62
7.0
100
AcDbLine
10
90.05912933853203
20
971.2978881894062
11
70.26013946533203
21
951.4988983161063
0
ARC
5
20B
100
AcDbEntity
8
0
62
7.0
100
AcDbCircle
10
92.01815032958984
20
972.9801666253
40
28.0
50
-135.0
51
-45.0
0
LINE
5
20C
100
AcDbEntity
8
0
62
7.0
100
AcDbLine
10
92.01815032958984
20
972.9801666253
11
111.81714020278984
21
953.181176752
0
LINE
5
20D
100
AcDbEntity
8
0
62
7.0
100
AcDbLine
10
72.21916045638984
20
953.1811767519999
11
92.01815032958984
21
972.9801666253
0
ARC
5
20E
100
AcDbEntity
8
0
62
7.0
100
AcDbCircle
10
338.1354400628
20
461.97265625
40
28.0
50
135.0
51
225.0
0
LINE
5
20F
100
AcDbEntity
8
0
62
7.0
100
AcDbLine
10
338.1354400628
20
461.97265625
11
318.3364501895
21
442.1736663768
0
LINE
5
210
100
AcDbEntity
8
0
62
7.0
100
AcDbLine
10
318.3364501895
20
481.7716461232
11
338.1354400628
21
461.97265625
0
ARC
5
211
100
AcDbEntity
8
0
62
7.0
100
AcDbCircle
10
300.87963562079375
20
287.80987548828125
40
28.0
50
-45.0
51
45.0
0
LINE
5
212
100
AcDbEntity
8
0
62
7.0
100
AcDbLine
10
300.87963562079375
20
287.80987548828125
11
320.67862549409375
21
307.60886536148126
0
LINE
5
213
100
AcDbEntity
8
0
62
7.0
100
AcDbLine
10
320.67862549409375
20
268.01088561508124
11
300.87963562079375
21
287.80987548828125
0
ARC
5
214
100
AcDbEntity
8
0
62
7.0
100
AcDbCircle
10
181.43885803222656
20
979.4502593987376
40
28.0
50
-135.0
51
-45.0
0
LINE
5
215
100
AcDbEntity
8
0
62
7.0
100
AcDbLine
10
181.43885803222656
20
979.4502593987376
11
201.23784790542658
21
959.6512695254377
0
LINE
5
216
100
AcDbEntity
8
0
62
7.0
100
AcDbLine
10
161.63986815902658
20
959.6512695254376
11
181.43885803222656
21
979.4502593987376
0
ARC
5
217
100
AcDbEntity
8
0
62
7.0
100
AcDbCircle
10
308.9409454352469
20
39.660255432128906
40
28.0
50
-45.0
51
45.0
0
LINE
5
218
100
AcDbEntity
8
0
62
7.0
100
AcDbLine
10
308.9409454352469
20
39.660255432128906
11
328.7399353085469
21
59.459245305328906
0
LINE
5
219
100
AcDbEntity
8
0
62
7.0
100
AcDbLine
10
328.7399353085469
20
19.861265558928906
11
308.9409454352469
21
39.660255432128906
0
ARC
5
21A
100
AcDbEntity
8
0
62
7.0
100
AcDbCircle
10
222.53561401367188
20
951.4620941168877
40
28.0
50
45.0
51
135.0
0
LINE
5
21B
100
AcDbEntity
8
0
62
7.0
100
AcDbLine
10
222.53561401367188
20
951.4620941168877
11
202.73662414047186
21
971.2610839901877
0
LINE
5
21C
100
AcDbEntity
8
0
62
7.0
100
AcDbLine
10
242.3346038868719
20
971.2610839901877
11
222.53561401367188
21
951.4620941168877
0
ARC
5
21D
100
AcDbEntity
8
0
62
7.0
100
AcDbCircle
10
320.0963134765625
20
690.0310028082938
40
28.0
50
45.0
51
135.0
0
LINE
5
21E
100
AcDbEntity
8
0
62
7.0
100
AcDbLine
10
320.0963134765625
20
690.0310028082938
11
300.2973236033625
21
709.8299926815937
0
LINE
5
21F
100
AcDbEntity
8
0
62
7.0
100
AcDbLine
10
339.8953033497625
20
709.8299926815937
11
320.0963134765625
21
690.0310028082938
0
ARC
5
220
100
AcDbEntity
8
0
62
7.0
100
AcDbCircle
10
312.52196960516875
20
960.2833251953124
40
28.0
50
-45.0
51
45.0
0
LINE
5
221
100
AcDbEntity
8
0
62
7.0
100
AcDbLine
10
312.52196960516875
20
960.2833251953124
11
332.32095947846875
21
980.0823150685123
0
LINE
5
222
100
AcDbEntity
8
0
62
7.0
100
AcDbLine
10
332.32095947846875
20
940.4843353221124
11
312.52196960516875
21
960.2833251953124
0
ARC
5
223
100
AcDbEntity
8
0
62
7.0
100
AcDbCircle
10
113.01297760009766
20
952.1274383551688
40
28.0
50
45.0
51
135.0
0
LINE
5
224
100
AcDbEntity
8
0
62
7.0
100
AcDbLine
10
113.01297760009766
20
952.1274383551688
11
93.21398772689766
21
971.9264282284687
0
LINE
5
225
100
AcDbEntity
8
0
62
7.0
100
AcDbLine
10
132.81196747329767
20
971.9264282284687
11
113.01297760009766
21
952.1274383551688
0
ARC
5
226
100
AcDbEntity
8
0
62
7.0
100
AcDbCircle
10
332.5651275628
20
854.0543823242188
40
28.0
50
135.0
51
225.0
0
LINE
5
227
100
AcDbEntity
8
0
62
7.0
100
AcDbLine
10
332.5651275628
20
854.0543823242188
11
312.7661376895
21
834.2553924510188
0
LINE
5
228
100
AcDbEntity
8
0
62
7.0
100
AcDbLine
10
312.7661376895
20
873.8533721974187
11
332.5651275628
21
854.0543823242188
0
ARC
5
229
100
AcDbEntity
8
0
62
7.0
100
AcDbCircle
10
308.99059753485625
20
319.6169738769531
40
28.0
50
-45.0
51
45.0
0
LINE
5
22A
100
AcDbEntity
8
0
62
7.0
100
AcDbLine
10
308.99059753485625
20
319.6169738769531
11
328.78958740815625
21
339.41596375015314
0
LINE
5
22B
100
AcDbEntity
8
0
62
7.0
100
AcDbLine
10
328.78958740815625
20
299.8179840037531
11
308.99059753485625
21
319.6169738769531
0
ARC
5
22C
100
AcDbEntity
8
0
62
7.0
100
AcDbCircle
10
304.2854888922781
20
416.2462463378906
40
28.0
50
-45.0
51
45.0
0
LINE
5
22D
100
AcDbEntity
8
0
62
7.0
100
AcDbLine
10
304.2854888922781
20
416.2462463378906
11
324.0844787655781
21
436.04523621109064
0
LINE
5
22E
100
AcDbEntity
8
0
62
7.0
100
AcDbLine
10
324.0844787655781
20
396.4472564646906
11
304.2854888922781
21
416.2462463378906
0
ARC
5
22F
100
AcDbEntity
8
0
62
7.0
100
AcDbCircle
10
342.4879486077219
20
154.982421875
40
28.0
50
135.0
51
225.0
0
LINE
5
230
100
AcDbEntity
8
0
62
7.0
100
AcDbLine
10
342.4879486077219
20
154.982421875
11
322.6889587344219
21
135.18343200179999
0
LINE
5
231
100
AcDbEntity
8
0
62
7.0
100
AcDbLine
10
322.6889587344219
20
174.78141174820001
11
342.4879486077219
21
154.982421875
0
ARC
5
232
100
AcDbEntity
8
0
62
7.0
100
AcDbCircle
10
333.40936584405
20
498.964599609375
40
28.0
50
135.0
51
225.0
0
LINE
5
233
100
AcDbEntity
8
0
62
7.0
100
AcDbLine
10
333.40936584405
20
498.964599609375
11
313.61037597075
21
479.165609736175
0
LINE
5
234
100
AcDbEntity
8
0
62
7.0
100
AcDbLine
10
313.61037597075
20
518.763589482575
11
333.40936584405
21
498.964599609375
0
ARC
5
235
100
AcDbEntity
8
0
62
7.0
100
AcDbCircle
10
306.65673523016875
20
739.43994140625
40
28.0
50
-45.0
51
45.0
0
LINE
5
236
100
AcDbEntity
8
0
62
7.0
100
AcDbLine
10
306.65673523016875
20
739.43994140625
11
326.45572510346875
21
759.23893127945
0
LINE
5
237
100
AcDbEntity
8
0
62
7.0
100
AcDbLine
10
326.45572510346875
20
719.64095153305
11
306.65673523016875
21
739.43994140625
0
ARC
5
238
100
AcDbEntity
8
0
62
7.0
100
AcDbCircle
10
318.1419952399344
20
118.8218231201172
40
28.0
50
-45.0
51
45.0
0
LINE
5
239
100
AcDbEntity
8
0
62
7.0
100
AcDbLine
10
318.1419952399344
20
118.8218231201172
11
337.9409851132344
21
138.6208129933172
0
LINE
5
23A
100
AcDbEntity
8
0
62
7.0
100
AcDbLine
10
337.9409851132344
20
99.0228332469172
11
318.1419952399344
21
118.8218231201172
0
ARC
5
23B
100
AcDbEntity
8
0
62
7.0
100
AcDbCircle
10
261.5844421386719
20
952.1646698004813
40
28.0
50
45.0
51
135.0
0
LINE
5
23C
100
AcDbEntity
8
0
62
7.0
100
AcDbLine
10
261.5844421386719
20
952.1646698004813
11
241.78545226547186
21
971.9636596737812
0
LINE
5
23D
100
AcDbEntity
8
0
62
7.0
100
AcDbLine
10
281.3834320118719
20
971.9636596737812
11
261.5844421386719
21
952.1646698004813
0
ARC
5
23E
100
AcDbEntity
8
0
62
7.0
100
AcDbCircle
10
315.736874390325
20
570.445068359375
40
28.0
50
-45.0
51
45.0
0
LINE
5
23F
100
AcDbEntity
8
0
62
7.0
100
AcDbLine
10
315.736874390325
20
570.445068359375
11
335.535864263625
21
590.244058232575
0
LINE
5
240
100
AcDbEntity
8
0
62
7.0
100
AcDbLine
10
335.535864263625
20
550.646078486175
11
315.736874390325
21
570.445068359375
0
ARC
5
241
100
AcDbEntity
8
0
62
7.0
100
AcDbCircle
10
303.7771881110281
20
673.4927368164063
40
28.0
50
-45.0
51
45.0
0
LINE
5
242
100
AcDbEntity
8
0
62
7.0
100
AcDbLine
10
303.7771881110281
20
673.4927368164063
11
323.5761779843281
21
693.2917266896062
0
LINE
5
243
100
AcDbEntity
8
0
62
7.0
100
AcDbLine
10
323.5761779843281
20
653.6937469432063
11
303.7771881110281
21
673.4927368164063
0
ARC
5
244
100
AcDbEntity
8
0
62
7.0
100
AcDbCircle
10
352.7670623772531
20
824.256591796875
40
28.0
50
135.0
51
225.0
0
LINE
5
245
100
AcDbEntity
8
0
62
7.0
100
AcDbLine
10
352.7670623772531
20
824.256591796875
11
332.9680725039531
21
804.457601923675
0
LINE
5
246
100
AcDbEntity
8
0
62
7.0
100
AcDbLine
10
332.9680725039531
20
844.055581670075
11
352.7670623772531
21
824.256591796875
0
ARC
5
247
100
AcDbEntity
8
0
62
7.0
100
AcDbCircle
10
315.45470886298125
20
261.4460754394531
40
28.0
50
-45.0
51
45.0
0
LINE
5
248
100
AcDbEntity
8
0
62
7.0
100
AcDbLine
10
315.45470886298125
20
261.4460754394531
11
335.25369873628125
21
281.24506531265314
0
LINE
5
249
100
AcDbEntity
8
0
62
7.0
100
AcDbLine
10
335.25369873628125
20
241.6470855662531
11
315.45470886298125
21
261.4460754394531
0
ARC
5
24A
100
AcDbEntity
8
0
62
7.0
100
AcDbCircle
10
325.7763977050781
20
394.67163391045625
40
28.0
50
-135.0
51
-45.0
0
LINE
5
24B
100
AcDbEntity
8
0
62
7.0
100
AcDbLine
10
325.7763977050781
20
394.67163391045625
11
345.57538757827814
21
374.87264403715625
0
LINE
5
24C
100
AcDbEntity
8
0
62
7.0
100
AcDbLine
10
305.9774078318781
20
374.87264403715625
11
325.7763977050781
21
394.67163391045625
0
ARC
5
24D
100
AcDbEntity
8
0
62
7.0
100
AcDbCircle
10
332.4122009277344
20
539.60272521905
40
28.0
50
-135.0
51
-45.0
0
LINE
5
24E
100
AcDbEntity
8
0
62
7.0
100
AcDbLine
10
332.4122009277344
20
539.60272521905
11
352.2111908009344
21
519.80373534575
0
LINE
5
24F
100
AcDbEntity
8
0
62
7.0
100
AcDbLine
10
312.61321105453436
20
519.8037353457499
11
332.4122009277344
21
539.60272521905
0
ARC
5
250
100
AcDbEntity
8
0
62
7.0
100
AcDbCircle
10
322.04858093329375
20
346.5216369628906
40
28.0
50
-45.0
51
45.0
0
LINE
5
251
100
AcDbEntity
8
0
62
7.0
100
AcDbLine
10
322.04858093329375
20
346.5216369628906
11
341.84757080659375
21
366.32062683609064
0
LINE
5
252
100
AcDbEntity
8
0
62
7.0
100
AcDbLine
10
341.84757080659375
20
326.7226470896906
11
322.04858093329375
21
346.5216369628906
0
ARC
5
253
100
AcDbEntity
8
0
62
7.0
100
AcDbCircle
10
316.8500640875906
20
180.7709197998047
40
28.0
50
-45.0
51
45.0
0
LINE
5
254
100
AcDbEntity
8
0
62
7.0
100
AcDbLine
10
316.8500640875906
20
180.7709197998047
11
336.6490539608906
21
200.5699096730047
0
LINE
5
255
100
AcDbEntity
8
0
62
7.0
100
AcDbLine
10
336.6490539608906
20
160.97192992660467
11
316.8500640875906
21
180.7709197998047
0
ARC
5
256
100
AcDbEntity
8
0
62
7.0
100
AcDbCircle
10
310.7185333258719
20
610.4285888671875
40
28.0
50
-45.0
51
45.0
0
LINE
5
257
100
AcDbEntity
8
0
62
7.0
100
AcDbLine
10
310.7185333258719
20
610.4285888671875
11
330.5175231991719
21
630.2275787403875
0
LINE
5
258
100
AcDbEntity
8
0
62
7.0
100
AcDbLine
10
330.5175231991719
20
590.6295989939875
11
310.7185333258719
21
610.4285888671875
0
ARC
5
259
100
AcDbEntity
8
0
62
7.0
100
AcDbCircle
10
322.10387878485625
20
793.4496459960938
40
28.0
50
-45.0
51
45.0
0
LINE
5
25A
100
AcDbEntity
8
0
62
7.0
100
AcDbLine
10
322.10387878485625
20
793.4496459960938
11
341.90286865815625
21
813.2486358692937
0
LINE
5
25B
100
AcDbEntity
8
0
62
7.0
100
AcDbLine
10
341.90286865815625
20
773.6506561228938
11
322.10387878485625
21
793.4496459960938
0
ARC
5
25C
100
AcDbEntity
8
0
62
7.0
100
AcDbCircle
10
353.1851531975656
20
647.0117797851563
40
28.0
50
135.0
51
225.0
0
LINE
5
25D
100
AcDbEntity
8
0
62
7.0
100
AcDbLine
10
353.1851531975656
20
647.0117797851563
11
333.3861633242656
21
627.2127899119563
0
LINE
5
25E
100
AcDbEntity
8
0
62
7.0
100
AcDbLine
10
333.3861633242656
20
666.8107696583562
11
353.1851531975656
21
647.0117797851563
0
ARC
5
25F
100
AcDbEntity
8
0
62
7.0
100
AcDbCircle
10
315.1787384039969
20
221.41943359375
40
28.0
50
-45.0
51
45.0
0
LINE
5
260
100
AcDbEntity
8
0
62
7.0
100
AcDbLine
10
315.1787384039969
20
221.41943359375
11
334.9777282772969
21
241.21842346695001
0
LINE
5
261
100
AcDbEntity
8
0
62
7.0
100
AcDbLine
10
334.9777282772969
20
201.62044372054999
11
315.1787384039969
21
221.41943359375
0
ARC
5
262
100
AcDbEntity
8
0
62
7.0
100
AcDbCircle
10
332.9016387946219
20
593.19970703125
40
28.0
50
-45.0
51
45.0
0
LINE
5
263
100
AcDbEntity
8
0
62
7.0
100
AcDbLine
10
332.9016387946219
20
593.19970703125
11
352.7006286679219
21
612.99869690445
0
LINE
5
264
100
AcDbEntity
8
0
62
7.0
100
AcDbLine
10
352.7006286679219
20
573.40071715805
11
332.9016387946219
21
593.19970703125
0
ARC
5
265
100
AcDbEntity
8
0
62
7.0
100
AcDbCircle
10
325.56860046454375
20
62.94413375854492
40
28.0
50
-45.0
51
45.0
0
LINE
5
266
100
AcDbEntity
8
0
62
7.0
100
AcDbLine
10
325.56860046454375
20
62.94413375854492
11
345.36759033784375
21
82.74312363174492
0
LINE
5
267
100
AcDbEntity
8
0
62
7.0
100
AcDbLine
10
345.36759033784375
20
43.14514388534492
11
325.56860046454375
21
62.94413375854492
0
ARC
5
268
100
AcDbEntity
8
0
62
7.0
100
AcDbCircle
10
337.3841552734375
20
462.8725250250906
40
28.0
50
45.0
51
135.0
0
LINE
5
269
100
AcDbEntity
8
0
62
7.0
100
AcDbLine
10
337.3841552734375
20
462.8725250250906
11
317.5851654002375
21
482.6715148983906
0
LINE
5
26A
100
AcDbEntity
8
0
62
7.0
100
AcDbLine
10
357.1831451466375
20
482.6715148983906
11
337.3841552734375
21
462.8725250250906
0
ARC
5
26B
100
AcDbEntity
8
0
62
7.0
100
AcDbCircle
10
332.3646820075125
20
284.447998046875
40
28.0
50
-45.0
51
45.0
0
LINE
5
26C
100
AcDbEntity
8
0
62
7.0
100
AcDbLine
10
332.3646820075125
20
284.447998046875
11
352.1636718808125
21
304.246987920075
0
LINE
5
26D
100
AcDbEntity
8
0
62
7.0
100
AcDbLine
10
352.1636718808125
20
264.649008173675
11
332.3646820075125
21
284.447998046875
0
ARC
5
26E
100
AcDbEntity
8
0
62
7.0
100
AcDbCircle
10
324.3417327887625
20
396.2790832519531
40
28.0
50
-45.0
51
45.0
0
LINE
5
26F
100
AcDbEntity
8
0
62
7.0
100
AcDbLine
10
324.3417327887625
20
396.2790832519531
11
344.1407226620625
21
416.07807312515314
0
LINE
5
270
100
AcDbEntity
8
0
62
7.0
100
AcDbLine
10
344.1407226620625
20
376.4800933787531
11
324.3417327887625
21
396.2790832519531
0
ARC
5
271
100
AcDbEntity
8
0
62
7.0
100
AcDbCircle
10
330.69207763671875
20
856.077694702825
40
28.0
50
45.0
51
135.0
0
LINE
5
272
100
AcDbEntity
8
0
62
7.0
100
AcDbLine
10
330.69207763671875
20
856.077694702825
11
310.89308776351874
21
875.876684576125
0
LINE
5
273
100
AcDbEntity
8
0
62
7.0
100
AcDbLine
10
350.49106750991876
20
875.876684576125
11
330.69207763671875
21
856.077694702825
0
ARC
5
274
100
AcDbEntity
8
0
62
7.0
100
AcDbCircle
10
329.152890015325
20
848.0167846679688
40
28.0
50
-45.0
51
45.0
0
LINE
5
275
100
AcDbEntity
8
0
62
7.0
100
AcDbLine
10
329.152890015325
20
848.0167846679688
11
348.951879888625
21
867.8157745411687
0
LINE
5
276
100
AcDbEntity
8
0
62
7.0
100
AcDbLine
10
348.951879888625
20
828.2177947947688
11
329.152890015325
21
848.0167846679688
0
ARC
5
277
100
AcDbEntity
8
0
62
7.0
100
AcDbCircle
10
306.609432984075
20
909.8215942382813
40
28.0
50
-45.0
51
45.0
0
LINE
5
278
100
AcDbEntity
8
0
62
7.0
100
AcDbLine
10
306.609432984075
20
909.8215942382813
11
326.408422857375
21
929.6205841114812
0
LINE
5
279
100
AcDbEntity
8
0
62
7.0
100
AcDbLine
10
326.408422857375
20
890.0226043650813
11
306.609432984075
21
909.8215942382813
0
ARC
5
27A
100
AcDbEntity
8
0
62
7.0
100
AcDbCircle
10
347.25360107421875
20
908.908261109075
40
28.0
50
45.0
51
135.0
0
LINE
5
27B
100
AcDbEntity
8
0
62
7.0
100
AcDbLine
10
347.25360107421875
20
908.908261109075
11
327.45461120101874
21
928.707250982375
0
LINE
5
27C
100
AcDbEntity
8
0
62
7.0
100
AcDbLine
10
367.05259094741876
20
928.707250982375
11
347.25360107421875
21
908.908261109075
0
ARC
5
27D
100
AcDbEntity
8
0
62
7.0
100
AcDbCircle
10
336.2109039313406
20
92.21283721923828
40
28.0
50
-45.0
51
45.0
0
LINE
5
27E
100
AcDbEntity
8
0
62
7.0
100
AcDbLine
10
336.2109039313406
20
92.21283721923828
11
356.0098938046406
21
112.01182709243828
0
LINE
5
27F
100
AcDbEntity
8
0
62
7.0
100
AcDbLine
10
356.0098938046406
20
72.41384734603828
11
336.2109039313406
21
92.21283721923828
0
ARC
5
280
100
AcDbEntity
8
0
62
7.0
100
AcDbCircle
10
353.2199401855469
20
516.636172484675
40
28.0
50
-135.0
51
-45.0
0
LINE
5
281
100
AcDbEntity
8
0
62
7.0
100
AcDbLine
10
353.2199401855469
20
516.636172484675
11
373.0189300587469
21
496.837182611375
0
LINE
5
282
100
AcDbEntity
8
0
62
7.0
100
AcDbLine
10
333.42095031234686
20
496.837182611375
11
353.2199401855469
21
516.636172484675
0
ARC
5
283
100
AcDbEntity
8
0
62
7.0
100
AcDbCircle
10
319.00915222235625
20
442.686279296875
40
28.0
50
-45.0
51
45.0
0
LINE
5
284
100
AcDbEntity
8
0
62
7.0
100
AcDbLine
10
319.00915222235625
20
442.686279296875
11
338.80814209565625
21
462.485269170075
0
LINE
5
285
100
AcDbEntity
8
0
62
7.0
100
AcDbLine
10
338.80814209565625
20
422.887289423675
11
319.00915222235625
21
442.686279296875
0
ARC
5
286
100
AcDbEntity
8
0
62
7.0
100
AcDbCircle
10
340.1153839118094
20
420.4172973632813
40
28.0
50
-45.0
51
45.0
0
LINE
5
287
100
AcDbEntity
8
0
62
7.0
100
AcDbLine
10
340.1153839118094
20
420.4172973632813
11
359.9143737851094
21
440.2162872364813
0
LINE
5
288
100
AcDbEntity
8
0
62
7.0
100
AcDbLine
10
359.9143737851094
20
400.6183074900813
11
340.1153839118094
21
420.4172973632813
0
ARC
5
289
100
AcDbEntity
8
0
62
7.0
100
AcDbCircle
10
368.37427062920625
20
203.05165100097656
40
28.0
50
135.0
51
225.0
0
LINE
5
28A
100
AcDbEntity
8
0
62
7.0
100
AcDbLine
10
368.37427062920625
20
203.05165100097656
11
348.57528075590625
21
183.25266112777655
0
LINE
5
28B
100
AcDbEntity
8
0
62
7.0
100
AcDbLine
10
348.57528075590625
20
222.85064087417658
11
368.37427062920625
21
203.05165100097656
0
ARC
5
28C
100
AcDbEntity
8
0
62
7.0
100
AcDbCircle
10
351.4022216796875
20
648.9498870856376
40
28.0
50
45.0
51
135.0
0
LINE
5
28D
100
AcDbEntity
8
0
62
7.0
100
AcDbLine
10
351.4022216796875
20
648.9498870856376
11
331.6032318064875
21
668.7488769589374
0
LINE
5
28E
100
AcDbEntity
8
0
62
7.0
100
AcDbLine
10
371.2012115528875
20
668.7488769589374
11
351.4022216796875
21
648.9498870856376
0
ARC
5
28F
100
AcDbEntity
8
0
62
7.0
100
AcDbCircle
10
347.23004150390625
20
524.9312713629813
40
28.0
50
45.0
51
135.0
0
LINE
5
290
100
AcDbEntity
8
0
62
7.0
100
AcDbLine
10
347.23004150390625
20
524.9312713629813
11
327.43105163070624
21
544.7302612362812
0
LINE
5
291
100
AcDbEntity
8
0
62
7.0
100
AcDbLine
10
367.02903137710626
20
544.7302612362812
11
347.23004150390625
21
524.9312713629813
0
ARC
5
292
100
AcDbEntity
8
0
62
7.0
100
AcDbCircle
10
348.3326110839844
20
701.538632202825
40
28.0
50
45.0
51
135.0
0
LINE
5
293
100
AcDbEntity
8
0
62
7.0
100
AcDbLine
10
348.3326110839844
20
701.538632202825
11
328.53362121078436
21
721.337622076125
0
LINE
5
294
100
AcDbEntity
8
0
62
7.0
100
AcDbLine
10
368.1316009571844
20
721.337622076125
11
348.3326110839844
21
701.538632202825
0
ARC
5
295
100
AcDbEntity
8
0
62
7.0
100
AcDbCircle
10
337.07793884345
20
319.64984130859375
40
28.0
50
-45.0
51
45.0
0
LINE
5
296
100
AcDbEntity
8
0
62
7.0
100
AcDbLine
10
337.07793884345
20
319.64984130859375
11
356.87692871675
21
339.44883118179376
0
LINE
5
297
100
AcDbEntity
8
0
62
7.0
100
AcDbLine
10
356.87692871675
20
299.85085143539374
11
337.07793884345
21
319.64984130859375
0
ARC
5
298
100
AcDbEntity
8
0
62
7.0
100
AcDbCircle
10
353.30145263671875
20
959.2098968512624
40
28.0
50
45.0
51
135.0
0
LINE
5
299
100
AcDbEntity
8
0
62
7.0
100
AcDbLine
10
353.30145263671875
20
959.2098968512624
11
333.50246276351874
21
979.0088867245624
0
LINE
5
29A
100
AcDbEntity
8
0
62
7.0
100
AcDbLine
10
373.10044250991876
20
979.0088867245624
11
353.30145263671875
21
959.2098968512624
0
ARC
5
29B
100
AcDbEntity
8
0
62
7.0
100
AcDbCircle
10
328.9594085700125
20
19.928455352783203
40
28.0
50
-45.0
51
45.0
0
LINE
5
29C
100
AcDbEntity
8
0
62
7.0
100
AcDbLine
10
328.9594085700125
20
19.928455352783203
11
348.7583984433125
21
39.7274452259832
0
LINE
5
29D
100
AcDbEntity
8
0
62
7.0
100
AcDbLine
10
348.7583984433125
20
0.1294654795832031
11
328.9594085700125
21
19.928455352783203
0
ARC
5
29E
100
AcDbEntity
8
0
62
7.0
100
AcDbCircle
10
349.4322174079031
20
690.4744873046875
40
28.0
50
-45.0
51
45.0
0
LINE
5
29F
100
AcDbEntity
8
0
62
7.0
100
AcDbLine
10
349.4322174079031
20
690.4744873046875
11
369.2312072812031
21
710.2734771778875
0
LINE
5
2A0
100
AcDbEntity
8
0
62
7.0
100
AcDbLine
10
369.2312072812031
20
670.6754974314875
11
349.4322174079031
21
690.4744873046875
0
ARC
5
2A1
100
AcDbEntity
8
0
62
7.0
100
AcDbCircle
10
345.58300476141875
20
43.21932220458984
40
28.0
50
-45.0
51
45.0
0
LINE
5
2A2
100
AcDbEntity
8
0
62
7.0
100
AcDbLine
10
345.58300476141875
20
43.21932220458984
11
365.38199463471875
21
63.01831207778984
0
LINE
5
2A3
100
AcDbEntity
8
0
62
7.0
100
AcDbLine
10
365.38199463471875
20
23.420332331389837
11
345.58300476141875
21
43.21932220458984
0
ARC
5
2A4
100
AcDbEntity
8
0
62
7.0
100
AcDbCircle
10
343.4255065917969
20
742.5828826911063
40
28.0
50
45.0
51
135.0
0
LINE
5
2A5
100
AcDbEntity
8
0
62
7.0
100
AcDbLine
10
343.4255065917969
20
742.5828826911063
11
323.62651671859686
21
762.3818725644062
0
LINE
5
2A6
100
AcDbEntity
8
0
62
7.0
100
AcDbLine
10
363.2244964649969
20
762.3818725644062
11
343.4255065917969
21
742.5828826911063
0
ARC
5
2A7
100
AcDbEntity
8
0
62
7.0
100
AcDbCircle
10
353.2911682128906
20
646.7170440667062
40
28.0
50
-135.0
51
-45.0
0
LINE
5
2A8
100
AcDbEntity
8
0
62
7.0
100
AcDbLine
10
353.2911682128906
20
646.7170440667062
11
373.09015808609064
21
626.9180541934063
0
LINE
5
2A9
100
AcDbEntity
8
0
62
7.0
100
AcDbLine
10
333.4921783396906
20
626.9180541934062
11
353.2911682128906
21
646.7170440667062
0
ARC
5
2AA
100
AcDbEntity
8
0
62
7.0
100
AcDbCircle
10
348.4896820075125
20
868.5948486328125
40
28.0
50
-45.0
51
45.0
0
LINE
5
2AB
100
AcDbEntity
8
0
62
7.0
100
AcDbLine
10
348.4896820075125
20
868.5948486328125
11
368.2886718808125
21
888.3938385060125
0
LINE
5
2AC
100
AcDbEntity
8
0
62
7.0
100
AcDbLine
10
368.2886718808125
20
848.7958587596125
11
348.4896820075125
21
868.5948486328125
0
ARC
5
2AD
100
AcDbEntity
8
0
62
7.0
100
AcDbCircle
10
347.32397155829375
20
524.841064453125
40
28.0
50
-45.0
51
45.0
0
LINE
5
2AE
100
AcDbEntity
8
0
62
7.0
100
AcDbLine
10
347.32397155829375
20
524.841064453125
11
367.12296143159375
21
544.640054326325
0
LINE
5
2AF
100
AcDbEntity
8
0
62
7.0
100
AcDbLine
10
367.12296143159375
20
505.042074579925
11
347.32397155829375
21
524.841064453125
0
ARC
5
2B0
100
AcDbEntity
8
0
62
7.0
100
AcDbCircle
10
368.30578918389375
20
242.79815673828125
40
28.0
50
135.0
51
225.0
0
LINE
5
2B1
100
AcDbEntity
8
0
62
7.0
100
AcDbLine
10
368.30578918389375
20
242.79815673828125
11
348.50679931059375
21
222.99916686508124
0
LINE
5
2B2
100
AcDbEntity
8
0
62
7.0
100
AcDbLine
10
348.50679931059375
20
262.59714661148126
11
368.30578918389375
21
242.79815673828125
0
ARC
5
2B3
100
AcDbEntity
8
0
62
7.0
100
AcDbCircle
10
352.2846374511719
20
124.59025268622344
40
28.0
50
45.0
51
135.0
0
LINE
5
2B4
100
AcDbEntity
8
0
62
7.0
100
AcDbLine
10
352.2846374511719
20
124.59025268622344
11
332.48564757797186
21
144.38924255952344
0
LINE
5
2B5
100
AcDbEntity
8
0
62
7.0
100
AcDbLine
10
372.0836273243719
20
144.38924255952344
11
352.2846374511719
21
124.59025268622344
0
ARC
5
2B6
100
AcDbEntity
8
0
62
7.0
100
AcDbCircle
10
358.1436462402344
20
963.86932678155
40
28.0
50
-135.0
51
-45.0
0
LINE
5
2B7
100
AcDbEntity
8
0
62
7.0
100
AcDbLine
10
358.1436462402344
20
963.86932678155
11
377.9426361134344
21
944.07033690825
0
LINE
5
2B8
100
AcDbEntity
8
0
62
7.0
100
AcDbLine
10
338.34465636703436
20
944.0703369082499
11
358.1436462402344
21
963.86932678155
0
ARC
5
2B9
100
AcDbEntity
8
0
62
7.0
100
AcDbCircle
10
345.0394561774344
20
744.0440063476563
40
28.0
50
-45.0
51
45.0
0
LINE
5
2BA
100
AcDbEntity
8
0
62
7.0
100
AcDbLine
10
345.0394561774344
20
744.0440063476563
11
364.8384460507344
21
763.8429962208562
0
LINE
5
2BB
100
AcDbEntity
8
0
62
7.0
100
AcDbLine
10
364.8384460507344
20
724.2450164744563
11
345.0394561774344
21
744.0440063476563
0
ARC
5
2BC
100
AcDbEntity
8
0
62
7.0
100
AcDbCircle
10
347.041561890325
20
564.8379516601563
40
28.0
50
-45.0
51
45.0
0
LINE
5
2BD
100
AcDbEntity
8
0
62
7.0
100
AcDbLine
10
347.041561890325
20
564.8379516601563
11
366.840551763625
21
584.6369415333562
0
LINE
5
2BE
100
AcDbEntity
8
0
62
7.0
100
AcDbLine
10
366.840551763625
20
545.0389617869563
11
347.041561890325
21
564.8379516601563
0
ARC
5
2BF
100
AcDbEntity
8
0
62
7.0
100
AcDbCircle
10
348.6261566168875
20
222.9576873779297
40
28.0
50
-45.0
51
45.0
0
LINE
5
2C0
100
AcDbEntity
8
0
62
7.0
100
AcDbLine
10
348.6261566168875
20
222.9576873779297
11
368.4251464901875
21
242.7566772511297
0
LINE
5
2C1
100
AcDbEntity
8
0
62
7.0
100
AcDbLine
10
368.4251464901875
20
203.15869750472967
11
348.6261566168875
21
222.9576873779297
0
ARC
5
2C2
100
AcDbEntity
8
0
62
7.0
100
AcDbCircle
10
373.2042572014719
20
457.1805114746094
40
28.0
50
135.0
51
225.0
0
LINE
5
2C3
100
AcDbEntity
8
0
62
7.0
100
AcDbLine
10
373.2042572014719
20
457.1805114746094
11
353.4052673281719
21
437.38152160140936
0
LINE
5
2C4
100
AcDbEntity
8
0
62
7.0
100
AcDbLine
10
353.4052673281719
20
476.9795013478094
11
373.2042572014719
21
457.1805114746094
0
ARC
5
2C5
100
AcDbEntity
8
0
62
7.0
100
AcDbCircle
10
349.66332702704375
20
261.8431396484375
40
28.0
50
-45.0
51
45.0
0
LINE
5
2C6
100
AcDbEntity
8
0
62
7.0
100
AcDbLine
10
349.66332702704375
20
261.8431396484375
11
369.46231690034375
21
281.6421295216375
0
LINE
5
2C7
100
AcDbEntity
8
0
62
7.0
100
AcDbLine
10
369.46231690034375
20
242.04414977523749
11
349.66332702704375
21
261.8431396484375
0
ARC
5
2C8
100
AcDbEntity
8
0
62
7.0
100
AcDbCircle
10
367.2466094977469
20
544.837890625
40
28.0
50
-45.0
51
45.0
0
LINE
5
2C9
100
AcDbEntity
8
0
62
7.0
100
AcDbLine
10
367.2466094977469
20
544.837890625
11
387.0455993710469
21
564.6368804982
0
LINE
5
2CA
100
AcDbEntity
8
0
62
7.0
100
AcDbLine
10
387.0455993710469
20
525.0389007518
11
367.2466094977469
21
544.837890625
0
ARC
5
2CB
100
AcDbEntity
8
0
62
7.0
100
AcDbCircle
10
356.55352783203125
20
180.7313110344797
40
28.0
50
-135.0
51
-45.0
0
LINE
5
2CC
100
AcDbEntity
8
0
62
7.0
100
AcDbLine
10
356.55352783203125
20
180.7313110344797
11
376.35251770523126
21
160.9323211611797
0
LINE
5
2CD
100
AcDbEntity
8
0
62
7.0
100
AcDbLine
10
336.75453795883124
20
160.9323211611797
11
356.55352783203125
21
180.7313110344797
0
ARC
5
2CE
100
AcDbEntity
8
0
62
7.0
100
AcDbCircle
10
359.6214599609375
20
348.86144714423125
40
28.0
50
45.0
51
135.0
0
LINE
5
2CF
100
AcDbEntity
8
0
62
7.0
100
AcDbLine
10
359.6214599609375
20
348.86144714423125
11
339.8224700877375
21
368.66043701753125
0
LINE
5
2D0
100
AcDbEntity
8
0
62
7.0
100
AcDbLine
10
379.4204498341375
20
368.66043701753125
11
359.6214599609375
21
348.86144714423125
0
ARC
5
2D1
100
AcDbEntity
8
0
62
7.0
100
AcDbCircle
10
342.9833038336844
20
812.26708984375
40
28.0
50
-45.0
51
45.0
0
LINE
5
2D2
100
AcDbEntity
8
0
62
7.0
100
AcDbLine
10
342.9833038336844
20
812.26708984375
11
362.7822937069844
21
832.06607971695
0
LINE
5
2D3
100
AcDbEntity
8
0
62
7.0
100
AcDbLine
10
362.7822937069844
20
792.46809997055
11
342.9833038336844
21
812.26708984375
0
ARC
5
2D4
100
AcDbEntity
8
0
62
7.0
100
AcDbCircle
10
390.27991027764375
20
77.04524993896484
40
28.0
50
135.0
51
225.0
0
LINE
5
2D5
100
AcDbEntity
8
0
62
7.0
100
AcDbLine
10
390.27991027764375
20
77.04524993896484
11
370.48092040434375
21
57.246260065764844
0
LINE
5
2D6
100
AcDbEntity
8
0
62
7.0
100
AcDbLine
10
370.48092040434375
20
96.84423981216484
11
390.27991027764375
21
77.04524993896484
0
ARC
5
2D7
100
AcDbEntity
8
0
62
7.0
100
AcDbCircle
10
353.65099792548125
20
393.0959167480469
40
28.0
50
-45.0
51
45.0
0
LINE
5
2D8
100
AcDbEntity
8
0
62
7.0
100
AcDbLine
10
353.65099792548125
20
393.0959167480469
11
373.44998779878125
21
412.8949066212469
0
LINE
5
2D9
100
AcDbEntity
8
0
62
7.0
100
AcDbLine
10
373.44998779878125
20
373.29692687484686
11
353.65099792548125
21
393.0959167480469
0
ARC
5
2DA
100
AcDbEntity
8
0
62
7.0
100
AcDbCircle
10
348.1620147711844
20
120.17523193359376
40
28.0
50
-45.0
51
45.0
0
LINE
5
2DB
100
AcDbEntity
8
0
62
7.0
100
AcDbLine
10
348.1620147711844
20
120.17523193359376
11
367.9610046444844
21
139.97422180679376
0
LINE
5
2DC
100
AcDbEntity
8
0
62
7.0
100
AcDbLine
10
367.9610046444844
20
100.37624206039376
11
348.1620147711844
21
120.17523193359376
0
ARC
5
2DD
100
AcDbEntity
8
0
62
7.0
100
AcDbCircle
10
364.9683532714844
20
794.49237365655
40
28.0
50
-135.0
51
-45.0
0
LINE
5
2DE
100
AcDbEntity
8
0
62
7.0
100
AcDbLine
10
364.9683532714844
20
794.49237365655
11
384.7673431446844
21
774.69338378325
0
LINE
5
2DF
100
AcDbEntity
8
0
62
7.0
100
AcDbLine
10
345.16936339828436
20
774.6933837832499
11
364.9683532714844
21
794.49237365655
0
ARC
5
2E0
100
AcDbEntity
8
0
62
7.0
100
AcDbCircle
10
390.8103668206125
20
300.0544738769531
40
28.0
50
135.0
51
225.0
0
LINE
5
2E1
100
AcDbEntity
8
0
62
7.0
100
AcDbLine
10
390.8103668206125
20
300.0544738769531
11
371.0113769473125
21
280.2554840037531
0
LINE
5
2E2
100
AcDbEntity
8
0
62
7.0
100
AcDbLine
10
371.0113769473125
20
319.85346375015314
11
390.8103668206125
21
300.0544738769531
0
ARC
5
2E3
100
AcDbEntity
8
0
62
7.0
100
AcDbCircle
10
351.55260925360625
20
648.7909545898438
40
28.0
50
-45.0
51
45.0
0
LINE
5
2E4
100
AcDbEntity
8
0
62
7.0
100
AcDbLine
10
351.55260925360625
20
648.7909545898438
11
371.35159912690625
21
668.5899444630437
0
LINE
5
2E5
100
AcDbEntity
8
0
62
7.0
100
AcDbLine
10
371.35159912690625
20
628.9919647166438
11
351.55260925360625
21
648.7909545898438
0
ARC
5
2E6
100
AcDbEntity
8
0
62
7.0
100
AcDbCircle
10
396.3201019280344
20
829.4165649414063
40
28.0
50
135.0
51
225.0
0
LINE
5
2E7
100
AcDbEntity
8
0
62
7.0
100
AcDbLine
10
396.3201019280344
20
829.4165649414063
11
376.5211120547344
21
809.6175750682063
0
LINE
5
2E8
100
AcDbEntity
8
0
62
7.0
100
AcDbLine
10
376.5211120547344
20
849.2155548146062
11
396.3201019280344
21
829.4165649414063
0
ARC
5
2E9
100
AcDbEntity
8
0
62
7.0
100
AcDbCircle
10
374.4441833496094
20
28.06819839409883
40
28.0
50
-135.0
51
-45.0
0
LINE
5
2EA
100
AcDbEntity
8
0
62
7.0
100
AcDbLine
10
374.4441833496094
20
28.06819839409883
11
394.2431732228094
21
8.26920852079883
0
LINE
5
2EB
100
AcDbEntity
8
0
62
7.0
100
AcDbLine
10
354.64519347640936
20
8.269208520798824
11
374.4441833496094
21
28.06819839409883
0
ARC
5
2EC
100
AcDbEntity
8
0
62
7.0
100
AcDbCircle
10
146.01046752929688
20
958.8737152106377
40
28.0
50
45.0
51
135.0
0
LINE
5
2ED
100
AcDbEntity
8
0
62
7.0
100
AcDbLine
10
146.01046752929688
20
958.8737152106377
11
126.21147765609687
21
978.6727050839377
0
LINE
5
2EE
100
AcDbEntity
8
0
62
7.0
100
AcDbLine
10
165.8094574024969
20
978.6727050839377
11
146.01046752929688
21
958.8737152106377
0
ARC
5
2EF
100
AcDbEntity
8
0
62
7.0
100
AcDbCircle
10
389.98401184014375
20
600.8308715820313
40
28.0
50
135.0
51
225.0
0
LINE
5
2F0
100
AcDbEntity
8
0
62
7.0
100
AcDbLine
10
389.98401184014375
20
600.8308715820313
11
370.18502196684375
21
581.0318817088313
0
LINE
5
2F1
100
AcDbEntity
8
0
62
7.0
100
AcDbLine
10
370.18502196684375
20
620.6298614552312
11
389.98401184014375
21
600.8308715820313
0
ARC
5
2F2
100
AcDbEntity
8
0
62
7.0
100
AcDbCircle
10
391.5903350823313
20
185.6090850830078
40
28.0
50
135.0
51
225.0
0
LINE
5
2F3
100
AcDbEntity
8
0
62
7.0
100
AcDbLine
10
391.5903350823313
20
185.6090850830078
11
371.7913452090313
21
165.8100952098078
0
LINE
5
2F4
100
AcDbEntity
8
0
62
7.0
100
AcDbLine
10
371.7913452090313
20
205.40807495620783
11
391.5903350823313
21
185.6090850830078
0
ARC
5
2F5
100
AcDbEntity
8
0
62
7.0
100
AcDbCircle
10
373.3704833984375
20
362.3088104241281
40
28.0
50
-135.0
51
-45.0
0
LINE
5
2F6
100
AcDbEntity
8
0
62
7.0
100
AcDbLine
10
373.3704833984375
20
362.3088104241281
11
393.1694732716375
21
342.5098205508281
0
LINE
5
2F7
100
AcDbEntity
8
0
62
7.0
100
AcDbLine
10
353.5714935252375
20
342.5098205508281
11
373.3704833984375
21
362.3088104241281
0
ARC
5
2F8
100
AcDbEntity
8
0
62
7.0
100
AcDbCircle
10
50.104488372802734
20
52.933384705266405
40
28.0
50
45.0
51
135.0
0
LINE
5
2F9
100
AcDbEntity
8
0
62
7.0
100
AcDbLine
10
50.104488372802734
20
52.933384705266405
11
30.305498499602734
21
72.73237457856641
0
LINE
5
2FA
100
AcDbEntity
8
0
62
7.0
100
AcDbLine
10
69.90347824600273
20
72.73237457856641
11
50.104488372802734
21
52.933384705266405
0
ARC
5
2FB
100
AcDbEntity
8
0
62
7.0
100
AcDbCircle
10
47.276061248102735
20
50.104957580566406
40
28.0
50
135.0
51
225.0
0
LINE
5
2FC
100
AcDbEntity
8
0
62
7.0
100
AcDbLine
10
47.276061248102735
20
50.104957580566406
11
27.477071374802733
21
30.305967707366406
0
LINE
5
2FD
100
AcDbEntity
8
0
62
7.0
100
AcDbLine
10
27.477071374802733
20
69.9039474537664
11
47.276061248102735
21
50.104957580566406
0
ARC
5
2FE
100
AcDbEntity
8
0
62
7.0
100
AcDbCircle
10
50.104488372802734
20
47.27653045586641
40
28.0
50
225.0
51
315.0
0
LINE
5
2FF
100
AcDbEntity
8
0
62
7.0
100
AcDbLine
10
50.104488372802734
20
47.27653045586641
11
69.90347824600273
21
27.4775405825664
0
LINE
5
300
100
AcDbEntity
8
0
62
7.0
100
AcDbLine
10
30.30549849960273
20
27.47754058256641
11
50.104488372802734
21
47.27653045586641
0
ARC
5
301
100
AcDbEntity
8
0
62
7.0
100
AcDbCircle
10
52.932915497502734
20
50.104957580566406
40
28.0
50
315.0
51
405.0
0
LINE
5
302
100
AcDbEntity
8
0
62
7.0
100
AcDbLine
10
52.932915497502734
20
50.104957580566406
11
72.73190537080274
21
69.9039474537664
0
LINE
5
303
100
AcDbEntity
8
0
62
7.0
100
AcDbLine
10
72.73190537080274
20
30.305967707366403
11
52.932915497502734
21
50.104957580566406
0
ARC
5
304
100
AcDbEntity
8
0
62
7.0
100
AcDbCircle
10
47.275294493952345
20
150.20838928222656
40
28.0
50
135.0
51
225.0
0
LINE
5
305
100
AcDbEntity
8
0
62
7.0
100
AcDbLine
10
47.275294493952345
20
150.20838928222656
11
27.476304620652343
21
130.40939940902655
0
LINE
5
306
100
AcDbEntity
8
0
62
7.0
100
AcDbLine
10
27.476304620652343
20
170.00737915542658
11
47.275294493952345
21
150.20838928222656
0
ARC
5
307
100
AcDbEntity
8
0
62
7.0
100
AcDbCircle
10
50.103721618652344
20
147.37996215752656
40
28.0
50
225.0
51
315.0
0
LINE
5
308
100
AcDbEntity
8
0
62
7.0
100
AcDbLine
10
50.103721618652344
20
147.37996215752656
11
69.90271149185234
21
127.58097228422656
0
LINE
5
309
100
AcDbEntity
8
0
62
7.0
100
AcDbLine
10
30.30473174545234
20
127.58097228422656
11
50.103721618652344
21
147.37996215752656
0
ARC
5
30A
100
AcDbEntity
8
0
62
7.0
100
AcDbCircle
10
52.93214874335234
20
150.20838928222656
40
28.0
50
315.0
51
405.0
0
LINE
5
30B
100
AcDbEntity
8
0
62
7.0
100
AcDbLine
10
52.93214874335234
20
150.20838928222656
11
72.73113861665234
21
170.00737915542655
0
LINE
5
30C
100
AcDbEntity
8
0
62
7.0
100
AcDbLine
10
72.73113861665234
20
130.40939940902655
11
52.93214874335234
21
150.20838928222656
0
ARC
5
30D
100
AcDbEntity
8
0
62
7.0
100
AcDbCircle
10
50.103721618652344
20
153.03681640692656
40
28.0
50
405.0
51
495.0
0
LINE
5
30E
100
AcDbEntity
8
0
62
7.0
100
AcDbLine
10
50.103721618652344
20
153.03681640692656
11
30.30473174545235
21
172.83580628022656
0
LINE
5
30F
100
AcDbEntity
8
0
62
7.0
100
AcDbLine
10
69.90271149185236
20
172.83580628022656
11
50.103721618652344
21
153.03681640692656
0
ARC
5
310
100
AcDbEntity
8
0
62
7.0
100
AcDbCircle
10
52.93083648749297
20
250.3203582763672
40
28.0
50
-45.0
51
45.0
0
LINE
5
311
100
AcDbEntity
8
0
62
7.0
100
AcDbLine
10
52.93083648749297
20
250.3203582763672
11
72.72982636079297
21
270.1193481495672
0
LINE
5
312
100
AcDbEntity
8
0
62
7.0
100
AcDbLine
10
72.72982636079297
20
230.52136840316717
11
52.93083648749297
21
250.3203582763672
0
ARC
5
313
100
AcDbEntity
8
0
62
7.0
100
AcDbCircle
10
50.10240936279297
20
253.1487854010672
40
28.0
50
45.0
51
135.0
0
LINE
5
314
100
AcDbEntity
8
0
62
7.0
100
AcDbLine
10
50.10240936279297
20
253.1487854010672
11
30.30341948959297
21
272.9477752743672
0
LINE
5
315
100
AcDbEntity
8
0
62
7.0
100
AcDbLine
10
69.90139923599297
20
272.9477752743672
11
50.10240936279297
21
253.1487854010672
0
ARC
5
316
100
AcDbEntity
8
0
62
7.0
100
AcDbCircle
10
47.27398223809297
20
250.3203582763672
40
28.0
50
135.0
51
225.0
0
LINE
5
317
100
AcDbEntity
8
0
62
7.0
100
AcDbLine
10
47.27398223809297
20
250.3203582763672
11
27.474992364792968
21
230.52136840316717
0
LINE
5
318
100
AcDbEntity
8
0
62
7.0
100
AcDbLine
10
27.474992364792968
20
270.1193481495672
11
47.27398223809297
21
250.3203582763672
0
ARC
5
319
100
AcDbEntity
8
0
62
7.0
100
AcDbCircle
10
50.10240936279297
20
247.4919311516672
40
28.0
50
225.0
51
315.0
0
LINE
5
31A
100
AcDbEntity
8
0
62
7.0
100
AcDbLine
10
50.10240936279297
20
247.4919311516672
11
69.90139923599297
21
227.6929412783672
0
LINE
5
31B
100
AcDbEntity
8
0
62
7.0
100
AcDbLine
10
30.303419489592965
20
227.6929412783672
11
50.10240936279297
21
247.4919311516672
0
ARC
5
31C
100
AcDbEntity
8
0
62
7.0
100
AcDbCircle
10
50.101104736328125
20
353.2684906012625
40
28.0
50
45.0
51
135.0
0
LINE
5
31D
100
AcDbEntity
8
0
62
7.0
100
AcDbLine
10
50.101104736328125
20
353.2684906012625
11
30.302114863128125
21
373.0674804745625
0
LINE
5
31E
100
AcDbEntity
8
0
62
7.0
100
AcDbLine
10
69.90009460952813
20
373.0674804745625
11
50.101104736328125
21
353.2684906012625
0
ARC
5
31F
100
AcDbEntity
8
0
62
7.0
100
AcDbCircle
10
47.272677611628126
20
350.4400634765625
40
28.0
50
135.0
51
225.0
0
LINE
5
320
100
AcDbEntity
8
0
62
7.0
100
AcDbLine
10
47.272677611628126
20
350.4400634765625
11
27.473687738328124
21
330.6410736033625
0
LINE
5
321
100
AcDbEntity
8
0
62
7.0
100
AcDbLine
10
27.473687738328124
20
370.2390533497625
11
47.272677611628126
21
350.4400634765625
0
ARC
5
322
100
AcDbEntity
8
0
62
7.0
100
AcDbCircle
10
50.101104736328125
20
347.6116363518625
40
28.0
50
225.0
51
315.0
0
LINE
5
323
100
AcDbEntity
8
0
62
7.0
100
AcDbLine
10
50.101104736328125
20
347.6116363518625
11
69.90009460952813
21
327.8126464785625
0
LINE
5
324
100
AcDbEntity
8
0
62
7.0
100
AcDbLine
10
30.30211486312812
20
327.8126464785625
11
50.101104736328125
21
347.6116363518625
0
ARC
5
325
100
AcDbEntity
8
0
62
7.0
100
AcDbCircle
10
52.929531861028124
20
350.4400634765625
40
28.0
50
315.0
51
405.0
0
LINE
5
326
100
AcDbEntity
8
0
62
7.0
100
AcDbLine
10
52.929531861028124
20
350.4400634765625
11
72.72852173432813
21
370.2390533497625
0
LINE
5
327
100
AcDbEntity
8
0
62
7.0
100
AcDbLine
10
72.72852173432813
20
330.6410736033625
11
52.929531861028124
21
350.4400634765625
0
ARC
5
328
100
AcDbEntity
8
0
62
7.0
100
AcDbCircle
10
47.281459044733595
20
450.5438537597656
40
28.0
50
135.0
51
225.0
0
LINE
5
329
100
AcDbEntity
8
0
62
7.0
100
AcDbLine
10
47.281459044733595
20
450.5438537597656
11
27.482469171433593
21
430.7448638865656
0
LINE
5
32A
100
AcDbEntity
8
0
62
7.0
100
AcDbLine
10
27.482469171433593
20
470.34284363296564
11
47.281459044733595
21
450.5438537597656
0
ARC
5
32B
100
AcDbEntity
8
0
62
7.0
100
AcDbCircle
10
50.109886169433594
20
447.7154266350656
40
28.0
50
225.0
51
315.0
0
LINE
5
32C
100
AcDbEntity
8
0
62
7.0
100
AcDbLine
10
50.109886169433594
20
447.7154266350656
11
69.9088760426336
21
427.9164367617656
0
LINE
5
32D
100
AcDbEntity
8
0
62
7.0
100
AcDbLine
10
30.31089629623359
20
427.9164367617656
11
50.109886169433594
21
447.7154266350656
0
ARC
5
32E
100
AcDbEntity
8
0
62
7.0
100
AcDbCircle
10
52.93831329413359
20
450.5438537597656
40
28.0
50
315.0
51
405.0
0
LINE
5
32F
100
AcDbEntity
8
0
62
7.0
100
AcDbLine
10
52.93831329413359
20
450.5438537597656
11
72.7373031674336
21
470.34284363296564
0
LINE
5
330
100
AcDbEntity
8
0
62
7.0
100
AcDbLine
10
72.7373031674336
20
430.7448638865656
11
52.93831329413359
21
450.5438537597656
0
ARC
5
331
100
AcDbEntity
8
0
62
7.0
100
AcDbCircle
10
50.109886169433594
20
453.3722808844656
40
28.0
50
405.0
51
495.0
0
LINE
5
332
100
AcDbEntity
8
0
62
7.0
100
AcDbLine
10
50.109886169433594
20
453.3722808844656
11
30.3108962962336
21
473.1712707577656
0
LINE
5
333
100
AcDbEntity
8
0
62
7.0
100
AcDbLine
10
69.90887604263361
20
473.1712707577656
11
50.109886169433594
21
453.3722808844656
0
ARC
5
334
100
AcDbEntity
8
0
62
7.0
100
AcDbCircle
10
50.11005783081055
20
547.8420440667062
40
28.0
50
-135.0
51
-45.0
0
LINE
5
335
100
AcDbEntity
8
0
62
7.0
100
AcDbLine
10
50.11005783081055
20
547.8420440667062
11
69.90904770401055
21
528.0430541934063
0
LINE
5
336
100
AcDbEntity
8
0
62
7.0
100
AcDbLine
10
30.31106795761055
20
528.0430541934062
11
50.11005783081055
21
547.8420440667062
0
ARC
5
337
100
AcDbEntity
8
0
62
7.0
100
AcDbCircle
10
52.938484955510546
20
550.6704711914063
40
28.0
50
-45.0
51
45.0
0
LINE
5
338
100
AcDbEntity
8
0
62
7.0
100
AcDbLine
10
52.938484955510546
20
550.6704711914063
11
72.73747482881055
21
570.4694610646062
0
LINE
5
339
100
AcDbEntity
8
0
62
7.0
100
AcDbLine
10
72.73747482881055
20
530.8714813182063
11
52.938484955510546
21
550.6704711914063
0
ARC
5
33A
100
AcDbEntity
8
0
62
7.0
100
AcDbCircle
10
50.11005783081055
20
553.4988983161063
40
28.0
50
45.0
51
135.0
0
LINE
5
33B
100
AcDbEntity
8
0
62
7.0
100
AcDbLine
10
50.11005783081055
20
553.4988983161063
11
30.311067957610547
21
573.2978881894062
0
LINE
5
33C
100
AcDbEntity
8
0
62
7.0
100
AcDbLine
10
69.90904770401055
20
573.2978881894062
11
50.11005783081055
21
553.4988983161063
0
ARC
5
33D
100
AcDbEntity
8
0
62
7.0
100
AcDbCircle
10
47.28163070611055
20
550.6704711914063
40
28.0
50
135.0
51
225.0
0
LINE
5
33E
100
AcDbEntity
8
0
62
7.0
100
AcDbLine
10
47.28163070611055
20
550.6704711914063
11
27.482640832810546
21
530.8714813182063
0
LINE
5
33F
100
AcDbEntity
8
0
62
7.0
100
AcDbLine
10
27.482640832810546
20
570.4694610646062
11
47.28163070611055
21
550.6704711914063
0
ARC
5
340
100
AcDbEntity
8
0
62
7.0
100
AcDbCircle
10
47.27507324151094
20
650.773193359375
40
28.0
50
135.0
51
225.0
0
LINE
5
341
100
AcDbEntity
8
0
62
7.0
100
AcDbLine
10
47.27507324151094
20
650.773193359375
11
27.476083368210936
21
630.974203486175
0
LINE
5
342
100
AcDbEntity
8
0
62
7.0
100
AcDbLine
10
27.476083368210936
20
670.572183232575
11
47.27507324151094
21
650.773193359375
0
ARC
5
343
100
AcDbEntity
8
0
62
7.0
100
AcDbCircle
10
50.10350036621094
20
647.944766234675
40
28.0
50
225.0
51
315.0
0
LINE
5
344
100
AcDbEntity
8
0
62
7.0
100
AcDbLine
10
50.10350036621094
20
647.944766234675
11
69.90249023941094
21
628.1457763613749
0
LINE
5
345
100
AcDbEntity
8
0
62
7.0
100
AcDbLine
10
30.304510493010934
20
628.145776361375
11
50.10350036621094
21
647.944766234675
0
ARC
5
346
100
AcDbEntity
8
0
62
7.0
100
AcDbCircle
10
52.93192749091094
20
650.773193359375
40
28.0
50
315.0
51
405.0
0
LINE
5
347
100
AcDbEntity
8
0
62
7.0
100
AcDbLine
10
52.93192749091094
20
650.773193359375
11
72.73091736421094
21
670.572183232575
0
LINE
5
348
100
AcDbEntity
8
0
62
7.0
100
AcDbLine
10
72.73091736421094
20
630.974203486175
11
52.93192749091094
21
650.773193359375
0
ARC
5
349
100
AcDbEntity
8
0
62
7.0
100
AcDbCircle
10
50.10350036621094
20
653.601620484075
40
28.0
50
405.0
51
495.0
0
LINE
5
34A
100
AcDbEntity
8
0
62
7.0
100
AcDbLine
10
50.10350036621094
20
653.601620484075
11
30.304510493010945
21
673.4006103573751
0
LINE
5
34B
100
AcDbEntity
8
0
62
7.0
100
AcDbLine
10
69.90249023941095
20
673.400610357375
11
50.10350036621094
21
653.601620484075
0
ARC
5
34C
100
AcDbEntity
8
0
62
7.0
100
AcDbCircle
10
50.10456466674805
20
748.045840453425
40
28.0
50
-135.0
51
-45.0
0
LINE
5
34D
100
AcDbEntity
8
0
62
7.0
100
AcDbLine
10
50.10456466674805
20
748.045840453425
11
69.90355453994805
21
728.246850580125
0
LINE
5
34E
100
AcDbEntity
8
0
62
7.0
100
AcDbLine
10
30.30557479354805
20
728.2468505801249
11
50.10456466674805
21
748.045840453425
0
ARC
5
34F
100
AcDbEntity
8
0
62
7.0
100
AcDbCircle
10
52.932991791448046
20
750.874267578125
40
28.0
50
-45.0
51
45.0
0
LINE
5
350
100
AcDbEntity
8
0
62
7.0
100
AcDbLine
10
52.932991791448046
20
750.874267578125
11
72.73198166474805
21
770.673257451325
0
LINE
5
351
100
AcDbEntity
8
0
62
7.0
100
AcDbLine
10
72.73198166474805
20
731.075277704925
11
52.932991791448046
21
750.874267578125
0
ARC
5
352
100
AcDbEntity
8
0
62
7.0
100
AcDbCircle
10
50.10456466674805
20
753.702694702825
40
28.0
50
45.0
51
135.0
0
LINE
5
353
100
AcDbEntity
8
0
62
7.0
100
AcDbLine
10
50.10456466674805
20
753.702694702825
11
30.305574793548047
21
773.501684576125
0
LINE
5
354
100
AcDbEntity
8
0
62
7.0
100
AcDbLine
10
69.90355453994805
20
773.501684576125
11
50.10456466674805
21
753.702694702825
0
ARC
5
355
100
AcDbEntity
8
0
62
7.0
100
AcDbCircle
10
47.27613754204805
20
750.874267578125
40
28.0
50
135.0
51
225.0
0
LINE
5
356
100
AcDbEntity
8
0
62
7.0
100
AcDbLine
10
47.27613754204805
20
750.874267578125
11
27.477147668748046
21
731.075277704925
0
LINE
5
357
100
AcDbEntity
8
0
62
7.0
100
AcDbLine
10
27.477147668748046
20
770.673257451325
11
47.27613754204805
21
750.874267578125
0
ARC
5
358
100
AcDbEntity
8
0
62
7.0
100
AcDbCircle
10
47.276358794489454
20
850.9822387695313
40
28.0
50
135.0
51
225.0
0
LINE
5
359
100
AcDbEntity
8
0
62
7.0
100
AcDbLine
10
47.276358794489454
20
850.9822387695313
11
27.477368921189452
21
831.1832488963313
0
LINE
5
35A
100
AcDbEntity
8
0
62
7.0
100
AcDbLine
10
27.477368921189452
20
870.7812286427312
11
47.276358794489454
21
850.9822387695313
0
ARC
5
35B
100
AcDbEntity
8
0
62
7.0
100
AcDbCircle
10
50.10478591918945
20
848.1538116448312
40
28.0
50
225.0
51
315.0
0
LINE
5
35C
100
AcDbEntity
8
0
62
7.0
100
AcDbLine
10
50.10478591918945
20
848.1538116448312
11
69.90377579238945
21
828.3548217715312
0
LINE
5
35D
100
AcDbEntity
8
0
62
7.0
100
AcDbLine
10
30.30579604598945
20
828.3548217715313
11
50.10478591918945
21
848.1538116448312
0
ARC
5
35E
100
AcDbEntity
8
0
62
7.0
100
AcDbCircle
10
52.93321304388945
20
850.9822387695313
40
28.0
50
315.0
51
405.0
0
LINE
5
35F
100
AcDbEntity
8
0
62
7.0
100
AcDbLine
10
52.93321304388945
20
850.9822387695313
11
72.73220291718945
21
870.7812286427312
0
LINE
5
360
100
AcDbEntity
8
0
62
7.0
100
AcDbLine
10
72.73220291718945
20
831.1832488963313
11
52.93321304388945
21
850.9822387695313
0
ARC
5
361
100
AcDbEntity
8
0
62
7.0
100
AcDbCircle
10
50.10478591918945
20
853.8106658942313
40
28.0
50
405.0
51
495.0
0
LINE
5
362
100
AcDbEntity
8
0
62
7.0
100
AcDbLine
10
50.10478591918945
20
853.8106658942313
11
30.30579604598946
21
873.6096557675313
0
LINE
5
363
100
AcDbEntity
8
0
62
7.0
100
AcDbLine
10
69.90377579238947
20
873.6096557675312
11
50.10478591918945
21
853.8106658942313
0
ARC
5
364
100
AcDbEntity
8
0
62
7.0
100
AcDbCircle
10
150.2059326171875
20
47.33851165703828
40
28.0
50
-135.0
51
-45.0
0
LINE
5
365
100
AcDbEntity
8
0
62
7.0
100
AcDbLine
10
150.2059326171875
20
47.33851165703828
11
170.00492249038751
21
27.539521783738284
0
LINE
5
366
100
AcDbEntity
8
0
62
7.0
100
AcDbLine
10
130.4069427439875
20
27.539521783738277
11
150.2059326171875
21
47.33851165703828
0
ARC
5
367
100
AcDbEntity
8
0
62
7.0
100
AcDbCircle
10
153.0343597418875
20
50.16693878173828
40
28.0
50
-45.0
51
45.0
0
LINE
5
368
100
AcDbEntity
8
0
62
7.0
100
AcDbLine
10
153.0343597418875
20
50.16693878173828
11
172.8333496151875
21
69.96592865493828
0
LINE
5
369
100
AcDbEntity
8
0
62
7.0
100
AcDbLine
10
172.8333496151875
20
30.36794890853828
11
153.0343597418875
21
50.16693878173828
0
ARC
5
36A
100
AcDbEntity
8
0
62
7.0
100
AcDbCircle
10
150.2059326171875
20
52.99536590643828
40
28.0
50
45.0
51
135.0
0
LINE
5
36B
100
AcDbEntity
8
0
62
7.0
100
AcDbLine
10
150.2059326171875
20
52.99536590643828
11
130.40694274398749
21
72.79435577973828
0
LINE
5
36C
100
AcDbEntity
8
0
62
7.0
100
AcDbLine
10
170.00492249038751
20
72.79435577973828
11
150.2059326171875
21
52.99536590643828
0
ARC
5
36D
100
AcDbEntity
8
0
62
7.0
100
AcDbCircle
10
147.3775054924875
20
50.16693878173828
40
28.0
50
135.0
51
225.0
0
LINE
5
36E
100
AcDbEntity
8
0
62
7.0
100
AcDbLine
10
147.3775054924875
20
50.16693878173828
11
127.5785156191875
21
30.36794890853828
0
LINE
5
36F
100
AcDbEntity
8
0
62
7.0
100
AcDbLine
10
127.5785156191875
20
69.96592865493828
11
147.3775054924875
21
50.16693878173828
0
ARC
5
370
100
AcDbEntity
8
0
62
7.0
100
AcDbCircle
10
153.03539733954375
20
150.2781219482422
40
28.0
50
-45.0
51
45.0
0
LINE
5
371
100
AcDbEntity
8
0
62
7.0
100
AcDbLine
10
153.03539733954375
20
150.2781219482422
11
172.83438721284375
21
170.0771118214422
0
LINE
5
372
100
AcDbEntity
8
0
62
7.0
100
AcDbLine
10
172.83438721284375
20
130.47913207504217
11
153.03539733954375
21
150.2781219482422
0
ARC
5
373
100
AcDbEntity
8
0
62
7.0
100
AcDbCircle
10
150.20697021484375
20
153.1065490729422
40
28.0
50
45.0
51
135.0
0
LINE
5
374
100
AcDbEntity
8
0
62
7.0
100
AcDbLine
10
150.20697021484375
20
153.1065490729422
11
130.40798034164374
21
172.9055389462422
0
LINE
5
375
100
AcDbEntity
8
0
62
7.0
100
AcDbLine
10
170.00596008804376
20
172.9055389462422
11
150.20697021484375
21
153.1065490729422
0
ARC
5
376
100
AcDbEntity
8
0
62
7.0
100
AcDbCircle
10
147.37854309014375
20
150.2781219482422
40
28.0
50
135.0
51
225.0
0
LINE
5
377
100
AcDbEntity
8
0
62
7.0
100
AcDbLine
10
147.37854309014375
20
150.2781219482422
11
127.57955321684375
21
130.47913207504217
0
LINE
5
378
100
AcDbEntity
8
0
62
7.0
100
AcDbLine
10
127.57955321684375
20
170.0771118214422
11
147.37854309014375
21
150.2781219482422
0
ARC
5
379
100
AcDbEntity
8
0
62
7.0
100
AcDbCircle
10
150.20697021484375
20
147.4496948235422
40
28.0
50
225.0
51
315.0
0
LINE
5
37A
100
AcDbEntity
8
0
62
7.0
100
AcDbLine
10
150.20697021484375
20
147.4496948235422
11
170.00596008804374
21
127.65070495024219
0
LINE
5
37B
100
AcDbEntity
8
0
62
7.0
100
AcDbLine
10
130.40798034164374
20
127.65070495024219
11
150.20697021484375
21
147.4496948235422
0
ARC
5
37C
100
AcDbEntity
8
0
62
7.0
100
AcDbCircle
10
153.03095703192656
20
250.4093017578125
40
28.0
50
-45.0
51
45.0
0
LINE
5
37D
100
AcDbEntity
8
0
62
7.0
100
AcDbLine
10
153.03095703192656
20
250.4093017578125
11
172.82994690522656
21
270.2082916310125
0
LINE
5
37E
100
AcDbEntity
8
0
62
7.0
100
AcDbLine
10
172.82994690522656
20
230.61031188461249
11
153.03095703192656
21
250.4093017578125
0
ARC
5
37F
100
AcDbEntity
8
0
62
7.0
100
AcDbCircle
10
150.20252990722656
20
253.2377288825125
40
28.0
50
45.0
51
135.0
0
LINE
5
380
100
AcDbEntity
8
0
62
7.0
100
AcDbLine
10
150.20252990722656
20
253.2377288825125
11
130.40354003402655
21
273.0367187558125
0
LINE
5
381
100
AcDbEntity
8
0
62
7.0
100
AcDbLine
10
170.00151978042658
20
273.0367187558125
11
150.20252990722656
21
253.2377288825125
0
ARC
5
382
100
AcDbEntity
8
0
62
7.0
100
AcDbCircle
10
147.37410278252656
20
250.4093017578125
40
28.0
50
135.0
51
225.0
0
LINE
5
383
100
AcDbEntity
8
0
62
7.0
100
AcDbLine
10
147.37410278252656
20
250.4093017578125
11
127.57511290922656
21
230.61031188461249
0
LINE
5
384
100
AcDbEntity
8
0
62
7.0
100
AcDbLine
10
127.57511290922656
20
270.2082916310125
11
147.37410278252656
21
250.4093017578125
0
ARC
5
385
100
AcDbEntity
8
0
62
7.0
100
AcDbCircle
10
150.20252990722656
20
247.5808746331125
40
28.0
50
225.0
51
315.0
0
LINE
5
386
100
AcDbEntity
8
0
62
7.0
100
AcDbLine
10
150.20252990722656
20
247.5808746331125
11
170.00151978042655
21
227.7818847598125
0
LINE
5
387
100
AcDbEntity
8
0
62
7.0
100
AcDbLine
10
130.40354003402655
20
227.7818847598125
11
150.20252990722656
21
247.5808746331125
0
ARC
5
388
100
AcDbEntity
8
0
62
7.0
100
AcDbCircle
10
147.3821899407297
20
350.5129699707031
40
28.0
50
135.0
51
225.0
0
LINE
5
389
100
AcDbEntity
8
0
62
7.0
100
AcDbLine
10
147.3821899407297
20
350.5129699707031
11
127.58320006742969
21
330.7139800975031
0
LINE
5
38A
100
AcDbEntity
8
0
62
7.0
100
AcDbLine
10
127.58320006742969
20
370.31195984390314
11
147.3821899407297
21
350.5129699707031
0
ARC
5
38B
100
AcDbEntity
8
0
62
7.0
100
AcDbCircle
10
150.2106170654297
20
347.6845428460031
40
28.0
50
225.0
51
315.0
0
LINE
5
38C
100
AcDbEntity
8
0
62
7.0
100
AcDbLine
10
150.2106170654297
20
347.6845428460031
11
170.00960693862967
21
327.8855529727031
0
LINE
5
38D
100
AcDbEntity
8
0
62
7.0
100
AcDbLine
10
130.41162719222967
20
327.8855529727031
11
150.2106170654297
21
347.6845428460031
0
ARC
5
38E
100
AcDbEntity
8
0
62
7.0
100
AcDbCircle
10
153.0390441901297
20
350.5129699707031
40
28.0
50
315.0
51
405.0
0
LINE
5
38F
100
AcDbEntity
8
0
62
7.0
100
AcDbLine
10
153.0390441901297
20
350.5129699707031
11
172.8380340634297
21
370.31195984390314
0
LINE
5
390
100
AcDbEntity
8
0
62
7.0
100
AcDbLine
10
172.8380340634297
20
330.7139800975031
11
153.0390441901297
21
350.5129699707031
0
ARC
5
391
100
AcDbEntity
8
0
62
7.0
100
AcDbCircle
10
150.2106170654297
20
353.3413970954031
40
28.0
50
405.0
51
495.0
0
LINE
5
392
100
AcDbEntity
8
0
62
7.0
100
AcDbLine
10
150.2106170654297
20
353.3413970954031
11
130.4116271922297
21
373.1403869687031
0
LINE
5
393
100
AcDbEntity
8
0
62
7.0
100
AcDbLine
10
170.0096069386297
20
373.1403869687031
11
150.2106170654297
21
353.3413970954031
0
ARC
5
394
100
AcDbEntity
8
0
62
7.0
100
AcDbCircle
10
147.3868286126047
20
450.6139831542969
40
28.0
50
135.0
51
225.0
0
LINE
5
395
100
AcDbEntity
8
0
62
7.0
100
AcDbLine
10
147.3868286126047
20
450.6139831542969
11
127.58783873930469
21
430.81499328109686
0
LINE
5
396
100
AcDbEntity
8
0
62
7.0
100
AcDbLine
10
127.58783873930469
20
470.4129730274969
11
147.3868286126047
21
450.6139831542969
0
ARC
5
397
100
AcDbEntity
8
0
62
7.0
100
AcDbCircle
10
150.2152557373047
20
447.7855560295969
40
28.0
50
225.0
51
315.0
0
LINE
5
398
100
AcDbEntity
8
0
62
7.0
100
AcDbLine
10
150.2152557373047
20
447.7855560295969
11
170.01424561050467
21
427.9865661562969
0
LINE
5
399
100
AcDbEntity
8
0
62
7.0
100
AcDbLine
10
130.41626586410467
20
427.9865661562969
11
150.2152557373047
21
447.7855560295969
0
ARC
5
39A
100
AcDbEntity
8
0
62
7.0
100
AcDbCircle
10
153.0436828620047
20
450.6139831542969
40
28.0
50
315.0
51
405.0
0
LINE
5
39B
100
AcDbEntity
8
0
62
7.0
100
AcDbLine
10
153.0436828620047
20
450.6139831542969
11
172.8426727353047
21
470.4129730274969
0
LINE
5
39C
100
AcDbEntity
8
0
62
7.0
100
AcDbLine
10
172.8426727353047
20
430.81499328109686
11
153.0436828620047
21
450.6139831542969
0
ARC
5
39D
100
AcDbEntity
8
0
62
7.0
100
AcDbCircle
10
150.2152557373047
20
453.4424102789969
40
28.0
50
405.0
51
495.0
0
LINE
5
39E
100
AcDbEntity
8
0
62
7.0
100
AcDbLine
10
150.2152557373047
20
453.4424102789969
11
130.4162658641047
21
473.2414001522969
0
LINE
5
39F
100
AcDbEntity
8
0
62
7.0
100
AcDbLine
10
170.0142456105047
20
473.2414001522969
11
150.2152557373047
21
453.4424102789969
0
ARC
5
3A0
100
AcDbEntity
8
0
62
7.0
100
AcDbCircle
10
153.04040222235625
20
550.7537841796875
40
28.0
50
-45.0
51
45.0
0
LINE
5
3A1
100
AcDbEntity
8
0
62
7.0
100
AcDbLine
10
153.04040222235625
20
550.7537841796875
11
172.83939209565625
21
570.5527740528875
0
LINE
5
3A2
100
AcDbEntity
8
0
62
7.0
100
AcDbLine
10
172.83939209565625
20
530.9547943064875
11
153.04040222235625
21
550.7537841796875
0
ARC
5
3A3
100
AcDbEntity
8
0
62
7.0
100
AcDbCircle
10
150.21197509765625
20
553.5822113043876
40
28.0
50
45.0
51
135.0
0
LINE
5
3A4
100
AcDbEntity
8
0
62
7.0
100
AcDbLine
10
150.21197509765625
20
553.5822113043876
11
130.41298522445624
21
573.3812011776874
0
LINE
5
3A5
100
AcDbEntity
8
0
62
7.0
100
AcDbLine
10
170.01096497085626
20
573.3812011776874
11
150.21197509765625
21
553.5822113043876
0
ARC
5
3A6
100
AcDbEntity
8
0
62
7.0
100
AcDbCircle
10
147.38354797295625
20
550.7537841796875
40
28.0
50
135.0
51
225.0
0
LINE
5
3A7
100
AcDbEntity
8
0
62
7.0
100
AcDbLine
10
147.38354797295625
20
550.7537841796875
11
127.58455809965625
21
530.9547943064875
0
LINE
5
3A8
100
AcDbEntity
8
0
62
7.0
100
AcDbLine
10
127.58455809965625
20
570.5527740528875
11
147.38354797295625
21
550.7537841796875
0
ARC
5
3A9
100
AcDbEntity
8
0
62
7.0
100
AcDbCircle
10
150.21197509765625
20
547.9253570549874
40
28.0
50
225.0
51
315.0
0
LINE
5
3AA
100
AcDbEntity
8
0
62
7.0
100
AcDbLine
10
150.21197509765625
20
547.9253570549874
11
170.01096497085624
21
528.1263671816874
0
LINE
5
3AB
100
AcDbEntity
8
0
62
7.0
100
AcDbLine
10
130.41298522445624
20
528.1263671816876
11
150.21197509765625
21
547.9253570549874
0
ARC
5
3AC
100
AcDbEntity
8
0
62
7.0
100
AcDbCircle
10
147.37712402276094
20
650.8574829101563
40
28.0
50
135.0
51
225.0
0
LINE
5
3AD
100
AcDbEntity
8
0
62
7.0
100
AcDbLine
10
147.37712402276094
20
650.8574829101563
11
127.57813414946094
21
631.0584930369563
0
LINE
5
3AE
100
AcDbEntity
8
0
62
7.0
100
AcDbLine
10
127.57813414946094
20
670.6564727833562
11
147.37712402276094
21
650.8574829101563
0
ARC
5
3AF
100
AcDbEntity
8
0
62
7.0
100
AcDbCircle
10
150.20555114746094
20
648.0290557854562
40
28.0
50
225.0
51
315.0
0
LINE
5
3B0
100
AcDbEntity
8
0
62
7.0
100
AcDbLine
10
150.20555114746094
20
648.0290557854562
11
170.00454102066092
21
628.2300659121562
0
LINE
5
3B1
100
AcDbEntity
8
0
62
7.0
100
AcDbLine
10
130.40656127426092
20
628.2300659121563
11
150.20555114746094
21
648.0290557854562
0
ARC
5
3B2
100
AcDbEntity
8
0
62
7.0
100
AcDbCircle
10
153.03397827216094
20
650.8574829101563
40
28.0
50
315.0
51
405.0
0
LINE
5
3B3
100
AcDbEntity
8
0
62
7.0
100
AcDbLine
10
153.03397827216094
20
650.8574829101563
11
172.83296814546094
21
670.6564727833562
0
LINE
5
3B4
100
AcDbEntity
8
0
62
7.0
100
AcDbLine
10
172.83296814546094
20
631.0584930369563
11
153.03397827216094
21
650.8574829101563
0
ARC
5
3B5
100
AcDbEntity
8
0
62
7.0
100
AcDbCircle
10
150.20555114746094
20
653.6859100348563
40
28.0
50
405.0
51
495.0
0
LINE
5
3B6
100
AcDbEntity
8
0
62
7.0
100
AcDbLine
10
150.20555114746094
20
653.6859100348563
11
130.40656127426095
21
673.4848999081563
0
LINE
5
3B7
100
AcDbEntity
8
0
62
7.0
100
AcDbLine
10
170.00454102066095
20
673.4848999081562
11
150.20555114746094
21
653.6859100348563
0
ARC
5
3B8
100
AcDbEntity
8
0
62
7.0
100
AcDbCircle
10
150.20510864257813
20
748.129824828425
40
28.0
50
-135.0
51
-45.0
0
LINE
5
3B9
100
AcDbEntity
8
0
62
7.0
100
AcDbLine
10
150.20510864257813
20
748.129824828425
11
170.00409851577814
21
728.330834955125
0
LINE
5
3BA
100
AcDbEntity
8
0
62
7.0
100
AcDbLine
10
130.40611876937814
20
728.3308349551249
11
150.20510864257813
21
748.129824828425
0
ARC
5
3BB
100
AcDbEntity
8
0
62
7.0
100
AcDbCircle
10
153.03353576727812
20
750.958251953125
40
28.0
50
-45.0
51
45.0
0
LINE
5
3BC
100
AcDbEntity
8
0
62
7.0
100
AcDbLine
10
153.03353576727812
20
750.958251953125
11
172.83252564057813
21
770.757241826325
0
LINE
5
3BD
100
AcDbEntity
8
0
62
7.0
100
AcDbLine
10
172.83252564057813
20
731.159262079925
11
153.03353576727812
21
750.958251953125
0
ARC
5
3BE
100
AcDbEntity
8
0
62
7.0
100
AcDbCircle
10
150.20510864257813
20
753.786679077825
40
28.0
50
45.0
51
135.0
0
LINE
5
3BF
100
AcDbEntity
8
0
62
7.0
100
AcDbLine
10
150.20510864257813
20
753.786679077825
11
130.4061187693781
21
773.585668951125
0
LINE
5
3C0
100
AcDbEntity
8
0
62
7.0
100
AcDbLine
10
170.00409851577814
20
773.585668951125
11
150.20510864257813
21
753.786679077825
0
ARC
5
3C1
100
AcDbEntity
8
0
62
7.0
100
AcDbCircle
10
147.37668151787813
20
750.958251953125
40
28.0
50
135.0
51
225.0
0
LINE
5
3C2
100
AcDbEntity
8
0
62
7.0
100
AcDbLine
10
147.37668151787813
20
750.958251953125
11
127.57769164457812
21
731.159262079925
0
LINE
5
3C3
100
AcDbEntity
8
0
62
7.0
100
AcDbLine
10
127.57769164457812
20
770.757241826325
11
147.37668151787813
21
750.958251953125
0
ARC
5
3C4
100
AcDbEntity
8
0
62
7.0
100
AcDbCircle
10
153.0335052497
20
851.061767578125
40
28.0
50
-45.0
51
45.0
0
LINE
5
3C5
100
AcDbEntity
8
0
62
7.0
100
AcDbLine
10
153.0335052497
20
851.061767578125
11
172.832495123
21
870.860757451325
0
LINE
5
3C6
100
AcDbEntity
8
0
62
7.0
100
AcDbLine
10
172.832495123
20
831.262777704925
11
153.0335052497
21
851.061767578125
0
ARC
5
3C7
100
AcDbEntity
8
0
62
7.0
100
AcDbCircle
10
150.205078125
20
853.890194702825
40
28.0
50
45.0
51
135.0
0
LINE
5
3C8
100
AcDbEntity
8
0
62
7.0
100
AcDbLine
10
150.205078125
20
853.890194702825
11
130.40608825179999
21
873.689184576125
0
LINE
5
3C9
100
AcDbEntity
8
0
62
7.0
100
AcDbLine
10
170.00406799820001
20
873.689184576125
11
150.205078125
21
853.890194702825
0
ARC
5
3CA
100
AcDbEntity
8
0
62
7.0
100
AcDbCircle
10
147.3766510003
20
851.061767578125
40
28.0
50
135.0
51
225.0
0
LINE
5
3CB
100
AcDbEntity
8
0
62
7.0
100
AcDbLine
10
147.3766510003
20
851.061767578125
11
127.577661127
21
831.262777704925
0
LINE
5
3CC
100
AcDbEntity
8
0
62
7.0
100
AcDbLine
10
127.577661127
20
870.860757451325
11
147.3766510003
21
851.061767578125
0
ARC
5
3CD
100
AcDbEntity
8
0
62
7.0
100
AcDbCircle
10
150.205078125
20
848.233340453425
40
28.0
50
225.0
51
315.0
0
LINE
5
3CE
100
AcDbEntity
8
0
62
7.0
100
AcDbLine
10
150.205078125
20
848.233340453425
11
170.0040679982
21
828.4343505801249
0
LINE
5
3CF
100
AcDbEntity
8
0
62
7.0
100
AcDbLine
10
130.40608825179999
20
828.434350580125
11
150.205078125
21
848.233340453425
0
ARC
5
3D0
100
AcDbEntity
8
0
62
7.0
100
AcDbCircle
10
250.31005859375
20
48.05275649956758
40
28.0
50
-135.0
51
-45.0
0
LINE
5
3D1
100
AcDbEntity
8
0
62
7.0
100
AcDbLine
10
250.31005859375
20
48.05275649956758
11
270.10904846695
21
28.25376662626758
0
LINE
5
3D2
100
AcDbEntity
8
0
62
7.0
100
AcDbLine
10
230.51106872055
20
28.253766626267574
11
250.31005859375
21
48.05275649956758
0
ARC
5
3D3
100
AcDbEntity
8
0
62
7.0
100
AcDbCircle
10
253.13848571845
20
50.88118362426758
40
28.0
50
-45.0
51
45.0
0
LINE
5
3D4
100
AcDbEntity
8
0
62
7.0
100
AcDbLine
10
253.13848571845
20
50.88118362426758
11
272.93747559175
21
70.68017349746758
0
LINE
5
3D5
100
AcDbEntity
8
0
62
7.0
100
AcDbLine
10
272.93747559175
20
31.082193751067578
11
253.13848571845
21
50.88118362426758
0
ARC
5
3D6
100
AcDbEntity
8
0
62
7.0
100
AcDbCircle
10
250.31005859375
20
53.70961074896758
40
28.0
50
45.0
51
135.0
0
LINE
5
3D7
100
AcDbEntity
8
0
62
7.0
100
AcDbLine
10
250.31005859375
20
53.70961074896758
11
230.51106872054999
21
73.50860062226758
0
LINE
5
3D8
100
AcDbEntity
8
0
62
7.0
100
AcDbLine
10
270.10904846695
20
73.50860062226758
11
250.31005859375
21
53.70961074896758
0
ARC
5
3D9
100
AcDbEntity
8
0
62
7.0
100
AcDbCircle
10
247.48163146905
20
50.88118362426758
40
28.0
50
135.0
51
225.0
0
LINE
5
3DA
100
AcDbEntity
8
0
62
7.0
100
AcDbLine
10
247.48163146905
20
50.88118362426758
11
227.68264159575
21
31.082193751067578
0
LINE
5
3DB
100
AcDbEntity
8
0
62
7.0
100
AcDbLine
10
227.68264159575
20
70.68017349746758
11
247.48163146905
21
50.88118362426758
0
LWPOLYLINE
5
3DC
100
AcDbEntity
8
BIN_BOUNDARY
100
AcDbPolyline
90
4.0
70
1.0
10
0.0
20
0.0
10
1000.0
20
0.0
10
1000.0
20
1000.0
10
0.0
20
1000.0
0
ENDSEC
0
EOF
